<?xml version="1.0" encoding="utf-8"?>
<!-- Generator: Adobe Illustrator 16.0.3, SVG Export Plug-In . SVG Version: 6.00 Build 0)  -->
<!DOCTYPE svg PUBLIC "-//W3C//DTD SVG 1.1//EN" "http://www.w3.org/Graphics/SVG/1.1/DTD/svg11.dtd">
<svg version="1.1" id="Layer_1" xmlns="http://www.w3.org/2000/svg" xmlns:xlink="http://www.w3.org/1999/xlink" x="0px" y="0px"
	 width="233.898px" height="129.661px" viewBox="0 0 233.898 129.661" enable-background="new 0 0 233.898 129.661"
	 xml:space="preserve">
<g>
	<g>
		<defs>
			<rect id="SVGID_1_" x="30.272" y="38.065" width="178.201" height="56.324"/>
		</defs>
		<clipPath id="SVGID_2_">
			<use xlink:href="#SVGID_1_"  overflow="visible"/>
		</clipPath>
		<path clip-path="url(#SVGID_2_)" fill="#68AFA2" d="M52.279,42.459l-0.176,0.034l-0.165-0.03l0,0l-8.158,13.929h15.775
			c0.093-0.337,0.242-0.642,0.46-0.903L52.279,42.459z"/>
		<path clip-path="url(#SVGID_2_)" fill="#68AFA2" d="M42.411,59.07l-7.962,13.588c0.139,0.244,0.225,0.509,0.261,0.804h15.846
			c0.022-0.122,0.029-0.248,0.075-0.352l-2.008-3.428L42.411,59.07z"/>
	</g>
	<polygon fill="#68AFA2" points="59.877,58.288 44.172,58.288 52.114,71.846 60.01,58.479 60.013,58.479 	"/>
	<g>
		<defs>
			<rect id="SVGID_3_" x="30.272" y="38.065" width="178.201" height="56.324"/>
		</defs>
		<clipPath id="SVGID_4_">
			<use xlink:href="#SVGID_3_"  overflow="visible"/>
		</clipPath>
		<path clip-path="url(#SVGID_4_)" fill="#68AFA2" d="M68.571,74.678L53.66,74.696l6.35,11.327l1.122,1.999
			c0.245-0.072,0.483-0.146,0.748-0.146c0.152,0,0.289,0.06,0.43,0.082l0.007-0.002H62.31l4.947-8.509l2.082-3.584
			C68.985,75.54,68.73,75.132,68.571,74.678"/>
		<path clip-path="url(#SVGID_4_)" fill="#68AFA2" d="M61.965,59.337l-0.119,0.025l-0.116-0.025l-7.939,13.438h14.779
			c0.152-0.446,0.394-0.856,0.735-1.175l-4.346-7.258L61.965,59.337L61.965,59.337z"/>
		<path clip-path="url(#SVGID_4_)" fill="#68AFA2" d="M57.763,47.93l3.98,6.704l0.103-0.02l0.099,0.02l7.936-13.406H54.113
			c-0.05,0.096-0.119,0.169-0.175,0.258L57.763,47.93z"/>
	</g>
	<g>
		<defs>
			<path id="SVGID_5_" d="M54.113,41.229c-0.05,0.093-0.119,0.169-0.175,0.258l3.826,6.443l3.98,6.708l0.103-0.023l0.099,0.023
				l7.936-13.41H54.113z"/>
		</defs>
		<clipPath id="SVGID_6_">
			<use xlink:href="#SVGID_5_"  overflow="visible"/>
		</clipPath>
		<rect x="44.664" y="62.541" clip-path="url(#SVGID_6_)" fill="#F5F5F5" width="18.205" height="15.526"/>
	</g>
	<g>
		<defs>
			<rect id="SVGID_7_" x="30.272" y="38.065" width="178.201" height="56.324"/>
		</defs>
		<clipPath id="SVGID_8_">
			<use xlink:href="#SVGID_7_"  overflow="visible"/>
		</clipPath>
		<path clip-path="url(#SVGID_8_)" fill="#68AFA2" d="M50.059,75.358H34.492l6.883,11.596c0.334-0.094,0.678-0.159,1.046-0.159
			c0.34,0,0.671,0.056,0.989,0.146L50.059,75.358z"/>
		<path clip-path="url(#SVGID_8_)" fill="#68AFA2" d="M52.047,75.745L45.092,87.86c0.529,0.514,0.91,1.165,1.078,1.903l13.32-0.241
			c0.04-0.094,0.089-0.176,0.136-0.266L52.047,75.745z"/>
		<path clip-path="url(#SVGID_8_)" fill="#68AFA2" d="M71.542,42.195l-7.876,13.293c0.139,0.162,0.274,0.327,0.367,0.53
			l15.388,0.009L71.542,42.195z"/>
		<path clip-path="url(#SVGID_8_)" fill="#68AFA2" d="M52.104,42.493l0.176-0.034l0.01-0.003c0.337-0.03,0.646-0.136,0.923-0.292
			l0.046-0.033c0.269-0.162,0.496-0.381,0.672-0.646h0.007c0.056-0.089,0.125-0.166,0.175-0.258
			c0.039-0.076,0.062-0.159,0.089-0.241c0.076-0.225,0.142-0.457,0.142-0.708c0-1.221-1.002-2.214-2.241-2.214
			c-1.244,0-2.25,0.993-2.25,2.214c0,0.301,0.062,0.58,0.172,0.834c0.076,0.192,0.208,0.351,0.331,0.513l0.113,0.156
			c0.368,0.387,0.87,0.625,1.439,0.675l0.03,0.003L52.104,42.493z"/>
		<path clip-path="url(#SVGID_8_)" fill="#68AFA2" d="M71.695,41.586c0.724,0,1.321-0.589,1.321-1.3
			c0-0.725-0.597-1.304-1.321-1.304c-0.731,0-1.324,0.579-1.324,1.304C70.371,40.997,70.963,41.586,71.695,41.586"/>
		<path clip-path="url(#SVGID_8_)" fill="#68AFA2" d="M81.043,55.684c-0.724,0-1.32,0.586-1.32,1.308c0,0.717,0.596,1.3,1.32,1.3
			c0.731,0,1.324-0.583,1.324-1.3C82.367,56.27,81.774,55.684,81.043,55.684"/>
		<path clip-path="url(#SVGID_8_)" fill="#68AFA2" d="M63.667,55.489c-0.208-0.252-0.457-0.447-0.751-0.595l-0.007-0.011
			c-0.294-0.141-0.615-0.234-0.963-0.248l-0.099-0.02l-0.103,0.02l-0.003,0.004c-0.351,0.017-0.668,0.103-0.963,0.244l-0.006,0.011
			c-0.295,0.148-0.542,0.35-0.751,0.595h-0.003c-0.218,0.261-0.368,0.565-0.46,0.9c-0.049,0.195-0.119,0.39-0.119,0.603
			c0,0.261,0.069,0.5,0.149,0.738c0.069,0.202,0.169,0.377,0.288,0.549l0.003,0.01l0.136,0.192l0,0
			c0.205,0.246,0.446,0.44,0.738,0.59l0.02,0.019c0.294,0.145,0.608,0.232,0.953,0.249l0.007,0.007l0.116,0.019l0.119-0.025
			l0.03-0.003c0.334-0.023,0.652-0.112,0.937-0.262l0.029-0.014c0.285-0.152,0.53-0.356,0.735-0.609
			c0.129-0.162,0.271-0.324,0.357-0.519c0.126-0.291,0.199-0.606,0.199-0.939c0-0.347-0.086-0.672-0.219-0.973l0,0
			C63.941,55.815,63.806,55.651,63.667,55.489"/>
		<path clip-path="url(#SVGID_8_)" fill="#68AFA2" d="M41.832,58.292c0.731,0,1.324-0.579,1.324-1.3s-0.593-1.308-1.324-1.308
			c-0.728,0-1.317,0.586-1.317,1.308S41.104,58.292,41.832,58.292"/>
		<path clip-path="url(#SVGID_8_)" fill="#68AFA2" d="M50.502,73.729c0,0.867,0.715,1.575,1.608,1.575
			c0.884,0,1.599-0.708,1.599-1.575c0-0.88-0.715-1.589-1.599-1.589c-0.202,0-0.39,0.047-0.566,0.112l-0.148,0.077
			c-0.123,0.057-0.238,0.132-0.338,0.218l-0.119,0.106c-0.125,0.136-0.235,0.285-0.308,0.449c-0.046,0.11-0.053,0.236-0.075,0.358
			C50.538,73.55,50.502,73.63,50.502,73.729"/>
		<path clip-path="url(#SVGID_8_)" fill="#68AFA2" d="M71.361,70.781l-0.199,0.04c-0.715,0.049-1.366,0.323-1.856,0.78
			c-0.342,0.318-0.583,0.722-0.735,1.175l-0.003,0.004c-0.106,0.3-0.195,0.609-0.195,0.942c0,0.338,0.089,0.648,0.198,0.956
			c0.159,0.454,0.41,0.861,0.768,1.186h0.003c0.265,0.244,0.566,0.447,0.911,0.579c0.347,0.139,0.715,0.222,1.109,0.222
			c1.644,0,2.981-1.316,2.981-2.942c0-0.366-0.086-0.708-0.208-1.036c-0.063-0.169-0.162-0.3-0.255-0.445
			c-0.08-0.129-0.155-0.253-0.249-0.365c-0.162-0.186-0.344-0.347-0.546-0.49L72.956,71.3c-0.249-0.166-0.509-0.285-0.797-0.36
			h-0.007C71.894,70.863,71.643,70.781,71.361,70.781"/>
		<path clip-path="url(#SVGID_8_)" fill="#68AFA2" d="M34.71,73.461c-0.036-0.295-0.122-0.56-0.261-0.804
			c-0.156-0.271-0.361-0.497-0.612-0.682c-0.1-0.07-0.196-0.141-0.298-0.199c-0.093-0.047-0.179-0.082-0.275-0.122
			c-0.238-0.077-0.486-0.146-0.748-0.146c-1.241,0-2.244,0.992-2.244,2.213c0,1.225,1.003,2.214,2.244,2.214
			c1.245,0,2.247-0.989,2.247-2.214C34.763,73.633,34.724,73.557,34.71,73.461"/>
		<path clip-path="url(#SVGID_8_)" fill="#68AFA2" d="M61.879,87.876c-0.265,0-0.502,0.073-0.748,0.146
			c-0.659,0.202-1.191,0.64-1.509,1.234c-0.043,0.09-0.092,0.172-0.132,0.266c-0.103,0.274-0.179,0.569-0.179,0.883
			c0,1.399,1.148,2.534,2.568,2.534c1.42,0,2.568-1.135,2.568-2.534c0-0.325-0.073-0.632-0.188-0.916
			c-0.073-0.183-0.188-0.332-0.301-0.487c-0.053-0.072-0.096-0.162-0.159-0.234c-0.182-0.202-0.394-0.37-0.642-0.514L63.15,88.25
			c-0.258-0.147-0.532-0.241-0.833-0.291h-0.003C62.168,87.936,62.032,87.876,61.879,87.876"/>
		<path clip-path="url(#SVGID_8_)" fill="#68AFA2" d="M44.347,87.321l-0.073-0.04c-0.271-0.145-0.559-0.258-0.864-0.341
			c-0.317-0.09-0.649-0.146-0.989-0.146c-0.368,0-0.712,0.065-1.05,0.159c-0.791,0.222-1.476,0.682-1.972,1.3l-0.053,0.069
			c-0.225,0.295-0.407,0.613-0.533,0.967l-0.056,0.172c-0.116,0.36-0.192,0.738-0.192,1.132c0,2.095,1.725,3.796,3.856,3.796
			c2.124,0,3.852-1.701,3.852-3.796c0-0.284-0.04-0.565-0.103-0.83c-0.168-0.738-0.549-1.39-1.078-1.903
			C44.87,87.655,44.615,87.479,44.347,87.321"/>
		<path clip-path="url(#SVGID_8_)" fill="#68AFA2" d="M74.964,65.899l-2.815,5.041c-0.252-0.077-0.506-0.159-0.788-0.159
			l-0.199,0.04L63.696,58.45c0.129-0.162,0.271-0.324,0.357-0.519l15.362,0.01l-0.401,0.712 M74.964,65.899l4.051-7.247"/>
		<path clip-path="url(#SVGID_8_)" fill="#68AFA2" d="M121.938,77.975v2.681c0,0.586-0.197,0.949-0.957,0.949h-14.849
			c-0.762,0-0.961-0.363-0.961-0.949V61.05c0-0.588,0.199-0.942,0.961-0.942h14.287c0.764,0,0.957,0.354,0.957,0.942v2.719
			c0,0.585-0.193,0.946-0.957,0.946H110.41v3.558h8.882c0.758,0,0.957,0.363,0.957,0.945v2.549c0,0.593-0.199,0.952-0.957,0.952
			h-8.882v4.31h10.572C121.741,77.029,121.938,77.392,121.938,77.975"/>
		<path clip-path="url(#SVGID_8_)" fill="#68AFA2" d="M143.323,81.605h-3.914c-0.799,0-1.188-0.295-1.654-0.981l-3.58-5.266
			c-0.297-0.388-0.369-0.745-0.369-1.659v-2.617c0-0.585,0.201-0.95,0.961-0.95h0.664c1.627,0,3.152-1.108,3.152-2.641
			c0-1.7-1.33-2.775-3.045-2.775h-4.416v15.94c0,0.755-0.363,0.949-0.959,0.949h-3.281c-0.596,0-0.928-0.194-0.928-0.949V61.087
			c0-0.586,0.162-0.949,0.928-0.949h8.352c3.613,0,5.203,0.718,6.596,2.095c1.227,1.171,1.922,3.034,1.922,5.126
			c0,3.432-2.553,5.817-4.609,6.503l4.674,6.691C144.118,81.017,143.948,81.605,143.323,81.605"/>
		<path clip-path="url(#SVGID_8_)" fill="#68AFA2" d="M164.196,61.05v2.686c0,0.588-0.195,0.945-0.955,0.945h-10.008v3.816h8.615
			c0.756,0,0.961,0.363,0.961,0.952v2.585c0,0.583-0.205,0.946-0.961,0.946h-8.615v7.643c0,0.844-0.203,0.981-0.963,0.981h-3.279
			c-0.768,0-0.969-0.363-0.969-0.949V61.05c0-0.588,0.201-0.945,0.969-0.945h14.25C164.001,60.105,164.196,60.462,164.196,61.05"/>
		<path clip-path="url(#SVGID_8_)" fill="#68AFA2" d="M177.226,73.468l-2.486-7.222l-2.482,7.222H177.226z M184.446,81.605h-3.477
			c-0.734,0-0.996-0.194-1.264-0.981l-0.928-2.578h-8.113l-0.932,2.578c-0.264,0.787-0.527,0.981-1.258,0.981h-3.479
			c-0.729,0-0.729-0.526-0.566-0.92l7.359-19.564c0.27-0.688,0.627-1.013,1.359-1.013h3.182c0.73,0,1.057,0.324,1.355,1.013
			l7.322,19.564C185.179,81.079,185.179,81.605,184.446,81.605"/>
		<path clip-path="url(#SVGID_8_)" fill="#68AFA2" d="M208.474,61.022v19.634c0,0.755-0.359,0.949-0.963,0.949h-3.184
			c-0.592,0-0.955-0.194-0.955-0.949V69.583l-3.316,5.712c-0.164,0.265-0.463,0.688-0.961,0.688h-1.654
			c-0.5,0-0.762-0.424-0.93-0.688l-3.348-5.712v11.073c0,0.755-0.363,0.949-0.961,0.949h-3.279c-0.598,0-0.959-0.194-0.959-0.949
			V61.022c0-0.59,0.199-0.946,0.959-0.946h3.279c1.125,0,1.258,0.717,1.525,1.108l4.541,8.034l4.574-8.034
			c0.23-0.392,0.393-1.108,1.484-1.108h3.184C208.276,60.076,208.474,60.432,208.474,61.022"/>
		<path clip-path="url(#SVGID_8_)" fill="#68AFA2" d="M94.658,77.213H84.118l6.579-12.078h3.439c1.694,0,2.703,0.351,2.703,1.8
			c0,1.254-0.816,1.926-2.703,1.926h-0.428c-0.75,0-0.942,0.354-0.942,0.934v2.439c0,0.581,0.192,0.93,0.942,0.93h0.749
			c1.565,0,2.707,0.45,2.707,1.962C97.164,76.572,96.252,77.213,94.658,77.213 M99.343,70.816c0.295-0.124,2.387-1.15,2.387-4.396
			c0-2.182-1.198-4.232-3.855-5.21c-1.022-0.384-2.264-0.604-3.739-0.604H88.05l-5.98,10.867l-5.662,10.305h18.186
			c4.53,0,7.752-2.091,7.752-6.168C102.345,72.137,99.609,70.919,99.343,70.816"/>
	</g>
</g>
</svg>
