<?xml version="1.0" encoding="utf-8"?>
<!-- Generator: Adobe Illustrator 16.0.3, SVG Export Plug-In . SVG Version: 6.00 Build 0)  -->
<!DOCTYPE svg PUBLIC "-//W3C//DTD SVG 1.1//EN" "http://www.w3.org/Graphics/SVG/1.1/DTD/svg11.dtd">
<svg version="1.1" id="Layer_1" xmlns="http://www.w3.org/2000/svg" xmlns:xlink="http://www.w3.org/1999/xlink" x="0px" y="0px"
	 width="30px" height="23.74px" viewBox="0 0 30 23.74" style="enable-background:new 0 0 30 23.74;" xml:space="preserve">
<g>
	<path style="fill:#B1965C;" d="M0,4.86l0.64,0.28l0.8-1.67L0,4.86L0,4.86z M10.57,3.24L7.99,5.07L7.33,8.02l2.87-2.13L10.57,3.24
		L10.57,3.24z M7.63,8.19l2.12,0.93l0.39-2.8L7.63,8.19L7.63,8.19z M8.25,2.56L5.74,4.25L4.91,6.91l2.78-1.95L8.25,2.56L8.25,2.56z
		 M18.26,2.87l-1.83-0.4l0.15,1.74L18.26,2.87L18.26,2.87z M5.12,7.1l1.87,0.82l0.6-2.56L5.12,7.1L5.12,7.1z M16.05,2.39l-0.5-0.11
		l-1.97,1.47l-0.07,2.88L16.2,4.5L16.05,2.39L16.05,2.39z M5.97,0.18L5.14,0L4.78,0.92L5.97,0.18L5.97,0.18z M16.92,8.35l0.34,4.05
		l0.11,0.05l2.19-2.04l0.3-3.62l-0.16-0.83L16.92,8.35L16.92,8.35z M2.93,6.14l1.66,0.73l0.76-2.37L2.93,6.14L2.93,6.14z
		 M19.17,3.07l-0.49-0.11L16.6,4.62l0.27,3.21l2.75-2.34L19.17,3.07L19.17,3.07z M13.63,1.86l-0.04,1.52l1.59-1.18L13.63,1.86
		L13.63,1.86z M11.15,1.31l-0.17,1.33l1.49-1.05L11.15,1.31L11.15,1.31z M8.93,0.83L8.67,2.01l1.39-0.93L8.93,0.83L8.93,0.83z
		 M7.91,0.6L6.94,0.39L6.62,1.44L7.91,0.6L7.91,0.6z M12.95,10.52l0.12-3.09l-2.55,2.03L12.95,10.52L12.95,10.52z M5.85,3.9
		l2.47-1.66l0.34-1.47l-0.5-0.11L6.52,1.72L5.85,3.9L5.85,3.9z M3.88,3.2l2.4-1.55L6.7,0.34L6.21,0.23L4.67,1.19L3.88,3.2L3.88,3.2z
		 M16.23,4.92l-2.73,2.18l-0.09,3.62l0.05,0.02l3-2.56L16.23,4.92L16.23,4.92z M13.91,10.94l2.82,1.23l-0.24-3.45L13.91,10.94
		L13.91,10.94z M19.33,13.3l0.17-2.1l-1.58,1.49L19.33,13.3L19.33,13.3z M19.6,3.16l0.41,1.98l0.15-1.86L19.6,3.16L19.6,3.16z
		 M4.81,0.23L2.84,2.12l1.6-1L4.81,0.23L4.81,0.23z M4.34,1.4L2.23,2.71L1.91,3.03L0.93,5.1l2.59-1.67L4.34,1.4L4.34,1.4z M1,5.3
		l1.49,0.65l0.89-2.19L1,5.3L1,5.3z M6.18,1.95L3.75,3.52L2.79,5.95l2.68-1.8L6.18,1.95L6.18,1.95z M10.13,9.29L10.13,9.29
		l2.96-2.34l0.11-2.92l-2.66,1.99L10.13,9.29L10.13,9.29z M10.93,2.99l-0.33,2.6l2.62-1.94l0.07-1.86l-0.5-0.11L10.93,2.99
		L10.93,2.99z M8.07,4.69l2.55-1.79l0.23-1.65l-0.5-0.11L8.6,2.32L8.07,4.69L8.07,4.69z"/>
	<path style="fill:#222221;" d="M6.23,23.72v-0.35h-0.1L6.11,23.6H5.54v-1.07c0.06,0,0.12-0.01,0.17-0.01v-0.11H5.23v0.11
		c0.05,0,0.11,0.01,0.16,0.01v1.07c-0.03,0-0.08,0-0.16,0.01v0.11H6.23L6.23,23.72z M7.26,23.07c0-0.21-0.08-0.33-0.31-0.33H6.89
		c-0.1,0-0.28,0.02-0.39,0.06v0.21h0.1l0.01-0.13c0.08-0.03,0.19-0.04,0.27-0.04c0.16,0,0.23,0.05,0.23,0.24v0.05
		c-0.13,0.01-0.26,0.02-0.41,0.04c-0.16,0.02-0.26,0.05-0.26,0.26v0.05c0,0.21,0.07,0.25,0.26,0.25h0.03c0.16,0,0.25-0.06,0.38-0.16
		v0.14H7.4v-0.1c-0.06-0.01-0.11-0.01-0.14-0.01V23.07L7.26,23.07z M6.76,23.63c-0.13,0-0.17-0.04-0.17-0.16v-0.04
		c0-0.12,0.04-0.16,0.17-0.17c0.1-0.01,0.27-0.03,0.36-0.03v0.26c-0.11,0.09-0.2,0.15-0.33,0.15H6.76L6.76,23.63z M8.48,23
		c0-0.19-0.07-0.25-0.23-0.25H8.23c-0.16,0-0.3,0.09-0.43,0.19v-0.17H7.53v0.1c0.04,0,0.09,0.01,0.13,0.01v0.74
		c-0.04,0-0.09,0-0.14,0.01v0.1h0.42v-0.1c-0.05,0-0.1-0.01-0.14-0.01v-0.59c0.13-0.09,0.24-0.16,0.37-0.16h0.02
		c0.13,0,0.15,0.04,0.15,0.2v0.65h0.29v-0.1c-0.09-0.01-0.14-0.01-0.15-0.01V23L8.48,23z M9.6,22.42H9.3v0.09
		c0.1,0,0.14,0.01,0.16,0.01v0.34c-0.17-0.1-0.22-0.11-0.38-0.11H9.04c-0.16,0-0.26,0.1-0.26,0.31v0.36c0,0.23,0.1,0.33,0.26,0.33
		h0.03c0.16,0,0.26-0.07,0.38-0.17v0.15h0.28v-0.1c-0.06-0.01-0.11-0.01-0.14-0.01V22.42L9.6,22.42z M9.1,23.61
		c-0.13,0-0.18-0.07-0.18-0.24v-0.28c0-0.15,0.05-0.23,0.18-0.23h0.04c0.12,0,0.17,0.01,0.32,0.1v0.52
		c-0.12,0.09-0.2,0.13-0.32,0.13H9.1L9.1,23.61z M10.28,22.74c-0.26,0-0.4,0.13-0.4,0.37v0.24c0,0.26,0.12,0.38,0.39,0.38h0.07
		c0.13,0,0.27-0.05,0.34-0.15V23.5h-0.11l-0.01,0.02c-0.04,0.08-0.12,0.11-0.23,0.11h-0.08c-0.16,0-0.25-0.08-0.25-0.24v-0.09h0.7
		V23.1c0-0.24-0.12-0.36-0.38-0.36H10.28L10.28,22.74z M10.59,23.2h-0.57v-0.11c0-0.16,0.1-0.25,0.26-0.25h0.06
		c0.16,0,0.25,0.08,0.25,0.23V23.2L10.59,23.2z M10.94,23.01c0,0.15,0.07,0.2,0.33,0.25c0.25,0.05,0.31,0.06,0.31,0.17v0.03
		c0,0.13-0.07,0.18-0.22,0.18h-0.06c-0.06,0-0.2-0.01-0.25-0.08l-0.01-0.12h-0.11v0.19c0.08,0.1,0.28,0.11,0.36,0.11h0.07
		c0.23,0,0.34-0.08,0.34-0.28v-0.04c0-0.16-0.08-0.2-0.33-0.25c-0.26-0.05-0.32-0.06-0.32-0.17v-0.02c0-0.1,0.08-0.14,0.25-0.14
		c0.09,0,0.18,0.01,0.25,0.05l0.01,0.13h0.11v-0.21c-0.11-0.05-0.29-0.07-0.37-0.07H11.3c-0.23,0-0.36,0.07-0.36,0.24V23.01
		L10.94,23.01z M13.53,23c0-0.19-0.07-0.25-0.23-0.25h-0.02c-0.16,0-0.29,0.08-0.42,0.19c-0.02-0.15-0.08-0.19-0.22-0.19h-0.02
		c-0.16,0-0.28,0.08-0.41,0.18v-0.16h-0.27v0.1c0.04,0,0.09,0.01,0.13,0.01v0.74c-0.05,0-0.09,0-0.14,0.01v0.1h0.42v-0.1
		c-0.05,0-0.1-0.01-0.14-0.01v-0.59c0.12-0.1,0.22-0.16,0.34-0.16h0.02c0.12,0,0.15,0.04,0.15,0.2v0.65h0.3v-0.1
		c-0.09-0.01-0.14-0.01-0.15-0.01v-0.58c0.12-0.1,0.23-0.16,0.35-0.16h0.02c0.12,0,0.15,0.04,0.15,0.2v0.65h0.3v-0.1
		c-0.09-0.01-0.14-0.01-0.15-0.01V23L13.53,23z M14.73,22.77h-0.29v0.1c0.09,0.01,0.14,0.01,0.15,0.01v0.56
		c-0.12,0.09-0.24,0.16-0.37,0.16H14.2c-0.13,0-0.15-0.04-0.15-0.2v-0.63h-0.3v0.1c0.09,0,0.13,0.01,0.16,0.01v0.59
		c0,0.2,0.06,0.25,0.23,0.25h0.02c0.16,0,0.3-0.09,0.43-0.18v0.18h0.29v-0.1c-0.07-0.01-0.11-0.01-0.15-0.01V22.77L14.73,22.77z
		 M15.05,23.01c0,0.15,0.07,0.2,0.33,0.25c0.25,0.05,0.31,0.06,0.31,0.17v0.03c0,0.13-0.07,0.18-0.22,0.18h-0.06
		c-0.06,0-0.2-0.01-0.25-0.08l-0.01-0.12h-0.11v0.19c0.08,0.1,0.28,0.11,0.36,0.11h0.07c0.23,0,0.34-0.08,0.34-0.28v-0.04
		c0-0.16-0.08-0.2-0.32-0.25c-0.26-0.05-0.32-0.06-0.32-0.17v-0.02c0-0.1,0.08-0.14,0.25-0.14c0.09,0,0.18,0.01,0.25,0.05l0.01,0.13
		h0.12v-0.21c-0.11-0.05-0.29-0.07-0.37-0.07H15.4c-0.23,0-0.35,0.07-0.35,0.24V23.01L15.05,23.01z M16.44,22.74
		c-0.26,0-0.4,0.13-0.4,0.37v0.24c0,0.26,0.12,0.38,0.39,0.38h0.07c0.13,0,0.27-0.05,0.34-0.15V23.5h-0.11l0,0.02
		c-0.04,0.08-0.12,0.11-0.23,0.11h-0.08c-0.16,0-0.25-0.08-0.25-0.24v-0.09h0.7V23.1c0-0.24-0.12-0.36-0.38-0.36H16.44L16.44,22.74z
		 M16.75,23.2h-0.57v-0.11c0-0.16,0.1-0.25,0.26-0.25h0.06c0.16,0,0.25,0.08,0.25,0.23V23.2L16.75,23.2z M17.49,22.74
		c-0.26,0-0.4,0.13-0.4,0.37v0.24c0,0.26,0.12,0.38,0.39,0.38h0.07c0.13,0,0.27-0.05,0.34-0.15V23.5h-0.11l-0.01,0.02
		c-0.04,0.08-0.12,0.11-0.23,0.11h-0.08c-0.16,0-0.25-0.08-0.25-0.24v-0.09h0.7V23.1c0-0.24-0.12-0.36-0.38-0.36H17.49L17.49,22.74z
		 M17.8,23.2h-0.57v-0.11c0-0.16,0.1-0.25,0.26-0.25h0.06c0.16,0,0.25,0.08,0.25,0.23V23.2L17.8,23.2z M19.06,23
		c0-0.19-0.07-0.25-0.23-0.25h-0.02c-0.16,0-0.3,0.09-0.43,0.19v-0.17H18.1v0.1c0.04,0,0.09,0.01,0.13,0.01v0.74
		c-0.05,0-0.09,0-0.14,0.01v0.1h0.43v-0.1c-0.05,0-0.1-0.01-0.14-0.01v-0.59c0.12-0.09,0.25-0.16,0.37-0.16h0.02
		c0.13,0,0.15,0.04,0.15,0.2v0.65h0.3v-0.1c-0.09-0.01-0.14-0.01-0.16-0.01V23L19.06,23z M20.01,23.34h-0.12v0.29
		c0.16,0.07,0.28,0.11,0.47,0.11h0.05c0.31,0,0.43-0.09,0.43-0.34v-0.08c0-0.18-0.06-0.26-0.25-0.31l-0.41-0.09
		c-0.11-0.03-0.15-0.08-0.15-0.18v-0.02c0-0.15,0.08-0.2,0.28-0.2h0.04c0.12,0,0.22,0.02,0.31,0.06l0.02,0.21h0.11v-0.3
		c-0.14-0.06-0.28-0.09-0.44-0.09h-0.04c-0.31,0-0.43,0.1-0.43,0.33v0.03c0,0.18,0.06,0.25,0.24,0.29l0.38,0.09
		c0.15,0.04,0.19,0.08,0.19,0.21v0.06c0,0.17-0.07,0.22-0.29,0.22h-0.02c-0.13,0-0.24-0.02-0.34-0.07L20.01,23.34L20.01,23.34z
		 M22.36,22.42h-0.45v0.11c0.05,0,0.1,0,0.14,0.01V23h-0.7v-0.47c0.04,0,0.09,0,0.14-0.01v-0.11h-0.45v0.11
		c0.06,0,0.11,0.01,0.17,0.01v1.07c-0.05,0-0.11,0.01-0.17,0.01v0.11h0.45v-0.11c-0.05,0-0.09-0.01-0.14-0.01v-0.48h0.7v0.48
		c-0.05,0-0.09,0-0.14,0.01v0.11h0.45v-0.11c-0.05,0-0.11-0.01-0.16-0.01v-1.07c0.05,0,0.11,0,0.16-0.01V22.42L22.36,22.42z"/>
	<path style="fill:#222221;" d="M7.79,18.52H6.86l-0.39,1.12h0L6.1,18.52H5.22v0.39c0.09,0.02,0.15,0.03,0.2,0.04v1.1
		c-0.06,0.01-0.12,0.02-0.19,0.03v0.39h0.82v-0.39c-0.06-0.01-0.11-0.02-0.17-0.03v-0.87l0.4,1.29h0.34l0.45-1.29v0.88
		c-0.05,0.01-0.1,0.02-0.15,0.03v0.39h0.86v-0.39c-0.07-0.01-0.13-0.03-0.19-0.03v-1.11c0.05-0.01,0.12-0.02,0.2-0.04V18.52
		L7.79,18.52z M8.77,20.51c0.53,0,0.71-0.2,0.72-0.74v-0.08c0-0.55-0.18-0.75-0.72-0.75h-0.1c-0.56,0-0.75,0.2-0.75,0.75v0.08
		c0,0.54,0.19,0.73,0.75,0.73H8.77L8.77,20.51z M8.65,20.13c-0.14,0-0.2-0.06-0.2-0.2v-0.42c0-0.15,0.06-0.21,0.2-0.21h0.1
		c0.15,0,0.21,0.06,0.21,0.21v0.42c0,0.14-0.06,0.2-0.21,0.2H8.65L8.65,20.13z M10.31,18.52H9.64v0.37c0.05,0.01,0.1,0.02,0.15,0.03
		v1.16c-0.05,0.01-0.1,0.02-0.16,0.03v0.37h0.84V20.1c-0.06-0.01-0.11-0.02-0.16-0.03V18.52L10.31,18.52z M11.33,19.36h0.42v-0.38
		h-0.42v-0.06c0-0.07,0.02-0.11,0.09-0.13c0.11-0.03,0.22-0.05,0.28-0.06l-0.04-0.36c-0.12,0.01-0.24,0.02-0.45,0.05
		c-0.25,0.05-0.4,0.22-0.4,0.45v0.13c-0.06,0.01-0.12,0.02-0.18,0.03v0.34h0.18v0.72c-0.06,0.01-0.11,0.02-0.16,0.03v0.37h0.92V20.1
		c-0.08-0.01-0.15-0.03-0.23-0.04V19.36L11.33,19.36z M11.91,19.44c0,0.21,0.09,0.34,0.44,0.41c0.39,0.07,0.43,0.08,0.43,0.17v0.02
		c0,0.08-0.06,0.12-0.15,0.12h-0.08c-0.08,0-0.17-0.03-0.21-0.1l-0.01-0.11h-0.42v0.41c0.18,0.13,0.46,0.15,0.66,0.15h0.11
		c0.42,0,0.62-0.15,0.62-0.5v-0.09c0-0.19-0.12-0.31-0.44-0.37c-0.39-0.08-0.46-0.07-0.46-0.15v-0.02c0-0.07,0.06-0.09,0.19-0.09
		c0.06,0,0.13,0,0.2,0.02l0.04,0.15h0.43v-0.42c-0.19-0.06-0.47-0.09-0.66-0.09h-0.05c-0.42,0-0.62,0.14-0.62,0.44V19.44
		L11.91,19.44z M14.16,18.94c-0.48,0-0.71,0.2-0.71,0.64v0.22c0,0.51,0.19,0.71,0.72,0.71h0.09c0.22,0,0.44-0.06,0.62-0.18v-0.35
		h-0.42l-0.01,0.07c-0.03,0.08-0.09,0.1-0.18,0.1h-0.1c-0.11,0-0.2-0.05-0.2-0.18V19.9h0.95v-0.35c0-0.42-0.21-0.62-0.66-0.62H14.16
		L14.16,18.94z M14.45,19.6h-0.48v-0.13c0-0.12,0.08-0.18,0.2-0.18h0.08c0.12,0,0.2,0.06,0.2,0.17V19.6L14.45,19.6z M15.8,18.94
		c-0.48,0-0.71,0.2-0.71,0.64v0.22c0,0.51,0.19,0.71,0.72,0.71h0.09c0.22,0,0.44-0.06,0.62-0.18v-0.35H16.1l-0.01,0.07
		c-0.03,0.08-0.09,0.1-0.18,0.1h-0.1c-0.11,0-0.2-0.05-0.2-0.18V19.9h0.95v-0.35c0-0.42-0.21-0.62-0.67-0.62H15.8L15.8,18.94z
		 M16.09,19.6H15.6v-0.13c0-0.12,0.08-0.18,0.2-0.18h0.08c0.12,0,0.2,0.06,0.2,0.17V19.6L16.09,19.6z"/>
	<path style="fill:#222221;" d="M6.86,15.27H5.21v0.39c0.08,0.02,0.14,0.03,0.2,0.03v1.11c-0.06,0.01-0.12,0.02-0.19,0.03v0.39h1.03
		v-0.39c-0.06-0.01-0.22-0.02-0.29-0.03v-0.27h0.55v-0.45H5.96v-0.37h0.5l0.06,0.21h0.34V15.27L6.86,15.27z M7.64,15.73H6.96v0.37
		c0.05,0.01,0.1,0.02,0.15,0.03v0.7c-0.05,0.01-0.1,0.02-0.16,0.03v0.37h0.86v-0.37l-0.18-0.03v-0.54c0.07-0.06,0.13-0.08,0.22-0.08
		c0.09-0.01,0.21-0.02,0.33-0.02V15.7H8.03c-0.19,0-0.29,0.16-0.39,0.29V15.73L7.64,15.73z M8.98,15.69c-0.48,0-0.71,0.2-0.71,0.64
		v0.22c0,0.51,0.19,0.71,0.72,0.71h0.09c0.22,0,0.44-0.06,0.61-0.19v-0.35H9.28L9.26,16.8c-0.03,0.08-0.09,0.1-0.18,0.1h-0.1
		c-0.11,0-0.2-0.05-0.2-0.18v-0.06h0.95v-0.35c0-0.42-0.21-0.62-0.66-0.62H8.98L8.98,15.69z M9.27,16.35H8.79v-0.13
		c0-0.12,0.08-0.18,0.2-0.18h0.08c0.11,0,0.2,0.06,0.2,0.17V16.35L9.27,16.35z M10.33,15.6c0.16,0,0.29-0.11,0.29-0.27
		c0-0.16-0.13-0.27-0.29-0.27c-0.16,0-0.29,0.1-0.29,0.27C10.04,15.5,10.17,15.6,10.33,15.6 M10.59,15.73H9.92v0.37
		c0.05,0.01,0.1,0.02,0.15,0.03v0.7c-0.05,0.01-0.1,0.02-0.16,0.03v0.37h0.84v-0.37c-0.06-0.01-0.11-0.02-0.16-0.03V15.73
		L10.59,15.73z M11.6,15.27h-0.68v0.37c0.05,0.01,0.1,0.02,0.15,0.03v1.16c-0.05,0.01-0.1,0.02-0.16,0.03v0.37h0.84v-0.37
		c-0.06-0.01-0.11-0.02-0.16-0.03V15.27L11.6,15.27z M12.35,15.6c0.16,0,0.29-0.11,0.29-0.27c0-0.16-0.13-0.27-0.29-0.27
		c-0.16,0-0.29,0.1-0.29,0.27C12.06,15.5,12.19,15.6,12.35,15.6 M12.61,15.73h-0.68v0.37c0.05,0.01,0.1,0.02,0.15,0.03v0.7
		c-0.05,0.01-0.1,0.02-0.16,0.03v0.37h0.85v-0.37c-0.06-0.01-0.11-0.02-0.16-0.03V15.73L12.61,15.73z M14.29,16.71h-0.43l-0.01,0.05
		c-0.03,0.08-0.09,0.12-0.18,0.12h-0.05c-0.11,0-0.19-0.04-0.19-0.2V16.3c0-0.17,0.07-0.22,0.2-0.22c0.09,0,0.14,0,0.21,0.01
		l0.04,0.25h0.39v-0.57c-0.22-0.05-0.37-0.07-0.57-0.07h-0.16c-0.4,0-0.64,0.2-0.64,0.59v0.36c0,0.42,0.2,0.63,0.64,0.63h0.14
		c0.22,0,0.44-0.08,0.61-0.19V16.71L14.29,16.71z M16.07,16.1c0-0.26-0.15-0.41-0.39-0.41h-0.04c-0.2,0-0.38,0.13-0.52,0.23v-0.65
		h-0.68v0.37c0.05,0.01,0.1,0.02,0.15,0.03v1.16c-0.05,0.01-0.1,0.02-0.16,0.03v0.37h0.84v-0.37c-0.05-0.01-0.11-0.02-0.16-0.03
		v-0.61c0.08-0.05,0.17-0.08,0.24-0.08h0.03c0.14,0,0.15,0.04,0.15,0.26v0.83h0.69v-0.37c-0.08-0.02-0.13-0.02-0.17-0.03V16.1
		L16.07,16.1z M17.1,16.82c-0.12,0-0.14-0.04-0.14-0.24v-0.47h0.42v-0.38h-0.42v-0.41c-0.17,0-0.23,0.01-0.45,0.04v0.19
		c0,0.12-0.06,0.2-0.16,0.2h-0.09v0.36h0.17v0.74c0,0.26,0.14,0.41,0.38,0.41h0.04c0.19,0,0.43-0.07,0.55-0.15v-0.3
		c-0.09,0.01-0.18,0.01-0.27,0.01H17.1L17.1,16.82z M20.1,16.1c0-0.26-0.15-0.41-0.39-0.41h-0.04c-0.2,0-0.39,0.13-0.53,0.24
		c-0.05-0.16-0.17-0.24-0.36-0.24h-0.04c-0.18,0-0.34,0.1-0.47,0.2v-0.16H17.6v0.37c0.05,0.01,0.1,0.02,0.15,0.03v0.7
		c-0.05,0.01-0.1,0.02-0.16,0.03v0.37h0.84v-0.37c-0.06-0.01-0.11-0.02-0.16-0.03v-0.62c0.07-0.05,0.13-0.07,0.19-0.07h0.03
		c0.14,0,0.15,0.04,0.15,0.26v0.83h0.69v-0.37c-0.07-0.02-0.13-0.02-0.16-0.03v-0.61c0.08-0.05,0.15-0.08,0.22-0.08h0.03
		c0.14,0,0.15,0.04,0.15,0.26v0.83h0.69v-0.37c-0.08-0.02-0.12-0.02-0.16-0.03V16.1L20.1,16.1z M21.93,16.83v-1.1h-0.69v0.37
		c0.07,0.01,0.12,0.02,0.16,0.03v0.57c-0.08,0.05-0.17,0.08-0.24,0.08h-0.03c-0.14,0-0.15-0.03-0.15-0.25v-0.8h-0.69v0.37l0.17,0.03
		v0.69c0,0.3,0.11,0.41,0.39,0.41h0.04c0.2,0,0.38-0.12,0.52-0.21v0.21h0.69v-0.37L21.93,16.83L21.93,16.83z M22.24,16.2
		c0,0.21,0.08,0.34,0.44,0.41c0.39,0.07,0.43,0.08,0.43,0.17v0.02c0,0.08-0.06,0.12-0.15,0.12h-0.08c-0.08,0-0.17-0.03-0.21-0.1
		l-0.01-0.11h-0.42v0.41c0.18,0.13,0.46,0.15,0.66,0.15h0.11c0.42,0,0.62-0.15,0.62-0.5v-0.1c0-0.19-0.11-0.31-0.44-0.37
		c-0.39-0.08-0.46-0.07-0.46-0.15v-0.02c0-0.07,0.06-0.09,0.19-0.09c0.06,0,0.14,0,0.2,0.02l0.04,0.15h0.43v-0.42
		c-0.19-0.06-0.47-0.09-0.67-0.09h-0.05c-0.42,0-0.62,0.14-0.62,0.44V16.2L22.24,16.2z M24.49,15.69c-0.48,0-0.71,0.2-0.71,0.64
		v0.22c0,0.51,0.19,0.71,0.72,0.71h0.09c0.22,0,0.44-0.06,0.62-0.19v-0.35h-0.42l-0.02,0.07c-0.02,0.08-0.08,0.1-0.18,0.1h-0.1
		c-0.11,0-0.19-0.05-0.19-0.18v-0.06h0.95v-0.35c0-0.42-0.21-0.62-0.66-0.62H24.49L24.49,15.69z M24.78,16.35H24.3v-0.13
		c0-0.12,0.08-0.18,0.2-0.18h0.08c0.11,0,0.2,0.06,0.2,0.17V16.35L24.78,16.35z M27.02,16.83v-1.1h-0.69v0.37
		c0.08,0.01,0.13,0.02,0.16,0.03v0.57c-0.08,0.05-0.17,0.08-0.24,0.08h-0.03c-0.14,0-0.14-0.03-0.14-0.25v-0.8h-0.69v0.37l0.17,0.03
		v0.69c0,0.3,0.11,0.41,0.38,0.41h0.04c0.2,0,0.38-0.12,0.52-0.21v0.21h0.69v-0.37L27.02,16.83L27.02,16.83z M29.84,16.1
		c0-0.26-0.15-0.41-0.39-0.41h-0.04c-0.21,0-0.39,0.13-0.53,0.24c-0.05-0.16-0.17-0.24-0.35-0.24h-0.04c-0.18,0-0.34,0.1-0.48,0.2
		v-0.16h-0.68v0.37c0.05,0.01,0.1,0.02,0.15,0.03v0.7c-0.05,0.01-0.1,0.02-0.16,0.03v0.37h0.84v-0.37
		c-0.06-0.01-0.11-0.02-0.16-0.03v-0.62c0.07-0.05,0.13-0.07,0.19-0.07h0.03c0.14,0,0.14,0.04,0.14,0.26v0.83h0.69v-0.37
		c-0.08-0.02-0.13-0.02-0.17-0.03v-0.61c0.08-0.05,0.15-0.08,0.22-0.08h0.03c0.13,0,0.15,0.04,0.15,0.26v0.83H30v-0.37
		c-0.07-0.02-0.12-0.02-0.16-0.03V16.1L29.84,16.1z"/>
</g>
</svg>
