<?xml version="1.0" encoding="utf-8"?>
<!-- Generator: Adobe Illustrator 16.0.3, SVG Export Plug-In . SVG Version: 6.00 Build 0)  -->
<!DOCTYPE svg PUBLIC "-//W3C//DTD SVG 1.1//EN" "http://www.w3.org/Graphics/SVG/1.1/DTD/svg11.dtd">
<svg version="1.1" id="Layer_1" xmlns="http://www.w3.org/2000/svg" xmlns:xlink="http://www.w3.org/1999/xlink" x="0px" y="0px"
	 width="30px" height="13.04px" viewBox="0 0 30 13.04" style="enable-background:new 0 0 30 13.04;" xml:space="preserve">
<g>
	<path style="fill:#54575F;" d="M0,10.43h0.59V8.27c0.3-0.18,0.97-0.13,0.99,0.34v1.82h0.58V8.6c0-1.09-1.38-1.15-2.17-0.76V10.43
		L0,10.43L0,10.43z"/>
	<path style="fill-rule:evenodd;clip-rule:evenodd;fill:#54575F;" d="M2.67,8.56v0.97c0,0.65,0.55,0.95,1.1,0.96
		c0.53,0,1.09-0.31,1.09-0.96V8.56c0-0.64-0.55-0.95-1.09-0.96C3.22,7.6,2.67,7.92,2.67,8.56L2.67,8.56L2.67,8.56z M3.76,8.17
		c0.23,0,0.5,0.12,0.5,0.38v0.97c0,0.26-0.27,0.41-0.5,0.41c-0.25,0-0.51-0.15-0.51-0.41V8.56C3.26,8.29,3.52,8.17,3.76,8.17
		L3.76,8.17L3.76,8.17z"/>
	<path style="fill:#54575F;" d="M6.13,7.66c-0.01,0-0.02,0.01-0.03,0.01C6,7.69,5.91,7.72,5.83,7.76C5.53,7.91,5.31,8.2,5.31,8.59
		v1.84H5.9V8.6c0-0.38,0.49-0.5,0.79-0.41V7.67C6.57,7.65,6.47,7.64,6.38,7.64C6.3,7.64,6.18,7.65,6.13,7.66L6.13,7.66L6.13,7.66z"
		/>
	<path style="fill-rule:evenodd;clip-rule:evenodd;fill:#54575F;" d="M8.53,9.96C8.21,10.1,7.54,10.08,7.52,9.6V8.55
		C7.56,8.1,8.2,8.03,8.53,8.24V9.96L8.53,9.96L8.53,9.96z M8.53,6.64v1.09c-0.63-0.3-1.6,0.03-1.6,0.84V9.6
		c0.09,1.14,1.38,1.04,2.19,0.72V6.64H8.53L8.53,6.64L8.53,6.64z"/>
	<polygon style="fill:#54575F;" points="9.64,6.65 9.64,10.43 10.23,10.43 10.23,9.46 10.39,9.3 11.26,10.43 11.95,10.43 10.8,8.94 
		11.96,7.66 11.22,7.66 10.23,8.78 10.23,6.65 9.64,6.65 9.64,6.65 	"/>
	<path style="fill-rule:evenodd;clip-rule:evenodd;fill:#54575F;" d="M12.04,8.56v0.97c0,0.65,0.55,0.95,1.1,0.96
		c0.53,0,1.09-0.31,1.09-0.96V8.56c0-0.64-0.55-0.95-1.09-0.96C12.6,7.6,12.04,7.92,12.04,8.56L12.04,8.56L12.04,8.56z M13.14,8.17
		c0.23,0,0.5,0.12,0.5,0.38v0.97c0,0.26-0.27,0.41-0.5,0.41c-0.25,0-0.51-0.15-0.51-0.41V8.56C12.63,8.29,12.89,8.17,13.14,8.17
		L13.14,8.17L13.14,8.17z"/>
	<path style="fill:#54575F;" d="M15.77,9.9c-0.33,0-0.48-0.18-0.48-0.4V6.65H14.7V9.5c0,0.59,0.38,0.95,1.07,0.95V9.9L15.77,9.9
		L15.77,9.9z"/>
	<path style="fill:#54575F;" d="M17.08,9.9c-0.33,0-0.48-0.18-0.48-0.4V6.65h-0.59V9.5c0,0.59,0.38,0.95,1.07,0.95V9.9L17.08,9.9
		L17.08,9.9z"/>
	<path style="fill-rule:evenodd;clip-rule:evenodd;fill:#54575F;" d="M18.86,9.64c-0.22,0.46-1.02,0.35-1-0.1V9.32h1.58V8.57
		c0-0.65-0.55-0.95-1.08-0.95c-0.54,0-1.09,0.31-1.09,0.95v0.97c0,0.63,0.55,0.95,1.09,0.95c0.36,0,0.78-0.19,1-0.57L18.86,9.64
		L18.86,9.64L18.86,9.64z M18.87,8.83h-1.02V8.57c-0.02-0.53,1.02-0.53,1.02-0.01V8.83L18.87,8.83L18.87,8.83z"/>
	<path style="fill-rule:evenodd;clip-rule:evenodd;fill:#54575F;" d="M21.4,9.81c-0.3,0.21-0.96,0.17-0.99-0.29V8.56
		c0.01-0.48,0.7-0.52,0.99-0.32V9.81L21.4,9.81L21.4,9.81z M19.85,10.94c0.5,0.78,2.13,0.73,2.13-0.5V7.87
		c-0.69-0.49-2.16-0.4-2.16,0.69v0.96c0,0.81,0.91,1.14,1.6,0.86c0.01,0.78-0.89,0.66-1.22,0.22L19.85,10.94L19.85,10.94
		L19.85,10.94z"/>
	<path style="fill:#9F9EA3;" d="M0.35,11.42c0,0-0.01,0-0.01,0c-0.04,0.01-0.08,0.02-0.11,0.04C0.09,11.52,0,11.65,0,11.82v0.79
		h0.25v-0.78c0-0.16,0.21-0.21,0.34-0.18v-0.22c-0.05-0.01-0.1-0.01-0.13-0.01C0.42,11.41,0.37,11.41,0.35,11.42L0.35,11.42
		L0.35,11.42z"/>
	<path style="fill-rule:evenodd;clip-rule:evenodd;fill:#9F9EA3;" d="M1.39,12.27c-0.1,0.2-0.44,0.15-0.43-0.04v-0.09h0.68v-0.32
		c0-0.28-0.24-0.41-0.46-0.41c-0.23,0-0.47,0.13-0.47,0.41v0.42c0,0.27,0.24,0.41,0.47,0.41c0.16,0,0.33-0.08,0.43-0.24L1.39,12.27
		L1.39,12.27L1.39,12.27z M1.4,11.92H0.96v-0.11c-0.01-0.23,0.44-0.23,0.44,0V11.92L1.4,11.92L1.4,11.92z"/>
	<path style="fill:#9F9EA3;" d="M1.86,12.61h0.25v-0.93c0.13-0.08,0.41-0.05,0.43,0.15v0.78h0.25v-0.78c0-0.47-0.59-0.5-0.93-0.32
		V12.61L1.86,12.61L1.86,12.61z"/>
	<path style="fill-rule:evenodd;clip-rule:evenodd;fill:#9F9EA3;" d="M3.72,12.4c-0.14,0.06-0.42,0.05-0.43-0.16V11.8
		c0.02-0.19,0.29-0.22,0.43-0.13V12.4L3.72,12.4L3.72,12.4z M3.72,10.98v0.47c-0.27-0.13-0.69,0.01-0.68,0.36v0.44
		c0.04,0.49,0.59,0.44,0.94,0.31v-1.57H3.72L3.72,10.98L3.72,10.98z"/>
	<path style="fill:#9F9EA3;" d="M4.13,12.35c0.19,0.41,0.89,0.37,0.89-0.09c0-0.25-0.2-0.33-0.39-0.36
		c-0.1-0.02-0.22-0.05-0.22-0.16c0.01-0.15,0.3-0.14,0.43-0.01l0.15-0.17C4.87,11.46,4.73,11.4,4.6,11.4c-0.2,0-0.44,0.1-0.44,0.36
		c0,0.27,0.25,0.33,0.42,0.37c0.08,0.02,0.19,0.04,0.19,0.13c-0.01,0.19-0.33,0.17-0.45-0.04L4.13,12.35L4.13,12.35L4.13,12.35z"/>
	<path style="fill-rule:evenodd;clip-rule:evenodd;fill:#9F9EA3;" d="M5.42,11.66c0.14-0.09,0.42-0.06,0.43,0.13v0.45
		c-0.01,0.21-0.3,0.21-0.43,0.16V11.66L5.42,11.66L5.42,11.66z M5.17,10.98v1.57c0.35,0.14,0.9,0.18,0.94-0.31v-0.44
		c0-0.35-0.41-0.49-0.69-0.36v-0.47H5.17L5.17,10.98L5.17,10.98z"/>
	<path style="fill:#9F9EA3;" d="M7.25,11.42H7v0.95c-0.15,0.08-0.42,0.05-0.43-0.15v-0.8H6.32v0.8c0,0.47,0.54,0.48,0.93,0.31V11.42
		L7.25,11.42L7.25,11.42z"/>
	<path style="fill:#9F9EA3;" d="M7.83,11.42c0,0-0.01,0-0.01,0c-0.04,0.01-0.08,0.02-0.12,0.04c-0.13,0.06-0.22,0.19-0.22,0.36v0.79
		h0.25v-0.78c0-0.16,0.21-0.21,0.34-0.18v-0.22c-0.05-0.01-0.1-0.01-0.13-0.01C7.9,11.41,7.85,11.41,7.83,11.42L7.83,11.42
		L7.83,11.42z"/>
	<path style="fill-rule:evenodd;clip-rule:evenodd;fill:#9F9EA3;" d="M8.86,12.34c-0.13,0.09-0.41,0.07-0.42-0.12V11.8
		c0-0.21,0.3-0.22,0.42-0.14V12.34L8.86,12.34L8.86,12.34z M8.2,12.82c0.21,0.33,0.91,0.31,0.91-0.21v-1.1
		c-0.3-0.21-0.92-0.17-0.92,0.29v0.41c0,0.35,0.39,0.49,0.68,0.37c0,0.33-0.38,0.28-0.52,0.09L8.2,12.82L8.2,12.82L8.2,12.82z"/>
	<path style="fill:#54575F;" d="M24.31,10.46H30C18.23-5.61,6.45,1.62,6.45,1.62S19.08-3.07,24.31,10.46L24.31,10.46L24.31,10.46z"
		/>
	<path style="fill:#54575F;" d="M1.79,6.72L0,6.75c7.59-9.03,16.81-4.56,16.81-4.56S7.79-1.44,1.79,6.72L1.79,6.72L1.79,6.72z"/>
	<path style="fill:#54575F;" d="M3.56,6.69L2.37,6.71c6.56-7.89,14.43-4.52,14.43-4.52S9.27-0.49,3.56,6.69L3.56,6.69L3.56,6.69z"/>
	<path style="fill:#54575F;" d="M5.1,6.67L4,6.69c6.18-6.93,12.81-4.5,12.81-4.5S10.15,0.56,5.1,6.67L5.1,6.67L5.1,6.67z"/>
	<path style="fill:#54575F;" d="M6.31,6.64L5.57,6.66c4.93-5.92,11.24-4.47,11.24-4.47S10.85,1.29,6.31,6.64L6.31,6.64L6.31,6.64z"
		/>
</g>
</svg>
