<?xml version="1.0" encoding="utf-8"?>
<!-- Generator: Adobe Illustrator 16.0.3, SVG Export Plug-In . SVG Version: 6.00 Build 0)  -->
<!DOCTYPE svg PUBLIC "-//W3C//DTD SVG 1.1//EN" "http://www.w3.org/Graphics/SVG/1.1/DTD/svg11.dtd">
<svg version="1.1" id="Layer_1" xmlns="http://www.w3.org/2000/svg" xmlns:xlink="http://www.w3.org/1999/xlink" x="0px" y="0px"
	 width="35px" height="12.32px" viewBox="0 0 35 12.32" style="enable-background:new 0 0 35 12.32;" xml:space="preserve">
<g>
	<path style="fill:#D67C1C;" d="M7.52,2.77l0.03,0.06C7.57,2.86,7.56,2.97,7.5,3.35c0.03-0.08,0.07-0.16,0.1-0.23
		c0.03-0.26,0.05-0.46,0.03-0.55c-0.05,0.03-0.1,0.11-0.14,0.2L7.52,2.77L7.52,2.77z M8.89,3.44C8.9,3.56,8.91,3.72,8.91,3.92
		C9.08,3.67,9.33,3.34,9.73,3.1C9.7,2.92,9.67,2.75,9.65,2.61C9.63,2.42,9.6,2.24,9.58,2.14C9.45,2.31,9.18,2.83,8.89,3.44
		L8.89,3.44z M7.2,3.85c0,0.06-0.01,0.13,0,0.22c0-0.01,0.01-0.03,0.02-0.04C7.24,3.87,7.27,3.71,7.3,3.56
		C7.27,3.66,7.23,3.76,7.2,3.85L7.2,3.85z M8.38,2.65C8.33,2.95,8.26,3.36,8.16,3.9C8.14,4,8.12,4.11,8.1,4.22
		c0.11-0.19,0.22-0.38,0.3-0.53C8.42,3.65,8.44,3.6,8.47,3.57C8.46,3.17,8.44,2.8,8.38,2.65L8.38,2.65z M7.28,4.59
		c0.02,0.06,0.05,0.1,0.09,0.14c0,0,0,0,0,0c0.03-0.18,0.06-0.39,0.09-0.62c0.02-0.12,0.04-0.24,0.06-0.37
		c-0.05,0.12-0.1,0.23-0.14,0.34C7.34,4.23,7.31,4.4,7.28,4.59L7.28,4.59z M7.52,4.81c0.01,0,0.02,0,0.04,0
		c0.05,0,0.1-0.03,0.16-0.08c0.06-0.27,0.11-0.54,0.16-0.78c0.19-1,0.28-1.37,0.38-1.49c0.04-0.22,0.07-0.4,0.08-0.53
		C8.19,2.16,7.98,2.65,7.76,3.16C7.73,3.41,7.68,3.73,7.62,4.13C7.59,4.35,7.55,4.58,7.52,4.81L7.52,4.81z M8.92,4.2
		c0,0.19,0,0.4,0,0.62c0,0.04,0,0.09,0,0.13C9.1,4.56,9.21,4.42,9.3,4.41c0.04,0,0.08,0.02,0.11,0.06C9.45,4.54,9.48,4.69,9.48,4.9
		C9.65,4.57,9.8,4.22,9.91,3.97C9.85,3.74,9.8,3.5,9.76,3.27c-0.39,0.25-0.62,0.6-0.77,0.83C8.96,4.14,8.94,4.17,8.92,4.2L8.92,4.2z
		 M8.03,4.63C8,4.76,7.98,4.89,7.96,5.02c0.02-0.04,0.04-0.08,0.05-0.12c0.17-0.36,0.32-0.68,0.46-0.97c0-0.01,0-0.02,0-0.03
		C8.32,4.19,8.17,4.44,8.03,4.63L8.03,4.63z M8.63,4.3c0,0.41,0,0.88,0.03,1.21c0.03-0.07,0.06-0.14,0.09-0.21c0-0.15,0-0.31,0-0.49
		c0-0.15,0-0.31,0-0.46c0,0-0.01,0-0.01,0L8.7,4.37L8.66,4.34C8.65,4.33,8.64,4.32,8.63,4.3L8.63,4.3z M7.49,4.97
		C7.45,5.31,7.42,5.6,7.44,5.73c0.06-0.1,0.14-0.41,0.22-0.77C7.63,4.97,7.59,4.98,7.55,4.98C7.53,4.98,7.51,4.98,7.49,4.97
		L7.49,4.97z M9.49,5.27c0,0.16-0.01,0.34-0.02,0.55c0.22-0.34,0.48-0.7,0.78-0.97c-0.11-0.19-0.2-0.41-0.27-0.63
		C9.8,4.63,9.63,4.98,9.49,5.27L9.49,5.27z M8.92,5.34c0,0.17,0,0.35,0.01,0.51c0.12-0.13,0.26-0.36,0.4-0.63
		c0-0.27,0-0.5-0.03-0.61C9.21,4.72,9.07,5,8.92,5.34L8.92,5.34z M8.71,5.82c0.02,0.06,0.03,0.1,0.06,0.13c0-0.07,0-0.16-0.01-0.24
		C8.74,5.74,8.72,5.78,8.71,5.82L8.71,5.82z M8.93,6.07C8.94,6.3,8.96,6.48,8.98,6.56c0.07-0.08,0.17-0.25,0.29-0.43
		C9.28,6.12,9.29,6.11,9.29,6.1c0-0.05,0-0.1,0.01-0.16C9.3,5.82,9.31,5.7,9.31,5.58C9.17,5.82,9.04,5.99,8.93,6.07L8.93,6.07z
		 M7.23,4.83c-0.17,0.91-0.39,2.08-0.4,2.48C7,7.04,7.35,6.32,7.69,5.58c0.01-0.07,0.02-0.14,0.04-0.22
		c-0.1,0.39-0.19,0.54-0.3,0.56c-0.04,0-0.07-0.01-0.1-0.04c-0.09-0.09-0.08-0.38,0-0.97C7.3,4.9,7.27,4.87,7.24,4.84
		C7.24,4.84,7.23,4.83,7.23,4.83L7.23,4.83z M6.75,7.41L6.75,7.41L6.75,7.41L6.75,7.41z M7.85,5.63C7.67,6.68,7.51,7.7,7.52,8.02
		C7.7,7.76,8.07,6.91,8.34,6.26C8.41,6.09,8.48,5.94,8.53,5.8C8.47,5.51,8.47,5,8.47,4.32C8.36,4.55,8.26,4.77,8.16,4.97
		C8.05,5.21,7.95,5.43,7.85,5.63L7.85,5.63z M7.49,8.25c-0.02,0-0.04-0.01-0.06-0.02C7.32,8.15,7.34,7.69,7.6,6.17
		C7,7.41,6.89,7.57,6.79,7.57H6.75L6.71,7.53c-0.1-0.12,0.01-0.84,0.37-2.77C6.62,5.79,6.3,6.38,6.06,6.38H0V6.22h6.06
		c0.18,0,0.62-0.94,1-1.82C7.05,4.36,7.05,4.32,7.04,4.28C6.77,4.97,6.45,5.52,6.06,5.52H0V5.36h6.06c0.29,0,0.57-0.49,0.79-1.02
		c-0.36,0.35-0.79,0.31-0.8,0.31L0,4.65V4.48h6.06c0.04,0,0.68,0.06,0.98-0.76l0.02-0.07l0.03,0c0.05-0.14,0.09-0.27,0.12-0.38
		c0-0.01,0-0.01,0.01-0.02C7.03,3.54,6.7,3.78,6.05,3.74H0V3.58h6.06c0.85,0.05,1.06-0.42,1.24-0.79c0.09-0.2,0.17-0.38,0.35-0.4
		c0.04,0,0.07,0.01,0.1,0.03C7.78,2.46,7.8,2.54,7.8,2.66c0.33-0.75,0.48-1,0.62-1.01l0.04,0l0.03,0.03
		c0.04,0.04,0.05,0.09-0.07,0.76C8.55,2.52,8.6,2.81,8.62,3.29c0.01-0.01,0.01-0.02,0.02-0.02C8.66,3,8.69,2.67,8.72,2.25
		c0.07-0.77,0.16-1.81,0.12-2.06C8.66,0.34,8.18,1.12,7.86,1.65C7.47,2.28,7.25,2.64,7.14,2.72C6.89,2.9,6.76,2.94,6.06,2.94H0V2.77
		h6.06c0.69,0,0.78-0.04,0.99-0.19c0.09-0.06,0.4-0.57,0.67-1.02C8.44,0.39,8.71,0,8.87,0c0,0,0,0,0,0c0.04,0,0.08,0.02,0.1,0.06
		c0.08,0.14,0.03,0.81-0.09,2.2C8.86,2.57,8.83,2.9,8.81,3.2c0,0,0.01,0,0.01,0.01c0.49-1,0.66-1.27,0.77-1.28l0.04-0.01l0.04,0.04
		c0.05,0.06,0.08,0.23,0.14,0.62c0.02,0.13,0.04,0.28,0.06,0.43c0.31-0.16,0.7-0.26,1.19-0.24H35v0.16H11.07
		c-0.49-0.02-0.87,0.08-1.16,0.24c0.03,0.18,0.07,0.36,0.11,0.55c0.21-0.47,0.22-0.47,0.29-0.48l0.05,0l0.02,0.05
		c0.13,0.32,0.68,0.27,0.68,0.27H35v0.16H11.07c-0.02,0-0.53,0.05-0.77-0.24c-0.05,0.1-0.12,0.27-0.19,0.43
		c-0.01,0.02-0.02,0.04-0.03,0.06c0.08,0.27,0.17,0.54,0.29,0.76c0.22-0.16,0.47-0.27,0.73-0.27H35v0.16H11.11
		c-0.23,0-0.45,0.09-0.65,0.24c0.16,0.25,0.37,0.42,0.62,0.47l23.92,0v0.16H11.07c-0.31-0.06-0.55-0.25-0.73-0.53
		C9.98,5.3,9.69,5.77,9.45,6.14c-0.02,0.45-0.03,0.98,0.03,1.1C9.53,7.22,9.6,7.12,9.67,7.02c0.21-0.3,0.57-0.81,1.36-0.81H35v0.16
		H11.03c-0.7,0-1.02,0.44-1.23,0.74c-0.12,0.17-0.21,0.3-0.34,0.3c-0.02,0-0.06-0.01-0.09-0.04C9.28,7.28,9.26,7,9.28,6.42
		C9.19,6.56,9.12,6.66,9.06,6.72C9,6.77,8.94,6.75,8.92,6.74C8.83,6.7,8.79,6.54,8.77,6.13c-0.04,0-0.08-0.02-0.12-0.06
		C8.64,6.06,8.63,6.04,8.62,6.03c-0.04,0.1-0.08,0.2-0.12,0.29C7.97,7.55,7.71,8.14,7.54,8.23C7.52,8.24,7.5,8.25,7.49,8.25
		L7.49,8.25z"/>
	<path style="fill:#222221;" d="M12.89,8.08c0.31,0,0.42-0.14,0.42-0.43c0-0.31-0.1-0.46-0.42-0.46h-0.27v0.9H12.89L12.89,8.08z
		 M11.98,9.11h0.33V7.18h-0.33V7.06h0.91c0.56,0,0.77,0.22,0.77,0.56c0,0.24-0.12,0.45-0.48,0.52v0.01
		c0.24,0.07,0.41,0.25,0.42,0.59c0,0.16,0.03,0.35,0.15,0.35c0.07,0,0.13-0.12,0.13-0.12l0.1,0.06c0,0-0.08,0.23-0.33,0.23
		c-0.27,0-0.39-0.24-0.4-0.56c-0.01-0.35-0.17-0.49-0.34-0.49h-0.29v0.9h0.32v0.12h-0.97V9.11L11.98,9.11z"/>
	<path style="fill:#222221;" d="M15.11,8.35V8.27c0-0.27-0.06-0.46-0.31-0.46c-0.25,0-0.35,0.24-0.36,0.54H15.11L15.11,8.35z
		 M14.8,7.7c0.38,0,0.59,0.2,0.59,0.61v0.16h-0.95V8.5c0,0.5,0.12,0.65,0.38,0.65c0.23,0,0.39-0.14,0.44-0.35l0.13,0.02
		c-0.06,0.22-0.24,0.45-0.57,0.45c-0.43,0-0.69-0.23-0.69-0.78C14.13,7.92,14.41,7.7,14.8,7.7"/>
	<path style="fill:#222221;" d="M15.65,9.11h0.26V7.87h-0.29V7.75h0.57v0.37h0.01c0,0,0.09-0.41,0.54-0.41
		c0.32,0,0.47,0.15,0.47,0.47v0.93h0.26v0.12h-0.79V9.11h0.24V8.18c0-0.26-0.06-0.35-0.23-0.35c-0.36,0-0.48,0.52-0.48,0.76v0.51
		h0.24v0.12h-0.79V9.11L15.65,9.11z"/>
	<path style="fill:#222221;" d="M18.74,8.42c0-0.36-0.15-0.59-0.41-0.59c-0.24,0-0.38,0.16-0.38,0.67c0,0.52,0.14,0.64,0.32,0.64
		C18.57,9.14,18.74,8.78,18.74,8.42 M18.3,7.7c0.21,0,0.34,0.07,0.43,0.19h0.01c0,0-0.01-0.12-0.01-0.22V6.99h-0.29V6.87h0.59v2.24
		h0.27v0.12h-0.52l-0.02-0.28h-0.01c-0.09,0.19-0.24,0.32-0.51,0.32c-0.41,0-0.58-0.32-0.58-0.76C17.64,8,17.88,7.7,18.3,7.7"/>
	<path style="fill:#222221;" d="M19.51,8.94V8.67h0.14v0.15c0,0.16,0.17,0.34,0.45,0.34c0.16,0,0.29-0.06,0.29-0.24
		c0-0.44-0.87-0.18-0.87-0.76c0-0.34,0.29-0.45,0.53-0.45c0.19,0,0.31,0.08,0.38,0.15l0.04-0.13h0.13c0,0-0.04,0.23-0.04,0.31v0.2
		h-0.14V8.15c0-0.15-0.12-0.33-0.37-0.33c-0.17,0-0.29,0.07-0.29,0.23c0,0.42,0.88,0.18,0.88,0.75c0,0.26-0.19,0.48-0.55,0.48
		c-0.25,0-0.37-0.1-0.43-0.16l-0.04,0.15h-0.13C19.49,9.25,19.51,9.08,19.51,8.94"/>
	<path style="fill:#222221;" d="M21.71,9.14c0.24,0,0.37-0.16,0.37-0.7c0-0.44-0.09-0.61-0.33-0.61c-0.28,0-0.45,0.28-0.45,0.69
		C21.31,8.83,21.41,9.14,21.71,9.14 M21.03,6.99h-0.29V6.87h0.58V7.7c0,0.12-0.01,0.27-0.01,0.27h0.01c0.1-0.17,0.25-0.27,0.49-0.27
		c0.4,0,0.57,0.28,0.57,0.74c0,0.6-0.3,0.83-0.64,0.83c-0.22,0-0.36-0.1-0.44-0.23l-0.18,0.23h-0.09V6.99L21.03,6.99z"/>
	<path style="fill:#222221;" d="M22.85,7.87h-0.29V7.75h0.58v1.04c0,0.26,0.05,0.35,0.22,0.35c0.36,0,0.48-0.52,0.48-0.76V7.87
		h-0.26V7.75h0.55v1.36h0.26v0.12h-0.54V8.86h0c0,0-0.09,0.41-0.54,0.41c-0.31,0-0.46-0.15-0.46-0.47V7.87L22.85,7.87z"/>
	<path style="fill:#222221;" d="M24.53,9.11h0.27V7.87H24.5V7.75h0.57v0.32h0.01c0.07-0.17,0.2-0.37,0.45-0.37
		c0.17,0,0.32,0.09,0.32,0.25c0,0.12-0.08,0.23-0.3,0.23c0.01-0.07,0.01-0.12,0.01-0.17c0-0.11-0.02-0.18-0.11-0.18
		c-0.22,0-0.37,0.45-0.37,0.7v0.58h0.29v0.12h-0.85V9.11L24.53,9.11z"/>
	<path style="fill:#222221;" d="M27,8.22c0-0.26-0.09-0.42-0.32-0.42c-0.23,0-0.31,0.16-0.31,0.43c0,0.26,0.08,0.41,0.31,0.41
		C26.91,8.65,27,8.49,27,8.22 M26.22,8.6c-0.1-0.09-0.15-0.21-0.15-0.37c0-0.31,0.21-0.53,0.61-0.53c0.18,0,0.33,0.05,0.43,0.13
		c0.03-0.03,0.08-0.11,0.08-0.26c0-0.04,0-0.08-0.01-0.14c0.21,0,0.29,0.11,0.29,0.22c0,0.13-0.14,0.22-0.29,0.25
		c0.06,0.08,0.1,0.18,0.1,0.31c0,0.34-0.23,0.52-0.62,0.52c-0.14,0-0.26-0.02-0.35-0.07c-0.09,0.06-0.17,0.13-0.17,0.22
		c0,0.35,1.27-0.07,1.27,0.61c0,0.4-0.39,0.52-0.74,0.52c-0.4,0-0.68-0.13-0.68-0.33c0-0.12,0.11-0.21,0.29-0.21
		c-0.06,0.32,0.08,0.43,0.39,0.43c0.27,0,0.55-0.06,0.55-0.3c0-0.49-1.25-0.02-1.25-0.62C25.98,8.81,26.09,8.7,26.22,8.6"/>
	<path style="fill:#222221;" d="M28.61,8.35V8.27c0-0.27-0.06-0.46-0.31-0.46c-0.25,0-0.35,0.24-0.36,0.54H28.61L28.61,8.35z
		 M28.31,7.7c0.38,0,0.59,0.2,0.59,0.61v0.16h-0.95V8.5c0,0.5,0.12,0.65,0.38,0.65c0.23,0,0.39-0.14,0.44-0.35l0.13,0.02
		c-0.06,0.22-0.24,0.45-0.57,0.45c-0.43,0-0.69-0.23-0.69-0.78C27.64,7.92,27.91,7.7,28.31,7.7"/>
	<path style="fill:#222221;" d="M29.15,9.11h0.27V7.87h-0.3V7.75h0.57v0.32h0.01c0.07-0.17,0.2-0.37,0.45-0.37
		c0.17,0,0.33,0.09,0.33,0.25c0,0.12-0.08,0.23-0.3,0.23c0.01-0.07,0.01-0.12,0.01-0.17c0-0.11-0.02-0.18-0.1-0.18
		c-0.22,0-0.37,0.45-0.37,0.7v0.58H30v0.12h-0.85V9.11L29.15,9.11z"/>
	<polygon style="fill:#222221;" points="17.06,12.15 17.39,12.15 17.39,10.22 17.06,10.22 17.06,10.1 17.8,10.1 18.39,11.79 
		19,10.1 19.73,10.1 19.73,10.22 19.4,10.22 19.4,12.15 19.73,12.15 19.73,12.27 18.75,12.27 18.75,12.15 19.08,12.15 19.08,10.29 
		18.37,12.27 18.23,12.27 17.53,10.3 17.53,12.15 17.85,12.15 17.85,12.27 17.06,12.27 17.06,12.15 	"/>
	<path style="fill:#222221;" d="M20.1,10.91h-0.3V10.8h0.58v1.04c0,0.26,0.05,0.35,0.22,0.35c0.36,0,0.48-0.52,0.48-0.76v-0.51
		h-0.26V10.8h0.55v1.36h0.26v0.12H21.1v-0.37H21.1c0,0-0.09,0.41-0.54,0.41c-0.31,0-0.45-0.15-0.45-0.47V10.91L20.1,10.91z"/>
	<path style="fill:#222221;" d="M21.86,11.99v-0.27H22v0.15c0,0.16,0.17,0.34,0.44,0.34c0.16,0,0.29-0.06,0.29-0.24
		c0-0.44-0.87-0.18-0.87-0.76c0-0.34,0.29-0.45,0.53-0.45c0.19,0,0.31,0.08,0.38,0.15l0.04-0.13h0.13c0,0-0.04,0.23-0.04,0.31v0.2
		h-0.14v-0.09c0-0.15-0.12-0.33-0.37-0.33c-0.16,0-0.28,0.07-0.28,0.23c0,0.42,0.88,0.18,0.88,0.75c0,0.26-0.19,0.48-0.55,0.48
		c-0.25,0-0.37-0.1-0.43-0.17l-0.04,0.15h-0.13C21.84,12.3,21.86,12.13,21.86,11.99"/>
	<path style="fill:#222221;" d="M23.63,10.06c0.1,0,0.19,0.08,0.19,0.19c0,0.11-0.09,0.19-0.19,0.19c-0.11,0-0.19-0.09-0.19-0.19
		C23.44,10.14,23.52,10.06,23.63,10.06 M23.24,12.15h0.27v-1.24h-0.3V10.8h0.58v1.36h0.27v0.12h-0.82V12.15L23.24,12.15z"/>
	<polygon style="fill:#222221;" points="24.15,12.15 24.42,12.15 24.42,10.04 24.12,10.04 24.12,9.92 24.7,9.92 24.7,11.4 
		24.82,11.4 25.32,10.91 25.09,10.91 25.09,10.8 25.77,10.8 25.77,10.91 25.51,10.91 25.04,11.36 25.68,12.15 25.85,12.15 
		25.85,12.27 25.15,12.27 25.15,12.15 25.32,12.15 24.82,11.52 24.7,11.52 24.7,12.15 24.91,12.15 24.91,12.27 24.15,12.27 
		24.15,12.15 	"/>
	<path style="fill:#222221;" d="M26.08,11.99v-0.27h0.14v0.15c0,0.16,0.17,0.34,0.45,0.34c0.16,0,0.29-0.06,0.29-0.24
		c0-0.44-0.87-0.18-0.87-0.76c0-0.34,0.29-0.45,0.53-0.45c0.19,0,0.31,0.08,0.38,0.15l0.04-0.13h0.13c0,0-0.04,0.23-0.04,0.31v0.2
		h-0.14v-0.09c0-0.15-0.12-0.33-0.38-0.33c-0.16,0-0.29,0.07-0.29,0.23c0,0.42,0.88,0.18,0.88,0.75c0,0.26-0.19,0.48-0.55,0.48
		c-0.25,0-0.37-0.1-0.43-0.17l-0.04,0.15h-0.13C26.05,12.3,26.08,12.13,26.08,11.99"/>
	<path style="fill:#222221;" d="M28.18,10.75c0.28,0,0.54,0.11,0.54,0.33c0,0.13-0.09,0.23-0.28,0.23c0.01-0.05,0.01-0.1,0.01-0.14
		c0-0.26-0.11-0.32-0.27-0.32c-0.27,0-0.37,0.2-0.37,0.68c0,0.48,0.11,0.66,0.37,0.66c0.23,0,0.36-0.12,0.41-0.36l0.13,0.02
		c-0.04,0.23-0.2,0.46-0.54,0.46c-0.41,0-0.67-0.22-0.67-0.78C27.5,10.98,27.77,10.75,28.18,10.75"/>
	<path style="fill:#222221;" d="M28.87,12.15h0.27v-2.12h-0.3V9.92h0.58v0.94c0,0.15-0.02,0.3-0.02,0.3h0.01c0,0,0.1-0.41,0.54-0.41
		c0.33,0,0.47,0.15,0.47,0.47v0.93h0.26v0.12H29.9v-0.12h0.24v-0.92c0-0.26-0.06-0.35-0.23-0.35c-0.36,0-0.48,0.52-0.48,0.76v0.51
		h0.24v0.12h-0.79V12.15L28.87,12.15z"/>
	<path style="fill:#222221;" d="M31.03,10.91h-0.29V10.8h0.58v1.04c0,0.26,0.05,0.35,0.22,0.35c0.36,0,0.48-0.52,0.48-0.76v-0.51
		h-0.26V10.8h0.55v1.36h0.26v0.12h-0.54v-0.37h-0.01c0,0-0.09,0.41-0.54,0.41c-0.31,0-0.46-0.15-0.46-0.47V10.91L31.03,10.91z"/>
	<polygon style="fill:#222221;" points="32.65,12.15 32.92,12.15 32.92,10.04 32.62,10.04 32.62,9.92 33.2,9.92 33.2,12.15 
		33.47,12.15 33.47,12.27 32.65,12.27 32.65,12.15 	"/>
	<path style="fill:#222221;" d="M34.63,11.4v-0.08c0-0.27-0.06-0.46-0.31-0.46c-0.25,0-0.35,0.24-0.36,0.54H34.63L34.63,11.4z
		 M34.33,10.75c0.38,0,0.59,0.2,0.59,0.61v0.16h-0.95v0.02c0,0.5,0.12,0.65,0.38,0.65c0.23,0,0.39-0.14,0.44-0.35l0.13,0.02
		c-0.06,0.22-0.24,0.45-0.57,0.45c-0.43,0-0.69-0.23-0.69-0.78C33.66,10.97,33.94,10.75,34.33,10.75"/>
</g>
</svg>
