<?xml version="1.0" encoding="utf-8"?>
<!-- Generator: Adobe Illustrator 16.0.3, SVG Export Plug-In . SVG Version: 6.00 Build 0)  -->
<!DOCTYPE svg PUBLIC "-//W3C//DTD SVG 1.1//EN" "http://www.w3.org/Graphics/SVG/1.1/DTD/svg11.dtd">
<svg version="1.1" id="Layer_1" xmlns="http://www.w3.org/2000/svg" xmlns:xlink="http://www.w3.org/1999/xlink" x="0px" y="0px"
	 width="30px" height="13.23px" viewBox="0 0 30 13.23" style="enable-background:new 0 0 30 13.23;" xml:space="preserve">
<g>
	<path style="fill:#113365;" d="M11.22,7.91c-0.05-0.06-0.14-0.11-0.23-0.11c-0.1,0-0.22,0.05-0.22,0.17c0,0.12,0.1,0.15,0.24,0.2
		c0.16,0.05,0.37,0.12,0.37,0.37c0,0.27-0.21,0.4-0.46,0.4c-0.16,0-0.33-0.06-0.44-0.18l0.16-0.15c0.06,0.09,0.18,0.14,0.28,0.14
		c0.11,0,0.23-0.05,0.23-0.19c0-0.13-0.13-0.17-0.29-0.22c-0.16-0.05-0.32-0.12-0.32-0.36c0-0.26,0.24-0.37,0.47-0.37
		c0.13,0,0.27,0.04,0.37,0.14L11.22,7.91L11.22,7.91z"/>
	<path style="fill:#113365;" d="M12.2,8.29c-0.03-0.05-0.11-0.08-0.18-0.08c-0.16,0-0.24,0.14-0.24,0.27c0,0.13,0.08,0.28,0.24,0.28
		c0.07,0,0.14-0.03,0.18-0.08l0.14,0.14c-0.07,0.08-0.19,0.12-0.32,0.12c-0.25,0-0.47-0.17-0.47-0.46c0-0.28,0.21-0.46,0.46-0.46
		c0.12,0,0.26,0.05,0.32,0.13L12.2,8.29L12.2,8.29z"/>
	<path style="fill:#113365;" d="M13.31,8.37v0.54h-0.22V8.44c0-0.1-0.02-0.23-0.16-0.23c-0.14,0-0.2,0.11-0.2,0.23v0.47h-0.22V7.56
		h0.22v0.62h0c0.03-0.07,0.13-0.15,0.26-0.15C13.21,8.03,13.31,8.2,13.31,8.37"/>
	<polygon style="fill:#113365;" points="13.58,8.91 13.79,8.91 13.79,7.56 13.58,7.56 13.58,8.91 	"/>
	<path style="fill:#113365;" d="M14.9,8.55h-0.65c0.01,0.12,0.12,0.21,0.24,0.21c0.11,0,0.18-0.04,0.23-0.11l0.14,0.12
		c-0.08,0.11-0.21,0.17-0.37,0.17c-0.27,0-0.46-0.17-0.46-0.45c0-0.28,0.2-0.46,0.46-0.46c0.24,0,0.42,0.16,0.42,0.47
		C14.9,8.51,14.9,8.53,14.9,8.55 M14.68,8.4c0-0.11-0.06-0.21-0.2-0.21c-0.13,0-0.23,0.09-0.24,0.21H14.68L14.68,8.4z"/>
	<path style="fill:#113365;" d="M15.6,8.28c-0.04-0.05-0.11-0.09-0.19-0.09c-0.07,0-0.14,0.02-0.14,0.09c0,0.07,0.06,0.09,0.19,0.11
		c0.13,0.03,0.28,0.09,0.28,0.26c0,0.21-0.17,0.29-0.36,0.29c-0.13,0-0.27-0.05-0.35-0.14l0.14-0.13c0.05,0.06,0.13,0.11,0.22,0.11
		c0.06,0,0.14-0.03,0.14-0.1c0-0.07-0.07-0.09-0.2-0.12c-0.13-0.03-0.25-0.08-0.25-0.24c0-0.19,0.17-0.27,0.34-0.27
		c0.12,0,0.25,0.04,0.32,0.13L15.6,8.28L15.6,8.28z"/>
	<polygon style="fill:#113365;" points="15.86,8.05 16.09,8.05 16.27,8.67 16.27,8.67 16.46,8.05 16.69,8.05 16.87,8.67 16.88,8.67 
		17.06,8.05 17.28,8.05 16.99,8.91 16.77,8.91 16.57,8.31 16.57,8.31 16.37,8.91 16.15,8.91 15.86,8.05 	"/>
	<path style="fill:#113365;" d="M17.56,7.63c0.08,0,0.14,0.06,0.14,0.13c0,0.07-0.06,0.13-0.14,0.13c-0.08,0-0.14-0.06-0.14-0.13
		C17.42,7.69,17.48,7.63,17.56,7.63 M17.45,8.05h0.22v0.86h-0.22V8.05L17.45,8.05z"/>
	<path style="fill:#113365;" d="M18.82,8.05v0.78c0,0.31-0.15,0.51-0.49,0.51c-0.14,0-0.32-0.05-0.43-0.14l0.12-0.17
		c0.08,0.08,0.19,0.12,0.3,0.12c0.21,0,0.27-0.13,0.27-0.29V8.8h0c-0.06,0.08-0.16,0.13-0.28,0.13c-0.26,0-0.43-0.2-0.43-0.45
		c0-0.25,0.16-0.45,0.42-0.45c0.12,0,0.23,0.05,0.3,0.15h0V8.05H18.82L18.82,8.05z M18.11,8.47c0,0.14,0.09,0.28,0.25,0.28
		c0.16,0,0.26-0.13,0.26-0.28c0-0.15-0.1-0.27-0.25-0.27C18.2,8.2,18.11,8.32,18.11,8.47"/>
	<polygon style="fill:#113365;" points="19.06,8.56 19.49,8.56 19.49,8.38 19.06,8.38 19.06,8.56 	"/>
	<polygon style="fill:#113365;" points="19.75,7.64 19.98,7.64 19.98,8.16 20.57,8.16 20.57,7.64 20.8,7.64 20.8,8.91 20.57,8.91 
		20.57,8.35 19.98,8.35 19.98,8.91 19.75,8.91 19.75,7.64 	"/>
	<path style="fill:#113365;" d="M21.51,8.03c0.26,0,0.47,0.18,0.47,0.45c0,0.27-0.21,0.46-0.47,0.46c-0.26,0-0.47-0.19-0.47-0.46
		C21.04,8.21,21.25,8.03,21.51,8.03 M21.51,8.76c0.17,0,0.25-0.15,0.25-0.28S21.68,8.2,21.51,8.2c-0.17,0-0.25,0.14-0.25,0.28
		S21.34,8.76,21.51,8.76"/>
	<polygon style="fill:#113365;" points="22.21,8.91 22.43,8.91 22.43,7.56 22.21,7.56 22.21,8.91 	"/>
	<path style="fill:#113365;" d="M23.19,8.28C23.15,8.23,23.08,8.19,23,8.19c-0.07,0-0.14,0.02-0.14,0.09c0,0.07,0.07,0.09,0.19,0.11
		c0.13,0.03,0.28,0.09,0.28,0.26c0,0.21-0.17,0.29-0.36,0.29c-0.13,0-0.27-0.05-0.35-0.14l0.14-0.13c0.05,0.06,0.13,0.11,0.22,0.11
		c0.06,0,0.14-0.03,0.14-0.1c0-0.07-0.07-0.09-0.2-0.12c-0.13-0.03-0.25-0.08-0.25-0.24c0-0.19,0.17-0.27,0.34-0.27
		c0.12,0,0.25,0.04,0.32,0.13L23.19,8.28L23.19,8.28z"/>
	<path style="fill:#113365;" d="M23.45,8.22V8.05h0.15V7.8h0.21v0.25h0.22v0.17h-0.22v0.4c0,0.08,0.02,0.13,0.11,0.13
		c0.03,0,0.07,0,0.09-0.02l0.01,0.17c-0.04,0.01-0.1,0.02-0.14,0.02c-0.23,0-0.28-0.14-0.28-0.31v-0.4H23.45L23.45,8.22z"/>
	<path style="fill:#113365;" d="M25.02,8.55h-0.66c0.01,0.12,0.12,0.21,0.25,0.21c0.11,0,0.18-0.04,0.23-0.11l0.14,0.12
		c-0.08,0.11-0.2,0.17-0.37,0.17c-0.27,0-0.46-0.17-0.46-0.45c0-0.28,0.2-0.46,0.46-0.46c0.24,0,0.42,0.16,0.42,0.47
		C25.02,8.51,25.02,8.53,25.02,8.55 M24.81,8.4c0-0.11-0.06-0.21-0.2-0.21c-0.13,0-0.23,0.09-0.24,0.21H24.81L24.81,8.4z"/>
	<path style="fill:#113365;" d="M25.36,7.63c0.08,0,0.14,0.06,0.14,0.13c0,0.07-0.06,0.13-0.14,0.13c-0.08,0-0.14-0.06-0.14-0.13
		C25.22,7.69,25.28,7.63,25.36,7.63 M25.25,8.05h0.21v0.86h-0.21V8.05L25.25,8.05z"/>
	<path style="fill:#113365;" d="M25.75,8.05h0.2v0.14h0c0.04-0.09,0.14-0.16,0.27-0.16c0.22,0,0.32,0.17,0.32,0.35v0.54h-0.21V8.44
		c0-0.1-0.02-0.23-0.16-0.23c-0.14,0-0.2,0.12-0.2,0.23v0.47h-0.21V8.05L25.75,8.05z"/>
	<path style="fill:#113365;" d="M0,5.17C0.41,5.61,0.95,5.9,1.69,5.92c0.79,0.02,1.69-0.46,1.68-1.41c0-0.99-0.78-1.28-1.53-1.57
		C1.36,2.76,0.53,2.5,0.53,1.67c0-0.63,0.56-1.05,1.27-1.03c0.41,0.01,0.82,0.21,1.22,0.54l0.22-0.25C2.75,0.5,2.25,0.32,1.79,0.3
		C0.9,0.29,0.18,0.81,0.18,1.67c0,1.05,0.91,1.34,1.48,1.56c0.66,0.26,1.36,0.51,1.36,1.28c0,0.62-0.58,1.09-1.37,1.07
		c-0.56-0.02-1-0.21-1.4-0.63L0,5.17L0,5.17z"/>
	<polygon style="fill:#113365;" points="7.69,5.78 8.04,5.78 8.04,0.44 7.69,0.44 7.69,2.85 4.89,2.85 4.89,0.44 4.54,0.44 
		4.54,5.78 4.89,5.78 4.89,3.18 7.69,3.18 7.69,5.78 	"/>
	<polygon style="fill:#BA2256;" points="22.04,0.43 21.19,0.43 20.74,1.26 20.55,0.43 20.24,1.26 19.92,0.43 19.73,1.26 19.28,0.43 
		18.43,0.43 18.43,1.12 19.46,1.55 18.44,2 19.49,2.36 18.5,2.87 19.57,3.13 18.66,3.73 19.71,3.84 18.94,4.56 19.96,4.56 
		19.43,5.29 20.24,5.92 21.04,5.29 20.51,4.56 21.53,4.56 20.76,3.84 21.81,3.73 20.9,3.13 21.96,2.87 20.98,2.36 22.03,2 21,1.55 
		22.04,1.12 22.04,0.43 	"/>
	<path style="fill:#113365;" d="M14.52,5.26l-0.43-0.11l0.33-0.07L14.4,4.99l0.23-0.01c0,0-0.15-0.2-0.33-0.18l-0.42,0.21
		C13.82,5,13.35,4.54,13.35,4.54s0.38-0.36,0.17-0.62C13.46,3.85,13,3.6,12.95,3.6c-0.05,0-0.46,0.35-0.46,0.35
		c0.16,0.12,0.3,0.3,0.28,0.47c-0.01,0.11-0.17,0.23-0.17,0.23c-0.02,0.07,0.95,0.6,0.95,0.6l-0.1,0.1c-0.1,0.1-0.05,0.22-0.05,0.22
		l0.14-0.11l0.03,0.05l0.17-0.13L13.8,5.7l0.1-0.01l0.03,0.24c0.18-0.06,0.19-0.32,0.19-0.32l-0.12-0.3l0.4,0.31l0.05-0.12
		l0.21,0.07C14.66,5.55,14.61,5.37,14.52,5.26"/>
	<path style="fill:#113365;" d="M17.34,1.57l-0.31,0.04l0.25-0.29l-0.1-0.1l0.13-0.19c0,0-0.24-0.02-0.35,0.15l-0.2,0.49l0-0.38
		c-0.01,0-0.09,0-0.11,0l-0.02-0.24c0,0-0.18,0.09-0.2,0.39l0.18,0.33l-0.82,1.05c0,0,0,0,0,0c0.13,0.17,0.16,0.32,0.18,0.4
		l0.01,0.02l0.07,0.31l0.82-1.28l0.23,0.15c0.13-0.01,0.2-0.18,0.2-0.18l-0.2-0.08l-0.03-0.29l0.24,0.02l0.04-0.08l0.26,0.04
		C17.56,1.65,17.44,1.59,17.34,1.57"/>
	<path style="fill:#113365;" d="M17.39,5.24l-0.38-0.16l0.25-0.02c0-0.01,0.04-0.12,0.03-0.13l0.29-0.03c0,0-0.21-0.19-0.38-0.17
		l-0.43,0.16L15.7,4.05c0,0,0.24-0.04,0.38-0.1c0,0-0.12-0.14-0.15-0.32l-0.07-0.34c-0.02-0.08-0.04-0.21-0.16-0.37
		c-0.02-0.03-0.13-0.15-0.13-0.15L15.4,2.65l0.18-0.02c0.24-0.05,0.25-0.23,0.25-0.23h-0.76c0,0,0-0.05,0-0.14h0.75
		c0.13,0,0.23-0.04,0.31-0.12c0.13-0.13,0.15-0.3,0.15-0.31c0-0.04-0.03-0.08-0.07-0.08c-0.04,0-0.08,0.04-0.08,0.08
		c0,0-0.02,0.12-0.1,0.2c-0.05,0.05-0.12,0.07-0.2,0.07h-0.75c0-0.02,0-0.01,0.01-0.02c0.02-0.08,0.11-0.11,0.2-0.11
		c0.17,0,0.35,0,0.57-0.01c0.1,0,0.16-0.17,0.16-0.17s0.05-0.27,0.05-0.31c0-0.04-0.02-0.05-0.06-0.06
		c-0.05-0.02-0.23-0.06-0.33-0.13c-0.1-0.06-0.25-0.12-0.33-0.12h-0.46c-0.07,0-0.19,0.09-0.19,0.09s-0.05-0.17-0.18-0.21
		l-0.19-0.06l0.08,0.45l-0.12,0.41c0,0-0.22,0.12-0.31,0.14l-0.13,0l0.1,0.1c0.04,0.03,0.15,0.03,0.26,0.02l-0.03,0.09
		c-0.01,0.01-0.21,0.13-0.29,0.14l-0.14-0.01l0.1,0.11c0.04,0.03,0.14,0.03,0.25,0.02l-0.05,0.18c0,0-0.02,0.17-0.22,0.17
		c-0.18,0-2.41-0.26-2.41-0.26c-0.16-0.02-0.51-0.07-0.51-0.38c0-0.28,0.28-0.33,0.53-0.33h1.82c0.49,0,0.74-0.25,0.76-0.75
		c0.02-0.42,0.27-0.59,0.42-0.59h0.76C15.41,0.4,15.55,0,15.55,0s-0.16,0.05-0.33,0.1h-0.87c-0.18,0-0.4,0.26-0.49,0.56l0,0
		c-0.09-0.3-0.28-0.56-0.49-0.56h-0.87C12.34,0.05,12.18,0,12.18,0s0.14,0.4,0.36,0.5h0.76c0.16,0,0.42,0.17,0.42,0.59
		c0,0.33-0.15,0.47-0.46,0.47h-0.75c0.02-0.09,0.08-0.26,0.12-0.33l0.16-0.13h-0.22c-0.12,0-0.34,0.35-0.42,0.47h-0.27
		c0.03-0.12,0.11-0.4,0.17-0.5l0.21-0.16c0,0-0.1,0-0.29,0c-0.16,0-0.45,0.51-0.55,0.65c-0.27,0-0.81,0.09-0.81,0.62
		c0,0.42,0.38,0.62,0.77,0.67c0.02,0,0.52,0.07,0.52,0.07l-0.42,0.94c0,0-0.18-0.03-0.22-0.01c-0.06,0.03-0.5,1.09-0.5,1.09
		l-0.29,0.01c-0.05,0.02-0.15,0.13-0.18,0.17c-0.03,0.06-0.03,0.13-0.03,0.13l0.17-0.06l0.07,0.07l0.18-0.05l-0.15,0.34l0.1,0.1
		L10.6,5.91c0.15-0.01,0.26-0.25,0.26-0.25l0.01-0.35l0.13,0.32c0.02,0,0.02,0,0.08,0.01l0.17,0.28c0,0,0.05-0.04,0.07-0.11
		c0.01-0.05,0.02-0.25,0.02-0.25c-0.05-0.06-0.23-0.28-0.23-0.28l0.3,0.22c0-0.01,0.05-0.05,0.06-0.06l0.3,0.12
		c0,0-0.06-0.27-0.14-0.33l-0.49-0.19l1.17-1.1c0.27-0.23,0.52-0.44,0.64-0.45c0.13-0.02,1.12,0.64,1.3,0.66
		c0.13,0.02,0.35,0,0.35,0s-0.03,0.16,0,0.19c0.05,0.11,1.75,0.76,1.75,0.76l-0.21,0.12C16.05,5.26,16,5.48,16,5.48l0.27-0.15
		l0.06,0.09l0.22-0.18l-0.03,0.29l0.1,0.01l0.01,0.37c0.14-0.06,0.22-0.34,0.22-0.34l0-0.28l0.29,0.26l0.1-0.1l0.25,0.12
		C17.49,5.57,17.48,5.32,17.39,5.24 M14.96,1.69c-0.02-0.01-0.03-0.04-0.02-0.06c0.04-0.07,0.16-0.23,0.24-0.25
		c0.02,0,0.04,0,0.06,0c0.08,0,0.15,0.03,0.22,0.07l0.08,0.04c0.02,0.01,0.03,0.04,0.02,0.06c-0.01,0.02-0.04,0.03-0.06,0.02
		l-0.08-0.04c-0.01,0-0.02-0.01-0.02-0.01c0.01,0.02,0.01,0.03,0.01,0.05c0,0.09-0.08,0.17-0.17,0.17c-0.08,0-0.14-0.05-0.16-0.12
		c-0.02,0.03-0.04,0.05-0.05,0.08C15.01,1.7,14.98,1.71,14.96,1.69"/>
	<path style="fill:#113365;" d="M15.24,1.64c0.05,0,0.08-0.04,0.08-0.08c0-0.05-0.04-0.09-0.08-0.09c-0.05,0-0.09,0.04-0.09,0.09
		C15.15,1.6,15.19,1.64,15.24,1.64"/>
	<polygon style="fill:#113365;" points="11.23,10.84 11.23,10.84 11.65,9.79 11.85,9.79 11.85,11.06 11.72,11.06 11.72,9.96 
		11.72,9.96 11.26,11.06 11.19,11.06 10.73,9.96 10.73,9.96 10.73,11.06 10.6,11.06 10.6,9.79 10.8,9.79 11.23,10.84 	"/>
	<path style="fill:#113365;" d="M12.25,9.99c-0.04,0-0.08-0.04-0.08-0.09c0-0.05,0.04-0.09,0.08-0.09c0.04,0,0.09,0.04,0.09,0.09
		C12.33,9.95,12.29,9.99,12.25,9.99 M12.31,11.06h-0.12v-0.84h0.12V11.06L12.31,11.06z"/>
	<path style="fill:#113365;" d="M12.74,10.22c0,0.05,0.01,0.11,0.01,0.14h0c0.05-0.1,0.17-0.16,0.29-0.16
		c0.21,0,0.32,0.14,0.32,0.34v0.51h-0.12V10.6c0-0.17-0.05-0.29-0.23-0.29c-0.13,0-0.25,0.1-0.25,0.33v0.43h-0.12v-0.65
		c0-0.05,0-0.13-0.01-0.19H12.74L12.74,10.22z"/>
	<path style="fill:#113365;" d="M13.74,9.99c-0.04,0-0.09-0.04-0.09-0.09c0-0.05,0.04-0.09,0.09-0.09c0.04,0,0.08,0.04,0.08,0.09
		C13.82,9.95,13.78,9.99,13.74,9.99 M13.8,11.06h-0.12v-0.84h0.12V11.06L13.8,11.06z"/>
	<path style="fill:#113365;" d="M14.57,10.42c-0.04-0.07-0.11-0.12-0.21-0.12c-0.09,0-0.18,0.04-0.18,0.13
		c0,0.08,0.06,0.11,0.2,0.14c0.2,0.04,0.29,0.12,0.29,0.25c0,0.19-0.16,0.26-0.32,0.26c-0.13,0-0.25-0.05-0.33-0.16l0.1-0.07
		c0.04,0.07,0.13,0.13,0.23,0.13c0.1,0,0.2-0.04,0.2-0.15c0-0.09-0.09-0.12-0.25-0.16c-0.1-0.02-0.24-0.07-0.24-0.22
		c0-0.17,0.15-0.24,0.3-0.24c0.12,0,0.24,0.05,0.29,0.15L14.57,10.42L14.57,10.42z"/>
	<path style="fill:#113365;" d="M15.3,10.33h-0.23v0.49c0,0.12,0.05,0.15,0.12,0.15c0.03,0,0.07-0.01,0.11-0.03l0,0.11
		c-0.04,0.02-0.09,0.02-0.14,0.02c-0.09,0-0.21-0.04-0.21-0.22v-0.52h-0.17v-0.1h0.17V9.99h0.12v0.23h0.23V10.33L15.3,10.33z"/>
	<path style="fill:#113365;" d="M16.25,10.67h-0.69c0,0.17,0.13,0.3,0.31,0.3c0.13,0,0.22-0.07,0.27-0.14l0.09,0.07
		c-0.1,0.13-0.22,0.18-0.36,0.18c-0.25,0-0.43-0.19-0.43-0.44s0.19-0.44,0.42-0.44c0.26,0,0.4,0.18,0.4,0.41
		C16.25,10.63,16.25,10.65,16.25,10.67 M16.13,10.58c-0.01-0.16-0.1-0.27-0.28-0.27c-0.16,0-0.28,0.13-0.29,0.27H16.13L16.13,10.58z
		"/>
	<path style="fill:#113365;" d="M16.51,10.22h0.12c0,0.05,0.01,0.11,0.01,0.14h0c0.05-0.1,0.15-0.16,0.27-0.16
		c0.03,0,0.06,0,0.08,0.01l-0.02,0.12c-0.01-0.01-0.05-0.01-0.09-0.01c-0.13,0-0.24,0.09-0.24,0.32v0.43h-0.12v-0.65
		C16.52,10.36,16.51,10.28,16.51,10.22"/>
	<path style="fill:#113365;" d="M17.23,9.99c-0.04,0-0.09-0.04-0.09-0.09c0-0.05,0.04-0.09,0.09-0.09c0.04,0,0.08,0.04,0.08,0.09
		C17.31,9.95,17.27,9.99,17.23,9.99 M17.29,11.06h-0.12v-0.84h0.12V11.06L17.29,11.06z"/>
	<path style="fill:#113365;" d="M18.22,11.06c0-0.04-0.01-0.11-0.01-0.14h0c-0.05,0.1-0.17,0.17-0.29,0.17
		c-0.21,0-0.32-0.14-0.32-0.34v-0.52h0.12v0.47c0,0.17,0.05,0.29,0.23,0.29c0.13,0,0.25-0.1,0.25-0.33v-0.43h0.12v0.66
		c0,0.04,0,0.13,0.01,0.18H18.22L18.22,11.06z"/>
	<path style="fill:#113365;" d="M19.05,10.2c0.09,0,0.2,0.03,0.26,0.17c0.06-0.12,0.16-0.17,0.29-0.17c0.21,0,0.32,0.14,0.32,0.34
		v0.51H19.8V10.6c0-0.17-0.06-0.29-0.22-0.29c-0.18,0-0.24,0.16-0.24,0.31v0.45h-0.12v-0.49c0-0.16-0.04-0.27-0.2-0.27
		c-0.12,0-0.24,0.1-0.24,0.33v0.43h-0.12v-0.65c0-0.05,0-0.13-0.01-0.19h0.12c0,0.05,0.01,0.11,0.01,0.14h0
		C18.82,10.27,18.93,10.2,19.05,10.2"/>
	<path style="fill:#113365;" d="M21.04,10.33h-0.2v0.74h-0.12v-0.74h-0.17v-0.1h0.17V9.99c0-0.19,0.09-0.31,0.29-0.31
		c0.03,0,0.07,0,0.1,0.01l-0.02,0.11C21.06,9.8,21.04,9.79,21,9.79c-0.13,0-0.16,0.09-0.16,0.21v0.21h0.2V10.33L21.04,10.33z"/>
	<path style="fill:#113365;" d="M21.83,11.06c0-0.04-0.01-0.11-0.01-0.14h0c-0.05,0.1-0.17,0.17-0.29,0.17
		c-0.21,0-0.32-0.14-0.32-0.34v-0.52h0.12v0.47c0,0.17,0.05,0.29,0.23,0.29c0.13,0,0.25-0.1,0.25-0.33v-0.43h0.12v0.66
		c0,0.04,0,0.13,0.01,0.18H21.83L21.83,11.06z M21.4,9.81c0.06,0,0.09,0.04,0.09,0.09c0,0.05-0.04,0.09-0.09,0.09
		c-0.05,0-0.09-0.05-0.09-0.09C21.31,9.86,21.35,9.81,21.4,9.81 M21.75,9.81c0.05,0,0.09,0.04,0.09,0.09c0,0.05-0.04,0.09-0.09,0.09
		s-0.09-0.05-0.09-0.09C21.65,9.86,21.69,9.81,21.75,9.81"/>
	<path style="fill:#113365;" d="M22.25,10.22h0.12c0,0.05,0.01,0.11,0.01,0.14h0c0.05-0.1,0.15-0.16,0.27-0.16
		c0.03,0,0.06,0,0.08,0.01l-0.02,0.12c-0.01-0.01-0.05-0.01-0.08-0.01c-0.13,0-0.25,0.09-0.25,0.32v0.43h-0.12v-0.65
		C22.26,10.36,22.26,10.28,22.25,10.22"/>
	<path style="fill:#113365;" d="M23.36,9.79h0.38c0.19,0,0.41,0.07,0.41,0.32c0,0.13-0.09,0.24-0.22,0.27v0
		c0.17,0.02,0.29,0.13,0.29,0.32c0,0.21-0.18,0.35-0.47,0.35h-0.38V9.79L23.36,9.79z M23.49,10.35h0.26c0.12,0,0.27-0.05,0.27-0.22
		c0-0.16-0.14-0.22-0.3-0.22h-0.23V10.35L23.49,10.35z M23.49,10.95h0.24c0.19,0,0.35-0.07,0.35-0.24c0-0.17-0.12-0.25-0.33-0.25
		h-0.26V10.95L23.49,10.95z"/>
	<path style="fill:#113365;" d="M24.56,9.99c-0.04,0-0.09-0.04-0.09-0.09c0-0.05,0.04-0.09,0.09-0.09c0.04,0,0.08,0.04,0.08,0.09
		C24.64,9.95,24.6,9.99,24.56,9.99 M24.62,11.06H24.5v-0.84h0.12V11.06L24.62,11.06z"/>
	<polygon style="fill:#113365;" points="24.95,11.06 25.07,11.06 25.07,9.71 24.95,9.71 24.95,11.06 	"/>
	<path style="fill:#113365;" d="M25.77,11.08c-0.26,0-0.43-0.19-0.43-0.44c0-0.25,0.17-0.44,0.43-0.44c0.12,0,0.25,0.06,0.32,0.16h0
		V9.71h0.12v1.35h-0.12v-0.14h0C26.02,11.02,25.89,11.08,25.77,11.08 M25.79,10.98c0.19,0,0.32-0.14,0.32-0.34
		c0-0.19-0.14-0.34-0.32-0.34c-0.2,0-0.32,0.15-0.32,0.34S25.58,10.98,25.79,10.98"/>
	<path style="fill:#113365;" d="M27.15,11.06c0-0.04-0.01-0.11-0.01-0.14h0c-0.04,0.1-0.17,0.17-0.29,0.17
		c-0.21,0-0.32-0.14-0.32-0.34v-0.52h0.12v0.47c0,0.17,0.05,0.29,0.23,0.29c0.13,0,0.25-0.1,0.25-0.33v-0.43h0.12v0.66
		c0,0.04,0,0.13,0.01,0.18H27.15L27.15,11.06z"/>
	<path style="fill:#113365;" d="M27.69,10.22c0,0.05,0.01,0.11,0.01,0.14h0c0.04-0.1,0.17-0.16,0.29-0.16
		c0.21,0,0.32,0.14,0.32,0.34v0.51h-0.12V10.6c0-0.17-0.05-0.29-0.23-0.29c-0.13,0-0.25,0.1-0.25,0.33v0.43h-0.12v-0.65
		c0-0.05,0-0.13-0.01-0.19H27.69L27.69,10.22z"/>
	<path style="fill:#113365;" d="M28.67,11.23c0.07,0.09,0.19,0.16,0.32,0.16c0.24,0,0.33-0.15,0.33-0.33V10.9h0
		c-0.06,0.1-0.2,0.16-0.32,0.16c-0.26,0-0.43-0.18-0.43-0.43c0-0.24,0.17-0.43,0.43-0.43c0.12,0,0.25,0.06,0.32,0.16h0v-0.15h0.12
		v0.83c0,0.18-0.08,0.43-0.45,0.43c-0.15,0-0.31-0.06-0.4-0.17L28.67,11.23L28.67,11.23z M29.01,10.96c0.19,0,0.32-0.13,0.32-0.32
		c0-0.18-0.13-0.33-0.32-0.33c-0.2,0-0.32,0.15-0.32,0.33C28.7,10.81,28.81,10.96,29.01,10.96"/>
	<polygon style="fill:#113365;" points="29.78,11.31 29.68,11.31 29.8,10.89 29.93,10.89 29.78,11.31 	"/>
	<polygon style="fill:#113365;" points="10.91,13.03 10.91,13.03 11.23,11.94 11.38,11.94 11.7,13.03 11.7,13.03 12.01,11.94 
		12.15,11.94 11.77,13.21 11.62,13.21 11.31,12.12 11.3,12.12 10.98,13.21 10.83,13.21 10.46,11.94 10.6,11.94 10.91,13.03 	"/>
	<path style="fill:#113365;" d="M12.4,12.14c-0.04,0-0.09-0.04-0.09-0.09c0-0.05,0.04-0.08,0.09-0.08c0.04,0,0.09,0.04,0.09,0.08
		C12.49,12.1,12.44,12.14,12.4,12.14 M12.46,13.21h-0.12v-0.84h0.12V13.21L12.46,13.21z"/>
	<path style="fill:#113365;" d="M13.23,12.57c-0.04-0.07-0.11-0.12-0.21-0.12c-0.09,0-0.18,0.04-0.18,0.13
		c0,0.08,0.06,0.11,0.2,0.14c0.2,0.04,0.29,0.11,0.29,0.25c0,0.19-0.16,0.26-0.32,0.26c-0.13,0-0.25-0.05-0.33-0.16l0.1-0.07
		c0.04,0.07,0.13,0.13,0.23,0.13c0.1,0,0.2-0.04,0.2-0.15c0-0.09-0.09-0.12-0.25-0.16c-0.1-0.02-0.24-0.07-0.24-0.23
		c0-0.17,0.15-0.25,0.3-0.25c0.12,0,0.24,0.06,0.29,0.15L13.23,12.57L13.23,12.57z"/>
	<path style="fill:#113365;" d="M14.03,12.57c-0.04-0.07-0.11-0.12-0.21-0.12c-0.09,0-0.18,0.04-0.18,0.13
		c0,0.08,0.06,0.11,0.2,0.14c0.2,0.04,0.29,0.11,0.29,0.25c0,0.19-0.16,0.26-0.32,0.26c-0.13,0-0.25-0.05-0.33-0.16l0.1-0.07
		c0.04,0.07,0.14,0.13,0.23,0.13c0.1,0,0.2-0.04,0.2-0.15c0-0.09-0.09-0.12-0.25-0.16c-0.1-0.02-0.24-0.07-0.24-0.23
		c0-0.17,0.15-0.25,0.3-0.25c0.12,0,0.24,0.06,0.29,0.15L14.03,12.57L14.03,12.57z"/>
	<path style="fill:#113365;" d="M15.14,12.82h-0.69c0,0.17,0.13,0.3,0.31,0.3c0.13,0,0.22-0.07,0.27-0.15l0.09,0.07
		c-0.1,0.13-0.22,0.18-0.36,0.18c-0.25,0-0.43-0.19-0.43-0.44c0-0.25,0.19-0.44,0.42-0.44c0.26,0,0.4,0.19,0.4,0.42
		C15.14,12.78,15.14,12.8,15.14,12.82 M15.02,12.73c0-0.16-0.1-0.27-0.28-0.27c-0.16,0-0.28,0.13-0.29,0.27H15.02L15.02,12.73z"/>
	<path style="fill:#113365;" d="M15.52,12.37c0,0.04,0.01,0.11,0.01,0.14h0c0.05-0.1,0.17-0.17,0.29-0.17
		c0.21,0,0.32,0.14,0.32,0.35v0.51h-0.12v-0.46c0-0.18-0.05-0.29-0.23-0.29c-0.13,0-0.25,0.1-0.25,0.33v0.43h-0.12v-0.65
		c0-0.05,0-0.13-0.01-0.18H15.52L15.52,12.37z"/>
	<path style="fill:#113365;" d="M16.89,12.57c-0.04-0.07-0.11-0.12-0.21-0.12c-0.09,0-0.18,0.04-0.18,0.13
		c0,0.08,0.06,0.11,0.2,0.14c0.2,0.04,0.29,0.11,0.29,0.25c0,0.19-0.16,0.26-0.32,0.26c-0.13,0-0.25-0.05-0.33-0.16l0.1-0.07
		c0.04,0.07,0.13,0.13,0.23,0.13c0.1,0,0.2-0.04,0.2-0.15c0-0.09-0.09-0.12-0.25-0.16c-0.1-0.02-0.24-0.07-0.24-0.23
		c0-0.17,0.15-0.25,0.3-0.25c0.12,0,0.24,0.06,0.29,0.15L16.89,12.57L16.89,12.57z"/>
	<path style="fill:#113365;" d="M17.85,12.56c-0.04-0.07-0.12-0.11-0.22-0.11c-0.2,0-0.32,0.15-0.32,0.34
		c0,0.19,0.12,0.34,0.32,0.34c0.1,0,0.18-0.05,0.23-0.11l0.09,0.07c-0.07,0.09-0.17,0.14-0.32,0.14c-0.27,0-0.45-0.19-0.45-0.44
		c0-0.25,0.18-0.44,0.45-0.44c0.11,0,0.24,0.05,0.31,0.15L17.85,12.56L17.85,12.56z"/>
	<path style="fill:#113365;" d="M18.27,12.51c0.04-0.1,0.16-0.16,0.28-0.16c0.21,0,0.32,0.14,0.32,0.35v0.51h-0.12v-0.46
		c0-0.18-0.05-0.29-0.23-0.29c-0.13,0-0.25,0.1-0.25,0.33v0.43h-0.12v-1.35h0.12L18.27,12.51L18.27,12.51L18.27,12.51z"/>
	<path style="fill:#113365;" d="M19.72,12.67c0-0.15-0.08-0.22-0.22-0.22c-0.1,0-0.19,0.04-0.25,0.1l-0.07-0.08
		c0.07-0.07,0.19-0.12,0.33-0.12c0.18,0,0.33,0.1,0.33,0.3v0.37c0,0.06,0.01,0.14,0.01,0.19h-0.11c-0.01-0.04-0.01-0.09-0.01-0.14h0
		c-0.08,0.11-0.17,0.16-0.3,0.16c-0.13,0-0.29-0.07-0.29-0.25c0-0.26,0.28-0.28,0.59-0.28V12.67L19.72,12.67z M19.68,12.79
		c-0.2,0-0.43,0.02-0.43,0.18c0,0.12,0.1,0.16,0.2,0.16c0.17,0,0.27-0.13,0.27-0.28v-0.06H19.68L19.68,12.79z"/>
	<path style="fill:#113365;" d="M20.5,12.47h-0.2v0.74h-0.12v-0.74h-0.18v-0.1h0.18v-0.23c0-0.19,0.09-0.31,0.28-0.31
		c0.03,0,0.07,0,0.1,0.01l-0.02,0.11c-0.02-0.01-0.05-0.01-0.08-0.01c-0.13,0-0.16,0.09-0.16,0.21v0.21h0.2V12.47L20.5,12.47z"/>
	<path style="fill:#113365;" d="M21.03,12.47H20.8v0.49c0,0.12,0.05,0.15,0.13,0.15c0.03,0,0.07-0.01,0.11-0.03l0,0.1
		c-0.04,0.02-0.09,0.03-0.14,0.03c-0.09,0-0.22-0.04-0.22-0.22v-0.53H20.5v-0.1h0.17v-0.23h0.12v0.23h0.24V12.47L21.03,12.47z"/>
	<path style="fill:#113365;" d="M22.28,13.21c0-0.04-0.01-0.11-0.01-0.14h0c-0.05,0.1-0.17,0.16-0.29,0.16
		c-0.21,0-0.32-0.14-0.32-0.35v-0.51h0.12v0.46c0,0.18,0.05,0.29,0.23,0.29c0.13,0,0.25-0.1,0.25-0.33v-0.43h0.12v0.66
		c0,0.04,0,0.13,0.01,0.18H22.28L22.28,13.21z"/>
	<path style="fill:#113365;" d="M22.83,12.37c0,0.04,0.01,0.11,0.01,0.14h0c0.05-0.1,0.17-0.17,0.29-0.17
		c0.21,0,0.32,0.14,0.32,0.35v0.51h-0.12v-0.46c0-0.18-0.05-0.29-0.23-0.29c-0.13,0-0.25,0.1-0.25,0.33v0.43h-0.12v-0.65
		c0-0.05,0-0.13-0.01-0.18H22.83L22.83,12.37z"/>
	<path style="fill:#113365;" d="M24.13,13.23c-0.26,0-0.43-0.2-0.43-0.44s0.17-0.44,0.43-0.44c0.12,0,0.25,0.06,0.32,0.17h0v-0.66
		h0.12v1.35h-0.12v-0.14h0C24.38,13.17,24.25,13.23,24.13,13.23 M24.15,13.13c0.19,0,0.32-0.15,0.32-0.34
		c0-0.19-0.13-0.34-0.32-0.34c-0.2,0-0.32,0.15-0.32,0.34C23.83,12.98,23.94,13.13,24.15,13.13"/>
	<polygon style="fill:#113365;" points="25.49,12.51 25.49,12.51 26.09,11.94 26.28,11.94 25.64,12.52 26.31,13.21 26.12,13.21 
		25.49,12.53 25.49,12.53 25.49,13.21 25.36,13.21 25.36,11.94 25.49,11.94 25.49,12.51 	"/>
	<path style="fill:#113365;" d="M27.03,13.21c0-0.04-0.01-0.11-0.01-0.14h0c-0.05,0.1-0.17,0.16-0.29,0.16
		c-0.21,0-0.32-0.14-0.32-0.35v-0.51h0.12v0.46c0,0.18,0.05,0.29,0.23,0.29c0.13,0,0.25-0.1,0.25-0.33v-0.43h0.12v0.66
		c0,0.04,0,0.13,0.01,0.18H27.03L27.03,13.21z"/>
	<polygon style="fill:#113365;" points="27.47,13.21 27.59,13.21 27.59,11.86 27.47,11.86 27.47,13.21 	"/>
	<path style="fill:#113365;" d="M28.3,12.47h-0.24v0.49c0,0.12,0.05,0.15,0.12,0.15c0.04,0,0.08-0.01,0.1-0.03l0.01,0.1
		c-0.04,0.02-0.09,0.03-0.14,0.03c-0.09,0-0.21-0.04-0.21-0.22v-0.53h-0.17v-0.1h0.17v-0.23h0.12v0.23h0.24V12.47L28.3,12.47z"/>
	<path style="fill:#113365;" d="M29.1,13.21c0-0.04-0.01-0.11-0.01-0.14h0c-0.05,0.1-0.17,0.16-0.28,0.16
		c-0.21,0-0.32-0.14-0.32-0.35v-0.51h0.12v0.46c0,0.18,0.05,0.29,0.23,0.29c0.13,0,0.25-0.1,0.25-0.33v-0.43h0.12v0.66
		c0,0.04,0,0.13,0.01,0.18H29.1L29.1,13.21z"/>
	<path style="fill:#113365;" d="M29.53,12.37h0.11c0,0.04,0.01,0.11,0.01,0.14h0c0.05-0.1,0.15-0.17,0.27-0.17
		c0.03,0,0.06,0,0.08,0.01l-0.02,0.11c-0.01,0-0.05-0.01-0.09-0.01c-0.13,0-0.25,0.09-0.25,0.32v0.43h-0.12v-0.65
		C29.53,12.51,29.53,12.43,29.53,12.37"/>
</g>
</svg>
