<?xml version="1.0" encoding="utf-8"?>
<!-- Generator: Adobe Illustrator 16.0.3, SVG Export Plug-In . SVG Version: 6.00 Build 0)  -->
<!DOCTYPE svg PUBLIC "-//W3C//DTD SVG 1.1//EN" "http://www.w3.org/Graphics/SVG/1.1/DTD/svg11.dtd">
<svg version="1.1" id="Layer_1" xmlns="http://www.w3.org/2000/svg" xmlns:xlink="http://www.w3.org/1999/xlink" x="0px" y="0px"
	 width="100px" height="19.93px" viewBox="0 0 100 19.93" style="enable-background:new 0 0 100 19.93;" xml:space="preserve">
<g>
	<path style="fill:#272525;" d="M1.02,19.86h0.41v-1.44h0.03l1.23,1.44h0.52l-1.34-1.54l1.23-1.44h-0.5l-1.14,1.4H1.43v-1.4H1.02
		V19.86L1.02,19.86z M4.69,17.79v1.18c-0.07,0.36-0.31,0.61-0.59,0.61c-0.27,0-0.39-0.19-0.39-0.46v-1.32h-0.4v1.32
		c0,0.63,0.43,0.78,0.71,0.78c0.42,0,0.63-0.3,0.67-0.39h0.03c0,0.12,0,0.27,0,0.36h0.4c-0.02-0.11-0.03-0.25-0.03-0.36v-1.72H4.69
		L4.69,17.79z M6.13,17.72l-0.04-0.84H5.74v2.98h0.39V17.72L6.13,17.72z M6.6,18.09h0.33v1.17c0,0.4,0.22,0.64,0.62,0.64
		c0.14,0,0.27-0.05,0.35-0.1v-0.31c-0.06,0.03-0.18,0.06-0.3,0.06c-0.19,0-0.28-0.11-0.28-0.3v-1.17H7.9v-0.3H7.31v-0.62h-0.3
		l-0.07,0.62H6.6V18.09L6.6,18.09z M9.7,17.79v1.18c-0.07,0.36-0.31,0.61-0.59,0.61c-0.27,0-0.39-0.19-0.39-0.46v-1.32h-0.4v1.32
		c0,0.63,0.43,0.78,0.71,0.78c0.42,0,0.63-0.3,0.68-0.39h0.02c0,0.12,0,0.27,0,0.36h0.4c-0.02-0.11-0.03-0.25-0.03-0.36v-1.72H9.7
		L9.7,17.79z M10.7,19.86h0.39v-0.92c0.02-0.44,0.24-0.83,0.64-0.83c0.08,0,0.18,0.02,0.23,0.05v-0.35
		c-0.06-0.03-0.15-0.06-0.26-0.06c-0.3,0-0.53,0.3-0.6,0.57h-0.02l-0.02-0.54h-0.37c0.02,0.18,0.03,0.35,0.03,0.54V19.86L10.7,19.86
		z M13.45,19.86h0.39v-2.07h-0.39V19.86L13.45,19.86z M13.39,17.13c0,0.15,0.11,0.25,0.25,0.25c0.15,0,0.26-0.1,0.26-0.25
		c0-0.15-0.11-0.25-0.26-0.25C13.5,16.88,13.39,16.98,13.39,17.13 M15.72,19.86h0.39v-1.24c0.1-0.36,0.33-0.58,0.56-0.58
		c0.19,0,0.35,0.12,0.35,0.4v1.43h0.39v-1.39c0-0.6-0.42-0.74-0.69-0.74c-0.41,0-0.57,0.27-0.66,0.42h-0.03
		c-0.11-0.34-0.34-0.42-0.57-0.42c-0.42,0-0.61,0.33-0.65,0.42h-0.02c0-0.19,0-0.37,0-0.37h-0.4c0.02,0.11,0.02,0.25,0.02,0.37v1.71
		h0.39v-1.19c0.07-0.36,0.33-0.62,0.6-0.62c0.18,0,0.33,0.13,0.33,0.4V19.86L15.72,19.86z M18.8,16.88l0.69,2.98h0.49l0.67-2.47
		h0.02l0.65,2.47h0.49l0.7-2.98H22.1l-0.51,2.42h-0.03l-0.64-2.42h-0.5l-0.65,2.42h-0.03l-0.5-2.42H18.8L18.8,16.88z M24.37,19.86
		c-0.02-0.11-0.02-0.25-0.02-0.34v-1.03c0-0.52-0.35-0.76-0.82-0.76c-0.49,0-0.78,0.3-0.86,0.66h0.42
		c-0.01-0.19,0.14-0.37,0.44-0.37c0.3,0,0.46,0.17,0.46,0.46v0.22c-0.18-0.06-0.38-0.1-0.63-0.09c-0.44,0.01-0.73,0.29-0.73,0.67
		c0,0.36,0.24,0.63,0.65,0.63c0.27,0,0.52-0.13,0.7-0.32h0.02c0,0.1-0.02,0.27-0.02,0.27H24.37L24.37,19.86z M23.97,19.31
		c-0.09,0.11-0.32,0.31-0.57,0.31c-0.26,0-0.4-0.13-0.4-0.36c0-0.22,0.16-0.37,0.42-0.38c0.18,0,0.38,0.02,0.54,0.06V19.31
		L23.97,19.31z M24.9,19.86h0.39v-1.21c0.08-0.34,0.32-0.61,0.61-0.61c0.23,0,0.36,0.17,0.36,0.45v1.36h0.4v-1.35
		c0-0.63-0.44-0.76-0.69-0.76c-0.39,0-0.61,0.3-0.67,0.39h-0.02v-0.35h-0.4c0.02,0.12,0.02,0.25,0.02,0.35V19.86L24.9,19.86z
		 M28.55,17.79c0,0.14,0,0.28,0,0.28h-0.02c-0.06-0.09-0.24-0.33-0.61-0.33c-0.55,0-0.86,0.48-0.86,1.08c0,0.57,0.31,1.08,0.9,1.08
		c0.27,0,0.47-0.13,0.61-0.34h0.03c0,0.09,0,0.22,0,0.31h0.35c-0.01-0.08-0.01-0.22-0.01-0.31v-2.68h-0.39V17.79L28.55,17.79z
		 M27.46,18.82c0-0.43,0.17-0.78,0.55-0.78c0.33,0,0.53,0.32,0.54,0.55v0.5c-0.01,0.21-0.23,0.51-0.52,0.51
		C27.65,19.6,27.46,19.29,27.46,18.82 M31.27,18.88c0.05-0.49-0.16-1.14-0.92-1.14c-0.58,0-0.95,0.49-0.95,1.07
		c0,0.67,0.39,1.11,0.97,1.11c0.54,0,0.85-0.36,0.89-0.7H30.9c-0.05,0.24-0.24,0.4-0.5,0.4c-0.4,0-0.6-0.31-0.61-0.74H31.27
		L31.27,18.88z M29.81,18.6c0.04-0.38,0.28-0.58,0.55-0.58c0.42,0,0.53,0.38,0.52,0.58L29.81,18.6L29.81,18.6z M32.16,17.72
		l-0.04-0.84h-0.35v2.98h0.39V17.72L32.16,17.72z"/>
	<path style="fill:#272525;" d="M0.94,15.19h0.42l0.29-2.37h0.03l0.79,2.42h0.3l0.77-2.42h0.03l0.29,2.37h0.43l-0.41-2.98H3.36
		l-0.73,2.34H2.61l-0.76-2.34H1.35L0.94,15.19L0.94,15.19z M4.59,14.16c0,0.58,0.38,1.11,1.04,1.11c0.66,0,1.02-0.56,1.02-1.1
		c0-0.47-0.31-1.09-1.02-1.09C4.91,13.07,4.59,13.68,4.59,14.16 M4.99,14.16c0-0.63,0.36-0.8,0.63-0.8c0.33,0,0.62,0.27,0.62,0.8
		c0,0.56-0.3,0.81-0.62,0.81C5.19,14.97,4.99,14.58,4.99,14.16 M8.49,13.12c0,0.14,0,0.28,0,0.28H8.46
		c-0.06-0.09-0.24-0.33-0.61-0.33c-0.54,0-0.86,0.48-0.86,1.08c0,0.57,0.32,1.08,0.9,1.08c0.27,0,0.48-0.13,0.62-0.34h0.02
		c0,0.09,0,0.22,0,0.31h0.35c-0.01-0.08-0.01-0.22-0.01-0.31v-2.67H8.49V13.12L8.49,13.12z M7.39,14.15c0-0.43,0.17-0.79,0.55-0.79
		c0.33,0,0.53,0.32,0.54,0.55v0.51c-0.02,0.21-0.23,0.51-0.52,0.51C7.59,14.93,7.39,14.62,7.39,14.15 M11.18,14.21
		c0.05-0.49-0.16-1.14-0.92-1.14c-0.58,0-0.94,0.49-0.94,1.07c0,0.67,0.39,1.12,0.97,1.12c0.54,0,0.85-0.36,0.9-0.7h-0.38
		c-0.05,0.24-0.24,0.4-0.5,0.4c-0.4,0-0.6-0.31-0.61-0.74H11.18L11.18,14.21z M9.72,13.93c0.04-0.38,0.28-0.58,0.55-0.58
		c0.42,0,0.53,0.38,0.53,0.58L9.72,13.93L9.72,13.93z M12.11,13.05l-0.04-0.84h-0.35v2.98h0.39V13.05L12.11,13.05z M13.1,13.05
		l-0.04-0.84h-0.35v2.98h0.39V13.05L13.1,13.05z M15.43,14.21c0.05-0.49-0.16-1.14-0.92-1.14c-0.58,0-0.94,0.49-0.94,1.07
		c0,0.67,0.39,1.12,0.97,1.12c0.54,0,0.85-0.36,0.9-0.7h-0.38c-0.05,0.24-0.24,0.4-0.5,0.4c-0.4,0-0.6-0.31-0.61-0.74H15.43
		L15.43,14.21z M13.97,13.93c0.04-0.38,0.28-0.58,0.55-0.58c0.42,0,0.53,0.38,0.53,0.58L13.97,13.93L13.97,13.93z M17.96,12.2
		c-0.04-0.01-0.09-0.01-0.14-0.01c-0.39,0-0.58,0.25-0.58,0.63v0.3H16.9v0.3h0.34v1.77h0.38v-1.77H18v-0.3h-0.38v-0.31
		c0-0.18,0.09-0.34,0.34-0.3V12.2L17.96,12.2z M19.81,13.12v1.18c-0.06,0.36-0.31,0.61-0.59,0.61c-0.27,0-0.39-0.19-0.39-0.46v-1.33
		h-0.4v1.32c0,0.63,0.43,0.78,0.7,0.78c0.42,0,0.63-0.3,0.67-0.38h0.03c0,0.12,0,0.27,0,0.36h0.4c-0.02-0.11-0.03-0.25-0.03-0.35
		v-1.72H19.81L19.81,13.12z M18.69,12.53c0,0.15,0.11,0.25,0.25,0.25c0.15,0,0.26-0.1,0.26-0.25c0-0.15-0.11-0.25-0.26-0.25
		C18.8,12.27,18.69,12.38,18.69,12.53 M19.45,12.53c0,0.15,0.11,0.25,0.26,0.25c0.14,0,0.26-0.1,0.26-0.25
		c0-0.15-0.12-0.25-0.26-0.25C19.56,12.27,19.45,12.38,19.45,12.53 M20.82,15.19h0.39v-0.92c0.02-0.44,0.25-0.83,0.64-0.83
		c0.08,0,0.17,0.03,0.23,0.05v-0.35c-0.06-0.03-0.15-0.06-0.26-0.06c-0.3,0-0.53,0.3-0.6,0.57h-0.02l-0.02-0.54H20.8
		c0.02,0.18,0.02,0.36,0.02,0.54V15.19L20.82,15.19z"/>
	<polyline style="fill:#272525;" points="0,3.52 2.56,3.52 2.56,10.38 3.97,10.38 3.97,3.52 6.54,3.52 6.54,2.3 0,2.3 	"/>
	<path style="fill:#272525;" d="M7.21,8.48h1.41V5.16h2.08c0.33,0,0.59,0.04,0.8,0.12c0.21,0.08,0.37,0.21,0.49,0.39
		c0.12,0.18,0.2,0.4,0.25,0.67c0.04,0.27,0.07,0.59,0.07,0.96c0,0.2,0.01,0.4,0.03,0.61s0.08,0.41,0.19,0.58h1.52
		c-0.15-0.17-0.26-0.44-0.33-0.83c-0.07-0.39-0.1-0.82-0.1-1.29c0-0.32-0.04-0.58-0.12-0.79c-0.08-0.21-0.18-0.38-0.3-0.52
		c-0.12-0.13-0.25-0.23-0.39-0.29c-0.14-0.06-0.27-0.1-0.39-0.11V4.63c0.07-0.02,0.17-0.07,0.32-0.14c0.15-0.07,0.29-0.18,0.45-0.33
		c0.15-0.15,0.28-0.36,0.4-0.61c0.11-0.25,0.17-0.57,0.17-0.96c0-0.68-0.22-1.22-0.67-1.6c-0.45-0.38-1.11-0.58-2-0.58H7.21V8.48
		L7.21,8.48z M8.62,1.56h2.3c0.18,0,0.36,0.01,0.53,0.05c0.17,0.03,0.32,0.09,0.45,0.18c0.13,0.09,0.23,0.22,0.31,0.38
		c0.07,0.16,0.11,0.37,0.11,0.63c0,0.43-0.12,0.75-0.35,0.97c-0.23,0.21-0.58,0.32-1.03,0.32H8.62V1.56L8.62,1.56z"/>
	<path style="fill:#272525;" d="M13.82,10.38h1.46l0.76-2.14h3.23l0.76,2.14h1.52L18.43,2.3h-1.5L13.82,10.38L13.82,10.38z
		 M17.65,3.69h0.03l1.21,3.47h-2.47L17.65,3.69L17.65,3.69z"/>
	<polygon style="fill:#272525;" points="23.64,0 19.98,4.21 26.08,9.51 27.01,8.44 24.3,6.09 26.7,3.33 25.83,2.57 23.43,5.33 
		21.84,3.94 24.57,0.8 23.64,0 	"/>
	<path style="fill:#272525;" d="M31.8,2.56c0.34,0.12,0.63,0.3,0.88,0.55c0.25,0.25,0.45,0.55,0.6,0.9
		c0.16,0.35,0.27,0.71,0.34,1.09c0.07,0.38,0.09,0.76,0.06,1.13c-0.03,0.38-0.11,0.73-0.25,1.05C33.29,7.6,33.08,7.87,32.8,8.1
		c-0.28,0.23-0.63,0.38-1.05,0.45c-0.42,0.08-0.81,0.06-1.14-0.06c-0.34-0.12-0.63-0.3-0.87-0.55c-0.25-0.25-0.45-0.55-0.6-0.9
		c-0.16-0.35-0.27-0.71-0.34-1.09c-0.07-0.38-0.09-0.76-0.06-1.14c0.03-0.38,0.11-0.73,0.25-1.05c0.14-0.32,0.35-0.59,0.63-0.82
		c0.28-0.23,0.63-0.38,1.05-0.46C31.08,2.42,31.46,2.44,31.8,2.56 M28.92,1.99c-0.43,0.31-0.78,0.68-1.03,1.12
		c-0.26,0.44-0.43,0.92-0.51,1.46C27.29,5.1,27.3,5.65,27.4,6.21c0.1,0.57,0.29,1.1,0.55,1.57c0.27,0.47,0.59,0.87,0.99,1.19
		c0.4,0.32,0.85,0.55,1.36,0.68c0.51,0.13,1.06,0.15,1.66,0.04c0.59-0.11,1.11-0.31,1.54-0.62c0.43-0.31,0.78-0.67,1.03-1.11
		c0.26-0.44,0.43-0.93,0.51-1.46s0.07-1.09-0.03-1.66c-0.1-0.56-0.29-1.08-0.55-1.55c-0.27-0.47-0.6-0.87-0.99-1.19
		c-0.39-0.32-0.85-0.55-1.36-0.68c-0.51-0.14-1.06-0.15-1.66-0.05C29.86,1.47,29.35,1.68,28.92,1.99"/>
	<polygon style="fill:#272525;" points="36.87,19.89 62.27,19.89 62.27,9.52 36.87,9.52 36.87,19.89 	"/>
	<path style="fill-rule:evenodd;clip-rule:evenodd;fill:#FFFFFF;" d="M49.96,17.37v2.04h0.76c0.06,0,0.1,0,0.15,0
		c0.3-0.01,0.47-0.09,0.58-0.26c0.07-0.1,0.09-0.22,0.09-0.32c0-0.1-0.02-0.23-0.11-0.34c-0.09-0.11-0.21-0.14-0.24-0.15
		c0.01-0.01,0.06-0.03,0.11-0.06c0.14-0.11,0.18-0.25,0.18-0.39c0-0.03,0-0.19-0.12-0.33c-0.04-0.05-0.08-0.07-0.1-0.08
		c-0.19-0.12-0.47-0.11-0.66-0.11H49.96L49.96,17.37z M50.23,17.63h0.55c0.01,0,0.08,0,0.13,0c0.08,0.01,0.14,0.04,0.17,0.06
		c0.06,0.04,0.11,0.12,0.11,0.24c0,0.02,0,0.12-0.06,0.19c-0.05,0.06-0.12,0.11-0.25,0.12c-0.04,0-0.06,0-0.1,0h-0.55V17.63
		L50.23,17.63z M50.23,18.48h0.49c0.23,0,0.37,0.01,0.47,0.13c0.03,0.04,0.07,0.11,0.07,0.21c0,0.06-0.02,0.15-0.08,0.21
		c-0.12,0.13-0.29,0.13-0.41,0.13h-0.54V18.48L50.23,18.48z"/>
	<path style="fill:none;stroke:#FFFFFF;stroke-width:0.0199;stroke-miterlimit:3.864;" d="M49.96,17.37v2.04h0.76
		c0.06,0,0.1,0,0.15,0c0.3-0.01,0.47-0.09,0.58-0.26c0.07-0.1,0.09-0.22,0.09-0.32c0-0.1-0.02-0.23-0.11-0.34
		c-0.09-0.11-0.21-0.14-0.24-0.15c0.01-0.01,0.06-0.03,0.11-0.06c0.14-0.11,0.18-0.25,0.18-0.39c0-0.03,0-0.19-0.12-0.33
		c-0.04-0.05-0.08-0.07-0.1-0.08c-0.19-0.12-0.47-0.11-0.66-0.11H49.96L49.96,17.37z M50.23,17.63h0.55c0.01,0,0.08,0,0.13,0
		c0.08,0.01,0.14,0.04,0.17,0.06c0.06,0.04,0.11,0.12,0.11,0.24c0,0.02,0,0.12-0.06,0.19c-0.05,0.06-0.12,0.11-0.25,0.12
		c-0.04,0-0.06,0-0.1,0h-0.55V17.63L50.23,17.63z M50.23,18.48h0.49c0.23,0,0.37,0.01,0.47,0.13c0.03,0.04,0.07,0.11,0.07,0.21
		c0,0.06-0.02,0.15-0.08,0.21c-0.12,0.13-0.29,0.13-0.41,0.13h-0.54V18.48L50.23,18.48z"/>
	<path style="fill:#FFFFFF;" d="M51.96,17.37v1.04c0,0.04,0,0.08,0,0.13c0,0.27,0.01,0.42,0.08,0.55c0.05,0.1,0.11,0.16,0.15,0.2
		c0.17,0.15,0.39,0.18,0.56,0.18c0.04,0,0.16,0,0.28-0.02c0.12-0.03,0.21-0.08,0.25-0.11c0.03-0.02,0.04-0.03,0.06-0.04
		c0.24-0.21,0.23-0.47,0.23-0.67v-1.25h-0.29v1.12c0,0.04,0,0.09,0,0.13c0,0.15-0.01,0.23-0.03,0.3c-0.08,0.23-0.32,0.27-0.49,0.27
		c-0.24,0-0.38-0.09-0.45-0.23c-0.04-0.08-0.05-0.18-0.05-0.36v-1.23H51.96L51.96,17.37z"/>
	<path style="fill:none;stroke:#FFFFFF;stroke-width:0.0199;stroke-miterlimit:3.864;" d="M51.96,17.37v1.04c0,0.04,0,0.08,0,0.13
		c0,0.27,0.01,0.42,0.08,0.55c0.05,0.1,0.11,0.16,0.15,0.2c0.17,0.15,0.39,0.18,0.56,0.18c0.04,0,0.16,0,0.28-0.02
		c0.12-0.03,0.21-0.08,0.25-0.11c0.03-0.02,0.04-0.03,0.06-0.04c0.24-0.21,0.23-0.47,0.23-0.67v-1.25h-0.29v1.12
		c0,0.04,0,0.09,0,0.13c0,0.15-0.01,0.23-0.03,0.3c-0.08,0.23-0.32,0.27-0.49,0.27c-0.24,0-0.38-0.09-0.45-0.23
		c-0.04-0.08-0.05-0.18-0.05-0.36v-1.23H51.96L51.96,17.37z"/>
	<path style="fill:#FFFFFF;" d="M54.07,17.37v2.04h0.28v-1.08c0-0.2,0-0.33-0.01-0.53l0-0.04c0.01,0.02,0.02,0.03,0.03,0.05
		c0.05,0.08,0.08,0.14,0.14,0.23c0.08,0.13,0.14,0.23,0.23,0.36l0.65,1.01h0.29v-2.04H55.4v1.08c0,0.17,0,0.29,0.01,0.46
		c0,0.04,0,0.07,0.01,0.12c-0.05-0.09-0.08-0.15-0.14-0.24c-0.01-0.03-0.03-0.05-0.05-0.08c-0.05-0.09-0.1-0.16-0.16-0.25l-0.71-1.1
		H54.07L54.07,17.37z"/>
	<path style="fill:none;stroke:#FFFFFF;stroke-width:0.0199;stroke-miterlimit:3.864;" d="M54.07,17.37v2.04h0.28v-1.08
		c0-0.2,0-0.33-0.01-0.53l0-0.04c0.01,0.02,0.02,0.03,0.03,0.05c0.05,0.08,0.08,0.14,0.14,0.23c0.08,0.13,0.14,0.23,0.23,0.36
		l0.65,1.01h0.29v-2.04H55.4v1.08c0,0.17,0,0.29,0.01,0.46c0,0.04,0,0.07,0.01,0.12c-0.05-0.09-0.08-0.15-0.14-0.24
		c-0.01-0.03-0.03-0.05-0.05-0.08c-0.05-0.09-0.1-0.16-0.16-0.25l-0.71-1.1H54.07L54.07,17.37z"/>
	<path style="fill-rule:evenodd;clip-rule:evenodd;fill:#FFFFFF;" d="M56.22,17.37v2.04h0.61c0.04,0,0.26,0.01,0.44-0.05
		c0.12-0.04,0.2-0.09,0.25-0.13c0.04-0.03,0.1-0.09,0.17-0.2c0.14-0.2,0.17-0.44,0.17-0.65c0-0.05,0-0.39-0.16-0.64
		c-0.04-0.06-0.08-0.12-0.15-0.17c-0.02-0.02-0.07-0.05-0.07-0.05c-0.15-0.1-0.33-0.15-0.66-0.15H56.22L56.22,17.37z M56.51,17.63
		h0.32c0.01,0,0.2,0,0.32,0.03c0.03,0.01,0.13,0.04,0.22,0.12c0.12,0.12,0.19,0.31,0.19,0.6c0,0.27-0.06,0.45-0.15,0.57
		c-0.05,0.06-0.1,0.1-0.13,0.11c-0.17,0.11-0.37,0.11-0.41,0.11h-0.37V17.63L56.51,17.63z"/>
	<path style="fill:none;stroke:#FFFFFF;stroke-width:0.0199;stroke-miterlimit:3.864;" d="M56.22,17.37v2.04h0.61
		c0.04,0,0.26,0.01,0.44-0.05c0.12-0.04,0.2-0.09,0.25-0.13c0.04-0.03,0.1-0.09,0.17-0.2c0.14-0.2,0.17-0.44,0.17-0.65
		c0-0.05,0-0.39-0.16-0.64c-0.04-0.06-0.08-0.12-0.15-0.17c-0.02-0.02-0.07-0.05-0.07-0.05c-0.15-0.1-0.33-0.15-0.66-0.15H56.22
		L56.22,17.37z M56.51,17.63h0.32c0.01,0,0.2,0,0.32,0.03c0.03,0.01,0.13,0.04,0.22,0.12c0.12,0.12,0.19,0.31,0.19,0.6
		c0,0.27-0.06,0.45-0.15,0.57c-0.05,0.06-0.1,0.1-0.13,0.11c-0.17,0.11-0.37,0.11-0.41,0.11h-0.37V17.63L56.51,17.63z"/>
	<polygon style="fill:#FFFFFF;" points="58.25,17.37 58.25,19.41 59.73,19.41 59.73,19.16 58.53,19.16 58.53,18.48 59.58,18.48 
		59.58,18.24 58.53,18.24 58.53,17.63 59.69,17.63 59.69,17.37 58.25,17.37 	"/>
	<polygon style="fill:none;stroke:#FFFFFF;stroke-width:0.0199;stroke-miterlimit:3.864;" points="58.25,17.37 58.25,19.41 
		59.73,19.41 59.73,19.16 58.53,19.16 58.53,18.48 59.58,18.48 59.58,18.24 58.53,18.24 58.53,17.63 59.69,17.63 59.69,17.37 
		58.25,17.37 	"/>
	<path style="fill:#FFFFFF;" d="M61.61,18c0-0.01,0-0.06-0.01-0.1c0-0.03-0.02-0.11-0.07-0.21c-0.11-0.22-0.32-0.37-0.7-0.37
		c-0.24,0-0.42,0.06-0.52,0.13c-0.24,0.16-0.24,0.41-0.24,0.47c0,0.03,0,0.13,0.07,0.24c0.04,0.07,0.08,0.11,0.14,0.15
		c0.12,0.08,0.27,0.12,0.39,0.15l0.19,0.04c0.07,0.02,0.12,0.03,0.19,0.05c0.08,0.02,0.21,0.06,0.29,0.15
		c0.04,0.05,0.06,0.11,0.06,0.16c0,0.03,0,0.12-0.09,0.22c-0.02,0.02-0.04,0.04-0.08,0.06c-0.07,0.04-0.19,0.08-0.36,0.08
		c-0.2,0-0.33-0.06-0.42-0.13c-0.02-0.01-0.04-0.04-0.08-0.08c-0.09-0.13-0.09-0.25-0.1-0.29h-0.3c0,0.02,0,0.05,0.01,0.09
		c0,0.02,0.02,0.09,0.04,0.16c0.03,0.11,0.1,0.22,0.21,0.32l0.01,0.01c0.19,0.16,0.43,0.19,0.62,0.19c0.19,0,0.48-0.03,0.67-0.24
		c0.14-0.16,0.14-0.34,0.14-0.38c0-0.03,0-0.17-0.08-0.3c-0.07-0.11-0.18-0.2-0.42-0.27c-0.06-0.02-0.1-0.03-0.17-0.04l-0.25-0.05
		c-0.1-0.02-0.28-0.06-0.36-0.17c-0.02-0.03-0.05-0.07-0.05-0.14c0-0.02,0.01-0.09,0.06-0.16c0.08-0.09,0.21-0.14,0.4-0.14
		c0.02,0,0.21,0,0.34,0.1c0.12,0.09,0.15,0.22,0.17,0.33H61.61L61.61,18z"/>
	<path style="fill:none;stroke:#FFFFFF;stroke-width:0.0199;stroke-miterlimit:3.864;" d="M61.61,18c0-0.01,0-0.06-0.01-0.1
		c0-0.03-0.02-0.11-0.07-0.21c-0.11-0.22-0.32-0.37-0.7-0.37c-0.24,0-0.42,0.06-0.52,0.13c-0.24,0.16-0.24,0.41-0.24,0.47
		c0,0.03,0,0.13,0.07,0.24c0.04,0.07,0.08,0.11,0.14,0.15c0.12,0.08,0.27,0.12,0.39,0.15l0.19,0.04c0.07,0.02,0.12,0.03,0.19,0.05
		c0.08,0.02,0.21,0.06,0.29,0.15c0.04,0.05,0.06,0.11,0.06,0.16c0,0.03,0,0.12-0.09,0.22c-0.02,0.02-0.04,0.04-0.08,0.06
		c-0.07,0.04-0.19,0.08-0.36,0.08c-0.2,0-0.33-0.06-0.42-0.13c-0.02-0.01-0.04-0.04-0.08-0.08c-0.09-0.13-0.09-0.25-0.1-0.29h-0.3
		c0,0.02,0,0.05,0.01,0.09c0,0.02,0.02,0.09,0.04,0.16c0.03,0.11,0.1,0.22,0.21,0.32l0.01,0.01c0.19,0.16,0.43,0.19,0.62,0.19
		c0.19,0,0.48-0.03,0.67-0.24c0.14-0.16,0.14-0.34,0.14-0.38c0-0.03,0-0.17-0.08-0.3c-0.07-0.11-0.18-0.2-0.42-0.27
		c-0.06-0.02-0.1-0.03-0.17-0.04l-0.25-0.05c-0.1-0.02-0.28-0.06-0.36-0.17c-0.02-0.03-0.05-0.07-0.05-0.14
		c0-0.02,0.01-0.09,0.06-0.16c0.08-0.09,0.21-0.14,0.4-0.14c0.02,0,0.21,0,0.34,0.1c0.12,0.09,0.15,0.22,0.17,0.33H61.61L61.61,18z"
		/>
	<path style="fill-rule:evenodd;clip-rule:evenodd;fill:#FFFFFF;" d="M56.22,14.79v2.04h0.61c0.04,0,0.26,0.01,0.44-0.05
		c0.12-0.04,0.2-0.09,0.25-0.13c0.04-0.03,0.1-0.09,0.17-0.2c0.14-0.2,0.17-0.44,0.17-0.65c0-0.05,0-0.39-0.16-0.65
		c-0.04-0.06-0.08-0.11-0.15-0.17c-0.02-0.02-0.07-0.05-0.07-0.05c-0.15-0.1-0.33-0.15-0.66-0.15H56.22L56.22,14.79z M56.51,15.05
		h0.32c0.01,0,0.2,0,0.32,0.03c0.03,0.01,0.13,0.04,0.22,0.12c0.12,0.11,0.19,0.31,0.19,0.6c0,0.27-0.06,0.45-0.15,0.57
		c-0.05,0.06-0.1,0.1-0.13,0.11c-0.17,0.11-0.37,0.1-0.41,0.1h-0.37V15.05L56.51,15.05z"/>
	<path style="fill:none;stroke:#FFFFFF;stroke-width:0.0199;stroke-miterlimit:3.864;" d="M56.22,14.79v2.04h0.61
		c0.04,0,0.26,0.01,0.44-0.05c0.12-0.04,0.2-0.09,0.25-0.13c0.04-0.03,0.1-0.09,0.17-0.2c0.14-0.2,0.17-0.44,0.17-0.65
		c0-0.05,0-0.39-0.16-0.65c-0.04-0.06-0.08-0.11-0.15-0.17c-0.02-0.02-0.07-0.05-0.07-0.05c-0.15-0.1-0.33-0.15-0.66-0.15H56.22
		L56.22,14.79z M56.51,15.05h0.32c0.01,0,0.2,0,0.32,0.03c0.03,0.01,0.13,0.04,0.22,0.12c0.12,0.11,0.19,0.31,0.19,0.6
		c0,0.27-0.06,0.45-0.15,0.57c-0.05,0.06-0.1,0.1-0.13,0.11c-0.17,0.11-0.37,0.1-0.41,0.1h-0.37V15.05L56.51,15.05z"/>
	<polygon style="fill:#FFFFFF;" points="58.25,14.79 58.25,16.83 59.73,16.83 59.73,16.58 58.53,16.58 58.53,15.9 59.58,15.9 
		59.58,15.65 58.53,15.65 58.53,15.05 59.69,15.05 59.69,14.79 58.25,14.79 	"/>
	<polygon style="fill:none;stroke:#FFFFFF;stroke-width:0.0199;stroke-miterlimit:3.864;" points="58.25,14.79 58.25,16.83 
		59.73,16.83 59.73,16.58 58.53,16.58 58.53,15.9 59.58,15.9 59.58,15.65 58.53,15.65 58.53,15.05 59.69,15.05 59.69,14.79 
		58.25,14.79 	"/>
	<path style="fill:#FFFFFF;" d="M61.61,15.42c0-0.01,0-0.06-0.01-0.1c0-0.03-0.02-0.11-0.07-0.2c-0.11-0.22-0.32-0.37-0.7-0.38
		c-0.24,0-0.42,0.06-0.52,0.13c-0.25,0.17-0.25,0.42-0.25,0.47c0,0.03,0,0.13,0.07,0.24c0.04,0.07,0.08,0.11,0.14,0.15
		c0.12,0.08,0.27,0.12,0.39,0.15l0.19,0.04c0.07,0.02,0.12,0.03,0.19,0.05c0.08,0.02,0.21,0.06,0.29,0.15
		c0.04,0.05,0.06,0.11,0.06,0.16c0,0.03,0,0.12-0.09,0.21c-0.02,0.02-0.04,0.04-0.08,0.06c-0.07,0.04-0.19,0.08-0.36,0.08
		c-0.2,0-0.33-0.06-0.42-0.13c-0.02-0.01-0.04-0.04-0.08-0.09c-0.09-0.13-0.09-0.25-0.1-0.29h-0.3c0,0.02,0,0.05,0.01,0.09
		c0,0.02,0.02,0.09,0.04,0.16c0.03,0.11,0.1,0.22,0.21,0.32l0.01,0c0.19,0.16,0.43,0.19,0.62,0.19c0.19,0,0.48-0.03,0.67-0.24
		c0.14-0.16,0.14-0.34,0.14-0.38c0-0.03,0-0.17-0.08-0.3c-0.07-0.12-0.18-0.2-0.42-0.27c-0.06-0.02-0.1-0.03-0.17-0.05l-0.25-0.05
		c-0.1-0.02-0.28-0.06-0.36-0.17c-0.02-0.03-0.05-0.07-0.05-0.14c0-0.02,0.01-0.09,0.06-0.16c0.08-0.08,0.21-0.14,0.4-0.14
		c0.02,0,0.21,0,0.34,0.1c0.12,0.09,0.15,0.22,0.17,0.33H61.61L61.61,15.42z"/>
	<path style="fill:none;stroke:#FFFFFF;stroke-width:0.0199;stroke-miterlimit:3.864;" d="M61.61,15.42c0-0.01,0-0.06-0.01-0.1
		c0-0.03-0.02-0.11-0.07-0.2c-0.11-0.22-0.32-0.37-0.7-0.38c-0.24,0-0.42,0.06-0.52,0.13c-0.25,0.17-0.25,0.42-0.25,0.47
		c0,0.03,0,0.13,0.07,0.24c0.04,0.07,0.08,0.11,0.14,0.15c0.12,0.08,0.27,0.12,0.39,0.15l0.19,0.04c0.07,0.02,0.12,0.03,0.19,0.05
		c0.08,0.02,0.21,0.06,0.29,0.15c0.04,0.05,0.06,0.11,0.06,0.16c0,0.03,0,0.12-0.09,0.21c-0.02,0.02-0.04,0.04-0.08,0.06
		c-0.07,0.04-0.19,0.08-0.36,0.08c-0.2,0-0.33-0.06-0.42-0.13c-0.02-0.01-0.04-0.04-0.08-0.09c-0.09-0.13-0.09-0.25-0.1-0.29h-0.3
		c0,0.02,0,0.05,0.01,0.09c0,0.02,0.02,0.09,0.04,0.16c0.03,0.11,0.1,0.22,0.21,0.32l0.01,0c0.19,0.16,0.43,0.19,0.62,0.19
		c0.19,0,0.48-0.03,0.67-0.24c0.14-0.16,0.14-0.34,0.14-0.38c0-0.03,0-0.17-0.08-0.3c-0.07-0.12-0.18-0.2-0.42-0.27
		c-0.06-0.02-0.1-0.03-0.17-0.05l-0.25-0.05c-0.1-0.02-0.28-0.06-0.36-0.17c-0.02-0.03-0.05-0.07-0.05-0.14
		c0-0.02,0.01-0.09,0.06-0.16c0.08-0.08,0.21-0.14,0.4-0.14c0.02,0,0.21,0,0.34,0.1c0.12,0.09,0.15,0.22,0.17,0.33H61.61
		L61.61,15.42z"/>
	<polygon style="fill-rule:evenodd;clip-rule:evenodd;fill:#FFFFFF;" points="37.4,12.2 37.4,14.25 37.69,14.25 37.69,13.53 
		38.02,13.22 38.77,14.25 39.13,14.25 38.21,13.03 39.05,12.2 38.68,12.2 37.69,13.19 37.69,12.2 37.4,12.2 	"/>
	<polygon style="fill:none;stroke:#FFFFFF;stroke-width:0.0199;stroke-miterlimit:3.864;" points="37.4,12.2 37.4,14.25 
		37.69,14.25 37.69,13.53 38.02,13.22 38.77,14.25 39.13,14.25 38.21,13.03 39.05,12.2 38.68,12.2 37.69,13.19 37.69,12.2 
		37.4,12.2 	"/>
	<path style="fill:#FFFFFF;" d="M39.28,12.2v1.04c0,0.04,0,0.08,0,0.13c0,0.27,0.02,0.42,0.08,0.55c0.05,0.1,0.11,0.16,0.15,0.2
		c0.17,0.15,0.39,0.17,0.56,0.17c0.04,0,0.16,0,0.27-0.02c0.12-0.03,0.21-0.07,0.26-0.11c0.03-0.02,0.04-0.03,0.06-0.04
		c0.24-0.21,0.23-0.47,0.24-0.67V12.2h-0.29v1.13c0,0.04,0,0.09,0,0.13c0,0.15-0.01,0.23-0.03,0.3c-0.08,0.23-0.32,0.27-0.49,0.27
		c-0.24,0-0.39-0.1-0.46-0.23c-0.04-0.08-0.05-0.18-0.05-0.36V12.2H39.28L39.28,12.2z"/>
	<path style="fill:none;stroke:#FFFFFF;stroke-width:0.0199;stroke-miterlimit:3.864;" d="M39.28,12.2v1.04c0,0.04,0,0.08,0,0.13
		c0,0.27,0.02,0.42,0.08,0.55c0.05,0.1,0.11,0.16,0.15,0.2c0.17,0.15,0.39,0.17,0.56,0.17c0.04,0,0.16,0,0.27-0.02
		c0.12-0.03,0.21-0.07,0.26-0.11c0.03-0.02,0.04-0.03,0.06-0.04c0.24-0.21,0.23-0.47,0.24-0.67V12.2h-0.29v1.13
		c0,0.04,0,0.09,0,0.13c0,0.15-0.01,0.23-0.03,0.3c-0.08,0.23-0.32,0.27-0.49,0.27c-0.24,0-0.39-0.1-0.46-0.23
		c-0.04-0.08-0.05-0.18-0.05-0.36V12.2H39.28L39.28,12.2z"/>
	<polygon style="fill:#FFFFFF;" points="41.38,12.2 41.38,14.25 42.74,14.25 42.74,13.99 41.68,13.99 41.68,12.2 41.38,12.2 	"/>
	<polygon style="fill:none;stroke:#FFFFFF;stroke-width:0.0199;stroke-miterlimit:3.864;" points="41.38,12.2 41.38,14.25 
		42.74,14.25 42.74,13.99 41.68,13.99 41.68,12.2 41.38,12.2 	"/>
	<polygon style="fill:#FFFFFF;" points="42.38,12.2 42.38,12.46 43.01,12.46 43.01,14.25 43.3,14.25 43.3,12.46 43.94,12.46 
		43.94,12.2 42.38,12.2 	"/>
	<polygon style="fill:none;stroke:#FFFFFF;stroke-width:0.0199;stroke-miterlimit:3.864;" points="42.38,12.2 42.38,12.46 
		43.01,12.46 43.01,14.25 43.3,14.25 43.3,12.46 43.94,12.46 43.94,12.2 42.38,12.2 	"/>
	<path style="fill:#FFFFFF;" d="M44.17,12.2v1.04c0,0.04,0,0.08,0,0.13c0,0.27,0.02,0.42,0.08,0.55c0.05,0.1,0.11,0.16,0.15,0.2
		c0.17,0.15,0.39,0.17,0.56,0.17c0.04,0,0.16,0,0.27-0.02c0.12-0.03,0.21-0.07,0.25-0.11c0.03-0.02,0.04-0.03,0.06-0.04
		c0.24-0.21,0.23-0.47,0.24-0.67V12.2h-0.29v1.13c0,0.04,0,0.09,0,0.13c0,0.15-0.01,0.23-0.04,0.3c-0.08,0.23-0.32,0.27-0.49,0.27
		c-0.24,0-0.38-0.1-0.46-0.23c-0.04-0.08-0.05-0.18-0.05-0.36V12.2H44.17L44.17,12.2z"/>
	<path style="fill:none;stroke:#FFFFFF;stroke-width:0.0199;stroke-miterlimit:3.864;" d="M44.17,12.2v1.04c0,0.04,0,0.08,0,0.13
		c0,0.27,0.02,0.42,0.08,0.55c0.05,0.1,0.11,0.16,0.15,0.2c0.17,0.15,0.39,0.17,0.56,0.17c0.04,0,0.16,0,0.27-0.02
		c0.12-0.03,0.21-0.07,0.25-0.11c0.03-0.02,0.04-0.03,0.06-0.04c0.24-0.21,0.23-0.47,0.24-0.67V12.2h-0.29v1.13
		c0,0.04,0,0.09,0,0.13c0,0.15-0.01,0.23-0.04,0.3c-0.08,0.23-0.32,0.27-0.49,0.27c-0.24,0-0.38-0.1-0.46-0.23
		c-0.04-0.08-0.05-0.18-0.05-0.36V12.2H44.17L44.17,12.2z"/>
	<path style="fill-rule:evenodd;clip-rule:evenodd;fill:#FFFFFF;" d="M46.25,12.2v2.04h0.29V13.4h0.53
		c0.07,0.01,0.15,0.01,0.22,0.05c0.04,0.03,0.08,0.07,0.12,0.15c0.03,0.08,0.04,0.23,0.04,0.24c0.01,0.11,0.01,0.23,0.03,0.34
		c0,0.03,0.01,0.04,0.02,0.07h0.35c-0.03-0.05-0.05-0.09-0.08-0.18c-0.01-0.04-0.01-0.06-0.02-0.13c-0.01-0.11-0.02-0.29-0.05-0.41
		c0-0.03-0.03-0.14-0.14-0.22c-0.02-0.01-0.04-0.02-0.08-0.05c0.15-0.06,0.32-0.21,0.33-0.49c0-0.1-0.02-0.21-0.08-0.32
		c-0.01-0.02-0.05-0.07-0.1-0.12c-0.17-0.14-0.41-0.14-0.58-0.14H46.25L46.25,12.2z M46.55,13.16v-0.71h0.55
		c0.05,0,0.08,0,0.13,0.01c0.03,0,0.2,0.02,0.27,0.19c0.03,0.06,0.03,0.12,0.03,0.14c0,0.09-0.03,0.15-0.05,0.19
		c-0.01,0.01-0.04,0.05-0.08,0.09c-0.11,0.09-0.26,0.09-0.38,0.09H46.55L46.55,13.16z"/>
	<path style="fill:none;stroke:#FFFFFF;stroke-width:0.0199;stroke-miterlimit:3.864;" d="M46.25,12.2v2.04h0.29V13.4h0.53
		c0.07,0.01,0.15,0.01,0.22,0.05c0.04,0.03,0.08,0.07,0.12,0.15c0.03,0.08,0.04,0.23,0.04,0.24c0.01,0.11,0.01,0.23,0.03,0.34
		c0,0.03,0.01,0.04,0.02,0.07h0.35c-0.03-0.05-0.05-0.09-0.08-0.18c-0.01-0.04-0.01-0.06-0.02-0.13c-0.01-0.11-0.02-0.29-0.05-0.41
		c0-0.03-0.03-0.14-0.14-0.22c-0.02-0.01-0.04-0.02-0.08-0.05c0.15-0.06,0.32-0.21,0.33-0.49c0-0.1-0.02-0.21-0.08-0.32
		c-0.01-0.02-0.05-0.07-0.1-0.12c-0.17-0.14-0.41-0.14-0.58-0.14H46.25L46.25,12.2z M46.55,13.16v-0.71h0.55
		c0.05,0,0.08,0,0.13,0.01c0.03,0,0.2,0.02,0.27,0.19c0.03,0.06,0.03,0.12,0.03,0.14c0,0.09-0.03,0.15-0.05,0.19
		c-0.01,0.01-0.04,0.05-0.08,0.09c-0.11,0.09-0.26,0.09-0.38,0.09H46.55L46.55,13.16z"/>
	<path style="fill:#FFFFFF;" d="M49.78,12.83c0-0.01,0-0.06-0.01-0.1c-0.01-0.03-0.02-0.12-0.07-0.21c-0.11-0.22-0.32-0.37-0.7-0.37
		c-0.24,0-0.42,0.06-0.52,0.13c-0.25,0.17-0.25,0.42-0.25,0.47c0,0.03,0,0.13,0.07,0.24c0.04,0.07,0.08,0.11,0.13,0.15
		c0.12,0.08,0.28,0.12,0.4,0.15l0.19,0.04c0.07,0.02,0.12,0.03,0.19,0.05c0.08,0.02,0.22,0.06,0.3,0.15
		c0.04,0.05,0.06,0.11,0.06,0.16c0,0.03,0,0.12-0.09,0.21c-0.02,0.02-0.04,0.04-0.08,0.06c-0.07,0.04-0.19,0.08-0.35,0.08
		c-0.2,0-0.34-0.06-0.42-0.13c-0.02-0.01-0.04-0.04-0.07-0.09c-0.09-0.13-0.1-0.25-0.1-0.29h-0.3c0,0.02,0,0.05,0.01,0.09
		c0,0.02,0.01,0.09,0.04,0.16c0.04,0.11,0.1,0.22,0.21,0.32l0,0c0.19,0.16,0.43,0.19,0.62,0.19c0.19,0,0.48-0.03,0.67-0.24
		c0.14-0.16,0.14-0.34,0.14-0.38c0-0.04,0-0.18-0.08-0.3c-0.08-0.11-0.18-0.2-0.42-0.27c-0.06-0.02-0.1-0.03-0.17-0.04l-0.25-0.05
		c-0.1-0.02-0.28-0.06-0.36-0.17c-0.02-0.03-0.05-0.07-0.05-0.14c0-0.02,0.01-0.09,0.06-0.16c0.08-0.08,0.21-0.14,0.39-0.14
		c0.02,0,0.21,0,0.34,0.1c0.12,0.09,0.15,0.23,0.17,0.33H49.78L49.78,12.83z"/>
	<path style="fill:none;stroke:#FFFFFF;stroke-width:0.0199;stroke-miterlimit:3.864;" d="M49.78,12.83c0-0.01,0-0.06-0.01-0.1
		c-0.01-0.03-0.02-0.12-0.07-0.21c-0.11-0.22-0.32-0.37-0.7-0.37c-0.24,0-0.42,0.06-0.52,0.13c-0.25,0.17-0.25,0.42-0.25,0.47
		c0,0.03,0,0.13,0.07,0.24c0.04,0.07,0.08,0.11,0.13,0.15c0.12,0.08,0.28,0.12,0.4,0.15l0.19,0.04c0.07,0.02,0.12,0.03,0.19,0.05
		c0.08,0.02,0.22,0.06,0.3,0.15c0.04,0.05,0.06,0.11,0.06,0.16c0,0.03,0,0.12-0.09,0.21c-0.02,0.02-0.04,0.04-0.08,0.06
		c-0.07,0.04-0.19,0.08-0.35,0.08c-0.2,0-0.34-0.06-0.42-0.13c-0.02-0.01-0.04-0.04-0.07-0.09c-0.09-0.13-0.1-0.25-0.1-0.29h-0.3
		c0,0.02,0,0.05,0.01,0.09c0,0.02,0.01,0.09,0.04,0.16c0.04,0.11,0.1,0.22,0.21,0.32l0,0c0.19,0.16,0.43,0.19,0.62,0.19
		c0.19,0,0.48-0.03,0.67-0.24c0.14-0.16,0.14-0.34,0.14-0.38c0-0.04,0-0.18-0.08-0.3c-0.08-0.11-0.18-0.2-0.42-0.27
		c-0.06-0.02-0.1-0.03-0.17-0.04l-0.25-0.05c-0.1-0.02-0.28-0.06-0.36-0.17c-0.02-0.03-0.05-0.07-0.05-0.14
		c0-0.02,0.01-0.09,0.06-0.16c0.08-0.08,0.21-0.14,0.39-0.14c0.02,0,0.21,0,0.34,0.1c0.12,0.09,0.15,0.23,0.17,0.33H49.78
		L49.78,12.83z"/>
	<polygon style="fill:#FFFFFF;" points="49.88,12.2 49.88,12.46 50.51,12.46 50.51,14.25 50.8,14.25 50.8,12.46 51.44,12.46 
		51.44,12.2 49.88,12.2 	"/>
	<polygon style="fill:none;stroke:#FFFFFF;stroke-width:0.0199;stroke-miterlimit:3.864;" points="49.88,12.2 49.88,12.46 
		50.51,12.46 50.51,14.25 50.8,14.25 50.8,12.46 51.44,12.46 51.44,12.2 49.88,12.2 	"/>
	<polygon style="fill:#FFFFFF;" points="51.69,14.25 51.98,14.25 51.98,12.2 51.69,12.2 51.69,14.25 	"/>
	<polygon style="fill:none;stroke:#FFFFFF;stroke-width:0.0199;stroke-miterlimit:3.864;" points="51.69,14.25 51.98,14.25 
		51.98,12.2 51.69,12.2 51.69,14.25 	"/>
	<polygon style="fill:#FFFFFF;" points="52.53,12.2 52.53,14.25 52.82,14.25 52.82,13.32 53.74,13.32 53.74,13.07 52.82,13.07 
		52.82,12.46 53.91,12.46 53.91,12.2 52.53,12.2 	"/>
	<polygon style="fill:none;stroke:#FFFFFF;stroke-width:0.0199;stroke-miterlimit:3.864;" points="52.53,12.2 52.53,14.25 
		52.82,14.25 52.82,13.32 53.74,13.32 53.74,13.07 52.82,13.07 52.82,12.46 53.91,12.46 53.91,12.2 52.53,12.2 	"/>
	<polygon style="fill:#FFFFFF;" points="53.89,12.2 53.89,12.46 54.52,12.46 54.52,14.25 54.81,14.25 54.81,12.46 55.45,12.46 
		55.45,12.2 53.89,12.2 	"/>
	<polygon style="fill:none;stroke:#FFFFFF;stroke-width:0.0199;stroke-miterlimit:3.864;" points="53.89,12.2 53.89,12.46 
		54.52,12.46 54.52,14.25 54.81,14.25 54.81,12.46 55.45,12.46 55.45,12.2 53.89,12.2 	"/>
	<path style="fill:#FFFFFF;" d="M55.68,12.2v1.04c0,0.04,0,0.08,0,0.13c0,0.27,0.02,0.42,0.08,0.55c0.05,0.1,0.11,0.16,0.15,0.2
		c0.17,0.15,0.39,0.17,0.56,0.17c0.04,0,0.16,0,0.28-0.02c0.12-0.03,0.21-0.07,0.25-0.11c0.03-0.02,0.05-0.03,0.06-0.04
		c0.24-0.21,0.23-0.47,0.24-0.67V12.2h-0.3v1.13c0,0.04,0,0.09,0,0.13c0,0.15-0.01,0.23-0.03,0.3c-0.09,0.23-0.32,0.27-0.49,0.27
		c-0.24,0-0.38-0.1-0.46-0.23c-0.04-0.08-0.05-0.18-0.05-0.36V12.2H55.68L55.68,12.2z"/>
	<path style="fill:none;stroke:#FFFFFF;stroke-width:0.0199;stroke-miterlimit:3.864;" d="M55.68,12.2v1.04c0,0.04,0,0.08,0,0.13
		c0,0.27,0.02,0.42,0.08,0.55c0.05,0.1,0.11,0.16,0.15,0.2c0.17,0.15,0.39,0.17,0.56,0.17c0.04,0,0.16,0,0.28-0.02
		c0.12-0.03,0.21-0.07,0.25-0.11c0.03-0.02,0.05-0.03,0.06-0.04c0.24-0.21,0.23-0.47,0.24-0.67V12.2h-0.3v1.13c0,0.04,0,0.09,0,0.13
		c0,0.15-0.01,0.23-0.03,0.3c-0.09,0.23-0.32,0.27-0.49,0.27c-0.24,0-0.38-0.1-0.46-0.23c-0.04-0.08-0.05-0.18-0.05-0.36V12.2H55.68
		L55.68,12.2z"/>
	<path style="fill:#FFFFFF;" d="M57.79,12.2v2.04h0.28v-1.08c0-0.2,0-0.33-0.01-0.53l0-0.04c0.01,0.02,0.02,0.04,0.03,0.05
		c0.05,0.09,0.08,0.14,0.14,0.23c0.08,0.14,0.14,0.23,0.23,0.36l0.65,1.01h0.29V12.2h-0.27v1.08c0,0.17,0,0.29,0.01,0.46
		c0,0.04,0,0.07,0.01,0.12c-0.05-0.09-0.08-0.15-0.14-0.24c-0.01-0.03-0.03-0.05-0.05-0.08c-0.06-0.09-0.1-0.16-0.16-0.25l-0.71-1.1
		H57.79L57.79,12.2z"/>
	<path style="fill:none;stroke:#FFFFFF;stroke-width:0.0199;stroke-miterlimit:3.864;" d="M57.79,12.2v2.04h0.28v-1.08
		c0-0.2,0-0.33-0.01-0.53l0-0.04c0.01,0.02,0.02,0.04,0.03,0.05c0.05,0.09,0.08,0.14,0.14,0.23c0.08,0.14,0.14,0.23,0.23,0.36
		l0.65,1.01h0.29V12.2h-0.27v1.08c0,0.17,0,0.29,0.01,0.46c0,0.04,0,0.07,0.01,0.12c-0.05-0.09-0.08-0.15-0.14-0.24
		c-0.01-0.03-0.03-0.05-0.05-0.08c-0.06-0.09-0.1-0.16-0.16-0.25l-0.71-1.1H57.79L57.79,12.2z"/>
	<path style="fill:#FFFFFF;" d="M61.59,12.82c-0.01-0.06-0.03-0.2-0.16-0.37c-0.01-0.01-0.02-0.03-0.04-0.04
		c-0.19-0.21-0.44-0.26-0.64-0.26c-0.06,0-0.3,0.01-0.51,0.14c-0.37,0.24-0.46,0.65-0.46,0.96c0,0.14,0.02,0.29,0.07,0.42
		c0.04,0.12,0.11,0.24,0.2,0.34c0.08,0.09,0.18,0.17,0.3,0.22c0.12,0.05,0.25,0.07,0.38,0.07c0.2,0,0.33-0.06,0.42-0.12
		c0.16-0.1,0.21-0.21,0.24-0.27c0.01,0.1,0.01,0.16,0.02,0.34h0.22v-1.1h-0.89v0.24h0.61v0.04c0,0.13-0.03,0.23-0.06,0.28
		c-0.04,0.1-0.14,0.25-0.37,0.31c-0.03,0.01-0.08,0.02-0.15,0.02c-0.12,0-0.21-0.03-0.25-0.05c-0.04-0.01-0.13-0.06-0.22-0.16
		c-0.17-0.19-0.2-0.44-0.2-0.63c0-0.11,0.01-0.18,0.02-0.23c0.07-0.34,0.32-0.56,0.64-0.56c0.17,0,0.41,0.06,0.51,0.29
		c0.03,0.06,0.04,0.11,0.04,0.13H61.59L61.59,12.82z"/>
	<path style="fill:none;stroke:#FFFFFF;stroke-width:0.0199;stroke-miterlimit:3.864;" d="M61.59,12.82
		c-0.01-0.06-0.03-0.2-0.16-0.37c-0.01-0.01-0.02-0.03-0.04-0.04c-0.19-0.21-0.44-0.26-0.64-0.26c-0.06,0-0.3,0.01-0.51,0.14
		c-0.37,0.24-0.46,0.65-0.46,0.96c0,0.14,0.02,0.29,0.07,0.42c0.04,0.12,0.11,0.24,0.2,0.34c0.08,0.09,0.18,0.17,0.3,0.22
		c0.12,0.05,0.25,0.07,0.38,0.07c0.2,0,0.33-0.06,0.42-0.12c0.16-0.1,0.21-0.21,0.24-0.27c0.01,0.1,0.01,0.16,0.02,0.34h0.22v-1.1
		h-0.89v0.24h0.61v0.04c0,0.13-0.03,0.23-0.06,0.28c-0.04,0.1-0.14,0.25-0.37,0.31c-0.03,0.01-0.08,0.02-0.15,0.02
		c-0.12,0-0.21-0.03-0.25-0.05c-0.04-0.01-0.13-0.06-0.22-0.16c-0.17-0.19-0.2-0.44-0.2-0.63c0-0.11,0.01-0.18,0.02-0.23
		c0.07-0.34,0.32-0.56,0.64-0.56c0.17,0,0.41,0.06,0.51,0.29c0.03,0.06,0.04,0.11,0.04,0.13H61.59L61.59,12.82z"/>
	<polygon style="fill:#272525;" points="36.95,6.58 37.78,6.58 37.78,6.75 37.15,6.75 37.15,7.19 37.75,7.19 37.75,7.36 37.15,7.36 
		37.15,7.83 37.8,7.83 37.8,8.01 36.95,8.01 36.95,6.58 	"/>
	<path style="fill:#272525;" d="M38.1,7.02h0.19v0.99H38.1V7.02L38.1,7.02z M38.2,6.58c0.07,0,0.12,0.05,0.12,0.12
		c0,0.07-0.05,0.12-0.12,0.12c-0.07,0-0.12-0.05-0.12-0.12C38.08,6.63,38.13,6.58,38.2,6.58L38.2,6.58z"/>
	<path style="fill:#272525;" d="M38.65,7.19c0-0.05,0-0.11-0.01-0.17h0.19v0.17h0.01C38.86,7.14,38.97,7,39.16,7
		c0.12,0,0.33,0.07,0.33,0.36v0.65H39.3V7.36c0-0.13-0.06-0.21-0.17-0.21c-0.14,0-0.25,0.13-0.29,0.29v0.58h-0.19V7.19L38.65,7.19z"
		/>
	<path style="fill:#272525;" d="M40.49,7.4c0-0.09-0.05-0.27-0.25-0.27c-0.13,0-0.25,0.1-0.26,0.28L40.49,7.4L40.49,7.4z
		 M39.97,7.54c0,0.2,0.1,0.35,0.29,0.35c0.12,0,0.21-0.08,0.24-0.19h0.18c-0.02,0.17-0.17,0.34-0.43,0.34
		c-0.28,0-0.46-0.21-0.46-0.53c0-0.28,0.17-0.51,0.45-0.51c0.36,0,0.46,0.31,0.44,0.55H39.97L39.97,7.54z"/>
	<polygon style="fill:#272525;" points="41.61,6.58 41.81,6.58 41.81,8.01 41.61,8.01 41.61,6.58 	"/>
	<path style="fill:#272525;" d="M42.17,7.19c0-0.05,0-0.11-0.01-0.17h0.19v0.17h0.01C42.39,7.14,42.5,7,42.69,7
		c0.12,0,0.33,0.07,0.33,0.36v0.65h-0.19V7.36c0-0.13-0.06-0.21-0.17-0.21c-0.14,0-0.25,0.13-0.29,0.29v0.58h-0.19V7.19L42.17,7.19z
		"/>
	<path style="fill:#272525;" d="M43.36,7.02h0.18v0.99h-0.18V7.02L43.36,7.02z M43.45,6.58c0.07,0,0.12,0.05,0.12,0.12
		c0,0.07-0.06,0.12-0.12,0.12s-0.12-0.05-0.12-0.12C43.33,6.63,43.38,6.58,43.45,6.58L43.45,6.58z"/>
	<path style="fill:#272525;" d="M43.81,7.02h0.16l0.04-0.3h0.15v0.3h0.28v0.14h-0.28v0.56c0,0.09,0.04,0.14,0.14,0.14
		c0.05,0,0.12-0.02,0.14-0.03v0.15C44.4,8,44.33,8.03,44.27,8.03c-0.19,0-0.3-0.12-0.3-0.31V7.16h-0.16V7.02L43.81,7.02z"/>
	<path style="fill:#272525;" d="M44.7,7.02h0.19v0.99H44.7V7.02L44.7,7.02z M44.79,6.58c0.07,0,0.12,0.05,0.12,0.12
		c0,0.07-0.05,0.12-0.12,0.12c-0.07,0-0.12-0.05-0.12-0.12C44.67,6.63,44.72,6.58,44.79,6.58L44.79,6.58z"/>
	<path style="fill:#272525;" d="M45.85,7.57c-0.08-0.01-0.17-0.03-0.26-0.03c-0.13,0-0.2,0.07-0.2,0.18c0,0.11,0.07,0.17,0.19,0.17
		c0.11,0,0.23-0.09,0.27-0.14V7.57L45.85,7.57z M45.85,8.01c0,0,0.01-0.08,0.01-0.13h-0.01c-0.08,0.09-0.2,0.15-0.33,0.15
		c-0.19,0-0.31-0.13-0.31-0.3c0-0.18,0.14-0.31,0.35-0.32c0.12,0,0.21,0.02,0.3,0.04V7.35c0-0.14-0.08-0.22-0.22-0.22
		s-0.22,0.08-0.21,0.18h-0.2c0.04-0.17,0.17-0.32,0.41-0.32c0.22,0,0.39,0.11,0.39,0.36v0.5c0,0.04,0,0.11,0.01,0.16H45.85
		L45.85,8.01z"/>
	<path style="fill:#272525;" d="M46.29,7.02h0.16l0.03-0.3h0.15v0.3h0.28v0.14h-0.28v0.56c0,0.09,0.05,0.14,0.14,0.14
		c0.06,0,0.12-0.02,0.14-0.03v0.15c-0.03,0.02-0.1,0.05-0.17,0.05c-0.19,0-0.3-0.12-0.3-0.31V7.16h-0.16V7.02L46.29,7.02z"/>
	<path style="fill:#272525;" d="M47.17,7.02h0.18v0.99h-0.18V7.02L47.17,7.02z M47.26,6.58c0.07,0,0.12,0.05,0.12,0.12
		c0,0.07-0.05,0.12-0.12,0.12c-0.07,0-0.12-0.05-0.12-0.12C47.15,6.63,47.2,6.58,47.26,6.58L47.26,6.58z"/>
	<polygon style="fill:#272525;" points="47.63,7.02 47.83,7.02 48.1,7.82 48.11,7.82 48.36,7.02 48.55,7.02 48.21,8.01 47.99,8.01 
		47.63,7.02 	"/>
	<path style="fill:#272525;" d="M49.47,7.4c0-0.09-0.05-0.27-0.25-0.27c-0.13,0-0.25,0.1-0.26,0.28L49.47,7.4L49.47,7.4z
		 M48.95,7.54c0,0.2,0.1,0.35,0.29,0.35c0.12,0,0.21-0.08,0.24-0.19h0.18c-0.02,0.17-0.17,0.34-0.43,0.34
		c-0.28,0-0.46-0.21-0.46-0.53c0-0.28,0.17-0.51,0.45-0.51c0.36,0,0.46,0.31,0.44,0.55H48.95L48.95,7.54z"/>
	<path style="fill:#272525;" d="M50.99,7.88c0.14,0,0.24-0.14,0.25-0.24V7.4c0-0.11-0.1-0.26-0.26-0.26c-0.18,0-0.26,0.17-0.26,0.38
		C50.72,7.73,50.81,7.88,50.99,7.88L50.99,7.88z M51.24,6.58h0.19v1.28c0,0.04,0,0.11,0,0.15h-0.17c0-0.04,0-0.1,0-0.15h-0.01
		c-0.07,0.1-0.16,0.17-0.29,0.17c-0.28,0-0.43-0.24-0.43-0.52c0-0.29,0.15-0.52,0.42-0.52c0.17,0,0.26,0.12,0.29,0.16h0.01
		c0,0,0-0.07,0-0.13V6.58L51.24,6.58z"/>
	<path style="fill:#272525;" d="M52.45,7.4c0-0.09-0.05-0.27-0.25-0.27c-0.13,0-0.25,0.1-0.26,0.28L52.45,7.4L52.45,7.4z
		 M51.92,7.54c0,0.2,0.1,0.35,0.29,0.35c0.13,0,0.21-0.08,0.24-0.19h0.18c-0.02,0.17-0.17,0.34-0.43,0.34
		c-0.28,0-0.46-0.21-0.46-0.53c0-0.28,0.18-0.51,0.45-0.51c0.36,0,0.46,0.31,0.44,0.55H51.92L51.92,7.54z"/>
	<path style="fill:#272525;" d="M52.94,7.28c0-0.09,0-0.17-0.01-0.26h0.18l0.01,0.26h0.01C53.16,7.15,53.27,7,53.41,7
		c0.06,0,0.1,0.02,0.13,0.03V7.2c-0.03-0.01-0.07-0.02-0.11-0.02c-0.19,0-0.29,0.18-0.3,0.39v0.44h-0.19V7.28L52.94,7.28z"/>
	<path style="fill:#272525;" d="M67.78,7.25h0.63V8h-0.1l-0.02-0.28c-0.05,0.1-0.12,0.17-0.21,0.23c-0.09,0.06-0.2,0.08-0.33,0.08
		c-0.14,0-0.26-0.03-0.37-0.1c-0.11-0.07-0.19-0.16-0.25-0.28c-0.06-0.12-0.08-0.26-0.08-0.41c0-0.15,0.03-0.29,0.08-0.41
		c0.06-0.12,0.14-0.21,0.25-0.28c0.1-0.07,0.23-0.1,0.37-0.1c0.12,0,0.22,0.02,0.31,0.07c0.09,0.04,0.17,0.11,0.22,0.18
		c0.06,0.08,0.09,0.17,0.11,0.28h-0.13c-0.01-0.08-0.04-0.15-0.09-0.22c-0.05-0.06-0.11-0.11-0.18-0.14
		c-0.08-0.03-0.16-0.05-0.25-0.05c-0.12,0-0.22,0.03-0.3,0.08c-0.08,0.06-0.15,0.14-0.2,0.24C67.2,7,67.18,7.12,67.18,7.25
		c0,0.14,0.02,0.26,0.07,0.35c0.05,0.1,0.11,0.18,0.2,0.24c0.09,0.06,0.19,0.08,0.3,0.08c0.11,0,0.2-0.02,0.28-0.07
		c0.08-0.05,0.15-0.12,0.19-0.2c0.05-0.09,0.07-0.18,0.07-0.29h-0.51V7.25L67.78,7.25z"/>
	<path style="fill:#272525;" d="M69.45,7.39c0-0.08-0.02-0.14-0.05-0.2c-0.03-0.06-0.07-0.1-0.12-0.14C69.23,7.01,69.17,7,69.1,7
		c-0.11,0-0.19,0.03-0.26,0.1c-0.06,0.07-0.1,0.17-0.11,0.29H69.45L69.45,7.39z M68.84,7.96c-0.07-0.05-0.13-0.11-0.17-0.2
		c-0.04-0.09-0.06-0.18-0.06-0.3c0-0.11,0.02-0.21,0.06-0.3c0.04-0.08,0.1-0.15,0.17-0.2c0.07-0.05,0.16-0.07,0.26-0.07
		c0.1,0,0.19,0.02,0.26,0.08c0.08,0.05,0.13,0.12,0.17,0.2c0.04,0.09,0.06,0.18,0.06,0.29V7.5h-0.85c0.01,0.13,0.04,0.24,0.11,0.31
		c0.07,0.07,0.16,0.11,0.27,0.11c0.08,0,0.16-0.02,0.21-0.07c0.06-0.05,0.1-0.11,0.12-0.19h0.13c-0.02,0.07-0.04,0.14-0.08,0.19
		c-0.04,0.05-0.09,0.1-0.16,0.13c-0.06,0.03-0.14,0.04-0.22,0.04C69,8.03,68.91,8.01,68.84,7.96L68.84,7.96z"/>
	<path style="fill:#272525;" d="M69.94,6.77v0.14h0.25v0.11h-0.25V8h-0.12V7.02h-0.18V6.91h0.18V6.77c0-0.09,0.02-0.16,0.07-0.21
		C69.93,6.52,70,6.49,70.1,6.49c0.03,0,0.07,0,0.1,0v0.1h-0.09C70,6.6,69.94,6.66,69.94,6.77L69.94,6.77z"/>
	<path style="fill:#272525;" d="M71.03,6.76h-0.13v-0.2h0.13V6.76L71.03,6.76z M70.59,6.76h-0.13v-0.2h0.13V6.76L70.59,6.76z
		 M70.95,7.86c0.06-0.04,0.1-0.09,0.14-0.16c0.03-0.07,0.05-0.15,0.05-0.24c0-0.09-0.01-0.17-0.05-0.24
		c-0.03-0.07-0.08-0.12-0.14-0.16c-0.06-0.04-0.12-0.06-0.2-0.06c-0.08,0-0.15,0.02-0.2,0.06c-0.06,0.04-0.1,0.09-0.13,0.16
		c-0.03,0.07-0.05,0.15-0.05,0.24c0,0.09,0.02,0.17,0.05,0.24c0.03,0.07,0.08,0.12,0.13,0.16c0.06,0.04,0.12,0.06,0.2,0.06
		C70.82,7.92,70.89,7.9,70.95,7.86L70.95,7.86z M70.48,7.96c-0.08-0.05-0.14-0.12-0.18-0.2c-0.04-0.09-0.06-0.19-0.06-0.3
		c0-0.11,0.02-0.21,0.06-0.3c0.04-0.09,0.1-0.15,0.18-0.2c0.08-0.05,0.17-0.07,0.26-0.07c0.1,0,0.19,0.02,0.26,0.07
		c0.08,0.05,0.14,0.12,0.18,0.2c0.04,0.09,0.07,0.18,0.07,0.3c0,0.11-0.02,0.21-0.07,0.3c-0.04,0.08-0.1,0.15-0.18,0.2
		c-0.08,0.05-0.17,0.07-0.26,0.07C70.65,8.03,70.56,8.01,70.48,7.96L70.48,7.96z"/>
	<path style="fill:#272525;" d="M72.01,6.9v0.11h-0.05c-0.08,0-0.15,0.01-0.21,0.05c-0.06,0.03-0.1,0.07-0.13,0.13
		c-0.03,0.06-0.04,0.12-0.04,0.2V8h-0.12V6.91h0.11v0.23c0.03-0.07,0.08-0.13,0.14-0.17c0.06-0.04,0.15-0.07,0.24-0.07
		C71.98,6.9,72,6.9,72.01,6.9L72.01,6.9z"/>
	<path style="fill:#272525;" d="M72.76,7.86c0.06-0.04,0.1-0.09,0.13-0.16c0.03-0.07,0.05-0.15,0.05-0.24
		c0-0.09-0.02-0.17-0.05-0.24c-0.03-0.07-0.08-0.12-0.13-0.16c-0.06-0.04-0.13-0.06-0.2-0.06c-0.08,0-0.15,0.02-0.2,0.06
		c-0.06,0.04-0.1,0.09-0.13,0.17c-0.03,0.07-0.05,0.15-0.05,0.25c0,0.09,0.01,0.17,0.05,0.24c0.03,0.07,0.08,0.12,0.13,0.16
		c0.06,0.04,0.12,0.06,0.2,0.06C72.63,7.92,72.7,7.9,72.76,7.86L72.76,7.86z M72.94,6.5h0.12V8h-0.12V7.79
		c-0.04,0.08-0.09,0.14-0.16,0.18c-0.07,0.04-0.15,0.06-0.23,0.06c-0.1,0-0.19-0.02-0.26-0.07c-0.08-0.05-0.13-0.12-0.17-0.2
		c-0.04-0.09-0.06-0.19-0.06-0.3c0-0.11,0.02-0.21,0.06-0.3c0.04-0.09,0.1-0.15,0.17-0.2c0.07-0.05,0.16-0.07,0.26-0.07
		c0.08,0,0.16,0.02,0.23,0.06c0.07,0.04,0.12,0.1,0.16,0.17V6.5L72.94,6.5z"/>
	<path style="fill:#272525;" d="M74.11,7.39c0-0.08-0.02-0.14-0.05-0.2c-0.03-0.06-0.07-0.1-0.12-0.14C73.89,7.01,73.82,7,73.75,7
		c-0.11,0-0.19,0.03-0.25,0.1c-0.07,0.07-0.1,0.17-0.11,0.29H74.11L74.11,7.39z M73.49,7.96c-0.08-0.05-0.13-0.11-0.17-0.2
		c-0.04-0.09-0.06-0.18-0.06-0.3c0-0.11,0.02-0.21,0.06-0.3c0.04-0.08,0.1-0.15,0.17-0.2c0.07-0.05,0.16-0.07,0.26-0.07
		c0.1,0,0.19,0.02,0.26,0.08c0.08,0.05,0.13,0.12,0.17,0.2c0.04,0.09,0.06,0.18,0.06,0.29V7.5h-0.86c0.01,0.13,0.04,0.24,0.11,0.31
		c0.06,0.07,0.15,0.11,0.27,0.11c0.09,0,0.16-0.02,0.21-0.07c0.06-0.05,0.1-0.11,0.12-0.19h0.12c-0.01,0.07-0.04,0.14-0.08,0.19
		c-0.04,0.05-0.09,0.1-0.16,0.13c-0.06,0.03-0.14,0.04-0.22,0.04C73.66,8.03,73.57,8.01,73.49,7.96L73.49,7.96z"/>
	<path style="fill:#272525;" d="M74.99,6.9v0.11h-0.05c-0.08,0-0.15,0.01-0.21,0.05c-0.06,0.03-0.1,0.07-0.13,0.13
		c-0.03,0.06-0.05,0.12-0.05,0.2V8h-0.12V6.91h0.11v0.23c0.03-0.07,0.08-0.13,0.14-0.17c0.06-0.04,0.14-0.07,0.23-0.07
		C74.96,6.9,74.98,6.9,74.99,6.9L74.99,6.9z"/>
	<path style="fill:#272525;" d="M75.63,7.02h-0.25v0.76c0,0.04,0.01,0.07,0.04,0.09c0.02,0.02,0.06,0.03,0.12,0.03h0.1V8
		c-0.05,0-0.09,0-0.11,0c-0.09,0-0.15-0.02-0.19-0.05c-0.04-0.04-0.06-0.09-0.06-0.17V7.02h-0.19V6.91h0.19V6.6h0.12v0.31h0.25V7.02
		L75.63,7.02z"/>
	<path style="fill:#272525;" d="M77.02,6.91h0.13L76.71,8h-0.13l-0.44-1.09h0.13l0.21,0.55c0.06,0.14,0.11,0.28,0.16,0.42
		c0.03-0.09,0.07-0.2,0.11-0.32c0.02-0.05,0.03-0.08,0.04-0.11L77.02,6.91L77.02,6.91z"/>
	<path style="fill:#272525;" d="M77.89,7.86c0.06-0.04,0.1-0.09,0.14-0.16c0.03-0.07,0.05-0.15,0.05-0.24
		c0-0.09-0.02-0.17-0.05-0.24c-0.03-0.07-0.08-0.12-0.14-0.16c-0.06-0.04-0.13-0.06-0.2-0.06c-0.08,0-0.15,0.02-0.2,0.06
		c-0.06,0.04-0.1,0.09-0.13,0.16c-0.03,0.07-0.05,0.15-0.05,0.24c0,0.09,0.02,0.17,0.05,0.24c0.03,0.07,0.08,0.12,0.13,0.16
		c0.06,0.04,0.12,0.06,0.2,0.06C77.76,7.92,77.83,7.9,77.89,7.86L77.89,7.86z M77.42,7.96c-0.08-0.05-0.14-0.12-0.18-0.2
		c-0.04-0.09-0.07-0.19-0.07-0.3c0-0.11,0.02-0.21,0.07-0.3c0.04-0.09,0.1-0.15,0.18-0.2c0.08-0.05,0.17-0.07,0.26-0.07
		s0.19,0.02,0.26,0.07c0.08,0.05,0.14,0.12,0.18,0.2c0.05,0.09,0.07,0.18,0.07,0.3c0,0.11-0.02,0.21-0.07,0.3
		c-0.04,0.08-0.1,0.15-0.18,0.2c-0.08,0.05-0.17,0.07-0.26,0.07S77.5,8.01,77.42,7.96L77.42,7.96z"/>
	<path style="fill:#272525;" d="M79.16,6.99c0.07,0.07,0.1,0.17,0.1,0.29V8h-0.12V7.3c0-0.1-0.02-0.17-0.07-0.23
		c-0.05-0.05-0.12-0.08-0.22-0.08c-0.06,0-0.11,0.01-0.16,0.04c-0.05,0.03-0.09,0.08-0.12,0.13c-0.03,0.06-0.05,0.13-0.05,0.22V8
		H78.4V6.91h0.11v0.21c0.03-0.07,0.08-0.13,0.15-0.17c0.06-0.04,0.13-0.06,0.22-0.06C79,6.89,79.1,6.92,79.16,6.99L79.16,6.99z"/>
	<polygon style="fill:#EACD2F;" points="71.93,16.43 72.18,16.43 72.18,19.78 71.59,19.78 71.59,16.43 71.93,16.43 	"/>
	<polygon style="fill:#CB2229;" points="71.93,13.06 72.18,13.06 72.18,16.43 71.59,16.43 71.59,13.06 71.93,13.06 	"/>
	<path style="fill:#272525;" d="M69.02,10.96c0-0.04,0.01-0.08,0.01-0.11c0-0.02,0-0.05,0-0.08c0.33,0,0.63-0.24,0.63-0.52
		c0-0.14-0.09-0.25-0.14-0.31c0.01,0,0.02,0,0.03-0.01c0.05,0.04,0.19,0.19,0.19,0.39C69.74,10.64,69.4,10.95,69.02,10.96
		L69.02,10.96z M68.69,9.8c0-0.04-0.02-0.07-0.04-0.1c0-0.03,0.01-0.07,0.07-0.04c-0.03,0.03-0.01,0.08-0.01,0.08
		s0.06-0.03,0.05-0.07C68.85,9.7,68.78,9.82,68.69,9.8L68.69,9.8z M68.61,9.97c-0.01-0.05-0.04-0.1-0.07-0.14
		c-0.03-0.03-0.08-0.08-0.14-0.08c-0.03,0-0.08,0.01-0.11,0.03c-0.01-0.02-0.03-0.07-0.03-0.09c0-0.03,0.04-0.05,0.12-0.05
		c0.17,0,0.27,0.08,0.27,0.21C68.64,9.89,68.62,9.93,68.61,9.97L68.61,9.97z M69.05,12.2c0.02,0,0.03,0,0.04,0.01
		c0.05,0.13,0.24,0.39,0.25,0.4l0,0h0c0.05-0.01,0.17-0.03,0.27-0.03h0c0.01,0,0.02,0,0.03,0.01c0.01,0.01,0.01,0.02,0.01,0.04
		c0,0.02-0.01,0.07-0.02,0.08c-0.04-0.04-0.09-0.06-0.19-0.06c-0.02,0-0.06,0.01-0.08,0.01h0l-0.01,0l0.05,0.05
		c0.08,0.08,0.15,0.15,0.15,0.2c0,0.03-0.03,0.06-0.05,0.08c0-0.08-0.09-0.2-0.18-0.26l-0.01-0.01l0,0.03c0,0.02,0,0.05,0,0.09
		c0,0.16-0.01,0.19-0.07,0.19c-0.01,0-0.02,0-0.03,0c0.03-0.04,0.05-0.09,0.05-0.18l0-0.04v-0.03c0-0.04,0-0.06,0.01-0.09l0-0.01
		l-0.01,0c-0.03,0-0.08-0.01-0.11-0.01c-0.08,0-0.13,0.01-0.17,0.05c-0.02-0.02-0.05-0.06-0.05-0.08c0-0.04,0.02-0.04,0.05-0.04
		c0.01,0,0.03,0,0.05,0c0.04,0,0.09,0.01,0.19,0.01h0.01v0c-0.03-0.08-0.1-0.19-0.22-0.33C69.01,12.23,69.02,12.2,69.05,12.2
		L69.05,12.2z M68.02,12.6L68.02,12.6L68.02,12.6c0.11,0,0.16,0,0.2-0.01c0.02,0,0.03,0,0.05,0c0.03,0,0.05,0,0.05,0.04
		c0,0.02-0.03,0.06-0.05,0.08c-0.04-0.04-0.09-0.05-0.17-0.05c-0.04,0-0.09,0.01-0.11,0.01h0l-0.01,0l0,0.01
		c0,0.02,0.01,0.05,0.01,0.09v0.03v0.04c0,0.09,0.01,0.14,0.04,0.18c-0.01,0-0.02,0-0.03,0c-0.06,0-0.07-0.02-0.07-0.19
		c0-0.03,0-0.06,0-0.09v-0.03l-0.01,0.01c-0.08,0.06-0.17,0.18-0.18,0.26c-0.02-0.02-0.05-0.05-0.05-0.08c0-0.05,0.07-0.12,0.15-0.2
		l0.05-0.05l0-0.01l-0.01,0c-0.02,0-0.05-0.01-0.08-0.01c-0.09,0-0.15,0.02-0.18,0.06c-0.01-0.02-0.02-0.06-0.02-0.08
		c0-0.02,0-0.03,0.01-0.04c0.01-0.01,0.02-0.01,0.03-0.01h0c0.1,0,0.22,0.02,0.27,0.03h0v0c0.01-0.01,0.2-0.27,0.25-0.4
		c0.01,0,0.02-0.01,0.04-0.01c0.04,0,0.05,0.02,0.06,0.07C68.12,12.41,68.05,12.52,68.02,12.6L68.02,12.6z M67.5,10.31
		c0-0.19,0.14-0.34,0.19-0.39c0.01,0,0.02,0.01,0.03,0.01c-0.05,0.06-0.14,0.17-0.14,0.31c0,0.28,0.3,0.52,0.64,0.52
		c0,0.02,0,0.05,0,0.08c0,0.04,0,0.08,0.01,0.11C67.84,10.95,67.5,10.64,67.5,10.31L67.5,10.31z M70.07,10.9
		c0.17,0.27,0.31,0.27,0.51,0.27c-0.17-0.13-0.28-0.29-0.33-0.38l-0.31-0.5c-0.03-0.15-0.11-0.3-0.23-0.41
		c0.04-0.01,0.08-0.03,0.09-0.05c-0.2,0-0.41-0.1-0.52-0.1c-0.07,0-0.12,0.04-0.12,0.1c0,0.06,0.07,0.13,0.19,0.13
		c0.03,0,0.06,0,0.1-0.01c0.06,0.09,0.12,0.17,0.12,0.29c0,0.22-0.26,0.39-0.53,0.39c-0.01,0-0.03,0-0.04,0
		c-0.02-0.05-0.1-0.15-0.1-0.25c0-0.18,0.11-0.32,0.11-0.49c0-0.11-0.05-0.17-0.07-0.2c0.03-0.03,0.07-0.07,0.08-0.09
		C68.99,9.6,68.97,9.6,68.93,9.6c-0.13,0-0.23-0.03-0.33-0.03c-0.06,0-0.08,0.02-0.08,0.03c0,0.01,0,0.01,0,0.02
		c-0.02-0.01-0.04-0.01-0.07-0.02c-0.03,0-0.06-0.01-0.09-0.01c-0.12,0-0.17,0.05-0.17,0.1c0,0.04,0.03,0.1,0.06,0.16
		c0.05-0.02,0.1-0.04,0.13-0.04c0.06,0,0.12,0.06,0.15,0.13c-0.04,0.01-0.05,0.01-0.1,0.01c-0.12,0-0.2-0.04-0.22-0.04c0,0,0,0,0,0
		c0,0.01,0.03,0.06,0.1,0.08c0.09,0.03,0.22,0.05,0.24,0.05c0,0-0.02,0.05-0.05,0.05c0,0-0.01,0-0.02,0
		c-0.09-0.02-0.12-0.03-0.23-0.07c0,0,0,0,0,0c0,0.05,0.12,0.15,0.23,0.19c-0.09,0.11-0.2,0.23-0.25,0.41c-0.01,0-0.03,0-0.05,0
		c-0.26,0-0.53-0.17-0.53-0.39c0-0.12,0.05-0.2,0.12-0.29c0.04,0.01,0.07,0.01,0.1,0.01c0.12,0,0.18-0.06,0.19-0.13
		c0-0.06-0.05-0.1-0.12-0.1c-0.11,0-0.31,0.1-0.52,0.1c0.02,0.01,0.06,0.03,0.1,0.05c-0.12,0.11-0.2,0.25-0.23,0.41l-0.31,0.5
		c-0.05,0.08-0.16,0.25-0.33,0.38c0.2,0,0.34,0,0.51-0.27l0.16-0.25c0.01,0.03,0.03,0.06,0.05,0.1l-0.32,0.51
		c-0.05,0.08-0.16,0.25-0.33,0.38c0.2,0,0.34,0,0.51-0.27l0.27-0.44c0.02,0.02,0.04,0.04,0.07,0.06l-0.39,0.62
		c-0.05,0.09-0.16,0.25-0.33,0.38c0.2,0,0.34,0,0.51-0.27l0.38-0.61c0.02,0.01,0.05,0.03,0.08,0.05l-0.46,0.74
		c-0.05,0.08-0.16,0.25-0.33,0.38c0.2,0,0.34,0,0.51-0.27l0.48-0.76c0.03,0.01,0.06,0.02,0.08,0.03l-0.54,0.86
		c-0.05,0.08-0.16,0.25-0.33,0.38c0.2,0,0.34,0,0.51-0.26l0.57-0.92c0,0,0.01,0,0.02,0c0.01,0.05,0.03,0.1,0.03,0.14
		c0,0.29-0.19,0.54-0.42,0.74c0.01,0.01,0.04,0.01,0.06,0.01c0.05,0,0.08,0,0.1-0.01c-0.05,0.12-0.17,0.27-0.22,0.35
		c-0.08-0.01-0.19-0.02-0.26-0.02c-0.08,0-0.08,0.04-0.08,0.08c0,0.06,0.03,0.12,0.07,0.15c0.01-0.03,0.04-0.08,0.18-0.08
		c0,0,0.01,0,0.01,0c-0.04,0.05-0.17,0.15-0.17,0.23c0,0.05,0.06,0.13,0.14,0.13c0-0.02,0-0.03,0-0.04c0-0.07,0.06-0.14,0.11-0.2
		c0,0.02,0,0.01,0,0.03c0,0.16,0.01,0.23,0.11,0.23c0.05,0,0.08-0.03,0.09-0.03c-0.07-0.06-0.07-0.11-0.07-0.19
		c0-0.02,0-0.04,0-0.08c0-0.02,0-0.04,0-0.06c0.04,0,0.05,0,0.08,0c0,0,0.14-0.01,0.17,0.06c0.04-0.03,0.09-0.08,0.09-0.14
		c0-0.04-0.01-0.08-0.09-0.08c-0.03,0-0.12,0.02-0.19,0.02c0.02-0.04,0.1-0.17,0.18-0.26c0.01,0.04,0.03,0.08,0.07,0.11
		c0-0.06,0.04-0.25,0.13-0.36c0.01,0.07,0.02,0.15,0.02,0.31c0,0.39-0.09,0.67-0.29,0.73c0.03,0.05,0.08,0.09,0.14,0.09
		c0.07,0,0.11-0.08,0.15-0.16c0.02,0.06,0.08,0.2,0.14,0.2c0.06,0,0.11-0.14,0.14-0.2c0.04,0.08,0.08,0.16,0.15,0.16
		c0.06,0,0.11-0.04,0.14-0.09c-0.2-0.05-0.29-0.34-0.29-0.73c0-0.16,0.01-0.24,0.03-0.31c0.09,0.11,0.13,0.29,0.13,0.36
		c0.04-0.03,0.06-0.07,0.07-0.11c0.08,0.09,0.16,0.22,0.18,0.26c-0.07,0-0.16-0.02-0.19-0.02c-0.07,0-0.09,0.04-0.09,0.08
		c0,0.05,0.05,0.1,0.09,0.14c0.03-0.07,0.17-0.06,0.17-0.06c0.03,0,0.04,0,0.08,0c0,0.02,0,0.04,0,0.06c0,0.03,0,0.05,0,0.08
		c0,0.09,0,0.13-0.07,0.19c0.01,0.01,0.04,0.03,0.09,0.03c0.1,0,0.11-0.07,0.11-0.23c0-0.02,0-0.02,0-0.03
		c0.05,0.05,0.11,0.13,0.11,0.2c0,0.01,0,0.02,0,0.04c0.08,0,0.14-0.08,0.14-0.13c0-0.08-0.12-0.18-0.17-0.23c0.01,0,0.01,0,0.01,0
		c0.14,0,0.17,0.05,0.18,0.08c0.04-0.03,0.07-0.08,0.07-0.15c0-0.04-0.01-0.08-0.08-0.08c-0.07,0-0.18,0.01-0.25,0.02
		c-0.06-0.08-0.17-0.23-0.22-0.35c0.02,0,0.05,0.01,0.1,0.01c0.02,0,0.05,0,0.06-0.01c-0.23-0.2-0.42-0.45-0.42-0.74
		c0-0.04,0.01-0.09,0.03-0.14c0.01,0,0.01,0,0.02,0l0.57,0.92c0.17,0.27,0.3,0.26,0.51,0.26c-0.17-0.13-0.28-0.29-0.33-0.38
		l-0.54-0.86c0.03-0.01,0.06-0.02,0.08-0.03l0.48,0.76c0.17,0.27,0.3,0.27,0.51,0.27c-0.17-0.13-0.28-0.29-0.33-0.38l-0.46-0.74
		c0.03-0.01,0.05-0.03,0.08-0.05l0.38,0.61c0.17,0.27,0.3,0.27,0.51,0.27c-0.17-0.13-0.28-0.29-0.33-0.38l-0.39-0.62
		c0.02-0.02,0.05-0.04,0.07-0.06L70,11.36c0.17,0.27,0.31,0.27,0.51,0.27c-0.17-0.13-0.28-0.29-0.33-0.38l-0.32-0.51
		c0.02-0.03,0.03-0.07,0.04-0.1L70.07,10.9L70.07,10.9z"/>
	<polygon style="fill:#272525;" points="72.18,9.73 72.18,13.08 71.93,13.08 71.59,13.08 71.59,9.73 72.18,9.73 	"/>
	<path style="fill:#272525;" d="M74.05,10.38c0-0.12,0-0.21-0.01-0.27c-0.01-0.12-0.05-0.2-0.1-0.23c-0.04-0.04-0.1-0.05-0.19-0.05
		h-0.17v1.11h0.19c0.07,0,0.12-0.02,0.17-0.05c0.05-0.04,0.09-0.12,0.1-0.24C74.05,10.6,74.05,10.51,74.05,10.38L74.05,10.38z
		 M74.22,10.36c0,0.14,0,0.25-0.01,0.32c-0.02,0.13-0.06,0.23-0.12,0.28c-0.07,0.07-0.18,0.11-0.33,0.11h-0.34V9.7h0.34
		c0.13,0,0.24,0.03,0.31,0.08c0.06,0.05,0.11,0.12,0.13,0.21C74.21,10.06,74.22,10.19,74.22,10.36L74.22,10.36z"/>
	<path style="fill:#272525;" d="M74.63,11.07h-0.15v-0.96h0.15V11.07L74.63,11.07z M74.64,9.88h-0.17V9.72h0.17V9.88L74.64,9.88z"/>
	<path style="fill:#272525;" d="M75.38,10.51c0-0.09,0-0.16-0.02-0.2c-0.02-0.08-0.07-0.11-0.15-0.11c-0.1,0-0.16,0.06-0.18,0.19
		c0,0.04,0,0.08,0,0.12H75.38L75.38,10.51z M75.53,10.61h-0.5v0.06c0,0.1,0.01,0.17,0.02,0.21c0.03,0.06,0.08,0.09,0.15,0.09
		c0.11,0,0.17-0.07,0.17-0.21h0.15c-0.01,0.21-0.12,0.32-0.32,0.32c-0.13,0-0.22-0.05-0.27-0.14c-0.04-0.07-0.05-0.18-0.05-0.32
		c0-0.17,0.01-0.29,0.05-0.36c0.05-0.11,0.15-0.17,0.29-0.17c0.14,0,0.23,0.05,0.27,0.15c0.03,0.06,0.04,0.17,0.04,0.32V10.61
		L75.53,10.61z"/>
	<path style="fill:#272525;" d="M76.83,10.69c0-0.09-0.02-0.16-0.06-0.2c-0.04-0.04-0.1-0.07-0.19-0.07h-0.17v0.52h0.15
		c0.09,0,0.16-0.02,0.2-0.05C76.81,10.86,76.83,10.79,76.83,10.69L76.83,10.69z M76.81,10.05c0-0.09-0.02-0.14-0.06-0.18
		c-0.04-0.03-0.09-0.05-0.18-0.05h-0.16v0.47h0.17C76.73,10.3,76.81,10.21,76.81,10.05L76.81,10.05z M76.99,10.69
		c0,0.14-0.03,0.24-0.1,0.3c-0.06,0.05-0.17,0.08-0.31,0.08h-0.33V9.7h0.36c0.12,0,0.21,0.03,0.27,0.08
		c0.06,0.05,0.09,0.14,0.09,0.26c0,0.09-0.01,0.15-0.04,0.19c-0.03,0.05-0.08,0.09-0.16,0.12c0.09,0.02,0.15,0.06,0.18,0.12
		C76.98,10.52,76.99,10.6,76.99,10.69L76.99,10.69z"/>
	<path style="fill:#272525;" d="M77.71,10.51c0-0.09,0-0.16-0.02-0.2c-0.02-0.08-0.07-0.11-0.15-0.11c-0.1,0-0.16,0.06-0.18,0.19
		c0,0.04,0,0.08,0,0.12H77.71L77.71,10.51z M77.86,10.61h-0.5v0.06c0,0.1,0.01,0.17,0.02,0.21c0.03,0.06,0.08,0.09,0.15,0.09
		c0.11,0,0.17-0.07,0.17-0.21h0.15c-0.01,0.21-0.12,0.32-0.32,0.32c-0.13,0-0.22-0.05-0.27-0.14c-0.04-0.07-0.06-0.18-0.06-0.32
		c0-0.17,0.02-0.29,0.05-0.36c0.05-0.11,0.15-0.17,0.29-0.17c0.14,0,0.23,0.05,0.27,0.15c0.03,0.06,0.04,0.17,0.04,0.32V10.61
		L77.86,10.61z"/>
	<path style="fill:#272525;" d="M78.53,10.7v-0.11H78.5c-0.2,0-0.3,0.07-0.3,0.2c0,0.12,0.05,0.18,0.14,0.18
		c0.07,0,0.12-0.03,0.16-0.09C78.52,10.83,78.53,10.77,78.53,10.7L78.53,10.7z M78.69,11.07h-0.15v-0.13
		c-0.07,0.1-0.15,0.14-0.26,0.14c-0.08,0-0.14-0.03-0.19-0.08c-0.04-0.05-0.06-0.12-0.06-0.2c0-0.13,0.05-0.22,0.15-0.27
		c0.07-0.03,0.18-0.05,0.34-0.05v-0.04c0-0.08-0.01-0.13-0.02-0.16c-0.02-0.05-0.06-0.08-0.13-0.08c-0.05,0-0.08,0.01-0.12,0.04
		c-0.03,0.03-0.05,0.06-0.05,0.11v0.01h-0.15v-0.01c0-0.09,0.03-0.15,0.09-0.19c0.05-0.04,0.13-0.06,0.22-0.06
		c0.11,0,0.18,0.03,0.23,0.08c0.04,0.05,0.06,0.13,0.06,0.24v0.35C78.68,10.88,78.68,10.98,78.69,11.07L78.69,11.07z"/>
	<path style="fill:#272525;" d="M79.61,11.07h-0.15v-0.12c-0.06,0.09-0.14,0.14-0.24,0.14c-0.17,0-0.25-0.1-0.25-0.3v-0.67h0.15
		v0.61c0,0.08,0.01,0.13,0.02,0.17c0.02,0.05,0.07,0.08,0.13,0.08c0.12,0,0.18-0.09,0.18-0.28v-0.58h0.15v0.74
		C79.6,10.93,79.6,11,79.61,11.07L79.61,11.07z"/>
	<path style="fill:#272525;" d="M80.25,9.81c-0.01,0-0.03,0-0.06,0c-0.05,0-0.08,0.02-0.1,0.05c-0.01,0.02-0.01,0.06-0.01,0.11v0.14
		h0.17v0.11h-0.17v0.85h-0.15v-0.85h-0.14v-0.11h0.14v-0.11c0-0.1,0.01-0.18,0.04-0.22c0.04-0.06,0.1-0.1,0.2-0.1
		c0.03,0,0.05,0,0.08,0V9.81L80.25,9.81z"/>
	<path style="fill:#272525;" d="M80.81,11.07c-0.05,0-0.08,0.01-0.11,0.01c-0.08,0-0.15-0.02-0.18-0.06
		c-0.02-0.03-0.04-0.09-0.04-0.18v-0.62h-0.14v-0.11h0.14V9.94l0.15-0.06v0.24h0.17v0.11h-0.17v0.6c0,0.05,0.01,0.09,0.02,0.11
		c0.01,0.02,0.04,0.02,0.08,0.02c0.01,0,0.03,0,0.07,0V11.07L80.81,11.07z"/>
	<path style="fill:#272525;" d="M81.39,10.24c-0.01,0-0.03,0-0.03,0c-0.07,0-0.13,0.02-0.16,0.07c-0.04,0.04-0.05,0.1-0.05,0.18
		v0.59h-0.15v-0.78c0-0.06,0-0.12-0.01-0.17h0.15v0.12c0.05-0.09,0.13-0.14,0.24-0.14C81.39,10.09,81.39,10.14,81.39,10.24
		L81.39,10.24z"/>
	<path style="fill:#272525;" d="M81.98,10.7v-0.11h-0.04c-0.2,0-0.3,0.07-0.3,0.2c0,0.12,0.05,0.18,0.14,0.18
		c0.07,0,0.12-0.03,0.16-0.09C81.97,10.83,81.98,10.77,81.98,10.7L81.98,10.7z M82.14,11.07h-0.15l0-0.13
		c-0.06,0.1-0.15,0.14-0.25,0.14c-0.08,0-0.14-0.03-0.19-0.08c-0.04-0.05-0.06-0.12-0.06-0.2c0-0.13,0.05-0.22,0.16-0.27
		c0.07-0.03,0.18-0.05,0.33-0.05v-0.04c0-0.08,0-0.13-0.02-0.16c-0.02-0.05-0.06-0.08-0.13-0.08c-0.04,0-0.08,0.01-0.11,0.04
		c-0.03,0.03-0.05,0.06-0.05,0.11v0.01h-0.15v-0.01c0-0.09,0.03-0.15,0.1-0.19c0.05-0.04,0.13-0.06,0.22-0.06
		c0.11,0,0.18,0.03,0.23,0.08c0.04,0.05,0.06,0.13,0.06,0.24v0.35C82.13,10.88,82.13,10.98,82.14,11.07L82.14,11.07z"/>
	<path style="fill:#272525;" d="M82.88,10.56c0-0.11-0.01-0.19-0.03-0.24c-0.03-0.08-0.08-0.12-0.16-0.12
		c-0.08,0-0.13,0.04-0.16,0.13c-0.01,0.05-0.02,0.14-0.02,0.26c0,0.11,0.01,0.19,0.02,0.24c0.02,0.08,0.08,0.12,0.15,0.12
		c0.09,0,0.15-0.05,0.17-0.14C82.87,10.76,82.88,10.68,82.88,10.56L82.88,10.56z M83.04,10.11c0,0.01,0,0.04,0,0.07
		c0,0.04,0,0.06,0,0.08v0.83c0,0.12-0.03,0.2-0.08,0.26c-0.05,0.05-0.14,0.08-0.26,0.08c-0.19,0-0.29-0.09-0.3-0.28h0.16
		c0,0.12,0.05,0.18,0.15,0.18c0.08,0,0.13-0.03,0.15-0.08c0.02-0.04,0.03-0.1,0.03-0.18v-0.13c-0.05,0.08-0.13,0.11-0.22,0.11
		c-0.12,0-0.2-0.05-0.25-0.15c-0.03-0.07-0.04-0.17-0.04-0.31c0-0.15,0.02-0.27,0.05-0.35c0.04-0.11,0.12-0.16,0.24-0.16
		c0.1,0,0.18,0.04,0.23,0.13v-0.11H83.04L83.04,10.11z"/>
	<path style="fill:#272525;" d="M83.68,11.07c-0.05,0-0.08,0.01-0.11,0.01c-0.08,0-0.14-0.02-0.17-0.06
		c-0.03-0.03-0.04-0.09-0.04-0.18v-0.62h-0.14v-0.11h0.14V9.94l0.15-0.06v0.24h0.17v0.11h-0.17v0.6c0,0.05,0.01,0.09,0.02,0.11
		c0.01,0.02,0.04,0.02,0.08,0.02c0.01,0,0.03,0,0.07,0V11.07L83.68,11.07z"/>
	<path style="fill:#272525;" d="M84.33,10.51c0-0.09-0.01-0.16-0.02-0.2c-0.02-0.08-0.07-0.11-0.14-0.11c-0.1,0-0.16,0.06-0.18,0.19
		c0,0.04,0,0.08,0,0.12H84.33L84.33,10.51z M84.48,10.61h-0.5v0.06c0,0.1,0.01,0.17,0.03,0.21c0.02,0.06,0.07,0.09,0.15,0.09
		c0.11,0,0.17-0.07,0.17-0.21h0.15c-0.01,0.21-0.11,0.32-0.32,0.32c-0.13,0-0.22-0.05-0.27-0.14c-0.03-0.07-0.05-0.18-0.05-0.32
		c0-0.17,0.01-0.29,0.04-0.36c0.05-0.11,0.15-0.17,0.29-0.17c0.14,0,0.23,0.05,0.27,0.15c0.03,0.06,0.04,0.17,0.04,0.32V10.61
		L84.48,10.61z"/>
	<path style="fill:#272525;" d="M85.66,10.6c0-0.13-0.01-0.22-0.03-0.28c-0.03-0.08-0.08-0.12-0.15-0.12
		c-0.07,0-0.12,0.04-0.15,0.12c-0.02,0.05-0.03,0.14-0.03,0.25c0,0.12,0.01,0.21,0.03,0.27c0.02,0.08,0.07,0.12,0.14,0.12
		c0.08,0,0.13-0.04,0.16-0.12C85.65,10.8,85.66,10.72,85.66,10.6L85.66,10.6z M85.81,11.07h-0.15l0-0.11
		c-0.05,0.08-0.13,0.13-0.22,0.13c-0.12,0-0.2-0.06-0.25-0.17c-0.03-0.07-0.04-0.19-0.04-0.34c0-0.15,0.02-0.25,0.05-0.33
		c0.05-0.1,0.13-0.16,0.24-0.16c0.09,0,0.17,0.04,0.21,0.11V9.7h0.15v1.19C85.8,10.92,85.8,10.98,85.81,11.07L85.81,11.07z"/>
	<path style="fill:#272525;" d="M86.55,10.51c0-0.09-0.01-0.16-0.02-0.2c-0.02-0.08-0.07-0.11-0.14-0.11
		c-0.11,0-0.17,0.06-0.18,0.19c-0.01,0.04-0.01,0.08-0.01,0.12H86.55L86.55,10.51z M86.7,10.61h-0.5v0.06c0,0.1,0.01,0.17,0.03,0.21
		c0.03,0.06,0.08,0.09,0.15,0.09c0.11,0,0.17-0.07,0.17-0.21h0.15c-0.01,0.21-0.12,0.32-0.32,0.32c-0.13,0-0.22-0.05-0.27-0.14
		c-0.04-0.07-0.06-0.18-0.06-0.32c0-0.17,0.02-0.29,0.05-0.36c0.05-0.11,0.15-0.17,0.29-0.17c0.14,0,0.23,0.05,0.27,0.15
		c0.03,0.06,0.05,0.17,0.05,0.32V10.61L86.7,10.61z"/>
	<path style="fill:#272525;" d="M87.33,10.24c-0.01,0-0.02,0-0.03,0c-0.07,0-0.13,0.02-0.16,0.07c-0.04,0.04-0.05,0.1-0.05,0.18
		v0.59h-0.15v-0.78c0-0.06,0-0.12,0-0.17h0.15v0.12c0.05-0.09,0.13-0.14,0.24-0.14C87.33,10.09,87.33,10.14,87.33,10.24L87.33,10.24
		z"/>
	<path style="fill:#272525;" d="M88.58,10.69c0-0.09-0.02-0.16-0.06-0.2c-0.04-0.04-0.1-0.07-0.19-0.07h-0.17v0.52h0.15
		c0.1,0,0.17-0.02,0.2-0.05C88.55,10.86,88.58,10.79,88.58,10.69L88.58,10.69z M88.55,10.05c0-0.09-0.02-0.14-0.06-0.18
		c-0.04-0.03-0.1-0.05-0.18-0.05h-0.16v0.47h0.17C88.48,10.3,88.55,10.21,88.55,10.05L88.55,10.05z M88.74,10.69
		c0,0.14-0.03,0.24-0.1,0.3c-0.06,0.05-0.17,0.08-0.31,0.08h-0.34V9.7h0.37c0.12,0,0.21,0.03,0.27,0.08
		c0.06,0.05,0.09,0.14,0.09,0.26c0,0.09-0.01,0.15-0.04,0.19c-0.03,0.05-0.08,0.09-0.16,0.12c0.09,0.02,0.15,0.06,0.18,0.12
		C88.72,10.52,88.74,10.6,88.74,10.69L88.74,10.69z"/>
	<path style="fill:#272525;" d="M89.64,11.07h-0.15l0-0.12c-0.06,0.09-0.14,0.14-0.24,0.14c-0.17,0-0.25-0.1-0.25-0.3v-0.67h0.15
		v0.61c0,0.08,0.01,0.13,0.02,0.17c0.02,0.05,0.06,0.08,0.13,0.08c0.13,0,0.19-0.09,0.19-0.28v-0.58h0.15v0.74
		C89.63,10.93,89.63,11,89.64,11.07L89.64,11.07z"/>
	<path style="fill:#272525;" d="M90.56,11.07H90.4v-0.61c0-0.08-0.01-0.14-0.02-0.17c-0.02-0.05-0.07-0.08-0.13-0.08
		s-0.11,0.03-0.15,0.09c-0.03,0.05-0.05,0.12-0.05,0.19v0.58h-0.15v-0.75c0-0.09,0-0.16-0.01-0.21h0.15v0.13
		c0.06-0.1,0.14-0.15,0.25-0.15c0.17,0,0.25,0.1,0.25,0.3V11.07L90.56,11.07z"/>
	<path style="fill:#272525;" d="M91.31,10.6c0-0.13-0.01-0.22-0.03-0.28c-0.03-0.08-0.08-0.12-0.15-0.12
		c-0.07,0-0.12,0.04-0.15,0.12c-0.02,0.05-0.03,0.14-0.03,0.25c0,0.12,0.01,0.21,0.03,0.27c0.03,0.08,0.07,0.12,0.14,0.12
		c0.08,0,0.13-0.04,0.16-0.12C91.3,10.8,91.31,10.72,91.31,10.6L91.31,10.6z M91.46,11.07h-0.14l0-0.11
		c-0.06,0.08-0.13,0.13-0.23,0.13c-0.12,0-0.2-0.06-0.25-0.17c-0.03-0.07-0.04-0.19-0.04-0.34c0-0.15,0.02-0.25,0.05-0.33
		c0.05-0.1,0.13-0.16,0.24-0.16c0.1,0,0.17,0.04,0.22,0.11V9.7h0.15v1.19C91.46,10.92,91.46,10.98,91.46,11.07L91.46,11.07z"/>
	<path style="fill:#272525;" d="M92.2,10.51c0-0.09,0-0.16-0.02-0.2c-0.02-0.08-0.07-0.11-0.14-0.11c-0.1,0-0.16,0.06-0.18,0.19
		c0,0.04-0.01,0.08-0.01,0.12H92.2L92.2,10.51z M92.35,10.61h-0.5v0.06c0,0.1,0.01,0.17,0.03,0.21c0.03,0.06,0.07,0.09,0.15,0.09
		c0.11,0,0.17-0.07,0.17-0.21h0.15c-0.01,0.21-0.12,0.32-0.32,0.32c-0.13,0-0.22-0.05-0.27-0.14c-0.03-0.07-0.05-0.18-0.05-0.32
		c0-0.17,0.01-0.29,0.05-0.36c0.05-0.11,0.15-0.17,0.29-0.17c0.14,0,0.23,0.05,0.27,0.15c0.03,0.06,0.04,0.17,0.04,0.32V10.61
		L92.35,10.61z"/>
	<path style="fill:#272525;" d="M93.12,10.81c0,0.18-0.1,0.28-0.3,0.28c-0.2,0-0.29-0.1-0.29-0.31h0.15c0,0.02,0,0.04,0,0.05
		c0.01,0.1,0.06,0.15,0.14,0.15c0.1,0,0.14-0.05,0.14-0.15c0-0.06-0.01-0.1-0.04-0.12c-0.02-0.02-0.06-0.05-0.13-0.08
		c-0.09-0.05-0.15-0.08-0.17-0.11c-0.05-0.05-0.07-0.1-0.07-0.18c0-0.08,0.03-0.14,0.08-0.18c0.05-0.04,0.12-0.06,0.2-0.06
		c0.1,0,0.17,0.02,0.21,0.07c0.04,0.05,0.06,0.12,0.07,0.21h-0.15c0-0.12-0.04-0.18-0.14-0.18c-0.04,0-0.07,0.01-0.09,0.04
		c-0.02,0.02-0.04,0.05-0.04,0.09c0,0.04,0.02,0.08,0.05,0.11c0.02,0.02,0.07,0.04,0.14,0.08c0.08,0.04,0.13,0.08,0.16,0.11
		C93.1,10.68,93.12,10.73,93.12,10.81L93.12,10.81z"/>
	<path style="fill:#272525;" d="M93.74,10.24c-0.02,0-0.03,0-0.03,0c-0.07,0-0.13,0.02-0.16,0.07c-0.04,0.04-0.05,0.1-0.05,0.18
		v0.59h-0.15v-0.78c0-0.06,0-0.12,0-0.17h0.15v0.12c0.05-0.09,0.14-0.14,0.24-0.14C93.74,10.09,93.74,10.14,93.74,10.24L93.74,10.24
		z"/>
	<path style="fill:#272525;" d="M94.37,10.51c0-0.09-0.01-0.16-0.02-0.2c-0.02-0.08-0.07-0.11-0.15-0.11c-0.1,0-0.16,0.06-0.18,0.19
		c0,0.04-0.01,0.08-0.01,0.12H94.37L94.37,10.51z M94.52,10.61h-0.5v0.06c0,0.1,0.01,0.17,0.03,0.21c0.03,0.06,0.08,0.09,0.15,0.09
		c0.11,0,0.17-0.07,0.18-0.21h0.15c-0.01,0.21-0.12,0.32-0.32,0.32c-0.13,0-0.22-0.05-0.27-0.14c-0.04-0.07-0.06-0.18-0.06-0.32
		c0-0.17,0.02-0.29,0.05-0.36c0.05-0.11,0.15-0.17,0.29-0.17c0.14,0,0.23,0.05,0.27,0.15c0.03,0.06,0.04,0.17,0.04,0.32V10.61
		L94.52,10.61z"/>
	<path style="fill:#272525;" d="M95.23,10.56c0-0.11-0.01-0.19-0.03-0.24c-0.03-0.08-0.08-0.12-0.16-0.12
		c-0.08,0-0.13,0.04-0.16,0.13c-0.01,0.05-0.02,0.14-0.02,0.26c0,0.11,0.01,0.19,0.02,0.24c0.02,0.08,0.07,0.12,0.15,0.12
		c0.08,0,0.14-0.05,0.17-0.14C95.22,10.76,95.23,10.68,95.23,10.56L95.23,10.56z M95.38,10.11c0,0.01,0,0.04,0,0.07
		c0,0.04,0,0.06,0,0.08v0.83c0,0.12-0.03,0.2-0.08,0.26c-0.06,0.05-0.14,0.08-0.26,0.08c-0.2,0-0.29-0.09-0.3-0.28h0.16
		c0,0.12,0.05,0.18,0.15,0.18c0.08,0,0.13-0.03,0.15-0.08c0.02-0.04,0.02-0.1,0.02-0.18v-0.13c-0.05,0.08-0.13,0.11-0.22,0.11
		c-0.12,0-0.2-0.05-0.25-0.15c-0.03-0.07-0.05-0.17-0.05-0.31c0-0.15,0.02-0.27,0.05-0.35c0.04-0.11,0.12-0.16,0.24-0.16
		c0.1,0,0.18,0.04,0.23,0.13v-0.11H95.38L95.38,10.11z"/>
	<path style="fill:#272525;" d="M95.81,11.07h-0.15v-0.96h0.15V11.07L95.81,11.07z M95.82,9.88h-0.16V9.72h0.16V9.88L95.82,9.88z"/>
	<path style="fill:#272525;" d="M96.56,10.51c0-0.09-0.01-0.16-0.02-0.2c-0.02-0.08-0.07-0.11-0.15-0.11c-0.1,0-0.16,0.06-0.18,0.19
		c0,0.04,0,0.08,0,0.12H96.56L96.56,10.51z M96.71,10.61h-0.5v0.06c0,0.1,0.01,0.17,0.02,0.21c0.03,0.06,0.08,0.09,0.15,0.09
		c0.11,0,0.17-0.07,0.17-0.21h0.15c-0.01,0.21-0.12,0.32-0.32,0.32c-0.13,0-0.22-0.05-0.27-0.14c-0.04-0.07-0.06-0.18-0.06-0.32
		c0-0.17,0.01-0.29,0.05-0.36c0.05-0.11,0.15-0.17,0.29-0.17c0.14,0,0.23,0.05,0.27,0.15c0.03,0.06,0.04,0.17,0.04,0.32V10.61
		L96.71,10.61z"/>
	<path style="fill:#272525;" d="M97.35,10.24c-0.02,0-0.03,0-0.03,0c-0.07,0-0.12,0.02-0.16,0.07c-0.04,0.04-0.05,0.1-0.05,0.18
		v0.59h-0.15v-0.78c0-0.06,0-0.12-0.01-0.17h0.15v0.12c0.05-0.09,0.13-0.14,0.24-0.14C97.34,10.09,97.35,10.14,97.35,10.24
		L97.35,10.24z"/>
	<path style="fill:#272525;" d="M98.17,11.07h-0.15l0-0.12c-0.06,0.09-0.14,0.14-0.24,0.14c-0.17,0-0.25-0.1-0.25-0.3v-0.67h0.15
		v0.61c0,0.08,0.01,0.13,0.02,0.17c0.02,0.05,0.07,0.08,0.13,0.08c0.13,0,0.19-0.09,0.19-0.28v-0.58h0.15v0.74
		C98.16,10.93,98.17,11,98.17,11.07L98.17,11.07z"/>
	<path style="fill:#272525;" d="M99.09,11.07h-0.15v-0.61c0-0.08,0-0.14-0.02-0.17c-0.02-0.05-0.07-0.08-0.13-0.08
		c-0.06,0-0.11,0.03-0.15,0.09c-0.03,0.05-0.04,0.12-0.04,0.19v0.58h-0.15v-0.75c0-0.09,0-0.16,0-0.21h0.15v0.13
		c0.05-0.1,0.13-0.15,0.25-0.15c0.17,0,0.25,0.1,0.25,0.3V11.07L99.09,11.07z"/>
	<path style="fill:#272525;" d="M99.84,10.56c0-0.11-0.01-0.19-0.02-0.24c-0.03-0.08-0.08-0.12-0.16-0.12
		c-0.08,0-0.13,0.04-0.15,0.13c-0.01,0.05-0.02,0.14-0.02,0.26c0,0.11,0.01,0.19,0.02,0.24c0.02,0.08,0.07,0.12,0.15,0.12
		c0.08,0,0.14-0.05,0.17-0.14C99.84,10.76,99.84,10.68,99.84,10.56L99.84,10.56z M100,10.11c0,0.01,0,0.04,0,0.07
		c0,0.04,0,0.06,0,0.08v0.83c0,0.12-0.03,0.2-0.08,0.26c-0.05,0.05-0.14,0.08-0.26,0.08c-0.2,0-0.3-0.09-0.3-0.28h0.16
		c0,0.12,0.05,0.18,0.15,0.18c0.08,0,0.13-0.03,0.15-0.08c0.02-0.04,0.03-0.1,0.03-0.18v-0.13c-0.05,0.08-0.13,0.11-0.22,0.11
		c-0.12,0-0.2-0.05-0.25-0.15c-0.03-0.07-0.04-0.17-0.04-0.31c0-0.15,0.01-0.27,0.05-0.35c0.04-0.11,0.13-0.16,0.24-0.16
		c0.1,0,0.18,0.04,0.23,0.13v-0.11H100L100,10.11z"/>
	<path style="fill:#272525;" d="M73.76,11.82c-0.01,0-0.03,0-0.06,0c-0.05,0-0.08,0.02-0.09,0.05c-0.01,0.03-0.02,0.06-0.02,0.12
		v0.14h0.17v0.11h-0.17v0.84h-0.15v-0.84h-0.14v-0.11h0.14v-0.11c0-0.1,0.01-0.18,0.04-0.22c0.03-0.06,0.1-0.1,0.2-0.1
		c0.03,0,0.05,0,0.08,0V11.82L73.76,11.82z"/>
	<path style="fill:#272525;" d="M74.6,13.08h-0.15l0-0.12c-0.06,0.09-0.14,0.14-0.24,0.14c-0.17,0-0.26-0.1-0.26-0.29v-0.68h0.15
		v0.61c0,0.08,0.01,0.13,0.02,0.17c0.02,0.05,0.07,0.08,0.13,0.08c0.13,0,0.19-0.09,0.19-0.28v-0.58h0.15v0.74
		C74.59,12.94,74.6,13.01,74.6,13.08L74.6,13.08z"/>
	<path style="fill:#272525;" d="M74.2,11.9h-0.14v-0.18h0.14V11.9L74.2,11.9z M74.49,11.9h-0.15v-0.18h0.15V11.9L74.49,11.9z"/>
	<path style="fill:#272525;" d="M75.27,12.25c-0.02,0-0.03,0-0.03,0c-0.07,0-0.12,0.02-0.16,0.06c-0.04,0.04-0.05,0.1-0.05,0.18
		v0.59h-0.15V12.3c0-0.06,0-0.12,0-0.17h0.15v0.12c0.05-0.1,0.13-0.14,0.24-0.14C75.27,12.11,75.27,12.15,75.27,12.25L75.27,12.25z"
		/>
	<path style="fill:#272525;" d="M76.09,13.08h-0.16v-1.37h0.16V13.08L76.09,13.08z M76.72,13.08h-0.19l-0.43-0.73l0.42-0.63h0.19
		l-0.43,0.63L76.72,13.08L76.72,13.08z"/>
	<path style="fill:#272525;" d="M77.53,13.08h-0.15v-0.12c-0.06,0.09-0.14,0.14-0.24,0.14c-0.17,0-0.25-0.1-0.25-0.29v-0.68h0.15
		v0.61c0,0.08,0,0.13,0.02,0.17c0.02,0.05,0.07,0.08,0.14,0.08c0.12,0,0.18-0.09,0.18-0.28v-0.58h0.15v0.74
		C77.52,12.94,77.52,13.01,77.53,13.08L77.53,13.08z"/>
	<polygon style="fill:#272525;" points="77.95,13.08 77.8,13.08 77.8,11.71 77.88,11.71 77.95,11.71 77.95,13.08 	"/>
	<path style="fill:#272525;" d="M78.6,13.08c-0.05,0-0.08,0.01-0.11,0.01c-0.08,0-0.15-0.02-0.18-0.06
		c-0.03-0.03-0.04-0.09-0.04-0.18v-0.62h-0.14v-0.11h0.14v-0.18l0.15-0.07v0.24h0.17v0.11h-0.17v0.6c0,0.05,0.01,0.09,0.02,0.11
		c0.02,0.02,0.05,0.03,0.09,0.03c0.01,0,0.03,0,0.07-0.01V13.08L78.6,13.08z"/>
	<path style="fill:#272525;" d="M79.44,13.08h-0.15l0-0.12c-0.06,0.09-0.14,0.14-0.24,0.14c-0.17,0-0.26-0.1-0.26-0.29v-0.68h0.15
		v0.61c0,0.08,0.01,0.13,0.02,0.17c0.02,0.05,0.07,0.08,0.13,0.08c0.13,0,0.19-0.09,0.19-0.28v-0.58h0.15v0.74
		C79.43,12.94,79.43,13.01,79.44,13.08L79.44,13.08z"/>
	<path style="fill:#272525;" d="M80.11,12.25c-0.01,0-0.02,0-0.03,0c-0.07,0-0.13,0.02-0.16,0.06c-0.04,0.04-0.06,0.1-0.06,0.18
		v0.59h-0.15V12.3c0-0.06,0-0.12,0-0.17h0.15v0.12c0.05-0.1,0.13-0.14,0.24-0.14C80.11,12.11,80.11,12.15,80.11,12.25L80.11,12.25z"
		/>
	<path style="fill:#272525;" d="M81.4,13.08h-0.15l0-0.12c-0.06,0.09-0.14,0.14-0.24,0.14c-0.17,0-0.25-0.1-0.25-0.29v-0.68h0.15
		v0.61c0,0.08,0.01,0.13,0.02,0.17c0.02,0.05,0.07,0.08,0.13,0.08c0.12,0,0.19-0.09,0.19-0.28v-0.58h0.15v0.74
		C81.39,12.94,81.39,13.01,81.4,13.08L81.4,13.08z"/>
	<path style="fill:#272525;" d="M82.31,13.08h-0.15v-0.61c0-0.08,0-0.14-0.01-0.17c-0.02-0.06-0.07-0.08-0.13-0.08
		c-0.06,0-0.11,0.03-0.15,0.09c-0.03,0.06-0.04,0.12-0.04,0.19v0.58h-0.15v-0.75c0-0.08,0-0.15-0.01-0.21h0.15v0.13
		c0.05-0.1,0.14-0.15,0.25-0.15c0.17,0,0.25,0.1,0.25,0.3V13.08L82.31,13.08z"/>
	<path style="fill:#272525;" d="M83.07,12.61c0-0.13-0.01-0.22-0.03-0.28c-0.03-0.08-0.08-0.12-0.15-0.12
		c-0.07,0-0.13,0.04-0.15,0.13c-0.02,0.05-0.03,0.14-0.03,0.25c0,0.12,0.01,0.22,0.03,0.28c0.03,0.08,0.08,0.12,0.14,0.12
		c0.08,0,0.13-0.04,0.16-0.12C83.06,12.81,83.07,12.73,83.07,12.61L83.07,12.61z M83.22,13.08h-0.15l0-0.11
		c-0.06,0.08-0.13,0.12-0.22,0.12c-0.12,0-0.2-0.06-0.25-0.16c-0.03-0.08-0.05-0.19-0.05-0.34c0-0.14,0.02-0.26,0.05-0.33
		c0.05-0.1,0.12-0.16,0.24-0.16c0.1,0,0.17,0.04,0.22,0.11v-0.5h0.15v1.19C83.22,12.93,83.22,12.99,83.22,13.08L83.22,13.08z"/>
	<polygon style="fill:#272525;" points="85.17,13.08 85.01,13.08 85.01,11.83 84.66,13.08 84.48,13.08 84.12,11.83 84.12,13.08 
		83.98,13.08 83.98,11.71 84.24,11.71 84.57,12.92 84.9,11.71 85.17,11.71 85.17,13.08 	"/>
	<path style="fill:#272525;" d="M85.94,12.52c0-0.09-0.01-0.16-0.02-0.19c-0.02-0.08-0.07-0.11-0.15-0.11
		c-0.1,0-0.16,0.06-0.18,0.18c0,0.04-0.01,0.08-0.01,0.12H85.94L85.94,12.52z M86.09,12.62h-0.5v0.06c0,0.1,0.01,0.17,0.03,0.21
		c0.03,0.06,0.08,0.09,0.15,0.09c0.11,0,0.17-0.07,0.17-0.21h0.15c-0.01,0.21-0.12,0.32-0.32,0.32c-0.13,0-0.22-0.05-0.27-0.14
		c-0.04-0.07-0.05-0.17-0.05-0.32c0-0.17,0.01-0.29,0.05-0.36c0.05-0.12,0.15-0.17,0.29-0.17c0.14,0,0.23,0.05,0.27,0.15
		c0.03,0.06,0.04,0.17,0.04,0.32V12.62L86.09,12.62z"/>
	<path style="fill:#272525;" d="M86.8,12.61c0-0.13-0.01-0.22-0.03-0.28c-0.02-0.08-0.08-0.12-0.16-0.12
		c-0.07,0-0.12,0.04-0.15,0.13c-0.02,0.05-0.03,0.14-0.03,0.25c0,0.12,0.01,0.22,0.03,0.28c0.03,0.08,0.08,0.12,0.14,0.12
		c0.08,0,0.14-0.04,0.16-0.12C86.79,12.81,86.8,12.73,86.8,12.61L86.8,12.61z M86.96,13.08h-0.15l0-0.11
		c-0.06,0.08-0.13,0.12-0.22,0.12c-0.12,0-0.21-0.06-0.25-0.16c-0.03-0.08-0.04-0.19-0.04-0.34c0-0.14,0.02-0.26,0.05-0.33
		c0.04-0.1,0.12-0.16,0.24-0.16c0.1,0,0.17,0.04,0.22,0.11v-0.5h0.15v1.19C86.95,12.93,86.95,12.99,86.96,13.08L86.96,13.08z"/>
	<path style="fill:#272525;" d="M87.38,13.08h-0.15v-0.95h0.15V13.08L87.38,13.08z M87.39,11.89h-0.16v-0.16h0.16V11.89L87.39,11.89
		z"/>
	<path style="fill:#272525;" d="M88.13,12.52c0-0.09-0.01-0.16-0.02-0.19c-0.02-0.08-0.07-0.11-0.15-0.11
		c-0.1,0-0.16,0.06-0.17,0.18c0,0.04-0.01,0.08-0.01,0.12H88.13L88.13,12.52z M88.28,12.62h-0.5v0.06c0,0.1,0.01,0.17,0.03,0.21
		c0.02,0.06,0.07,0.09,0.15,0.09c0.11,0,0.17-0.07,0.17-0.21h0.15c-0.01,0.21-0.12,0.32-0.32,0.32c-0.13,0-0.22-0.05-0.27-0.14
		c-0.03-0.07-0.05-0.17-0.05-0.32c0-0.17,0.02-0.29,0.05-0.36c0.05-0.12,0.15-0.17,0.29-0.17c0.13,0,0.23,0.05,0.27,0.15
		c0.03,0.06,0.04,0.17,0.04,0.32V12.62L88.28,12.62z"/>
	<path style="fill:#272525;" d="M89.16,13.08h-0.15v-0.61c0-0.08,0-0.14-0.01-0.17c-0.02-0.06-0.07-0.08-0.13-0.08
		c-0.06,0-0.11,0.03-0.15,0.09c-0.03,0.06-0.04,0.12-0.04,0.19v0.58h-0.15v-0.75c0-0.08,0-0.15-0.01-0.21h0.15v0.13
		c0.05-0.1,0.14-0.15,0.25-0.15c0.17,0,0.25,0.1,0.25,0.3V13.08L89.16,13.08z"/>
</g>
</svg>
