<?xml version="1.0" encoding="utf-8"?>
<!-- Generator: Adobe Illustrator 16.0.3, SVG Export Plug-In . SVG Version: 6.00 Build 0)  -->
<!DOCTYPE svg PUBLIC "-//W3C//DTD SVG 1.1//EN" "http://www.w3.org/Graphics/SVG/1.1/DTD/svg11.dtd">
<svg version="1.1" id="Layer_1" xmlns="http://www.w3.org/2000/svg" xmlns:xlink="http://www.w3.org/1999/xlink" x="0px" y="0px"
	 width="30px" height="16.2px" viewBox="0 0 30 16.2" style="enable-background:new 0 0 30 16.2;" xml:space="preserve">
<g>
	<path style="fill:#1D3059;" d="M5.95,2.79C5.99,2.65,5.87,2.48,5.7,2.48H4.4c-0.1,0-0.2,0.07-0.24,0.19l-1,3.44
		C3.14,6.14,3.11,6.2,3.04,6.2c-0.08,0-0.11-0.06-0.12-0.1L1.94,2.68c-0.03-0.1-0.11-0.2-0.24-0.2v0l-1.44,0
		C0.12,2.48,0,2.57,0,2.76c0,0.09,1.92,5.99,1.94,6.03c0.03,0.06,0.1,0.15,0.23,0.15h1.66c0.1,0,0.2-0.06,0.24-0.17L5.95,2.79
		L5.95,2.79L5.95,2.79z"/>
	<path style="fill:#1D3059;" d="M12.2,8.68c0-0.11,0-3.88,0-3.88c0-0.89-0.13-1.36-0.44-1.79c-0.31-0.43-0.98-0.76-1.88-0.76
		c-0.33,0-0.98,0.11-1.49,0.58V0.26c0-0.13-0.11-0.25-0.26-0.25c0,0-1.29,0-1.3,0c-0.16,0-0.25,0.13-0.25,0.25c0,0.03,0,8.42,0,8.42
		c0,0.12,0.09,0.26,0.25,0.26h1.3c0.15,0,0.26-0.12,0.26-0.26V4.95c0-0.67,0.41-1.13,1-1.13c0.52,0,1,0.42,1,1.13v3.73
		c0,0.16,0.12,0.26,0.25,0.26c0.02,0,1.13,0,1.3,0C12.11,8.94,12.2,8.79,12.2,8.68L12.2,8.68L12.2,8.68z"/>
	<path style="fill:#1D3059;" d="M18.23,3.89c0-0.45-0.55-1.63-2.59-1.63c-2.45,0-2.63,1.45-2.63,1.89c0,1.19,0.88,1.64,1.97,1.97
		c1,0.31,1.6,0.58,1.6,0.96c0,0.59-0.58,0.65-0.9,0.65c-0.64,0-1.03-0.43-1.12-0.77c-0.05-0.2-0.18-0.22-0.26-0.22l-1.19,0.08
		c-0.15,0.01-0.22,0.19-0.22,0.26c0,0.78,0.91,2.09,2.8,2.09c2.15,0,2.79-1.32,2.79-2.09c0-1.4-0.95-1.75-2.05-2.09
		c-0.87-0.26-1.64-0.48-1.64-0.89c0-0.15,0.01-0.56,0.85-0.56c0.47,0,0.94,0.14,1.04,0.51c0.04,0.14,0.17,0.19,0.25,0.19
		c0.14,0,1.06-0.07,1.06-0.07C18.1,4.15,18.23,4.08,18.23,3.89L18.23,3.89L18.23,3.89z"/>
	<path style="fill:#C20E1A;" d="M25.89,8.37c-0.15,0-0.29,0.03-0.41,0.09c0-0.03-0.01-0.06-0.01-0.09
		c-0.15-0.93-0.95-1.64-1.92-1.64c-1.08,0-1.95,0.87-1.95,1.95c0,1.08,0.87,1.95,1.95,1.95c0.62,0,1.18-0.29,1.54-0.75
		c0.17,0.26,0.47,0.44,0.81,0.44c0.54,0,0.97-0.44,0.97-0.98C26.86,8.81,26.43,8.37,25.89,8.37L25.89,8.37L25.89,8.37z"/>
	<path style="fill:#82B7E6;" d="M27.7,8.21c0,0.52-0.36,0.96-0.84,1.09c-0.09,0.02-1.27-0.33-1.38-0.83
		c-0.02-0.08-0.03-0.17-0.03-0.25c0-0.62,0.5-1.12,1.13-1.12C27.2,7.08,27.7,7.59,27.7,8.21L27.7,8.21L27.7,8.21z"/>
	<path style="fill:#4873AB;" d="M29.52,7.33c0,0.75-0.61,1.35-1.35,1.35c-0.75,0-1.35-0.6-1.35-1.35c0-0.75,0.6-1.35,1.35-1.35
		C28.91,5.98,29.52,6.59,29.52,7.33L29.52,7.33L29.52,7.33z"/>
	<path style="fill:#771628;" d="M26.86,9.29c-0.03-0.51-0.45-0.92-0.97-0.92c-0.15,0-0.29,0.03-0.41,0.09
		c0.12,0.5,0.56,0.87,1.1,0.87C26.67,9.33,26.77,9.32,26.86,9.29L26.86,9.29L26.86,9.29z"/>
	<path style="fill:#82B7E6;" d="M28.69,5.75c0,0.29-0.24,0.52-0.53,0.52c-0.29,0-0.52-0.24-0.52-0.52c0-0.29,0.23-0.53,0.52-0.53
		C28.46,5.22,28.69,5.46,28.69,5.75L28.69,5.75L28.69,5.75z"/>
	<path style="fill:#EAB92A;" d="M27.75,0.05c-0.57,0-1.09,0.21-1.49,0.56c-0.09-0.09-0.22-0.14-0.35-0.14
		c-0.29,0-0.53,0.24-0.53,0.52c0,0.2,0.11,0.37,0.28,0.46C25.56,1.72,25.5,2,25.5,2.3c0,1.24,1.01,2.25,2.25,2.25
		C28.99,4.55,30,3.54,30,2.3C30,1.06,28.99,0.05,27.75,0.05L27.75,0.05L27.75,0.05z"/>
	<path style="fill:#D0661C;" d="M21.95,7.56c0.29-0.35,0.23-0.87-0.12-1.16s-0.87-0.23-1.16,0.12c-0.29,0.35-0.23,0.87,0.12,1.16
		C21.14,7.96,21.66,7.91,21.95,7.56"/>
	<path style="fill:#3B527F;" d="M26.84,7.11c-0.01,0.07-0.02,0.14-0.02,0.22c0,0.56,0.34,1.04,0.82,1.24
		c0.04-0.11,0.06-0.24,0.06-0.37C27.7,7.68,27.33,7.23,26.84,7.11L26.84,7.11L26.84,7.11z"/>
	<path style="fill:#3B527F;" d="M28.17,5.98c-0.15,0-0.29,0.03-0.43,0.07c0.09,0.13,0.25,0.22,0.43,0.22c0.17,0,0.33-0.09,0.42-0.22
		C28.46,6.01,28.32,5.98,28.17,5.98L28.17,5.98L28.17,5.98z"/>
	<path style="fill:#CE9019;" d="M25.66,1.46c0.07,0.04,0.16,0.06,0.25,0.06c0.29,0,0.52-0.24,0.52-0.53c0-0.15-0.07-0.29-0.17-0.39
		C26,0.85,25.79,1.13,25.66,1.46L25.66,1.46L25.66,1.46z"/>
	<path style="fill:#1D3059;" d="M22.97,0c-0.28,0-0.52,0.14-0.67,0.35c-0.28-0.21-0.62-0.33-0.99-0.33c-0.91,0-1.65,0.74-1.65,1.65
		c0,0.91,0.74,1.65,1.65,1.65c0.91,0,1.65-0.74,1.65-1.65c0-0.01,0-0.01,0-0.02c0,0,0.01,0,0.01,0c0.46,0,0.83-0.37,0.83-0.83
		C23.8,0.37,23.43,0,22.97,0L22.97,0L22.97,0z"/>
	<path style="fill:#1D3059;" d="M20.07,4.25c-0.26-0.12-0.58-0.01-0.7,0.25c-0.12,0.26-0.01,0.57,0.25,0.7
		c0.26,0.12,0.57,0.01,0.7-0.25C20.44,4.69,20.33,4.38,20.07,4.25L20.07,4.25L20.07,4.25z"/>
	<path style="fill:#1D3059;" d="M24.53,1.25c-0.14,0-0.25,0.11-0.25,0.26c0,0.14,0.11,0.26,0.25,0.26c0.14,0,0.25-0.11,0.25-0.26
		C24.79,1.36,24.67,1.25,24.53,1.25L24.53,1.25L24.53,1.25z"/>
	<path style="fill:#1D3059;" d="M28.04,9.17c-0.14,0-0.25,0.12-0.25,0.26c0,0.14,0.12,0.25,0.25,0.25c0.14,0,0.26-0.12,0.26-0.25
		C28.29,9.29,28.18,9.17,28.04,9.17L28.04,9.17L28.04,9.17z"/>
	<path style="fill:#1D3059;" d="M1.24,15.63v-1.94H2.1c0.17,0,0.3,0.02,0.39,0.05c0.09,0.03,0.16,0.1,0.22,0.18
		c0.05,0.09,0.08,0.19,0.08,0.29c0,0.14-0.05,0.25-0.13,0.35c-0.09,0.09-0.23,0.15-0.41,0.18c0.07,0.03,0.12,0.07,0.16,0.1
		C2.48,14.91,2.55,15,2.62,15.1l0.34,0.53H2.63l-0.26-0.4c-0.08-0.12-0.14-0.2-0.19-0.27c-0.05-0.06-0.09-0.11-0.13-0.13
		c-0.04-0.03-0.08-0.04-0.12-0.05c-0.03-0.01-0.08-0.01-0.14-0.01H1.5v0.86H1.24L1.24,15.63z M1.5,14.54h0.55
		c0.12,0,0.21-0.01,0.28-0.04c0.07-0.02,0.11-0.06,0.15-0.12c0.03-0.05,0.05-0.11,0.05-0.17c0-0.09-0.03-0.17-0.1-0.23
		c-0.07-0.06-0.17-0.09-0.32-0.09H1.5"/>
	<path style="fill:#1D3059;" d="M4.18,15.18l0.25,0.03c-0.04,0.14-0.11,0.25-0.22,0.33c-0.11,0.08-0.24,0.12-0.4,0.12
		c-0.21,0-0.37-0.06-0.49-0.19c-0.12-0.13-0.18-0.3-0.18-0.53c0-0.24,0.06-0.42,0.18-0.55c0.12-0.13,0.28-0.2,0.47-0.2
		c0.19,0,0.34,0.06,0.46,0.19c0.12,0.13,0.18,0.31,0.18,0.54c0,0.01,0,0.04,0,0.06H3.38c0.01,0.15,0.05,0.27,0.13,0.35
		c0.08,0.08,0.18,0.12,0.29,0.12c0.09,0,0.16-0.02,0.22-0.07C4.09,15.35,4.14,15.28,4.18,15.18 M3.4,14.79h0.78
		c-0.01-0.12-0.04-0.21-0.09-0.26c-0.08-0.09-0.17-0.14-0.29-0.14c-0.11,0-0.2,0.03-0.28,0.11C3.44,14.57,3.4,14.67,3.4,14.79"/>
	<path style="fill:#1D3059;" d="M4.77,15.63v-1.4h0.21v0.2c0.1-0.16,0.25-0.23,0.45-0.23c0.08,0,0.16,0.02,0.23,0.05
		c0.07,0.03,0.12,0.07,0.16,0.12c0.04,0.05,0.06,0.11,0.08,0.18c0.01,0.04,0.01,0.12,0.01,0.23v0.86H5.68v-0.85
		c0-0.1-0.01-0.17-0.03-0.22c-0.02-0.05-0.05-0.09-0.1-0.12c-0.05-0.03-0.1-0.04-0.17-0.04c-0.1,0-0.19,0.03-0.26,0.1
		c-0.07,0.07-0.11,0.19-0.11,0.37v0.76"/>
	<path style="fill:#1D3059;" d="M7.24,15.63v-0.18c-0.09,0.14-0.22,0.21-0.39,0.21c-0.11,0-0.22-0.03-0.31-0.09
		c-0.09-0.06-0.17-0.15-0.22-0.26c-0.05-0.11-0.08-0.24-0.08-0.38c0-0.14,0.02-0.27,0.07-0.38c0.05-0.12,0.12-0.2,0.21-0.26
		c0.09-0.06,0.2-0.09,0.31-0.09c0.08,0,0.16,0.02,0.23,0.05c0.07,0.04,0.12,0.08,0.16,0.14v-0.7h0.24v1.94H7.24L7.24,15.63z
		 M6.49,14.93c0,0.18,0.04,0.31,0.11,0.4c0.08,0.09,0.16,0.13,0.27,0.13c0.1,0,0.19-0.04,0.26-0.13c0.07-0.08,0.11-0.21,0.11-0.39
		c0-0.19-0.04-0.33-0.11-0.42c-0.07-0.09-0.17-0.13-0.27-0.13c-0.11,0-0.19,0.04-0.27,0.13C6.52,14.6,6.49,14.74,6.49,14.93"/>
	<path style="fill:#1D3059;" d="M7.79,15.21l0.23-0.04c0.01,0.09,0.05,0.17,0.11,0.22c0.06,0.05,0.14,0.07,0.25,0.07
		c0.11,0,0.19-0.02,0.24-0.07c0.05-0.04,0.08-0.1,0.08-0.16c0-0.05-0.02-0.1-0.07-0.13c-0.03-0.02-0.11-0.05-0.24-0.08
		c-0.17-0.04-0.3-0.08-0.36-0.11s-0.12-0.08-0.15-0.13c-0.03-0.06-0.05-0.12-0.05-0.19c0-0.06,0.01-0.12,0.04-0.17
		c0.03-0.05,0.07-0.1,0.12-0.13c0.04-0.03,0.09-0.05,0.15-0.07c0.06-0.02,0.13-0.03,0.21-0.03c0.11,0,0.21,0.02,0.29,0.05
		c0.08,0.03,0.14,0.07,0.18,0.13c0.04,0.05,0.07,0.13,0.08,0.22l-0.23,0.03c-0.01-0.07-0.04-0.13-0.09-0.17
		c-0.05-0.04-0.12-0.06-0.21-0.06c-0.11,0-0.19,0.02-0.23,0.05c-0.05,0.04-0.07,0.08-0.07,0.13c0,0.03,0.01,0.06,0.03,0.08
		c0.02,0.02,0.05,0.04,0.09,0.06c0.02,0.01,0.09,0.03,0.21,0.06c0.17,0.04,0.29,0.08,0.35,0.11c0.07,0.03,0.12,0.07,0.16,0.13
		c0.04,0.05,0.06,0.12,0.06,0.2c0,0.08-0.03,0.15-0.07,0.22c-0.05,0.07-0.11,0.12-0.2,0.16c-0.09,0.04-0.19,0.06-0.3,0.06
		c-0.18,0-0.32-0.04-0.42-0.11C7.88,15.47,7.82,15.36,7.79,15.21"/>
	<path style="fill:#1D3059;" d="M9.51,15.63H9.29v-1.94h0.24v0.69c0.1-0.12,0.23-0.19,0.38-0.19c0.09,0,0.17,0.02,0.25,0.05
		c0.08,0.03,0.14,0.08,0.19,0.15c0.05,0.06,0.09,0.14,0.12,0.23c0.03,0.09,0.04,0.18,0.04,0.29c0,0.24-0.06,0.43-0.18,0.56
		c-0.12,0.13-0.26,0.2-0.43,0.2c-0.17,0-0.3-0.07-0.39-0.21V15.63L9.51,15.63z M9.51,14.92c0,0.17,0.02,0.29,0.07,0.36
		c0.07,0.12,0.18,0.18,0.3,0.18c0.1,0,0.19-0.04,0.27-0.14c0.08-0.09,0.11-0.22,0.11-0.4c0-0.18-0.04-0.32-0.11-0.4
		c-0.07-0.09-0.16-0.13-0.26-0.13c-0.1,0-0.2,0.04-0.27,0.13C9.55,14.61,9.51,14.74,9.51,14.92"/>
	<path style="fill:#1D3059;" d="M11.77,15.63v-0.21c-0.11,0.16-0.26,0.24-0.45,0.24c-0.08,0-0.16-0.02-0.23-0.05
		c-0.07-0.03-0.13-0.07-0.16-0.12c-0.03-0.05-0.06-0.11-0.07-0.17c-0.01-0.05-0.01-0.12-0.01-0.22v-0.87h0.24V15
		c0,0.12,0.01,0.21,0.01,0.25c0.01,0.06,0.05,0.11,0.1,0.15c0.05,0.04,0.11,0.05,0.18,0.05c0.07,0,0.14-0.02,0.2-0.06
		c0.06-0.04,0.11-0.09,0.13-0.15c0.03-0.06,0.04-0.16,0.04-0.27v-0.75h0.24v1.4"/>
	<path style="fill:#1D3059;" d="M12.4,15.63v-1.4h0.21v0.21c0.06-0.1,0.11-0.17,0.15-0.2c0.05-0.03,0.1-0.05,0.15-0.05
		c0.08,0,0.16,0.03,0.25,0.08l-0.08,0.22c-0.06-0.04-0.12-0.05-0.17-0.05c-0.05,0-0.1,0.02-0.14,0.05
		c-0.04,0.03-0.07,0.08-0.09,0.13c-0.03,0.08-0.04,0.18-0.04,0.28v0.73"/>
	<path style="fill:#1D3059;" d="M13.31,15.74l0.23,0.03c0.01,0.07,0.04,0.12,0.08,0.16c0.06,0.04,0.14,0.07,0.24,0.07
		c0.11,0,0.2-0.02,0.26-0.07c0.06-0.04,0.1-0.11,0.12-0.18c0.01-0.05,0.02-0.15,0.02-0.31c-0.1,0.12-0.23,0.18-0.39,0.18
		c-0.19,0-0.34-0.07-0.45-0.21c-0.1-0.14-0.16-0.3-0.16-0.5c0-0.13,0.03-0.26,0.07-0.37c0.05-0.11,0.12-0.2,0.21-0.26
		c0.09-0.06,0.2-0.09,0.32-0.09c0.17,0,0.3,0.07,0.41,0.2v-0.17h0.22v1.21c0,0.22-0.02,0.37-0.07,0.46
		c-0.04,0.09-0.12,0.16-0.21,0.22c-0.1,0.05-0.22,0.08-0.36,0.08c-0.17,0-0.3-0.04-0.4-0.11C13.36,16.01,13.31,15.9,13.31,15.74
		 M13.51,14.9c0,0.18,0.04,0.32,0.11,0.4c0.07,0.09,0.16,0.13,0.28,0.13c0.11,0,0.2-0.04,0.27-0.12c0.08-0.09,0.11-0.22,0.11-0.4
		c0-0.17-0.04-0.3-0.11-0.39c-0.08-0.09-0.17-0.13-0.28-0.13c-0.1,0-0.2,0.04-0.27,0.13C13.55,14.6,13.51,14.73,13.51,14.9"/>
	<path style="fill:#1D3059;" d="M15.88,15.18l0.25,0.03c-0.04,0.14-0.11,0.25-0.21,0.33c-0.1,0.08-0.24,0.12-0.4,0.12
		c-0.2,0-0.37-0.06-0.49-0.19c-0.12-0.13-0.18-0.3-0.18-0.53c0-0.24,0.06-0.42,0.18-0.55c0.12-0.13,0.28-0.2,0.47-0.2
		c0.19,0,0.34,0.06,0.46,0.19c0.12,0.13,0.18,0.31,0.18,0.54c0,0.01,0,0.04,0,0.06h-1.05c0.01,0.15,0.05,0.27,0.13,0.35
		c0.08,0.08,0.18,0.12,0.29,0.12c0.09,0,0.16-0.02,0.22-0.07C15.79,15.35,15.84,15.28,15.88,15.18 M15.09,14.79h0.78
		c-0.01-0.12-0.04-0.21-0.09-0.26c-0.08-0.09-0.17-0.14-0.29-0.14c-0.11,0-0.2,0.03-0.28,0.11C15.14,14.57,15.1,14.67,15.09,14.79"
		/>
	<path style="fill:#1D3059;" d="M16.47,15.63v-1.4h0.21v0.21c0.05-0.1,0.11-0.17,0.15-0.2c0.05-0.03,0.1-0.05,0.15-0.05
		c0.08,0,0.16,0.03,0.25,0.08l-0.08,0.22c-0.06-0.04-0.12-0.05-0.17-0.05c-0.05,0-0.1,0.02-0.14,0.05
		c-0.04,0.03-0.07,0.08-0.09,0.13c-0.03,0.08-0.04,0.18-0.04,0.28v0.73"/>
	<path style="fill:#1D3059;" d="M18.13,15.63v-1.94h0.86c0.17,0,0.3,0.02,0.39,0.05c0.09,0.03,0.16,0.1,0.21,0.18
		c0.05,0.09,0.08,0.19,0.08,0.29c0,0.14-0.04,0.25-0.13,0.35c-0.09,0.09-0.23,0.15-0.41,0.18c0.07,0.03,0.12,0.07,0.15,0.1
		c0.08,0.07,0.15,0.16,0.21,0.26l0.34,0.53h-0.32l-0.26-0.4c-0.08-0.12-0.14-0.2-0.18-0.27s-0.09-0.11-0.13-0.13
		c-0.04-0.03-0.08-0.04-0.12-0.05c-0.03-0.01-0.08-0.01-0.14-0.01h-0.3v0.86H18.13L18.13,15.63z M18.39,14.54h0.55
		c0.12,0,0.21-0.01,0.27-0.04c0.07-0.02,0.12-0.06,0.15-0.12c0.04-0.05,0.05-0.11,0.05-0.17c0-0.09-0.03-0.17-0.1-0.23
		c-0.07-0.06-0.17-0.09-0.31-0.09h-0.61"/>
	<path style="fill:#1D3059;" d="M20.1,13.96v-0.27h0.24v0.27H20.1L20.1,13.96z M20.1,15.63v-1.4h0.24v1.4H20.1L20.1,15.63z"/>
	<path style="fill:#1D3059;" d="M20.76,15.63v-1.4h0.21v0.2c0.1-0.16,0.25-0.23,0.45-0.23c0.08,0,0.16,0.02,0.23,0.05
		c0.07,0.03,0.12,0.07,0.16,0.12c0.04,0.05,0.06,0.11,0.08,0.18c0.01,0.04,0.01,0.12,0.01,0.23v0.86h-0.24v-0.85
		c0-0.1-0.01-0.17-0.03-0.22c-0.02-0.05-0.05-0.09-0.1-0.12c-0.05-0.03-0.1-0.04-0.17-0.04c-0.1,0-0.19,0.03-0.26,0.1
		c-0.07,0.07-0.11,0.19-0.11,0.37v0.76"/>
	<path style="fill:#1D3059;" d="M22.27,15.74l0.23,0.03c0.01,0.07,0.04,0.12,0.08,0.16c0.06,0.04,0.14,0.07,0.24,0.07
		c0.11,0,0.2-0.02,0.25-0.07c0.06-0.04,0.1-0.11,0.12-0.18c0.01-0.05,0.02-0.15,0.02-0.31c-0.1,0.12-0.23,0.18-0.39,0.18
		c-0.19,0-0.34-0.07-0.45-0.21c-0.11-0.14-0.16-0.3-0.16-0.5c0-0.13,0.02-0.26,0.07-0.37c0.05-0.11,0.12-0.2,0.21-0.26
		c0.09-0.06,0.2-0.09,0.32-0.09c0.17,0,0.3,0.07,0.41,0.2v-0.17h0.22v1.21c0,0.22-0.02,0.37-0.07,0.46
		c-0.04,0.09-0.11,0.16-0.21,0.22c-0.1,0.05-0.21,0.08-0.36,0.08c-0.17,0-0.3-0.04-0.41-0.11C22.31,16.01,22.26,15.9,22.27,15.74
		 M22.46,14.9c0,0.18,0.04,0.32,0.11,0.4c0.07,0.09,0.17,0.13,0.28,0.13c0.11,0,0.2-0.04,0.27-0.12c0.08-0.09,0.11-0.22,0.11-0.4
		c0-0.17-0.04-0.3-0.11-0.39c-0.08-0.09-0.17-0.13-0.28-0.13c-0.1,0-0.2,0.04-0.27,0.13C22.5,14.6,22.46,14.73,22.46,14.9"/>
	<path style="fill:#1D3059;" d="M25.5,15.18l0.25,0.03c-0.04,0.14-0.11,0.25-0.21,0.33c-0.11,0.08-0.24,0.12-0.4,0.12
		c-0.21,0-0.37-0.06-0.49-0.19c-0.12-0.13-0.18-0.3-0.18-0.53c0-0.24,0.06-0.42,0.18-0.55c0.12-0.13,0.28-0.2,0.47-0.2
		c0.19,0,0.34,0.06,0.46,0.19c0.12,0.13,0.18,0.31,0.18,0.54c0,0.01,0,0.04,0,0.06h-1.05c0.01,0.15,0.05,0.27,0.13,0.35
		c0.08,0.08,0.18,0.12,0.29,0.12c0.09,0,0.16-0.02,0.22-0.07C25.42,15.35,25.46,15.28,25.5,15.18 M24.72,14.79h0.78
		c-0.01-0.12-0.04-0.21-0.09-0.26c-0.07-0.09-0.17-0.14-0.29-0.14c-0.11,0-0.2,0.03-0.28,0.11C24.77,14.57,24.73,14.67,24.72,14.79"
		/>
	<polygon style="fill:#1D3059;" points="26.16,15.36 26.16,15.63 26.43,15.63 26.43,15.36 26.16,15.36 	"/>
	<path style="fill:#1D3059;" d="M27.48,15.63l-0.75-1.94h0.28l0.5,1.41c0.04,0.11,0.07,0.22,0.1,0.32c0.03-0.11,0.07-0.21,0.1-0.32
		l0.52-1.41h0.26l-0.76,1.94"/>
	<polygon style="fill:#1D3059;" points="28.57,15.36 28.57,15.63 28.85,15.63 28.85,15.36 28.57,15.36 	"/>
	<path style="fill:#8F94B2;" d="M1.36,12.71l-0.75-1.94h0.28l0.5,1.41c0.04,0.11,0.07,0.22,0.1,0.32c0.03-0.11,0.06-0.21,0.1-0.32
		l0.52-1.41h0.26l-0.76,1.94"/>
	<path style="fill:#8F94B2;" d="M2.39,12.01c0-0.26,0.07-0.45,0.22-0.58c0.12-0.1,0.27-0.16,0.44-0.16c0.19,0,0.35,0.06,0.47,0.19
		c0.12,0.13,0.18,0.3,0.18,0.52c0,0.18-0.03,0.32-0.08,0.43c-0.05,0.1-0.13,0.18-0.24,0.24s-0.22,0.09-0.34,0.09
		c-0.2,0-0.36-0.06-0.48-0.19C2.45,12.43,2.39,12.25,2.39,12.01 M2.64,12.01c0,0.18,0.04,0.31,0.12,0.4
		c0.08,0.09,0.18,0.13,0.3,0.13c0.12,0,0.22-0.04,0.29-0.13c0.08-0.09,0.12-0.23,0.12-0.41c0-0.17-0.04-0.3-0.12-0.39
		c-0.08-0.09-0.18-0.13-0.29-0.13c-0.12,0-0.22,0.04-0.3,0.13C2.68,11.7,2.64,11.83,2.64,12.01"/>
	<polygon style="fill:#8F94B2;" points="4.03,10.78 4.03,12.71 4.27,12.71 4.27,10.78 4.03,10.78 	"/>
	<polyline style="fill:#8F94B2;" points="4.69,12.71 4.69,10.78 4.93,10.78 4.93,11.88 5.49,11.31 5.8,11.31 5.26,11.83 5.85,12.71 
		5.56,12.71 5.1,12 4.93,12.16 4.93,12.71 	"/>
	<path style="fill:#8F94B2;" d="M6,12.29l0.23-0.04c0.01,0.09,0.05,0.17,0.11,0.22c0.06,0.05,0.14,0.08,0.25,0.08
		c0.11,0,0.19-0.02,0.24-0.07c0.05-0.05,0.08-0.1,0.08-0.16c0-0.05-0.02-0.1-0.07-0.13c-0.03-0.02-0.11-0.05-0.24-0.08
		c-0.17-0.04-0.3-0.08-0.36-0.12c-0.07-0.03-0.12-0.08-0.15-0.13c-0.03-0.06-0.05-0.12-0.05-0.19c0-0.06,0.01-0.12,0.04-0.18
		c0.03-0.05,0.07-0.1,0.12-0.13c0.04-0.03,0.09-0.05,0.15-0.07c0.06-0.02,0.13-0.03,0.21-0.03c0.11,0,0.21,0.02,0.29,0.05
		c0.08,0.03,0.15,0.08,0.18,0.13c0.04,0.05,0.07,0.13,0.08,0.22L6.88,11.7c-0.01-0.07-0.04-0.13-0.09-0.17
		c-0.05-0.04-0.12-0.06-0.21-0.06c-0.11,0-0.19,0.02-0.24,0.05c-0.05,0.04-0.07,0.08-0.07,0.13c0,0.03,0.01,0.06,0.03,0.08
		c0.02,0.03,0.05,0.05,0.09,0.06c0.02,0.01,0.09,0.03,0.21,0.06c0.17,0.05,0.29,0.08,0.35,0.11C7.02,12,7.07,12.04,7.11,12.1
		c0.04,0.05,0.06,0.12,0.06,0.2c0,0.08-0.02,0.15-0.07,0.22c-0.05,0.07-0.11,0.12-0.2,0.16c-0.09,0.04-0.19,0.06-0.3,0.06
		c-0.18,0-0.32-0.04-0.42-0.12C6.09,12.56,6.03,12.44,6,12.29"/>
	<path style="fill:#8F94B2;" d="M7.5,12.71v-1.94h0.24v0.7c0.11-0.13,0.25-0.19,0.42-0.19c0.1,0,0.19,0.02,0.27,0.06
		c0.08,0.04,0.13,0.1,0.17,0.17c0.03,0.07,0.05,0.18,0.05,0.31v0.89H8.4v-0.89c0-0.12-0.03-0.2-0.08-0.26
		c-0.05-0.05-0.12-0.08-0.22-0.08c-0.07,0-0.14,0.02-0.2,0.05c-0.06,0.04-0.11,0.09-0.13,0.15c-0.03,0.06-0.04,0.15-0.04,0.26v0.77"
		/>
	<path style="fill:#8F94B2;" d="M8.97,12.01c0-0.26,0.07-0.45,0.22-0.58c0.12-0.1,0.27-0.16,0.44-0.16c0.19,0,0.35,0.06,0.47,0.19
		c0.12,0.13,0.18,0.3,0.18,0.52c0,0.18-0.03,0.32-0.08,0.43c-0.05,0.1-0.13,0.18-0.23,0.24c-0.1,0.06-0.22,0.09-0.34,0.09
		c-0.2,0-0.36-0.06-0.48-0.19C9.03,12.43,8.97,12.25,8.97,12.01 M9.21,12.01c0,0.18,0.04,0.31,0.12,0.4
		c0.08,0.09,0.18,0.13,0.3,0.13c0.12,0,0.22-0.04,0.29-0.13c0.08-0.09,0.12-0.23,0.12-0.41c0-0.17-0.04-0.3-0.12-0.39
		c-0.08-0.09-0.18-0.13-0.29-0.13c-0.12,0-0.22,0.04-0.3,0.13C9.25,11.7,9.21,11.83,9.21,12.01"/>
	<path style="fill:#8F94B2;" d="M11.53,12.2l0.23,0.03c-0.02,0.16-0.09,0.29-0.2,0.38c-0.1,0.09-0.23,0.14-0.39,0.14
		c-0.19,0-0.34-0.06-0.46-0.19c-0.12-0.12-0.18-0.3-0.18-0.54c0-0.15,0.03-0.28,0.08-0.4c0.05-0.11,0.13-0.2,0.23-0.26
		c0.1-0.06,0.22-0.09,0.34-0.09c0.15,0,0.28,0.04,0.37,0.12c0.1,0.08,0.16,0.19,0.19,0.33l-0.23,0.04
		c-0.02-0.09-0.06-0.16-0.12-0.21c-0.05-0.05-0.12-0.07-0.2-0.07c-0.12,0-0.22,0.04-0.29,0.13c-0.08,0.09-0.11,0.22-0.11,0.41
		c0,0.19,0.03,0.33,0.11,0.41c0.07,0.09,0.17,0.13,0.28,0.13c0.09,0,0.17-0.03,0.23-0.09S11.51,12.32,11.53,12.2"/>
	<path style="fill:#8F94B2;" d="M12.02,12.71v-1.94h0.24v0.7c0.11-0.13,0.25-0.19,0.42-0.19c0.1,0,0.19,0.02,0.27,0.06
		c0.08,0.04,0.13,0.1,0.16,0.17c0.03,0.07,0.05,0.18,0.05,0.31v0.89h-0.24v-0.89c0-0.12-0.03-0.2-0.08-0.26
		c-0.05-0.05-0.12-0.08-0.22-0.08c-0.07,0-0.14,0.02-0.2,0.05c-0.06,0.04-0.11,0.09-0.13,0.15c-0.03,0.06-0.04,0.15-0.04,0.26v0.77"
		/>
	<path style="fill:#8F94B2;" d="M13.48,12.29l0.24-0.04c0.01,0.09,0.05,0.17,0.11,0.22c0.06,0.05,0.15,0.08,0.25,0.08
		c0.11,0,0.19-0.02,0.24-0.07c0.05-0.05,0.08-0.1,0.08-0.16c0-0.05-0.02-0.1-0.07-0.13c-0.03-0.02-0.11-0.05-0.24-0.08
		c-0.17-0.04-0.3-0.08-0.36-0.12c-0.07-0.03-0.12-0.08-0.15-0.13c-0.03-0.06-0.05-0.12-0.05-0.19c0-0.06,0.01-0.12,0.04-0.18
		c0.03-0.05,0.07-0.1,0.12-0.13c0.04-0.03,0.09-0.05,0.15-0.07c0.06-0.02,0.13-0.03,0.21-0.03c0.11,0,0.21,0.02,0.29,0.05
		c0.08,0.03,0.15,0.08,0.19,0.13c0.04,0.05,0.07,0.13,0.08,0.22l-0.23,0.03c-0.01-0.07-0.04-0.13-0.09-0.17
		c-0.05-0.04-0.12-0.06-0.21-0.06c-0.11,0-0.19,0.02-0.23,0.05c-0.05,0.04-0.07,0.08-0.07,0.13c0,0.03,0.01,0.06,0.03,0.08
		c0.02,0.03,0.05,0.05,0.09,0.06c0.02,0.01,0.09,0.03,0.21,0.06c0.17,0.05,0.29,0.08,0.35,0.11c0.07,0.03,0.12,0.07,0.16,0.13
		c0.04,0.05,0.06,0.12,0.06,0.2c0,0.08-0.02,0.15-0.07,0.22s-0.11,0.12-0.2,0.16c-0.09,0.04-0.18,0.06-0.29,0.06
		c-0.18,0-0.32-0.04-0.42-0.12C13.57,12.56,13.51,12.44,13.48,12.29"/>
	<path style="fill:#8F94B2;" d="M15.9,12.2l0.23,0.03c-0.03,0.16-0.09,0.29-0.2,0.38c-0.1,0.09-0.23,0.14-0.39,0.14
		c-0.19,0-0.34-0.06-0.46-0.19c-0.12-0.12-0.18-0.3-0.18-0.54c0-0.15,0.02-0.28,0.08-0.4s0.13-0.2,0.23-0.26
		c0.1-0.06,0.21-0.09,0.33-0.09c0.15,0,0.28,0.04,0.37,0.12c0.1,0.08,0.16,0.19,0.19,0.33l-0.23,0.04
		c-0.02-0.09-0.06-0.16-0.12-0.21c-0.05-0.05-0.12-0.07-0.2-0.07c-0.12,0-0.22,0.04-0.29,0.13c-0.07,0.09-0.11,0.22-0.11,0.41
		c0,0.19,0.04,0.33,0.11,0.41c0.07,0.09,0.17,0.13,0.28,0.13c0.09,0,0.17-0.03,0.24-0.09C15.84,12.41,15.88,12.32,15.9,12.2"/>
	<path style="fill:#8F94B2;" d="M16.39,12.71v-1.94h0.24v0.7c0.11-0.13,0.25-0.19,0.42-0.19c0.11,0,0.19,0.02,0.27,0.06
		c0.08,0.04,0.13,0.1,0.17,0.17c0.03,0.07,0.05,0.18,0.05,0.31v0.89h-0.24v-0.89c0-0.12-0.03-0.2-0.08-0.26
		c-0.05-0.05-0.13-0.08-0.22-0.08c-0.07,0-0.14,0.02-0.2,0.05c-0.06,0.04-0.11,0.09-0.13,0.15c-0.03,0.06-0.04,0.15-0.04,0.26v0.77"
		/>
	<path style="fill:#8F94B2;" d="M18.86,12.71v-0.21c-0.11,0.16-0.26,0.24-0.45,0.24c-0.08,0-0.16-0.01-0.23-0.05
		c-0.07-0.03-0.13-0.07-0.16-0.12c-0.04-0.05-0.06-0.11-0.07-0.18c-0.01-0.05-0.01-0.12-0.01-0.22v-0.87h0.24v0.78
		c0,0.12,0.01,0.21,0.02,0.25c0.01,0.06,0.04,0.11,0.09,0.15c0.05,0.03,0.11,0.05,0.18,0.05c0.07,0,0.14-0.02,0.2-0.05
		c0.06-0.04,0.11-0.09,0.13-0.15c0.03-0.06,0.04-0.16,0.04-0.28v-0.75h0.24v1.4"/>
	<polygon style="fill:#8F94B2;" points="19.5,10.78 19.5,12.71 19.73,12.71 19.73,10.78 19.5,10.78 	"/>
	<path style="fill:#8F94B2;" d="M21.11,12.26l0.24,0.03c-0.04,0.14-0.11,0.25-0.21,0.33c-0.1,0.08-0.24,0.12-0.4,0.12
		c-0.21,0-0.37-0.06-0.49-0.19c-0.12-0.13-0.18-0.3-0.18-0.53c0-0.24,0.06-0.42,0.18-0.55c0.12-0.13,0.28-0.2,0.47-0.2
		c0.19,0,0.34,0.06,0.46,0.19c0.12,0.13,0.18,0.31,0.18,0.54c0,0.02,0,0.04,0,0.06h-1.04c0.01,0.16,0.05,0.27,0.13,0.35
		c0.08,0.08,0.18,0.12,0.29,0.12c0.09,0,0.16-0.02,0.22-0.07C21.03,12.44,21.08,12.36,21.11,12.26 M20.33,11.88h0.78
		c-0.01-0.12-0.04-0.21-0.09-0.27c-0.08-0.09-0.17-0.14-0.29-0.14c-0.11,0-0.2,0.04-0.28,0.11C20.38,11.66,20.34,11.75,20.33,11.88"
		/>
</g>
</svg>
