<?xml version="1.0" encoding="utf-8"?>
<!-- Generator: Adobe Illustrator 16.0.3, SVG Export Plug-In . SVG Version: 6.00 Build 0)  -->
<!DOCTYPE svg PUBLIC "-//W3C//DTD SVG 1.1//EN" "http://www.w3.org/Graphics/SVG/1.1/DTD/svg11.dtd">
<svg version="1.1" id="Layer_1" xmlns="http://www.w3.org/2000/svg" xmlns:xlink="http://www.w3.org/1999/xlink" x="0px" y="0px"
	 width="92.373px" height="88.136px" viewBox="0 0 92.373 88.136" enable-background="new 0 0 92.373 88.136" xml:space="preserve">
<g>
	<g>
		<path fill="#68AFA2" d="M40.078,13.933l-0.203,0.039l-0.191-0.035l0,0l-9.446,16.129h18.267c0.109-0.391,0.281-0.744,0.534-1.045
			L40.078,13.933z"/>
		<path fill="#68AFA2" d="M28.65,33.167l-9.22,15.734c0.161,0.283,0.261,0.59,0.303,0.931h18.349
			c0.026-0.141,0.034-0.287,0.087-0.407l-2.326-3.969L28.65,33.167z"/>
	</g>
	<polygon fill="#68AFA2" points="48.878,32.261 30.69,32.261 39.888,47.962 49.03,32.483 49.033,32.483 	"/>
	<g>
		<path fill="#68AFA2" d="M58.944,51.241l-17.268,0.021l7.354,13.117l1.299,2.314c0.284-0.084,0.559-0.169,0.866-0.169
			c0.177,0,0.334,0.069,0.498,0.096l0.008-0.003h-0.008l5.729-9.853l2.411-4.15C59.424,52.239,59.127,51.768,58.944,51.241"/>
		<path fill="#68AFA2" d="M51.295,33.477l-0.138,0.029l-0.134-0.029L41.83,49.038h17.114c0.177-0.517,0.454-0.991,0.851-1.36
			l-5.032-8.404L51.295,33.477L51.295,33.477z"/>
		<path fill="#68AFA2" d="M46.428,20.268l4.609,7.763l0.12-0.022l0.114,0.022l9.189-15.523h-18.26
			c-0.058,0.111-0.138,0.195-0.203,0.299L46.428,20.268z"/>
	</g>
	<g>
		<defs>
			<path id="SVGID_1_" d="M42.201,12.507c-0.058,0.107-0.138,0.195-0.203,0.299l4.43,7.461l4.609,7.768l0.12-0.027l0.114,0.027
				l9.189-15.528H42.201z"/>
		</defs>
		<clipPath id="SVGID_2_">
			<use xlink:href="#SVGID_1_"  overflow="visible"/>
		</clipPath>
		<rect x="31.26" y="37.187" clip-path="url(#SVGID_2_)" fill="#F5F5F5" width="21.08" height="17.979"/>
	</g>
	<g>
		<path fill="#68AFA2" d="M37.507,52.028H19.48l7.971,13.428c0.387-0.108,0.786-0.185,1.212-0.185c0.394,0,0.777,0.064,1.145,0.169
			L37.507,52.028z"/>
		<path fill="#68AFA2" d="M39.81,52.477l-8.054,14.029c0.613,0.595,1.053,1.349,1.249,2.204l15.425-0.279
			c0.046-0.109,0.103-0.204,0.157-0.308L39.81,52.477z"/>
		<path fill="#68AFA2" d="M62.384,13.626l-9.119,15.394c0.161,0.188,0.317,0.378,0.426,0.613l17.817,0.011L62.384,13.626z"/>
		<path fill="#68AFA2" d="M39.875,13.972l0.203-0.039l0.012-0.003c0.391-0.035,0.747-0.157,1.069-0.337l0.054-0.038
			c0.311-0.188,0.574-0.441,0.777-0.748h0.008c0.065-0.104,0.146-0.191,0.203-0.299c0.046-0.088,0.072-0.185,0.104-0.279
			c0.089-0.261,0.165-0.529,0.165-0.821c0-1.414-1.161-2.563-2.595-2.563c-1.441,0-2.605,1.149-2.605,2.563
			c0,0.349,0.072,0.671,0.199,0.966c0.088,0.222,0.242,0.406,0.383,0.594l0.131,0.181c0.426,0.448,1.007,0.724,1.667,0.781
			l0.034,0.003L39.875,13.972z"/>
		<path fill="#68AFA2" d="M62.561,12.921c0.839,0,1.53-0.682,1.53-1.505c0-0.84-0.691-1.51-1.53-1.51
			c-0.846,0-1.533,0.67-1.533,1.51C61.027,12.239,61.715,12.921,62.561,12.921"/>
		<path fill="#68AFA2" d="M73.387,29.246c-0.839,0-1.528,0.678-1.528,1.514c0,0.831,0.689,1.505,1.528,1.505
			c0.847,0,1.533-0.675,1.533-1.505C74.92,29.924,74.233,29.246,73.387,29.246"/>
		<path fill="#68AFA2" d="M53.265,29.021c-0.241-0.292-0.528-0.518-0.87-0.689l-0.007-0.013c-0.342-0.163-0.713-0.271-1.116-0.287
			l-0.114-0.022l-0.12,0.022l-0.003,0.004c-0.406,0.02-0.773,0.12-1.115,0.283l-0.008,0.013c-0.342,0.171-0.628,0.405-0.868,0.689
			h-0.005c-0.253,0.302-0.425,0.655-0.534,1.042c-0.057,0.226-0.137,0.451-0.137,0.698c0,0.302,0.08,0.578,0.173,0.854
			c0.079,0.234,0.195,0.438,0.333,0.636l0.005,0.011l0.155,0.222l0,0c0.237,0.285,0.519,0.51,0.855,0.684l0.022,0.022
			c0.342,0.168,0.705,0.269,1.104,0.288l0.009,0.008l0.134,0.021l0.138-0.029l0.034-0.003c0.387-0.027,0.756-0.13,1.086-0.304
			l0.033-0.016c0.329-0.177,0.613-0.413,0.851-0.705c0.149-0.188,0.314-0.375,0.414-0.601c0.146-0.336,0.23-0.702,0.23-1.088
			c0-0.402-0.101-0.779-0.253-1.126l0,0C53.582,29.398,53.426,29.208,53.265,29.021"/>
		<path fill="#68AFA2" d="M27.98,32.266c0.847,0,1.533-0.67,1.533-1.505c0-0.836-0.686-1.514-1.533-1.514
			c-0.843,0-1.525,0.678-1.525,1.514C26.455,31.596,27.138,32.266,27.98,32.266"/>
		<path fill="#68AFA2" d="M38.02,50.143c0,1.004,0.828,1.823,1.863,1.823c1.023,0,1.851-0.819,1.851-1.823
			c0-1.02-0.827-1.84-1.851-1.84c-0.233,0-0.452,0.054-0.655,0.13l-0.172,0.089c-0.143,0.065-0.276,0.153-0.392,0.252l-0.138,0.124
			c-0.146,0.157-0.272,0.33-0.357,0.52c-0.053,0.128-0.061,0.274-0.087,0.415C38.062,49.936,38.02,50.028,38.02,50.143"/>
		<path fill="#68AFA2" d="M62.175,46.729l-0.23,0.046c-0.828,0.057-1.582,0.374-2.149,0.903c-0.396,0.369-0.674,0.836-0.851,1.36
			l-0.005,0.005c-0.122,0.348-0.226,0.706-0.226,1.092c0,0.391,0.104,0.75,0.23,1.106c0.183,0.526,0.475,0.998,0.889,1.373h0.004
			c0.306,0.283,0.655,0.518,1.055,0.671c0.401,0.16,0.828,0.257,1.283,0.257c1.903,0,3.453-1.524,3.453-3.407
			c0-0.425-0.101-0.82-0.242-1.2c-0.072-0.195-0.188-0.348-0.295-0.516c-0.092-0.149-0.181-0.293-0.289-0.423
			c-0.187-0.215-0.397-0.401-0.631-0.568l-0.149-0.098c-0.288-0.192-0.59-0.33-0.924-0.418H63.09
			C62.791,46.823,62.501,46.729,62.175,46.729"/>
		<path fill="#68AFA2" d="M19.733,49.832c-0.042-0.341-0.142-0.647-0.303-0.931c-0.18-0.314-0.418-0.575-0.708-0.789
			c-0.115-0.081-0.227-0.163-0.345-0.23c-0.108-0.055-0.208-0.095-0.318-0.142c-0.276-0.089-0.563-0.168-0.866-0.168
			c-1.437,0-2.598,1.148-2.598,2.562c0,1.418,1.161,2.563,2.598,2.563c1.441,0,2.602-1.146,2.602-2.563
			C19.794,50.031,19.749,49.943,19.733,49.832"/>
		<path fill="#68AFA2" d="M51.195,66.524c-0.308,0-0.582,0.085-0.866,0.169c-0.762,0.234-1.379,0.74-1.748,1.43
			c-0.05,0.104-0.106,0.198-0.152,0.308c-0.119,0.317-0.207,0.659-0.207,1.021c0,1.621,1.33,2.935,2.974,2.935
			c1.645,0,2.974-1.313,2.974-2.935c0-0.376-0.085-0.731-0.219-1.061c-0.083-0.211-0.217-0.384-0.348-0.564
			c-0.062-0.083-0.111-0.188-0.185-0.271c-0.211-0.233-0.456-0.428-0.743-0.595l-0.009-0.004c-0.299-0.171-0.615-0.279-0.965-0.337
			h-0.003C51.529,66.594,51.372,66.524,51.195,66.524"/>
		<path fill="#68AFA2" d="M30.893,65.881l-0.084-0.046c-0.313-0.167-0.647-0.299-1-0.395c-0.368-0.104-0.751-0.169-1.145-0.169
			c-0.426,0-0.825,0.076-1.216,0.185c-0.916,0.257-1.708,0.789-2.284,1.505l-0.061,0.081c-0.261,0.341-0.471,0.71-0.617,1.119
			L24.42,68.36c-0.134,0.417-0.222,0.854-0.222,1.311c0,2.426,1.997,4.396,4.465,4.396c2.459,0,4.46-1.97,4.46-4.396
			c0-0.329-0.046-0.655-0.119-0.961c-0.195-0.855-0.636-1.609-1.249-2.204C31.499,66.269,31.203,66.064,30.893,65.881"/>
		<path fill="#68AFA2" d="M66.347,41.075l-3.259,5.837c-0.293-0.089-0.587-0.184-0.913-0.184l-0.23,0.046l-8.646-14.325
			c0.149-0.188,0.314-0.375,0.414-0.601l17.789,0.011l-0.465,0.824 M66.347,41.075l4.69-8.392"/>
	</g>
</g>
</svg>
