<?xml version="1.0" encoding="utf-8"?>
<!-- Generator: Adobe Illustrator 16.0.3, SVG Export Plug-In . SVG Version: 6.00 Build 0)  -->
<!DOCTYPE svg PUBLIC "-//W3C//DTD SVG 1.1//EN" "http://www.w3.org/Graphics/SVG/1.1/DTD/svg11.dtd">
<svg version="1.1" id="Layer_1" xmlns="http://www.w3.org/2000/svg" xmlns:xlink="http://www.w3.org/1999/xlink" x="0px" y="0px"
	 width="240px" height="213.333px" viewBox="0 0 240 213.333" enable-background="new 0 0 240 213.333" xml:space="preserve">
<g>
	<path fill="#5B5B5B" d="M31.097,70.12c-0.109,0-0.217,0.048-0.314,0.142c-0.211,0.203-0.206,0.437,0.012,0.646
		c0.108,0.101,0.218,0.147,0.327,0.147c0.117,0,0.233-0.052,0.344-0.148c0.189-0.231,0.174-0.458-0.053-0.655
		C31.311,70.164,31.203,70.12,31.097,70.12 M64.4,65.515c-0.141,0-0.278,0.063-0.403,0.19c-0.25,0.251-0.231,0.533,0.036,0.781
		c0.13,0.122,0.264,0.179,0.397,0.179c0.141,0,0.28-0.062,0.415-0.179c0.229-0.268,0.229-0.542-0.039-0.788
		C64.675,65.575,64.536,65.515,64.4,65.515 M81.276,82.008c-0.123,0-0.25,0.046-0.379,0.137c-0.247,0.239-0.296,0.51-0.051,0.784
		c0.134,0.149,0.287,0.227,0.443,0.227c0.122,0,0.247-0.048,0.367-0.147c0.27-0.221,0.302-0.504,0.057-0.779
		C81.58,82.081,81.432,82.007,81.276,82.008 M42.513,118.417c-0.174,0-0.344,0.053-0.476,0.162c-0.299,0.248-0.31,0.755-0.02,1.039
		c0.145,0.142,0.349,0.214,0.549,0.214c0.182,0,0.362-0.06,0.495-0.18c0.275-0.251,0.286-0.721,0.021-1.004
		C42.936,118.496,42.723,118.417,42.513,118.417 M25.654,101.929c-0.188,0-0.375,0.063-0.507,0.19
		c-0.27,0.259-0.269,0.728,0.004,1.002c0.143,0.147,0.35,0.222,0.555,0.222c0.178,0,0.354-0.057,0.486-0.172
		c0.279-0.245,0.296-0.717,0.037-1.002C26.085,102.011,25.868,101.929,25.654,101.929 M58.819,65.23
		c-0.188,0-0.371,0.062-0.509,0.187c-0.292,0.269-0.295,0.75-0.008,1.042c0.151,0.152,0.363,0.23,0.571,0.23
		c0.186,0,0.372-0.062,0.509-0.188c0.293-0.267,0.295-0.749,0.009-1.039C59.239,65.308,59.028,65.229,58.819,65.23 M81.304,87.214
		c-0.202,0-0.399,0.071-0.539,0.213c-0.275,0.283-0.254,0.767,0.046,1.041c0.149,0.136,0.347,0.204,0.542,0.204
		c0.2,0,0.398-0.072,0.538-0.214c0.276-0.281,0.254-0.766-0.047-1.041C81.695,87.282,81.499,87.214,81.304,87.214 M81.345,92.485
		c-0.209,0-0.417,0.069-0.571,0.205c-0.332,0.299-0.335,0.86-0.007,1.185c0.169,0.168,0.407,0.253,0.64,0.253
		c0.221,0,0.438-0.075,0.592-0.225c0.322-0.31,0.306-0.872-0.032-1.185C81.799,92.563,81.57,92.485,81.345,92.485 M53.245,65.006
		c-0.212,0-0.424,0.07-0.576,0.21c-0.329,0.301-0.331,0.863,0,1.185c0.169,0.165,0.404,0.248,0.636,0.248
		c0.222,0,0.44-0.076,0.596-0.228c0.32-0.315,0.299-0.877-0.041-1.187C53.693,65.082,53.467,65.006,53.245,65.006 M75.454,76.232
		c-0.138,0-0.268,0.078-0.425,0.227c-0.361,0.338-0.36,0.857,0.004,1.214c0.188,0.184,0.422,0.276,0.653,0.276
		c0.218,0,0.435-0.083,0.609-0.248c0.361-0.343,0.329-0.561-0.156-1.034C75.838,76.372,75.639,76.232,75.454,76.232 M69.831,70.738
		c-0.14,0-0.271,0.078-0.43,0.23c-0.355,0.342-0.348,0.861,0.019,1.215c0.186,0.18,0.417,0.27,0.646,0.27
		c0.222,0,0.44-0.085,0.615-0.255c0.355-0.343,0.321-0.555-0.168-1.033C70.217,70.875,70.017,70.738,69.831,70.738 M75.922,108.399
		c-0.213,0-0.423,0.078-0.594,0.233c-0.363,0.334-0.37,0.853-0.015,1.212c0.191,0.191,0.43,0.287,0.667,0.287
		c0.212,0,0.422-0.077,0.592-0.233c0.366-0.332,0.372-0.852,0.016-1.211C76.399,108.497,76.16,108.399,75.922,108.399
		 M36.579,69.929c-0.209,0-0.418,0.075-0.589,0.229c-0.365,0.332-0.376,0.85-0.022,1.21c0.189,0.194,0.433,0.292,0.672,0.292
		c0.21,0,0.419-0.075,0.588-0.229c0.366-0.332,0.375-0.852,0.021-1.213C37.061,70.026,36.819,69.929,36.579,69.929 M30.978,75.083
		c-0.21,0-0.418,0.075-0.588,0.229c-0.367,0.332-0.375,0.853-0.024,1.212c0.19,0.194,0.432,0.292,0.671,0.292
		c0.211,0,0.419-0.077,0.589-0.229c0.367-0.33,0.377-0.851,0.025-1.21C31.459,75.181,31.217,75.083,30.978,75.083 M48.079,118.371
		c-0.212,0-0.422,0.073-0.592,0.223c-0.384,0.336-0.395,0.89-0.024,1.262c0.189,0.189,0.436,0.285,0.679,0.285
		c0.212,0,0.422-0.073,0.592-0.221c0.386-0.337,0.399-0.889,0.026-1.262C48.57,118.468,48.324,118.371,48.079,118.371
		 M70.319,113.536c-0.223,0-0.444,0.082-0.62,0.246c-0.368,0.351-0.356,0.905,0.029,1.263c0.188,0.175,0.422,0.262,0.654,0.262
		c0.224,0,0.445-0.082,0.619-0.246c0.367-0.35,0.354-0.905-0.03-1.265C70.785,113.623,70.551,113.536,70.319,113.536 M59.22,118.597
		c-0.244,0-0.483,0.081-0.657,0.245c-0.349,0.33-0.359,0.925-0.019,1.294c0.188,0.204,0.469,0.311,0.746,0.311
		c0.232,0,0.463-0.075,0.638-0.228c0.378-0.332,0.385-0.959,0.021-1.331C59.758,118.694,59.486,118.597,59.22,118.597
		 M53.648,118.444c-0.249,0-0.496,0.089-0.679,0.269c-0.378,0.368-0.352,0.993,0.054,1.358c0.194,0.176,0.445,0.262,0.691,0.262
		c0.252,0,0.499-0.089,0.682-0.269c0.363-0.355,0.356-0.949-0.016-1.321C54.183,118.544,53.914,118.444,53.648,118.444
		 M36.886,112.646c-0.242,0-0.481,0.088-0.677,0.266c-0.403,0.372-0.417,0.953-0.029,1.358c0.217,0.227,0.498,0.342,0.773,0.342
		c0.242,0,0.48-0.088,0.674-0.267c0.407-0.372,0.417-0.953,0.032-1.357C37.443,112.761,37.162,112.646,36.886,112.646
		 M31.268,107.148c-0.241,0-0.479,0.088-0.673,0.264c-0.421,0.383-0.422,0.986,0,1.395c0.211,0.206,0.477,0.31,0.739,0.31
		c0.24,0,0.479-0.088,0.672-0.263c0.422-0.384,0.421-0.986-0.002-1.396C31.793,107.252,31.529,107.148,31.268,107.148
		 M64.426,70.337c-0.285,0-0.567,0.095-0.779,0.285c-0.454,0.413-0.454,1.174,0.002,1.615c0.231,0.223,0.548,0.336,0.86,0.336
		c0.285,0,0.566-0.094,0.778-0.286c0.456-0.41,0.454-1.17-0.002-1.612C65.053,70.449,64.738,70.337,64.426,70.337 M75.668,81.329
		c-0.292,0-0.582,0.101-0.794,0.301c-0.448,0.421-0.433,1.183,0.033,1.612c0.23,0.214,0.54,0.322,0.843,0.322
		c0.292,0,0.581-0.1,0.792-0.301c0.445-0.423,0.43-1.183-0.032-1.613C76.279,81.437,75.972,81.329,75.668,81.329 M42.139,69.759
		c-0.289,0-0.575,0.102-0.801,0.307c-0.484,0.44-0.494,1.167-0.023,1.644c0.252,0.254,0.581,0.383,0.908,0.383
		c0.289,0,0.576-0.102,0.802-0.307c0.481-0.443,0.491-1.165,0.02-1.643C42.793,69.888,42.464,69.759,42.139,69.759 M75.856,102.735
		c-0.272,0-0.543,0.089-0.761,0.272c-0.501,0.423-0.542,1.152-0.095,1.641c0.255,0.277,0.604,0.42,0.947,0.42
		c0.271,0,0.542-0.089,0.761-0.273c0.502-0.424,0.542-1.151,0.095-1.64C76.551,102.877,76.202,102.735,75.856,102.735
		 M31.017,80.117c-0.312,0-0.62,0.118-0.859,0.354c-0.47,0.459-0.457,1.173,0.024,1.653c0.258,0.258,0.589,0.387,0.917,0.387
		c0.303,0,0.603-0.111,0.84-0.336c0.49-0.467,0.481-1.205-0.027-1.691C31.656,80.239,31.335,80.117,31.017,80.117 M64.738,113.078
		c-0.294,0-0.587,0.098-0.818,0.297c-0.504,0.433-0.537,1.19-0.072,1.7c0.257,0.283,0.616,0.426,0.972,0.426
		c0.302,0,0.602-0.104,0.837-0.315c0.491-0.445,0.507-1.206,0.035-1.704C65.437,113.214,65.086,113.078,64.738,113.078
		 M70.045,75.712c-0.325,0-0.647,0.11-0.884,0.333c-0.483,0.456-0.48,1.266,0.005,1.756c0.255,0.257,0.611,0.388,0.964,0.388
		c0.314,0,0.626-0.104,0.862-0.314c0.496-0.444,0.511-1.255,0.034-1.758C70.772,75.849,70.408,75.712,70.045,75.712 M42.447,112.506
		c-0.328,0-0.652,0.115-0.893,0.346c-0.5,0.477-0.485,1.297,0.034,1.789c0.26,0.248,0.607,0.372,0.948,0.372
		c0.336,0,0.669-0.121,0.912-0.362c0.475-0.473,0.46-1.265-0.031-1.752C43.153,112.638,42.797,112.506,42.447,112.506
		 M31.205,101.516c-0.327,0-0.65,0.113-0.891,0.344c-0.5,0.478-0.485,1.299,0.033,1.792c0.26,0.248,0.605,0.372,0.947,0.372
		c0.337,0,0.669-0.121,0.912-0.363c0.474-0.473,0.461-1.266-0.032-1.752C31.911,101.646,31.556,101.516,31.205,101.516
		 M75.714,86.511c-0.333,0-0.662,0.125-0.923,0.375c-0.516,0.499-0.511,1.27,0.008,1.794c0.282,0.286,0.645,0.431,1.002,0.431
		c0.324,0,0.644-0.118,0.899-0.358c0.542-0.506,0.541-1.297-0.006-1.833C76.414,86.648,76.063,86.511,75.714,86.511 M70.334,107.834
		c-0.313,0-0.623,0.11-0.874,0.333c-0.557,0.497-0.576,1.288-0.045,1.828c0.285,0.292,0.649,0.438,1.011,0.438
		c0.32,0,0.637-0.115,0.891-0.352c0.548-0.503,0.548-1.294,0.007-1.831C71.044,107.975,70.687,107.834,70.334,107.834 M58.85,70.011
		c-0.327,0-0.651,0.117-0.908,0.353c-0.553,0.507-0.543,1.341,0.018,1.875c0.277,0.264,0.631,0.396,0.981,0.396
		c0.337,0,0.67-0.123,0.928-0.37c0.524-0.504,0.52-1.309-0.017-1.838C59.572,70.151,59.209,70.011,58.85,70.011 M36.61,74.846
		c-0.323,0-0.644,0.113-0.899,0.343c-0.539,0.49-0.557,1.296-0.037,1.838c0.282,0.294,0.657,0.444,1.028,0.444
		c0.316,0,0.629-0.107,0.881-0.326c0.551-0.481,0.585-1.283,0.075-1.835C37.373,75.003,36.989,74.846,36.61,74.846 M47.705,69.734
		c-0.34,0-0.677,0.118-0.931,0.354c-0.535,0.496-0.526,1.367,0.012,1.89c0.276,0.269,0.647,0.404,1.015,0.404
		c0.351,0,0.695-0.124,0.95-0.372c0.522-0.51,0.498-1.382-0.05-1.89C48.423,69.862,48.062,69.734,47.705,69.734 M75.773,96.193
		c-0.602,0-1.198,0.206-1.649,0.622c-0.947,0.875-0.943,2.418,0.014,3.351c0.489,0.479,1.15,0.72,1.801,0.72
		c0.618,0,1.229-0.216,1.678-0.652c0.903-0.877,0.896-2.354-0.012-3.286C77.117,96.446,76.441,96.193,75.773,96.193 M36.822,106.899
		c-0.356,0-0.708,0.126-0.973,0.381c-0.542,0.521-0.527,1.398,0.032,1.936c0.286,0.275,0.665,0.414,1.039,0.414
		c0.356,0,0.709-0.126,0.972-0.381c0.542-0.522,0.529-1.399-0.033-1.937C37.573,107.037,37.196,106.899,36.822,106.899
		 M75.757,91.81c-0.348,0-0.691,0.12-0.953,0.363c-0.552,0.508-0.557,1.384-0.006,1.934c0.286,0.287,0.673,0.433,1.055,0.433
		c0.348,0,0.69-0.12,0.952-0.363c0.553-0.509,0.556-1.385,0.009-1.934C76.527,91.956,76.139,91.81,75.757,91.81 M53.276,69.811
		c-0.354,0-0.704,0.129-0.976,0.388c-0.552,0.529-0.546,1.379,0.018,1.935c0.295,0.29,0.675,0.436,1.053,0.436
		c0.361,0,0.718-0.133,0.993-0.403c0.542-0.536,0.519-1.389-0.054-1.936C54.02,69.951,53.646,69.811,53.276,69.811 M31.055,85.285
		c-0.349,0-0.695,0.127-0.97,0.384c-0.559,0.527-0.57,1.366-0.024,1.927c0.308,0.313,0.706,0.474,1.097,0.474
		c0.34,0,0.677-0.121,0.946-0.367c0.587-0.535,0.596-1.391,0.022-1.963C31.825,85.438,31.438,85.285,31.055,85.285 M59.154,112.764
		c-0.345,0-0.686,0.124-0.956,0.375c-0.583,0.539-0.585,1.394-0.006,1.965c0.299,0.295,0.684,0.445,1.065,0.445
		c0.339,0,0.673-0.118,0.939-0.357c0.59-0.532,0.607-1.39,0.043-1.963C59.936,112.921,59.543,112.764,59.154,112.764 M31.157,96
		c-0.364,0-0.724,0.137-1.005,0.411c-0.566,0.548-0.543,1.406,0.05,1.973c0.298,0.284,0.672,0.425,1.043,0.425
		c0.363,0,0.725-0.136,1.007-0.411c0.564-0.549,0.543-1.405-0.053-1.972C31.902,96.142,31.528,96,31.157,96 M48.015,112.476
		c-0.363,0-0.725,0.132-1.003,0.398c-0.577,0.554-0.558,1.449,0.048,2.017c0.298,0.279,0.676,0.419,1.051,0.419
		c0.364,0,0.725-0.133,1.002-0.399c0.564-0.538,0.562-1.406-0.009-1.979C48.801,112.628,48.407,112.476,48.015,112.476
		 M53.583,112.559c-0.378,0-0.753,0.132-1.036,0.398c-0.585,0.551-0.58,1.496,0.015,2.08c0.307,0.302,0.719,0.454,1.125,0.454
		c0.377,0,0.752-0.132,1.035-0.399c0.586-0.552,0.581-1.497-0.015-2.079C54.399,112.711,53.989,112.559,53.583,112.559
		 M31.101,90.587c-0.376,0-0.748,0.129-1.026,0.389c-0.584,0.55-0.57,1.52,0.029,2.089c0.302,0.286,0.705,0.43,1.102,0.43
		c0.376,0,0.748-0.129,1.025-0.39c0.586-0.549,0.574-1.518-0.029-2.087C31.9,90.731,31.498,90.587,31.101,90.587 M70.084,80.789
		c-0.381,0-0.759,0.131-1.055,0.399c-0.616,0.557-0.64,1.493-0.054,2.125c0.326,0.349,0.769,0.529,1.211,0.529
		c0.371,0,0.739-0.127,1.034-0.384c0.644-0.558,0.669-1.526,0.06-2.162C70.957,80.96,70.52,80.789,70.084,80.789 M64.462,75.292
		c-0.388,0-0.772,0.139-1.07,0.417c-0.625,0.583-0.618,1.551,0.017,2.165c0.323,0.314,0.745,0.472,1.162,0.472
		c0.397,0,0.791-0.145,1.088-0.435c0.608-0.596,0.585-1.566-0.058-2.167C65.281,75.443,64.869,75.292,64.462,75.292 M42.147,73.992
		c-0.592,0-1.178,0.206-1.62,0.622c-0.938,0.883-0.911,2.392,0.058,3.302c0.48,0.45,1.106,0.675,1.725,0.675
		c0.605,0,1.204-0.216,1.649-0.65c0.902-0.876,0.872-2.347-0.059-3.248C43.42,74.227,42.78,73.992,42.147,73.992 M70.275,102.197
		c-0.409,0-0.813,0.145-1.117,0.436c-0.621,0.593-0.612,1.597,0.019,2.219c0.331,0.326,0.772,0.492,1.21,0.492
		c0.399,0,0.796-0.139,1.097-0.419c0.633-0.582,0.643-1.584,0.019-2.218C71.17,102.368,70.72,102.197,70.275,102.197 M36.567,79.859
		c-0.387,0-0.77,0.133-1.073,0.405c-0.652,0.586-0.686,1.569-0.074,2.216c0.347,0.364,0.811,0.55,1.27,0.55
		c0.388,0,0.771-0.133,1.073-0.404c0.652-0.587,0.685-1.571,0.073-2.216C37.489,80.046,37.025,79.859,36.567,79.859 M64.672,107.328
		c-0.395,0-0.787,0.14-1.095,0.421c-0.667,0.611-0.676,1.602-0.022,2.254c0.345,0.346,0.791,0.519,1.23,0.519
		c0.402,0,0.801-0.146,1.114-0.438c0.658-0.619,0.65-1.608-0.016-2.257C65.543,107.496,65.106,107.328,64.672,107.328
		 M36.766,101.272c-0.425,0-0.844,0.155-1.165,0.467c-0.639,0.623-0.626,1.619,0.025,2.268c0.348,0.347,0.802,0.521,1.253,0.521
		c0.415,0,0.826-0.149,1.145-0.449c0.663-0.625,0.652-1.653-0.025-2.308C37.653,101.439,37.207,101.272,36.766,101.272
		 M42.389,106.758c-0.419,0-0.835,0.144-1.15,0.434c-0.66,0.605-0.662,1.667-0.007,2.325c0.341,0.344,0.807,0.518,1.268,0.518
		c0.419,0,0.834-0.144,1.15-0.434c0.658-0.605,0.663-1.667,0.006-2.326C43.314,106.932,42.849,106.758,42.389,106.758 M58.886,74.98
		c-0.432,0-0.857,0.156-1.193,0.47c-0.698,0.658-0.692,1.709,0.011,2.401c0.364,0.36,0.833,0.541,1.299,0.541
		c0.431,0,0.857-0.156,1.193-0.47c0.696-0.657,0.691-1.708-0.01-2.398C59.82,75.162,59.35,74.98,58.886,74.98 M70.122,85.972
		c-0.419,0-0.832,0.148-1.159,0.446c-0.713,0.65-0.735,1.701-0.045,2.396c0.372,0.377,0.855,0.57,1.332,0.57
		c0.417,0,0.832-0.147,1.159-0.446c0.714-0.649,0.731-1.702,0.045-2.398C71.081,86.164,70.598,85.972,70.122,85.972 M70.224,96.679
		c-0.438,0-0.872,0.161-1.213,0.485c-0.697,0.658-0.696,1.709,0.001,2.408c0.372,0.374,0.854,0.562,1.33,0.562
		c0.439,0,0.872-0.16,1.212-0.483c0.694-0.66,0.694-1.711-0.003-2.41C71.18,96.867,70.699,96.679,70.224,96.679 M47.741,74.697
		c-0.443,0-0.882,0.163-1.224,0.493c-0.688,0.663-0.677,1.712,0.028,2.41c0.369,0.366,0.843,0.549,1.313,0.549
		c0.445,0,0.885-0.164,1.227-0.494c0.689-0.665,0.679-1.712-0.026-2.408C48.688,74.881,48.213,74.697,47.741,74.697 M36.611,85.044
		c-0.463,0-0.921,0.162-1.259,0.487c-0.693,0.672-0.675,1.823,0.042,2.512c0.369,0.354,0.861,0.532,1.347,0.532
		c0.464,0,0.922-0.162,1.26-0.488c0.694-0.67,0.676-1.822-0.043-2.511C37.59,85.222,37.098,85.044,36.611,85.044 M59.079,106.548
		c-0.565,0-1.125,0.189-1.553,0.575c-0.928,0.832-0.933,2.319-0.011,3.224c0.468,0.46,1.098,0.693,1.722,0.693
		c0.576,0,1.146-0.199,1.577-0.598c0.896-0.834,0.904-2.276,0.011-3.178C60.357,106.788,59.715,106.548,59.079,106.548
		 M36.708,95.751c-0.451,0-0.898,0.154-1.24,0.47c-0.718,0.657-0.734,1.79-0.037,2.511c0.378,0.393,0.895,0.591,1.406,0.591
		c0.453,0,0.899-0.156,1.242-0.471c0.718-0.659,0.734-1.79,0.036-2.512C37.736,95.95,37.22,95.751,36.708,95.751 M70.168,91.267
		c-0.469,0-0.934,0.167-1.275,0.501c-0.69,0.678-0.667,1.823,0.054,2.513c0.368,0.356,0.864,0.536,1.351,0.536
		c0.46,0,0.916-0.161,1.255-0.484c0.703-0.664,0.694-1.807-0.014-2.511C71.169,91.453,70.666,91.267,70.168,91.267 M53.309,74.78
		c-0.472,0-0.938,0.167-1.279,0.502c-0.69,0.677-0.665,1.822,0.055,2.512c0.37,0.355,0.864,0.535,1.352,0.535
		c0.462,0,0.917-0.161,1.259-0.485c0.7-0.666,0.693-1.809-0.016-2.512C54.307,74.965,53.805,74.78,53.309,74.78 M47.949,106.73
		c-0.449,0-0.893,0.158-1.238,0.476c-0.743,0.683-0.753,1.813-0.019,2.543c0.385,0.383,0.888,0.577,1.387,0.577
		c0.457,0,0.909-0.163,1.26-0.493c0.73-0.691,0.722-1.82-0.021-2.544C48.937,106.918,48.439,106.73,47.949,106.73 M64.499,80.354
		c-0.448,0-0.892,0.158-1.243,0.477c-0.772,0.696-0.789,1.825-0.044,2.578c0.397,0.4,0.909,0.602,1.417,0.602
		c0.455,0,0.908-0.164,1.264-0.496c0.76-0.702,0.761-1.83,0.005-2.578C65.505,80.551,64.999,80.354,64.499,80.354 M36.637,89.6
		c-0.652,0-1.298,0.235-1.802,0.709c-1.049,0.983-1.043,2.58,0.016,3.622c0.548,0.541,1.258,0.814,1.96,0.814
		c0.654,0,1.3-0.236,1.804-0.709c1.049-0.984,1.042-2.579-0.015-3.622C38.049,89.872,37.339,89.6,36.637,89.6 M53.519,106.815
		c-0.48,0-0.953,0.171-1.311,0.514c-0.729,0.704-0.716,1.873,0.032,2.605c0.389,0.38,0.905,0.571,1.415,0.571
		c0.49,0,0.973-0.177,1.329-0.532c0.721-0.719,0.688-1.887-0.07-2.606C54.524,107.001,54.018,106.815,53.519,106.815
		 M64.695,101.776c-0.482,0-0.959,0.164-1.316,0.498c-0.743,0.689-0.738,1.91,0.008,2.649c0.385,0.383,0.913,0.577,1.437,0.577
		c0.483,0,0.96-0.165,1.318-0.498c0.741-0.691,0.734-1.911-0.008-2.649C65.746,101.969,65.218,101.776,64.695,101.776 M42.21,79.792
		c-0.484,0-0.963,0.166-1.319,0.502c-0.738,0.696-0.728,1.915,0.02,2.651c0.386,0.38,0.913,0.572,1.433,0.572
		c0.484,0,0.963-0.167,1.318-0.503c0.741-0.697,0.732-1.916-0.016-2.651C43.258,79.983,42.731,79.792,42.21,79.792 M42.334,101.118
		c-0.506,0-1.008,0.192-1.395,0.574c-0.75,0.74-0.705,1.926,0.1,2.688c0.399,0.378,0.907,0.568,1.414,0.568
		c0.499,0,0.995-0.185,1.377-0.555c0.758-0.738,0.731-1.921-0.062-2.688C43.362,101.313,42.846,101.118,42.334,101.118
		 M64.541,85.522c-0.508,0-1.011,0.182-1.404,0.547c-0.839,0.784-0.834,2.043,0.011,2.867c0.431,0.423,0.988,0.635,1.537,0.635
		c0.507,0,1.01-0.182,1.404-0.548c0.837-0.785,0.834-2.043-0.013-2.869C65.646,85.735,65.091,85.522,64.541,85.522 M58.92,80.026
		c-0.504,0-1,0.179-1.391,0.538c-0.848,0.78-0.852,2.039-0.014,2.867c0.435,0.427,0.997,0.644,1.55,0.644
		c0.504,0,1-0.178,1.391-0.538c0.846-0.779,0.851-2.038,0.013-2.866C60.037,80.243,59.474,80.026,58.92,80.026 M47.771,79.498
		c-0.574,0-1.142,0.203-1.589,0.613c-0.935,0.859-0.946,2.277-0.027,3.212c0.488,0.498,1.133,0.75,1.772,0.75
		c0.582,0,1.161-0.209,1.609-0.634c0.925-0.871,0.919-2.287-0.012-3.213C49.036,79.743,48.4,79.498,47.771,79.498 M64.642,96.232
		c-0.519,0-1.03,0.188-1.431,0.566c-0.833,0.783-0.828,2.043,0.014,2.872c0.437,0.43,0.998,0.646,1.555,0.646
		c0.516,0,1.028-0.188,1.43-0.565c0.834-0.784,0.827-2.045-0.013-2.872C65.759,96.449,65.197,96.232,64.642,96.232 M42.181,84.876
		c-0.52,0-1.036,0.176-1.437,0.532c-0.843,0.75-0.855,2.1-0.026,2.942c0.428,0.435,1.016,0.655,1.6,0.655
		c0.53,0,1.058-0.182,1.456-0.55c0.832-0.77,0.826-2.12-0.013-2.944C43.329,85.09,42.753,84.876,42.181,84.876 M59.04,101.357
		c-0.535,0-1.067,0.183-1.465,0.552c-0.824,0.768-0.824,2.106-0.002,2.938c0.43,0.434,1.02,0.654,1.605,0.654
		c0.525,0,1.047-0.177,1.447-0.537c0.835-0.747,0.852-2.086,0.041-2.936C60.238,101.583,59.637,101.357,59.04,101.357
		 M42.271,95.578c-0.523,0-1.043,0.177-1.443,0.534c-0.855,0.767-0.874,2.127-0.038,2.975c0.438,0.446,1.037,0.672,1.629,0.672
		c0.533,0,1.061-0.182,1.463-0.553c0.847-0.778,0.847-2.137,0.001-2.977C43.447,95.798,42.856,95.578,42.271,95.578 M53.347,79.817
		c-0.548,0-1.091,0.195-1.499,0.588c-0.834,0.802-0.809,2.146,0.055,2.977c0.44,0.424,1.02,0.636,1.592,0.636
		c0.549,0,1.09-0.194,1.5-0.587c0.83-0.804,0.808-2.145-0.057-2.978C54.499,80.03,53.92,79.817,53.347,79.817 M64.586,90.808
		c-0.539,0-1.071,0.189-1.477,0.571c-0.845,0.793-0.839,2.136,0.014,2.976c0.443,0.436,1.031,0.656,1.613,0.656
		c0.539,0,1.072-0.189,1.479-0.57c0.844-0.793,0.839-2.137-0.015-2.975C65.758,91.029,65.168,90.808,64.586,90.808 M47.894,101.064
		c-0.548,0-1.091,0.195-1.499,0.587c-0.835,0.802-0.812,2.146,0.049,2.977c0.439,0.424,1.021,0.637,1.593,0.637
		c0.548,0,1.091-0.195,1.499-0.587c0.836-0.802,0.813-2.143-0.051-2.976C49.046,101.278,48.467,101.064,47.894,101.064
		 M42.221,90.154c-0.542,0-1.081,0.193-1.5,0.583c-0.889,0.825-0.878,2.193,0.028,3.062c0.456,0.438,1.042,0.659,1.621,0.659
		c0.552,0,1.098-0.199,1.52-0.601c0.865-0.826,0.854-2.159-0.026-3.024C43.406,90.381,42.811,90.154,42.221,90.154 M53.466,101.137
		c-0.545,0-1.086,0.19-1.506,0.575c-0.888,0.811-0.885,2.199,0.002,3.073c0.456,0.446,1.054,0.672,1.649,0.672
		c0.544,0,1.084-0.19,1.503-0.575c0.888-0.81,0.887-2.198-0.002-3.071C54.656,101.363,54.058,101.137,53.466,101.137 M58.967,85.155
		c-0.566,0-1.126,0.201-1.568,0.605c-0.938,0.858-0.938,2.278-0.003,3.201c0.481,0.473,1.105,0.712,1.724,0.712
		c0.564,0,1.124-0.2,1.564-0.603c0.935-0.86,0.938-2.282,0.002-3.203C60.207,85.395,59.584,85.155,58.967,85.155 M59.062,95.999
		c-0.552,0-1.099,0.191-1.512,0.577c-0.863,0.808-0.846,2.218,0.035,3.063c0.448,0.43,1.043,0.647,1.63,0.647
		c0.554,0,1.1-0.192,1.513-0.579c0.863-0.806,0.848-2.217-0.033-3.062C60.246,96.215,59.65,95.999,59.062,95.999 M47.819,84.855
		c-0.583,0-1.163,0.199-1.604,0.601c-0.931,0.847-0.936,2.343-0.014,3.267c0.479,0.48,1.13,0.723,1.775,0.723
		c0.592,0,1.178-0.205,1.621-0.618c0.907-0.848,0.912-2.307,0.016-3.229C49.135,85.105,48.474,84.855,47.819,84.855 M47.835,95.472
		c-0.588,0-1.171,0.208-1.622,0.629c-0.956,0.891-0.953,2.352,0.005,3.293c0.496,0.489,1.141,0.736,1.78,0.736
		c0.594,0,1.184-0.215,1.64-0.648c0.946-0.895,0.928-2.354-0.041-3.294C49.106,95.712,48.467,95.472,47.835,95.472 M59.034,91.14
		c-0.421,0-0.838,0.148-1.156,0.447c-0.658,0.617-0.651,1.664,0.014,2.32c0.343,0.339,0.8,0.51,1.252,0.51
		c0.421,0,0.839-0.148,1.156-0.447c0.659-0.619,0.653-1.664-0.013-2.318C59.944,91.312,59.487,91.14,59.034,91.14 M53.394,84.903
		c-0.602,0-1.2,0.205-1.663,0.62c-0.975,0.875-0.978,2.448-0.002,3.405c0.499,0.488,1.163,0.734,1.823,0.734
		c0.611,0,1.215-0.211,1.677-0.639c0.948-0.883,0.949-2.405,0.002-3.367C54.736,85.156,54.063,84.903,53.394,84.903 M47.814,90.902
		c-0.393,0-0.783,0.139-1.078,0.419c-0.615,0.576-0.616,1.547-0.004,2.16c0.326,0.327,0.762,0.492,1.193,0.492
		c0.394,0,0.783-0.138,1.08-0.417c0.613-0.576,0.613-1.549,0-2.162C48.679,91.068,48.244,90.902,47.814,90.902 M53.417,95.879
		c-0.521,0-1.035,0.184-1.432,0.554c-0.84,0.785-0.837,2.078,0.002,2.908c0.438,0.43,1.008,0.646,1.572,0.646
		c0.526,0,1.047-0.188,1.448-0.57c0.832-0.788,0.816-2.081-0.035-2.907C54.542,96.09,53.977,95.879,53.417,95.879 M53.432,90.102
		c-0.65,0-1.295,0.235-1.794,0.708c-1.028,0.974-1.011,2.562,0.039,3.586c0.538,0.527,1.237,0.792,1.929,0.792
		c0.65,0,1.295-0.235,1.793-0.708c1.031-0.975,1.012-2.562-0.036-3.587C54.823,90.368,54.125,90.102,53.432,90.102 M25.786,111.868
		c-0.124,0-0.245,0.054-0.354,0.16c-0.238,0.229-0.233,0.493,0.014,0.729c0.121,0.114,0.245,0.166,0.368,0.166
		c0.131,0,0.263-0.059,0.387-0.167c0.213-0.26,0.197-0.517-0.059-0.737C26.027,111.917,25.905,111.868,25.786,111.868
		 M63.33,106.676c-0.158,0-0.313,0.071-0.455,0.214c-0.282,0.283-0.262,0.602,0.041,0.881c0.147,0.137,0.297,0.201,0.448,0.201
		c0.158,0,0.316-0.071,0.468-0.202c0.258-0.301,0.258-0.61-0.043-0.888C63.64,106.744,63.483,106.676,63.33,106.676 M82.355,125.269
		c-0.138,0-0.282,0.053-0.427,0.155c-0.279,0.269-0.334,0.576-0.057,0.884c0.151,0.168,0.323,0.256,0.498,0.256
		c0.138,0,0.279-0.054,0.415-0.167c0.305-0.248,0.34-0.567,0.065-0.877C82.697,125.352,82.531,125.269,82.355,125.269
		 M38.655,166.315c-0.195,0-0.387,0.059-0.536,0.181c-0.336,0.281-0.349,0.853-0.022,1.173c0.164,0.159,0.394,0.241,0.62,0.241
		c0.205,0,0.408-0.067,0.558-0.203c0.31-0.283,0.322-0.812,0.021-1.131C39.133,166.403,38.894,166.315,38.655,166.315
		 M19.65,147.728c-0.212,0-0.422,0.07-0.572,0.214c-0.305,0.292-0.303,0.82,0.004,1.132c0.162,0.165,0.395,0.248,0.625,0.248
		c0.201,0,0.399-0.063,0.549-0.193c0.313-0.275,0.333-0.808,0.042-1.129C20.136,147.819,19.891,147.728,19.65,147.728
		 M57.038,106.355c-0.21,0-0.418,0.069-0.573,0.211c-0.33,0.302-0.333,0.845-0.008,1.173c0.17,0.172,0.408,0.259,0.642,0.259
		c0.21,0,0.42-0.07,0.575-0.211c0.331-0.301,0.332-0.844,0.01-1.172C57.512,106.443,57.274,106.354,57.038,106.355 M82.386,131.139
		c-0.227,0-0.45,0.081-0.608,0.241c-0.31,0.318-0.286,0.863,0.052,1.172c0.169,0.153,0.393,0.229,0.612,0.229
		c0.226,0,0.449-0.08,0.607-0.24c0.312-0.317,0.286-0.863-0.054-1.174C82.827,131.215,82.606,131.139,82.386,131.139
		 M82.433,137.081c-0.236,0-0.471,0.077-0.644,0.231c-0.374,0.337-0.378,0.97-0.008,1.336c0.191,0.19,0.458,0.285,0.722,0.285
		c0.249,0,0.493-0.084,0.667-0.254c0.363-0.351,0.345-0.982-0.036-1.336C82.944,137.169,82.686,137.081,82.433,137.081
		 M50.754,106.103c-0.24,0-0.478,0.079-0.65,0.237c-0.371,0.339-0.372,0.972,0,1.335c0.191,0.186,0.456,0.279,0.718,0.279
		c0.249,0,0.496-0.085,0.671-0.257c0.36-0.354,0.337-0.989-0.046-1.337C51.26,106.188,51.005,106.103,50.754,106.103
		 M75.792,118.759c-0.155,0-0.302,0.088-0.479,0.255c-0.407,0.381-0.405,0.967,0.006,1.369c0.212,0.207,0.475,0.312,0.735,0.312
		c0.246,0,0.49-0.094,0.687-0.28c0.408-0.387,0.371-0.632-0.176-1.165C76.225,118.916,76.001,118.759,75.792,118.759
		 M69.453,112.564c-0.158,0-0.306,0.089-0.486,0.26c-0.4,0.386-0.392,0.971,0.022,1.371c0.209,0.202,0.471,0.305,0.729,0.305
		c0.25,0,0.497-0.096,0.694-0.288c0.4-0.386,0.361-0.626-0.19-1.164C69.888,112.719,69.663,112.564,69.453,112.564 M76.319,155.021
		c-0.239,0-0.476,0.087-0.67,0.263c-0.408,0.377-0.417,0.961-0.017,1.367c0.215,0.215,0.485,0.323,0.752,0.323
		c0.239,0,0.477-0.087,0.667-0.263c0.413-0.373,0.42-0.96,0.018-1.366C76.857,155.131,76.588,155.021,76.319,155.021
		 M31.967,111.651c-0.237,0-0.473,0.085-0.665,0.259c-0.411,0.374-0.424,0.958-0.025,1.365c0.213,0.219,0.487,0.33,0.757,0.33
		c0.237,0,0.472-0.086,0.664-0.259c0.413-0.374,0.422-0.96,0.025-1.367C32.509,111.762,32.237,111.651,31.967,111.651
		 M25.652,117.462c-0.237,0-0.472,0.086-0.663,0.258c-0.415,0.375-0.424,0.961-0.028,1.367c0.215,0.219,0.487,0.329,0.756,0.329
		c0.238,0,0.473-0.086,0.664-0.259c0.415-0.373,0.426-0.959,0.028-1.365C26.195,117.573,25.922,117.462,25.652,117.462
		 M44.931,166.263c-0.239,0-0.476,0.082-0.667,0.252c-0.433,0.379-0.445,1.002-0.027,1.421c0.213,0.214,0.491,0.322,0.766,0.322
		c0.239,0,0.477-0.082,0.667-0.25c0.437-0.379,0.45-1.001,0.031-1.421C45.485,166.372,45.207,166.263,44.931,166.263
		 M70.003,160.812c-0.252,0-0.501,0.092-0.699,0.277c-0.416,0.395-0.401,1.019,0.032,1.424c0.211,0.197,0.477,0.295,0.738,0.295
		c0.252,0,0.501-0.092,0.698-0.276c0.414-0.395,0.4-1.021-0.034-1.426C70.527,160.91,70.265,160.812,70.003,160.812 M57.49,166.517
		c-0.274,0-0.544,0.092-0.741,0.276c-0.394,0.373-0.405,1.043-0.021,1.459c0.213,0.231,0.529,0.351,0.84,0.351
		c0.262,0,0.522-0.085,0.719-0.257c0.426-0.374,0.433-1.08,0.023-1.5C58.096,166.627,57.79,166.517,57.49,166.517 M51.21,166.345
		c-0.282,0-0.56,0.101-0.766,0.303c-0.427,0.416-0.396,1.121,0.061,1.532c0.219,0.198,0.501,0.295,0.779,0.295
		c0.284,0,0.563-0.101,0.769-0.302c0.41-0.401,0.401-1.071-0.018-1.49C51.812,166.458,51.509,166.345,51.21,166.345 M32.313,159.809
		c-0.273,0-0.543,0.099-0.764,0.3c-0.454,0.419-0.469,1.074-0.033,1.53c0.245,0.255,0.561,0.386,0.872,0.386
		c0.273,0,0.542-0.1,0.761-0.3c0.458-0.42,0.469-1.074,0.036-1.53C32.94,159.938,32.625,159.809,32.313,159.809 M25.979,153.611
		c-0.271,0-0.54,0.099-0.759,0.297c-0.475,0.432-0.477,1.111,0,1.572c0.238,0.231,0.538,0.349,0.833,0.349
		c0.271,0,0.54-0.098,0.757-0.297c0.477-0.432,0.475-1.111-0.001-1.572C26.572,153.729,26.273,153.611,25.979,153.611
		 M63.36,112.112c-0.321,0-0.64,0.106-0.879,0.32c-0.511,0.466-0.511,1.323,0.002,1.821c0.262,0.252,0.618,0.378,0.969,0.378
		c0.322,0,0.639-0.105,0.876-0.321c0.514-0.462,0.512-1.321-0.001-1.818C64.066,112.239,63.712,112.112,63.36,112.112
		 M76.034,124.504c-0.33,0-0.656,0.113-0.896,0.34c-0.505,0.475-0.487,1.334,0.037,1.817c0.261,0.241,0.608,0.362,0.95,0.362
		c0.33,0,0.655-0.111,0.893-0.338c0.503-0.477,0.485-1.334-0.036-1.819C76.722,124.626,76.375,124.504,76.034,124.504
		 M38.234,111.461c-0.325,0-0.648,0.115-0.903,0.346c-0.545,0.496-0.557,1.316-0.026,1.853c0.284,0.286,0.655,0.432,1.023,0.432
		c0.325,0,0.649-0.115,0.904-0.346c0.542-0.499,0.554-1.314,0.021-1.852C38.972,111.606,38.601,111.461,38.234,111.461
		 M76.246,148.637c-0.308,0-0.612,0.1-0.858,0.307c-0.565,0.478-0.611,1.299-0.107,1.85c0.288,0.312,0.68,0.475,1.068,0.475
		c0.306,0,0.61-0.102,0.857-0.309c0.566-0.479,0.611-1.298,0.108-1.85C77.028,148.797,76.635,148.637,76.246,148.637
		 M25.696,123.138c-0.352,0-0.7,0.132-0.969,0.398c-0.529,0.518-0.515,1.322,0.027,1.864c0.291,0.29,0.665,0.436,1.033,0.436
		c0.342,0,0.68-0.125,0.947-0.378c0.553-0.526,0.542-1.358-0.03-1.907C26.416,123.275,26.055,123.138,25.696,123.138
		 M63.712,160.295c-0.333,0-0.662,0.11-0.922,0.336c-0.569,0.487-0.605,1.341-0.082,1.916c0.289,0.317,0.693,0.48,1.095,0.48
		c0.341,0,0.679-0.117,0.943-0.355c0.554-0.501,0.572-1.36,0.04-1.921C64.499,160.45,64.104,160.295,63.712,160.295 M69.694,118.172
		c-0.367,0-0.729,0.124-0.997,0.376c-0.544,0.514-0.542,1.428,0.005,1.98c0.289,0.291,0.69,0.437,1.087,0.437
		c0.354,0,0.706-0.116,0.972-0.354c0.558-0.501,0.576-1.415,0.039-1.981C70.514,118.326,70.103,118.172,69.694,118.172
		 M38.582,159.651c-0.37,0-0.735,0.129-1.006,0.389c-0.564,0.539-0.547,1.464,0.037,2.019c0.293,0.279,0.685,0.419,1.069,0.419
		c0.379,0,0.755-0.136,1.028-0.408c0.536-0.533,0.519-1.426-0.035-1.976C39.378,159.799,38.977,159.651,38.582,159.651
		 M25.908,147.26c-0.369,0-0.732,0.129-1.004,0.389c-0.563,0.539-0.547,1.465,0.037,2.02c0.294,0.28,0.683,0.42,1.068,0.42
		c0.38,0,0.755-0.137,1.028-0.409c0.534-0.533,0.519-1.428-0.037-1.977C26.704,147.408,26.304,147.26,25.908,147.26 M76.085,130.346
		c-0.375,0-0.747,0.141-1.04,0.424c-0.582,0.562-0.576,1.431,0.008,2.022c0.319,0.322,0.727,0.485,1.13,0.485
		c0.365,0,0.725-0.134,1.013-0.403c0.61-0.57,0.609-1.463-0.007-2.066C76.875,130.5,76.479,130.346,76.085,130.346 M70.02,154.385
		c-0.354,0-0.702,0.124-0.984,0.376c-0.629,0.56-0.65,1.451-0.051,2.06c0.321,0.328,0.732,0.495,1.14,0.495
		c0.36,0,0.717-0.131,1.004-0.397c0.618-0.566,0.618-1.459,0.008-2.063C70.82,154.543,70.417,154.385,70.02,154.385 M57.073,111.745
		c-0.368,0-0.733,0.131-1.023,0.397c-0.623,0.571-0.612,1.512,0.02,2.113c0.313,0.298,0.712,0.447,1.106,0.447
		c0.379,0,0.755-0.138,1.045-0.417c0.591-0.568,0.586-1.475-0.02-2.071C57.887,111.903,57.479,111.745,57.073,111.745
		 M32.001,117.195c-0.365,0-0.726,0.128-1.014,0.388c-0.608,0.551-0.627,1.46-0.042,2.072c0.318,0.331,0.741,0.5,1.159,0.5
		c0.355,0,0.709-0.121,0.993-0.367c0.622-0.543,0.661-1.447,0.084-2.069C32.861,117.373,32.429,117.195,32.001,117.195
		 M44.509,111.433c-0.384,0-0.763,0.133-1.05,0.398c-0.603,0.559-0.593,1.541,0.014,2.131c0.312,0.303,0.73,0.455,1.144,0.455
		c0.395,0,0.784-0.139,1.071-0.418c0.588-0.575,0.561-1.557-0.057-2.131C45.319,111.577,44.912,111.433,44.509,111.433
		 M76.151,141.261c-0.678,0-1.35,0.231-1.858,0.701c-1.068,0.985-1.063,2.726,0.015,3.776c0.551,0.541,1.297,0.812,2.03,0.812
		c0.697,0,1.385-0.243,1.892-0.735c1.018-0.989,1.011-2.653-0.014-3.704C77.666,141.546,76.905,141.261,76.151,141.261
		 M32.241,153.33c-0.402,0-0.799,0.143-1.097,0.43c-0.61,0.587-0.594,1.576,0.037,2.182c0.323,0.312,0.749,0.468,1.171,0.468
		c0.402,0,0.8-0.144,1.096-0.43c0.61-0.589,0.595-1.577-0.038-2.185C33.086,153.485,32.662,153.33,32.241,153.33 M76.133,136.32
		c-0.392,0-0.779,0.135-1.075,0.408c-0.622,0.573-0.627,1.562-0.007,2.181c0.323,0.324,0.759,0.488,1.189,0.488
		c0.392,0,0.779-0.136,1.073-0.409c0.623-0.574,0.627-1.562,0.011-2.181C77.001,136.483,76.564,136.32,76.133,136.32 M50.79,111.52
		c-0.399,0-0.793,0.145-1.099,0.437c-0.624,0.597-0.617,1.554,0.019,2.181c0.333,0.327,0.762,0.492,1.187,0.492
		c0.407,0,0.81-0.151,1.12-0.456c0.61-0.604,0.584-1.565-0.061-2.182C51.628,111.678,51.207,111.52,50.79,111.52 M25.739,128.963
		c-0.393,0-0.784,0.144-1.092,0.434c-0.63,0.594-0.643,1.539-0.027,2.172c0.346,0.354,0.794,0.535,1.236,0.535
		c0.384,0,0.763-0.137,1.066-0.414c0.662-0.604,0.671-1.568,0.025-2.214C26.607,129.136,26.171,128.963,25.739,128.963
		 M57.417,159.942c-0.389,0-0.773,0.14-1.077,0.422c-0.657,0.608-0.66,1.572-0.007,2.216c0.338,0.333,0.771,0.502,1.2,0.502
		c0.383,0,0.759-0.134,1.06-0.402c0.665-0.6,0.685-1.566,0.048-2.213C58.297,160.119,57.854,159.942,57.417,159.942 M25.854,141.043
		c-0.41,0-0.815,0.154-1.133,0.464c-0.638,0.617-0.612,1.584,0.057,2.224c0.335,0.319,0.757,0.479,1.176,0.479
		c0.41,0,0.817-0.153,1.135-0.463c0.637-0.619,0.612-1.584-0.059-2.224C26.695,141.203,26.272,141.043,25.854,141.043
		 M44.859,159.616c-0.41,0-0.817,0.149-1.131,0.449c-0.651,0.624-0.628,1.634,0.054,2.273c0.335,0.315,0.762,0.473,1.184,0.473
		c0.412,0,0.817-0.15,1.13-0.449c0.637-0.607,0.634-1.585-0.009-2.231C45.745,159.789,45.301,159.616,44.859,159.616
		 M51.135,159.711c-0.427,0-0.849,0.148-1.168,0.448c-0.659,0.623-0.653,1.687,0.017,2.346c0.346,0.34,0.81,0.512,1.267,0.512
		c0.426,0,0.849-0.149,1.167-0.45c0.661-0.623,0.655-1.688-0.017-2.344C52.056,159.882,51.593,159.711,51.135,159.711
		 M25.791,134.941c-0.424,0-0.843,0.146-1.157,0.438c-0.659,0.619-0.643,1.713,0.034,2.354c0.34,0.322,0.794,0.484,1.242,0.484
		c0.424,0,0.844-0.146,1.157-0.439c0.66-0.619,0.646-1.712-0.034-2.354C26.692,135.104,26.237,134.941,25.791,134.941
		 M69.738,123.896c-0.429,0-0.856,0.148-1.189,0.45c-0.695,0.628-0.722,1.683-0.061,2.395c0.367,0.395,0.867,0.596,1.366,0.596
		c0.417,0,0.833-0.143,1.166-0.433c0.726-0.628,0.754-1.72,0.066-2.436C70.722,124.088,70.229,123.896,69.738,123.896 M63.4,117.698
		c-0.438,0-0.872,0.156-1.206,0.47c-0.704,0.658-0.697,1.749,0.019,2.441c0.364,0.354,0.84,0.532,1.31,0.532
		c0.449,0,0.892-0.163,1.227-0.489c0.685-0.672,0.659-1.766-0.065-2.443C64.322,117.869,63.859,117.698,63.4,117.698
		 M38.244,116.232c-0.667,0-1.328,0.233-1.827,0.703c-1.057,0.995-1.026,2.695,0.065,3.722c0.542,0.507,1.248,0.761,1.945,0.761
		c0.682,0,1.356-0.244,1.859-0.733c1.017-0.987,0.983-2.645-0.066-3.661C39.678,116.498,38.957,116.232,38.244,116.232
		 M69.953,148.029c-0.461,0-0.917,0.163-1.259,0.491c-0.7,0.669-0.69,1.8,0.021,2.502c0.373,0.368,0.871,0.554,1.364,0.554
		c0.45,0,0.897-0.156,1.236-0.472c0.714-0.657,0.725-1.788,0.021-2.501C70.962,148.223,70.454,148.029,69.953,148.029
		 M31.953,122.848c-0.436,0-0.868,0.15-1.21,0.457c-0.735,0.66-0.772,1.769-0.083,2.498c0.391,0.411,0.914,0.621,1.431,0.621
		c0.438,0,0.87-0.151,1.21-0.457c0.735-0.661,0.773-1.771,0.083-2.497C32.993,123.058,32.469,122.848,31.953,122.848
		 M63.637,153.814c-0.444,0-0.886,0.156-1.234,0.474c-0.752,0.69-0.763,1.807-0.026,2.542c0.391,0.389,0.892,0.585,1.388,0.585
		c0.453,0,0.903-0.164,1.256-0.495c0.741-0.697,0.732-1.812-0.019-2.544C64.619,154.002,64.126,153.814,63.637,153.814
		 M32.177,146.986c-0.479,0-0.951,0.176-1.312,0.527c-0.72,0.701-0.706,1.824,0.028,2.557c0.392,0.391,0.904,0.587,1.412,0.587
		c0.468,0,0.931-0.167,1.291-0.506c0.747-0.705,0.735-1.863-0.029-2.602C33.177,147.175,32.674,146.986,32.177,146.986
		 M38.515,153.172c-0.472,0-0.94,0.161-1.296,0.488c-0.744,0.683-0.747,1.88-0.009,2.622c0.385,0.388,0.91,0.583,1.43,0.583
		c0.472,0,0.94-0.162,1.295-0.488c0.743-0.684,0.747-1.879,0.007-2.622C39.56,153.367,39.035,153.172,38.515,153.172
		 M57.113,117.347c-0.486,0-0.966,0.176-1.344,0.53c-0.787,0.741-0.779,1.927,0.013,2.706c0.411,0.406,0.94,0.61,1.465,0.61
		c0.486,0,0.967-0.176,1.345-0.53c0.785-0.74,0.779-1.926-0.011-2.705C58.167,117.552,57.636,117.347,57.113,117.347 M69.78,129.738
		c-0.472,0-0.938,0.167-1.308,0.504c-0.803,0.731-0.827,1.917-0.049,2.701c0.418,0.426,0.964,0.643,1.501,0.643
		c0.471,0,0.938-0.166,1.308-0.503c0.804-0.732,0.824-1.919,0.051-2.703C70.862,129.955,70.317,129.738,69.78,129.738
		 M69.895,141.809c-0.494,0-0.983,0.181-1.367,0.546c-0.786,0.742-0.785,1.928,0.001,2.715c0.42,0.421,0.962,0.634,1.5,0.634
		c0.495,0,0.983-0.181,1.366-0.545c0.783-0.744,0.783-1.929-0.003-2.717C70.972,142.021,70.431,141.809,69.895,141.809
		 M44.55,117.027c-0.5,0-0.995,0.185-1.381,0.557c-0.775,0.748-0.763,1.929,0.032,2.716c0.416,0.412,0.95,0.62,1.48,0.62
		c0.501,0,0.997-0.186,1.382-0.558c0.776-0.749,0.766-1.931-0.029-2.715C45.618,117.234,45.082,117.027,44.55,117.027
		 M32.002,128.692c-0.521,0-1.038,0.183-1.418,0.55c-0.781,0.756-0.761,2.055,0.046,2.83c0.416,0.399,0.971,0.601,1.518,0.601
		c0.523,0,1.04-0.184,1.42-0.551c0.783-0.756,0.762-2.054-0.048-2.83C33.106,128.893,32.551,128.692,32.002,128.692 M57.332,152.934
		c-0.637,0-1.269,0.215-1.752,0.648c-1.045,0.938-1.051,2.615-0.013,3.635c0.528,0.519,1.238,0.78,1.942,0.78
		c0.649,0,1.292-0.224,1.778-0.674c1.009-0.939,1.019-2.566,0.012-3.582C58.772,153.205,58.049,152.934,57.332,152.934
		 M32.112,140.762c-0.508,0-1.013,0.175-1.399,0.531c-0.81,0.74-0.826,2.018-0.042,2.831c0.427,0.441,1.01,0.665,1.585,0.665
		c0.51,0,1.014-0.175,1.4-0.529c0.809-0.743,0.828-2.019,0.041-2.832C33.271,140.987,32.689,140.762,32.112,140.762 M69.832,135.707
		c-0.528,0-1.052,0.188-1.437,0.565c-0.778,0.765-0.752,2.055,0.061,2.833c0.416,0.401,0.974,0.604,1.523,0.604
		c0.519,0,1.033-0.182,1.415-0.545c0.792-0.75,0.783-2.038-0.015-2.831C70.961,135.917,70.394,135.707,69.832,135.707
		 M50.826,117.121c-0.531,0-1.056,0.188-1.441,0.566c-0.778,0.764-0.749,2.054,0.062,2.832c0.417,0.401,0.973,0.604,1.523,0.604
		c0.521,0,1.034-0.181,1.419-0.547c0.789-0.75,0.781-2.04-0.019-2.832C51.952,117.33,51.386,117.121,50.826,117.121 M44.784,153.141
		c-0.507,0-1.007,0.178-1.396,0.536c-0.838,0.77-0.849,2.044-0.022,2.866c0.435,0.432,1.001,0.65,1.563,0.65
		c0.515,0,1.025-0.183,1.421-0.556c0.824-0.779,0.814-2.051-0.024-2.868C45.898,153.352,45.336,153.141,44.784,153.141
		 M63.442,123.406c-0.505,0-1.005,0.177-1.401,0.536c-0.87,0.785-0.89,2.058-0.05,2.907c0.447,0.45,1.025,0.678,1.597,0.678
		c0.514,0,1.024-0.185,1.425-0.559c0.857-0.791,0.859-2.063,0.006-2.906C64.576,123.627,64.005,123.406,63.442,123.406
		 M32.031,133.827c-0.735,0-1.463,0.266-2.031,0.8c-1.183,1.11-1.176,2.909,0.018,4.084c0.618,0.61,1.418,0.918,2.211,0.918
		c0.736,0,1.465-0.266,2.033-0.801c1.183-1.109,1.176-2.906-0.017-4.082C33.624,134.136,32.824,133.827,32.031,133.827
		 M51.063,153.236c-0.542,0-1.075,0.192-1.478,0.579c-0.823,0.793-0.808,2.11,0.036,2.937c0.438,0.429,1.019,0.645,1.594,0.645
		c0.553,0,1.097-0.199,1.498-0.6c0.813-0.811,0.776-2.128-0.079-2.938C52.197,153.444,51.626,153.236,51.063,153.236
		 M63.662,147.554c-0.542,0-1.081,0.186-1.483,0.562c-0.838,0.777-0.832,2.154,0.008,2.987c0.436,0.432,1.031,0.65,1.621,0.65
		c0.544,0,1.083-0.187,1.486-0.562c0.835-0.779,0.827-2.153-0.01-2.987C64.848,147.772,64.252,147.554,63.662,147.554
		 M38.314,122.771c-0.545,0-1.085,0.187-1.487,0.564c-0.832,0.785-0.821,2.159,0.022,2.99c0.435,0.429,1.028,0.645,1.614,0.645
		c0.545,0,1.086-0.188,1.486-0.566c0.835-0.786,0.826-2.161-0.018-2.989C39.496,122.986,38.901,122.771,38.314,122.771
		 M38.455,146.812c-0.571,0-1.137,0.216-1.572,0.647c-0.846,0.834-0.795,2.171,0.112,3.029c0.45,0.427,1.023,0.64,1.594,0.64
		c0.562,0,1.122-0.208,1.553-0.625c0.854-0.831,0.824-2.166-0.071-3.03C39.613,147.033,39.032,146.812,38.455,146.812
		 M63.489,129.231c-0.572,0-1.14,0.204-1.583,0.616c-0.946,0.885-0.94,2.303,0.013,3.233c0.486,0.476,1.113,0.716,1.732,0.716
		c0.572,0,1.139-0.205,1.583-0.618c0.944-0.886,0.941-2.304-0.015-3.233C64.735,129.471,64.109,129.231,63.489,129.231
		 M57.151,123.035c-0.567,0-1.126,0.201-1.567,0.606c-0.956,0.88-0.959,2.299-0.016,3.231c0.49,0.481,1.124,0.726,1.748,0.726
		c0.567,0,1.126-0.2,1.567-0.606c0.954-0.878,0.959-2.298,0.015-3.23C58.411,123.279,57.776,123.035,57.151,123.035 M44.583,122.44
		c-0.647,0-1.288,0.229-1.792,0.691c-1.054,0.968-1.066,2.566-0.03,3.621c0.549,0.562,1.276,0.845,1.998,0.845
		c0.657,0,1.309-0.236,1.814-0.715c1.043-0.981,1.036-2.578-0.014-3.621C46.01,122.715,45.292,122.439,44.583,122.44
		 M63.603,141.305c-0.584,0-1.162,0.212-1.614,0.639c-0.938,0.882-0.933,2.303,0.017,3.237c0.492,0.483,1.125,0.728,1.752,0.728
		c0.582,0,1.159-0.211,1.612-0.637c0.94-0.884,0.932-2.306-0.015-3.236C64.862,141.55,64.228,141.305,63.603,141.305
		 M38.281,128.503c-0.586,0-1.167,0.199-1.62,0.6c-0.95,0.846-0.964,2.368-0.029,3.318c0.482,0.489,1.145,0.737,1.803,0.737
		c0.599,0,1.192-0.204,1.641-0.62c0.938-0.868,0.931-2.39-0.015-3.317C39.576,128.744,38.926,128.503,38.281,128.503
		 M57.288,147.082c-0.604,0-1.203,0.206-1.652,0.624c-0.929,0.865-0.929,2.374-0.002,3.312c0.484,0.489,1.149,0.737,1.81,0.737
		c0.591,0,1.18-0.199,1.63-0.604c0.941-0.842,0.96-2.352,0.045-3.309C58.638,147.337,57.96,147.082,57.288,147.082 M38.384,140.567
		c-0.59,0-1.176,0.199-1.627,0.603c-0.963,0.864-0.984,2.398-0.043,3.354c0.494,0.502,1.169,0.758,1.836,0.758
		c0.601,0,1.197-0.206,1.649-0.624c0.954-0.877,0.954-2.409,0.001-3.355C39.709,140.815,39.043,140.567,38.384,140.567
		 M50.869,122.799c-0.617,0-1.229,0.221-1.689,0.664c-0.939,0.904-0.911,2.419,0.062,3.356c0.496,0.478,1.149,0.718,1.795,0.718
		c0.619,0,1.229-0.22,1.69-0.663c0.936-0.907,0.91-2.419-0.063-3.357C52.168,123.039,51.516,122.799,50.869,122.799 M63.54,135.19
		c-0.608,0-1.208,0.213-1.665,0.644c-0.952,0.895-0.946,2.408,0.016,3.354c0.5,0.492,1.163,0.74,1.818,0.74
		c0.608,0,1.209-0.214,1.667-0.643c0.951-0.895,0.945-2.408-0.017-3.354C64.861,135.438,64.196,135.19,63.54,135.19 M44.722,146.753
		c-0.618,0-1.23,0.219-1.689,0.661c-0.942,0.904-0.916,2.419,0.055,3.355c0.496,0.479,1.151,0.719,1.796,0.719
		c0.618,0,1.23-0.22,1.689-0.661c0.943-0.904,0.917-2.417-0.057-3.355C46.021,146.992,45.369,146.753,44.722,146.753
		 M38.327,134.452c-0.612,0-1.219,0.218-1.691,0.658c-1.002,0.93-0.99,2.472,0.032,3.451c0.514,0.494,1.174,0.742,1.828,0.742
		c0.622,0,1.238-0.225,1.712-0.677c0.975-0.932,0.964-2.435-0.029-3.409C39.663,134.709,38.992,134.452,38.327,134.452
		 M51.003,146.835c-0.615,0-1.224,0.215-1.698,0.647c-1.001,0.915-0.999,2.479,0.002,3.464c0.514,0.504,1.189,0.758,1.858,0.758
		c0.614,0,1.223-0.215,1.695-0.648c1.001-0.914,1-2.479-0.003-3.463C52.345,147.09,51.671,146.835,51.003,146.835 M57.205,128.817
		c-0.638,0-1.27,0.227-1.767,0.683c-1.056,0.967-1.058,2.568-0.004,3.608c0.542,0.533,1.246,0.803,1.943,0.803
		c0.637,0,1.267-0.226,1.764-0.68c1.054-0.97,1.057-2.573,0.003-3.611C58.603,129.088,57.901,128.817,57.205,128.817
		 M57.312,141.041c-0.623,0-1.24,0.216-1.705,0.651c-0.974,0.911-0.954,2.501,0.039,3.453c0.505,0.484,1.175,0.729,1.837,0.729
		c0.625,0,1.241-0.216,1.706-0.652c0.973-0.909,0.955-2.499-0.038-3.451C58.647,141.286,57.976,141.041,57.312,141.041
		 M44.637,128.479c-0.658,0-1.31,0.224-1.807,0.677c-1.049,0.955-1.056,2.642-0.015,3.683c0.54,0.541,1.274,0.815,2.001,0.815
		c0.667,0,1.328-0.232,1.827-0.698c1.021-0.956,1.029-2.6,0.018-3.64C46.121,128.762,45.375,128.479,44.637,128.479 M44.655,140.448
		c-0.663,0-1.32,0.235-1.828,0.709c-1.077,1.005-1.074,2.651,0.006,3.713c0.56,0.551,1.286,0.829,2.007,0.829
		c0.67,0,1.334-0.242,1.848-0.729c1.068-1.01,1.047-2.653-0.045-3.715C46.088,140.719,45.369,140.448,44.655,140.448 M57.28,135.564
		c-0.475,0-0.944,0.166-1.303,0.503c-0.741,0.695-0.734,1.876,0.017,2.615c0.387,0.383,0.901,0.575,1.411,0.575
		c0.475,0,0.946-0.167,1.303-0.504c0.742-0.697,0.737-1.875-0.015-2.613C58.307,135.758,57.792,135.564,57.28,135.564
		 M50.923,128.533c-0.679,0-1.353,0.231-1.875,0.699c-1.1,0.986-1.103,2.76-0.002,3.839c0.562,0.549,1.311,0.827,2.055,0.827
		c0.688,0,1.369-0.239,1.89-0.72c1.068-0.996,1.07-2.712,0.003-3.796C52.436,128.819,51.677,128.533,50.923,128.533 M44.632,135.297
		c-0.443,0-0.882,0.155-1.216,0.471c-0.692,0.65-0.694,1.745-0.004,2.437c0.367,0.368,0.859,0.554,1.345,0.554
		c0.443,0,0.882-0.154,1.218-0.469c0.69-0.65,0.69-1.747,0-2.438C45.606,135.483,45.117,135.297,44.632,135.297 M50.949,140.906
		c-0.587,0-1.167,0.207-1.614,0.625c-0.948,0.885-0.945,2.343,0.002,3.278c0.494,0.484,1.138,0.729,1.773,0.729
		c0.593,0,1.18-0.213,1.633-0.643c0.938-0.888,0.919-2.346-0.041-3.276C52.216,141.146,51.58,140.906,50.949,140.906
		 M50.966,134.395c-0.734,0-1.461,0.266-2.023,0.798c-1.159,1.098-1.14,2.889,0.042,4.043c0.607,0.595,1.395,0.894,2.175,0.894
		c0.733,0,1.46-0.266,2.021-0.799c1.162-1.099,1.141-2.888-0.04-4.043C52.534,134.694,51.746,134.395,50.966,134.395
		 M127.943,10.499c0,0-2.501-1.394-4.983,0.032L46.797,54.265c0,0-2.482,1.425-2.482,4.288v87.968c0,0,0,2.863,2.498,4.261
		l76.393,42.742c0,0,2.498,1.398,4.99-0.011l77.454-43.768c0,0,2.492-1.408,2.492-4.271V58.03c0,0,0-2.863-2.501-4.256
		L127.943,10.499z"/>
</g>
<rect x="11.333" y="2.692" fill="none" width="204.638" height="195.308"/>
<path fill="none" d="M56.749,166.793c-0.394,0.373-0.405,1.043-0.021,1.459c0.213,0.231,0.528,0.351,0.84,0.351
	c0.262,0,0.522-0.085,0.719-0.257c0.426-0.374,0.433-1.081,0.023-1.5c-0.215-0.219-0.521-0.329-0.822-0.329
	C57.216,166.517,56.946,166.607,56.749,166.793 M50.444,166.647c-0.426,0.416-0.396,1.121,0.061,1.532
	c0.219,0.197,0.501,0.296,0.779,0.296c0.284,0,0.563-0.102,0.769-0.303c0.41-0.401,0.402-1.071-0.018-1.49
	c-0.223-0.225-0.526-0.338-0.825-0.338C50.928,166.345,50.65,166.445,50.444,166.647 M38.119,166.496
	c-0.336,0.281-0.349,0.853-0.022,1.173c0.164,0.159,0.394,0.241,0.62,0.241c0.205,0,0.408-0.067,0.558-0.203
	c0.31-0.283,0.322-0.812,0.021-1.131c-0.163-0.173-0.402-0.261-0.641-0.261C38.46,166.315,38.268,166.374,38.119,166.496
	 M44.263,166.514c-0.434,0.38-0.446,1.003-0.027,1.422c0.213,0.213,0.491,0.322,0.766,0.322c0.239,0,0.477-0.082,0.667-0.25
	c0.437-0.379,0.45-1.001,0.031-1.421c-0.215-0.215-0.493-0.324-0.769-0.324C44.691,166.263,44.455,166.346,44.263,166.514
	 M56.339,160.364c-0.656,0.608-0.659,1.571-0.007,2.216c0.338,0.333,0.771,0.502,1.2,0.502c0.382,0,0.759-0.133,1.06-0.402
	c0.665-0.6,0.684-1.565,0.048-2.213c-0.343-0.348-0.786-0.524-1.224-0.524C57.027,159.942,56.644,160.083,56.339,160.364
	 M31.549,160.108c-0.454,0.419-0.469,1.074-0.033,1.53c0.245,0.256,0.561,0.386,0.873,0.386c0.272,0,0.541-0.1,0.76-0.3
	c0.458-0.42,0.469-1.074,0.036-1.531c-0.245-0.256-0.561-0.385-0.873-0.385C32.04,159.809,31.77,159.907,31.549,160.108
	 M49.967,160.16c-0.659,0.622-0.653,1.686,0.017,2.345c0.347,0.34,0.811,0.512,1.267,0.512c0.427,0,0.849-0.148,1.167-0.45
	c0.661-0.623,0.655-1.688-0.017-2.344c-0.346-0.341-0.809-0.512-1.267-0.512C50.708,159.711,50.286,159.859,49.967,160.16
	 M37.575,160.041c-0.564,0.538-0.547,1.463,0.038,2.018c0.293,0.279,0.685,0.418,1.069,0.418c0.379,0,0.755-0.135,1.028-0.407
	c0.536-0.533,0.519-1.427-0.035-1.976c-0.296-0.295-0.697-0.442-1.092-0.442C38.212,159.651,37.847,159.78,37.575,160.041
	 M43.728,160.065c-0.651,0.624-0.628,1.634,0.054,2.273c0.336,0.314,0.762,0.473,1.184,0.473c0.411,0,0.817-0.15,1.13-0.45
	c0.637-0.606,0.634-1.584-0.009-2.23c-0.341-0.343-0.786-0.515-1.228-0.515C44.449,159.616,44.042,159.767,43.728,160.065
	 M25.22,153.908c-0.475,0.432-0.477,1.111,0,1.572c0.238,0.231,0.538,0.349,0.833,0.349c0.271,0,0.54-0.098,0.757-0.296
	c0.477-0.434,0.475-1.112-0.002-1.573c-0.236-0.231-0.534-0.349-0.829-0.349C25.708,153.611,25.438,153.71,25.22,153.908
	 M31.144,153.76c-0.61,0.587-0.594,1.575,0.036,2.182c0.323,0.312,0.75,0.468,1.171,0.468c0.402,0,0.799-0.143,1.096-0.43
	c0.611-0.589,0.596-1.577-0.037-2.185c-0.323-0.31-0.748-0.465-1.169-0.465C31.839,153.33,31.441,153.473,31.144,153.76
	 M37.219,153.66c-0.744,0.682-0.747,1.88-0.009,2.622c0.385,0.388,0.91,0.583,1.429,0.583c0.473,0,0.94-0.161,1.296-0.488
	c0.742-0.684,0.747-1.879,0.007-2.622c-0.383-0.388-0.909-0.584-1.428-0.584C38.043,153.171,37.575,153.333,37.219,153.66
	 M43.388,153.677c-0.838,0.77-0.849,2.044-0.022,2.866c0.435,0.432,1.001,0.65,1.563,0.65c0.515,0,1.025-0.184,1.421-0.556
	c0.824-0.779,0.814-2.052-0.024-2.868c-0.429-0.418-0.99-0.629-1.542-0.629C44.277,153.141,43.778,153.317,43.388,153.677
	 M19.078,147.941c-0.305,0.293-0.303,0.82,0.004,1.131c0.162,0.165,0.395,0.249,0.626,0.249c0.201,0,0.398-0.063,0.548-0.193
	c0.315-0.275,0.334-0.808,0.042-1.129c-0.162-0.18-0.407-0.271-0.648-0.271C19.438,147.728,19.228,147.799,19.078,147.941
	 M24.904,147.648c-0.563,0.538-0.547,1.465,0.037,2.02c0.294,0.279,0.683,0.419,1.068,0.419c0.38,0,0.755-0.137,1.028-0.408
	c0.534-0.533,0.519-1.428-0.036-1.977c-0.297-0.294-0.697-0.441-1.093-0.441C25.54,147.261,25.176,147.389,24.904,147.648
	 M30.864,147.514c-0.72,0.701-0.707,1.824,0.027,2.557c0.392,0.391,0.905,0.588,1.413,0.588c0.468,0,0.931-0.168,1.291-0.507
	c0.747-0.705,0.736-1.863-0.028-2.602c-0.39-0.375-0.892-0.563-1.39-0.563C31.698,146.986,31.226,147.162,30.864,147.514
	 M38.454,146.812c-0.57,0-1.136,0.216-1.571,0.648c-0.846,0.833-0.795,2.17,0.112,3.028c0.45,0.427,1.023,0.64,1.594,0.64
	c0.562,0,1.122-0.208,1.552-0.625c0.854-0.831,0.824-2.166-0.07-3.03c-0.457-0.44-1.037-0.661-1.614-0.661
	C38.456,146.812,38.455,146.812,38.454,146.812 M24.721,141.507c-0.638,0.617-0.612,1.584,0.057,2.224
	c0.335,0.319,0.758,0.479,1.176,0.479c0.41,0,0.817-0.153,1.135-0.463c0.637-0.619,0.612-1.585-0.059-2.224
	c-0.335-0.32-0.758-0.48-1.176-0.48C25.444,141.043,25.038,141.197,24.721,141.507 M30.714,141.293
	c-0.811,0.74-0.827,2.018-0.042,2.83c0.426,0.442,1.009,0.666,1.585,0.666c0.51,0,1.014-0.175,1.4-0.529
	c0.809-0.743,0.828-2.019,0.041-2.832c-0.427-0.441-1.009-0.666-1.586-0.666C31.604,140.762,31.099,140.938,30.714,141.293
	 M36.757,141.17c-0.964,0.864-0.985,2.398-0.043,3.354c0.493,0.502,1.168,0.758,1.836,0.758c0.601,0,1.196-0.206,1.649-0.624
	c0.954-0.877,0.954-2.409,0.001-3.355c-0.492-0.487-1.158-0.735-1.817-0.735C37.793,140.567,37.208,140.767,36.757,141.17
	 M24.634,135.38c-0.659,0.618-0.643,1.713,0.034,2.354c0.34,0.322,0.794,0.484,1.242,0.484c0.423,0,0.843-0.146,1.156-0.439
	c0.661-0.618,0.647-1.712-0.033-2.354c-0.34-0.322-0.795-0.484-1.242-0.484C25.367,134.941,24.947,135.086,24.634,135.38
	 M36.636,135.11c-1.002,0.93-0.99,2.472,0.032,3.451c0.514,0.494,1.175,0.743,1.829,0.743c0.622,0,1.237-0.226,1.712-0.679
	c0.975-0.931,0.964-2.434-0.029-3.408c-0.516-0.51-1.188-0.766-1.853-0.766C37.715,134.452,37.108,134.67,36.636,135.11 M30,134.627
	c-1.183,1.11-1.175,2.909,0.018,4.084c0.618,0.61,1.418,0.918,2.21,0.918c0.737,0,1.465-0.266,2.034-0.801
	c1.182-1.108,1.175-2.906-0.017-4.083c-0.621-0.609-1.421-0.918-2.213-0.918C31.296,133.827,30.568,134.093,30,134.627
	 M24.646,129.396c-0.63,0.595-0.643,1.541-0.027,2.173c0.346,0.354,0.794,0.535,1.236,0.535c0.384,0,0.763-0.137,1.066-0.414
	c0.662-0.604,0.672-1.568,0.025-2.214c-0.339-0.34-0.775-0.513-1.208-0.513C25.346,128.963,24.956,129.106,24.646,129.396
	 M30.583,129.241c-0.781,0.757-0.76,2.056,0.047,2.831c0.416,0.399,0.971,0.6,1.518,0.6c0.523,0,1.04-0.182,1.42-0.551
	c0.783-0.755,0.763-2.053-0.048-2.83c-0.414-0.398-0.969-0.599-1.517-0.599C31.48,128.692,30.964,128.875,30.583,129.241
	 M36.661,129.103c-0.95,0.846-0.964,2.368-0.029,3.317c0.481,0.49,1.145,0.738,1.802,0.738c0.599,0,1.192-0.204,1.642-0.62
	c0.937-0.867,0.93-2.39-0.016-3.318c-0.484-0.476-1.134-0.717-1.779-0.717C37.695,128.503,37.114,128.702,36.661,129.103
	 M24.727,123.536c-0.529,0.518-0.515,1.323,0.028,1.864c0.291,0.29,0.665,0.436,1.033,0.436c0.342,0,0.68-0.125,0.947-0.378
	c0.553-0.526,0.542-1.358-0.03-1.907c-0.288-0.275-0.649-0.413-1.008-0.413C25.345,123.138,24.997,123.271,24.727,123.536
	 M30.742,123.305c-0.735,0.66-0.772,1.769-0.083,2.498c0.39,0.41,0.914,0.621,1.43,0.621c0.438,0,0.87-0.151,1.21-0.457
	c0.735-0.661,0.773-1.771,0.083-2.497c-0.39-0.412-0.914-0.622-1.43-0.622C31.517,122.848,31.084,122.999,30.742,123.305
	 M36.827,123.336c-0.832,0.785-0.821,2.16,0.022,2.99c0.435,0.429,1.028,0.644,1.614,0.644c0.545,0,1.086-0.187,1.486-0.566
	c0.835-0.785,0.826-2.16-0.018-2.988c-0.436-0.428-1.03-0.644-1.617-0.644C37.769,122.771,37.229,122.959,36.827,123.336
	 M24.989,117.72c-0.415,0.375-0.424,0.961-0.028,1.367c0.215,0.219,0.487,0.329,0.756,0.329c0.238,0,0.473-0.086,0.664-0.259
	c0.414-0.373,0.426-0.959,0.028-1.365c-0.214-0.219-0.487-0.329-0.757-0.329C25.415,117.463,25.18,117.547,24.989,117.72
	 M30.987,117.583c-0.608,0.551-0.627,1.461-0.042,2.072c0.319,0.331,0.741,0.5,1.159,0.5c0.355,0,0.709-0.121,0.993-0.367
	c0.622-0.543,0.661-1.447,0.084-2.068c-0.321-0.346-0.753-0.524-1.181-0.524C31.637,117.195,31.275,117.323,30.987,117.583
	 M36.417,116.934c-1.057,0.996-1.026,2.696,0.065,3.723c0.542,0.507,1.248,0.76,1.945,0.76c0.682,0,1.356-0.243,1.859-0.732
	c1.016-0.987,0.983-2.645-0.067-3.661c-0.542-0.525-1.263-0.791-1.976-0.791C37.577,116.232,36.917,116.465,36.417,116.934
	 M25.432,112.027c-0.239,0.229-0.233,0.493,0.014,0.729c0.121,0.114,0.245,0.166,0.368,0.166c0.131,0,0.263-0.06,0.388-0.167
	c0.213-0.261,0.197-0.517-0.06-0.738c-0.115-0.099-0.236-0.149-0.356-0.149C25.663,111.867,25.541,111.921,25.432,112.027
	 M31.302,111.911c-0.411,0.373-0.424,0.958-0.025,1.364c0.213,0.219,0.487,0.33,0.757,0.33c0.237,0,0.472-0.085,0.664-0.258
	c0.413-0.373,0.422-0.96,0.024-1.366c-0.213-0.218-0.485-0.329-0.755-0.329C31.729,111.652,31.494,111.737,31.302,111.911
	 M37.331,111.807c-0.252,0.23-0.391,0.531-0.414,0.839c-0.01,0-0.021,0-0.031,0c-0.242,0-0.481,0.088-0.677,0.267
	c-0.403,0.371-0.417,0.952-0.029,1.357c0.217,0.227,0.498,0.342,0.773,0.342c0.242,0,0.481-0.088,0.674-0.266
	c0.107-0.099,0.187-0.211,0.239-0.332c0.15,0.052,0.306,0.077,0.462,0.077c0.325,0,0.649-0.114,0.904-0.345
	c0.542-0.499,0.554-1.314,0.021-1.852c-0.282-0.288-0.654-0.433-1.02-0.433C37.909,111.461,37.585,111.576,37.331,111.807
	 M30.595,107.413c-0.421,0.382-0.423,0.985,0,1.394c0.211,0.206,0.477,0.309,0.738,0.309c0.241,0,0.479-0.087,0.672-0.262
	c0.422-0.384,0.421-0.986-0.001-1.396c-0.21-0.205-0.474-0.309-0.736-0.309C31.027,107.148,30.789,107.236,30.595,107.413
	 M35.85,107.28c-0.542,0.521-0.527,1.398,0.032,1.936c0.286,0.275,0.665,0.414,1.039,0.414c0.356,0,0.708-0.126,0.972-0.381
	c0.542-0.522,0.529-1.399-0.033-1.937c-0.286-0.275-0.664-0.413-1.037-0.413C36.466,106.899,36.113,107.026,35.85,107.28
	 M41.238,107.192c-0.66,0.604-0.662,1.667-0.007,2.325c0.341,0.343,0.807,0.518,1.267,0.518c0.419,0,0.834-0.144,1.15-0.434
	c0.658-0.605,0.663-1.666,0.006-2.326c-0.341-0.343-0.806-0.517-1.267-0.517C41.969,106.758,41.554,106.902,41.238,107.192
	 M25.146,102.119c-0.27,0.259-0.269,0.728,0.004,1.003c0.143,0.147,0.35,0.221,0.555,0.221c0.178,0,0.354-0.057,0.486-0.171
	c0.279-0.245,0.296-0.717,0.037-1.002c-0.143-0.159-0.361-0.241-0.575-0.241C25.466,101.929,25.279,101.992,25.146,102.119
	 M30.314,101.859c-0.5,0.478-0.485,1.299,0.033,1.792c0.26,0.248,0.605,0.372,0.947,0.372c0.336,0,0.669-0.121,0.912-0.362
	c0.474-0.473,0.461-1.267-0.032-1.753c-0.263-0.261-0.618-0.392-0.969-0.392C30.878,101.516,30.555,101.628,30.314,101.859
	 M35.602,101.74c-0.639,0.622-0.627,1.619,0.024,2.268c0.348,0.347,0.802,0.521,1.253,0.521c0.415,0,0.826-0.149,1.145-0.449
	c0.662-0.625,0.653-1.652-0.025-2.308c-0.345-0.332-0.791-0.5-1.232-0.5C36.341,101.272,35.922,101.428,35.602,101.74
	 M30.152,96.411c-0.566,0.548-0.543,1.405,0.05,1.972c0.298,0.284,0.672,0.426,1.043,0.426c0.363,0,0.725-0.136,1.007-0.411
	c0.564-0.549,0.543-1.405-0.053-1.972C31.902,96.142,31.528,96,31.157,96C30.793,96,30.433,96.136,30.152,96.411 M35.468,96.221
	c-0.719,0.658-0.733,1.79-0.037,2.511c0.378,0.393,0.895,0.591,1.406,0.591c0.453,0,0.899-0.155,1.242-0.471
	c0.718-0.658,0.734-1.79,0.035-2.512c-0.378-0.391-0.894-0.59-1.406-0.59C36.257,95.75,35.81,95.905,35.468,96.221 M30.075,90.976
	c-0.585,0.549-0.571,1.52,0.029,2.088c0.302,0.286,0.705,0.431,1.102,0.431c0.376,0,0.748-0.129,1.025-0.39
	c0.586-0.549,0.574-1.518-0.029-2.087c-0.303-0.286-0.706-0.43-1.102-0.43C30.725,90.587,30.353,90.716,30.075,90.976
	 M34.834,90.309c-1.049,0.983-1.042,2.58,0.016,3.622c0.548,0.542,1.258,0.814,1.96,0.814c0.654,0,1.3-0.236,1.804-0.709
	c1.049-0.984,1.042-2.579-0.015-3.622c-0.55-0.542-1.26-0.815-1.962-0.815C35.984,89.6,35.338,89.835,34.834,90.309 M30.085,85.668
	c-0.559,0.527-0.57,1.366-0.024,1.927c0.307,0.314,0.706,0.474,1.097,0.474c0.34,0,0.677-0.121,0.946-0.367
	c0.587-0.535,0.596-1.391,0.022-1.964c-0.301-0.302-0.688-0.454-1.072-0.454C30.707,85.285,30.359,85.412,30.085,85.668
	 M35.352,85.531c-0.693,0.672-0.675,1.824,0.042,2.511c0.369,0.354,0.861,0.532,1.347,0.532c0.464,0,0.923-0.162,1.26-0.488
	c0.694-0.67,0.676-1.822-0.043-2.51c-0.367-0.354-0.859-0.532-1.346-0.532C36.148,85.044,35.69,85.206,35.352,85.531 M30.157,80.47
	c-0.469,0.46-0.457,1.173,0.025,1.654c0.257,0.258,0.589,0.387,0.916,0.387c0.303,0,0.603-0.112,0.84-0.336
	c0.49-0.467,0.481-1.205-0.027-1.691c-0.256-0.245-0.576-0.367-0.895-0.367C30.705,80.117,30.397,80.235,30.157,80.47
	 M35.494,80.265c-0.652,0.586-0.686,1.568-0.074,2.216c0.347,0.364,0.811,0.551,1.27,0.551c0.388,0,0.771-0.134,1.073-0.405
	c0.652-0.587,0.686-1.571,0.073-2.216c-0.346-0.365-0.811-0.552-1.269-0.552C36.18,79.859,35.797,79.993,35.494,80.265
	 M40.891,80.292c-0.738,0.697-0.728,1.916,0.02,2.653c0.386,0.38,0.913,0.571,1.433,0.571c0.483,0,0.962-0.166,1.317-0.502
	c0.741-0.697,0.732-1.917-0.016-2.651c-0.387-0.38-0.914-0.571-1.435-0.571C41.726,79.792,41.247,79.958,40.891,80.292
	 M30.389,75.312c-0.367,0.332-0.375,0.853-0.024,1.212c0.19,0.194,0.432,0.292,0.671,0.292c0.211,0,0.419-0.077,0.589-0.23
	c0.367-0.331,0.377-0.851,0.025-1.21c-0.19-0.195-0.433-0.293-0.672-0.293C30.768,75.083,30.559,75.158,30.389,75.312 M35.71,75.189
	c-0.539,0.49-0.557,1.295-0.037,1.837c0.282,0.294,0.657,0.443,1.028,0.443c0.316,0,0.629-0.107,0.881-0.325
	c0.551-0.481,0.585-1.284,0.075-1.835c-0.285-0.307-0.668-0.464-1.048-0.464C36.287,74.846,35.966,74.959,35.71,75.189
	 M30.782,70.262c-0.211,0.203-0.206,0.438,0.012,0.646c0.109,0.101,0.217,0.147,0.327,0.147c0.117,0,0.233-0.053,0.344-0.148
	c0.189-0.231,0.174-0.458-0.053-0.655c-0.102-0.087-0.21-0.132-0.315-0.132C30.987,70.12,30.879,70.168,30.782,70.262 M35.99,70.158
	c-0.365,0.331-0.376,0.849-0.022,1.21c0.189,0.195,0.433,0.292,0.672,0.292c0.21,0,0.418-0.075,0.588-0.229
	c0.366-0.331,0.375-0.852,0.021-1.212c-0.189-0.193-0.431-0.291-0.67-0.291C36.37,69.929,36.16,70.004,35.99,70.158 M41.338,70.066
	c-0.484,0.44-0.494,1.167-0.023,1.643c0.252,0.255,0.581,0.383,0.908,0.383c0.289,0,0.576-0.102,0.802-0.307
	c0.482-0.443,0.491-1.166,0.02-1.642c-0.25-0.256-0.58-0.385-0.905-0.385C41.85,69.759,41.564,69.861,41.338,70.066 M122.96,10.531
	L46.797,54.265c0,0-2.482,1.425-2.482,4.288v16.673c-0.109-0.191-0.247-0.372-0.414-0.533c-0.48-0.466-1.12-0.702-1.753-0.702
	c-0.592,0-1.178,0.207-1.62,0.623c-0.938,0.883-0.91,2.392,0.058,3.302c0.48,0.45,1.106,0.675,1.725,0.675
	c0.605,0,1.204-0.216,1.649-0.65c0.141-0.137,0.26-0.289,0.355-0.45v8.959c-0.097-0.343-0.281-0.667-0.555-0.936
	c-0.43-0.422-1.006-0.636-1.579-0.636c-0.52,0-1.036,0.176-1.437,0.532c-0.843,0.75-0.855,2.1-0.026,2.942
	c0.428,0.435,1.017,0.656,1.6,0.656c0.53,0,1.057-0.182,1.455-0.551c0.267-0.247,0.448-0.553,0.542-0.883v3.877
	c-0.109-0.221-0.259-0.431-0.45-0.617c-0.458-0.452-1.054-0.679-1.644-0.679c-0.543,0-1.081,0.193-1.5,0.583
	c-0.889,0.826-0.878,2.193,0.028,3.062c0.456,0.439,1.042,0.66,1.621,0.66c0.552,0,1.098-0.2,1.52-0.601
	c0.179-0.17,0.32-0.363,0.424-0.568v3.551c-0.104-0.22-0.248-0.427-0.431-0.609c-0.436-0.433-1.027-0.652-1.612-0.652
	c-0.523,0-1.043,0.177-1.443,0.534c-0.855,0.767-0.874,2.128-0.038,2.975c0.438,0.446,1.037,0.673,1.629,0.673
	c0.533,0,1.062-0.183,1.463-0.554c0.184-0.168,0.329-0.366,0.433-0.579v3.983c-0.09-0.328-0.273-0.642-0.547-0.906
	c-0.406-0.391-0.921-0.587-1.434-0.587c-0.506,0-1.008,0.192-1.395,0.575c-0.75,0.739-0.704,1.925,0.1,2.687
	c0.399,0.378,0.908,0.568,1.414,0.568c0.499,0,0.995-0.185,1.377-0.555c0.239-0.233,0.401-0.511,0.484-0.806v7.858
	c-0.315,0.037-0.617,0.166-0.855,0.386c-0.236,0.219-0.377,0.502-0.427,0.803c-0.186-0.085-0.386-0.127-0.585-0.127
	c-0.328,0-0.652,0.115-0.893,0.345c-0.5,0.478-0.485,1.298,0.034,1.79c0.26,0.248,0.606,0.372,0.948,0.372
	c0.336,0,0.669-0.12,0.912-0.362c0.139-0.138,0.236-0.304,0.292-0.481c0.177,0.11,0.374,0.184,0.576,0.221v2.65
	c-0.417,0.049-0.82,0.229-1.145,0.542c-0.254,0.245-0.424,0.537-0.509,0.847c-0.049-0.009-0.098-0.014-0.148-0.014
	c-0.173,0-0.344,0.053-0.475,0.161c-0.299,0.249-0.31,0.756-0.02,1.04c0.145,0.142,0.349,0.214,0.549,0.214
	c0.086,0,0.173-0.013,0.254-0.04c0.096,0.181,0.223,0.353,0.38,0.508c0.319,0.317,0.709,0.513,1.113,0.586v1.568
	c-0.553,0.055-1.089,0.279-1.523,0.678c-1.053,0.968-1.066,2.566-0.031,3.621c0.438,0.446,0.985,0.716,1.554,0.81v0.935
	c-0.544,0.062-1.069,0.28-1.484,0.659c-1.049,0.955-1.056,2.641-0.015,3.682c0.416,0.417,0.946,0.675,1.5,0.772v1.713
	c-0.331,0.058-0.645,0.205-0.898,0.445c-0.692,0.649-0.694,1.744-0.004,2.436c0.255,0.256,0.571,0.424,0.903,0.502v1.763
	c-0.544,0.067-1.066,0.296-1.487,0.688c-1.077,1.005-1.074,2.651,0.006,3.713c0.423,0.417,0.942,0.678,1.481,0.779v0.873
	c0,0,0,0.095,0.015,0.26c-0.479,0.073-0.936,0.284-1.297,0.632c-0.942,0.904-0.916,2.419,0.055,3.355
	c0.496,0.479,1.15,0.719,1.796,0.719c0.618,0,1.23-0.22,1.69-0.661c0.039-0.038,0.077-0.078,0.114-0.117
	c0.041,0.024,0.082,0.049,0.125,0.072l4.394,2.458c-0.047-0.002-0.095-0.004-0.143-0.004c-0.542,0-1.075,0.192-1.478,0.579
	c-0.823,0.793-0.808,2.11,0.036,2.937c0.438,0.43,1.019,0.645,1.594,0.645c0.553,0,1.096-0.199,1.499-0.6
	c0.705-0.703,0.77-1.787,0.218-2.591l1.863,1.043c-0.036,0.702,0.222,1.427,0.772,1.968c0.528,0.519,1.238,0.781,1.942,0.781
	c0.512,0,1.02-0.14,1.45-0.419l4.862,2.72c-0.036-0.003-0.073-0.004-0.109-0.004c-0.333,0-0.662,0.11-0.922,0.335
	c-0.569,0.488-0.605,1.343-0.082,1.917c0.29,0.317,0.694,0.48,1.096,0.48c0.341,0,0.678-0.117,0.943-0.355
	c0.502-0.454,0.564-1.205,0.173-1.759l58.285,32.611c0,0,2.498,1.398,4.99-0.011l77.454-43.768c0,0,2.492-1.408,2.492-4.271V58.03
	c0,0,0-2.863-2.501-4.256l-77.696-43.276c0,0-1.095-0.609-2.554-0.609C124.643,9.889,123.8,10.048,122.96,10.531"/>
<rect x="11.333" y="2.692" fill="none" width="204.638" height="195.308"/>
</svg>
