<?xml version="1.0" encoding="utf-8"?>
<!-- Generator: Adobe Illustrator 16.0.3, SVG Export Plug-In . SVG Version: 6.00 Build 0)  -->
<!DOCTYPE svg PUBLIC "-//W3C//DTD SVG 1.1//EN" "http://www.w3.org/Graphics/SVG/1.1/DTD/svg11.dtd">
<svg version="1.1" id="Layer_1" xmlns="http://www.w3.org/2000/svg" xmlns:xlink="http://www.w3.org/1999/xlink" x="0px" y="0px"
	 width="105.99px" height="103.13px" viewBox="0 0 105.99 103.13" style="enable-background:new 0 0 105.99 103.13;"
	 xml:space="preserve">
<g>
	<circle style="fill-rule:evenodd;clip-rule:evenodd;fill:#7C31F4;" cx="55.68" cy="52.11" r="45.6"/>
	<g>
		<path style="fill:#FFFFFF;" d="M17.45,41.2l0.53-1.49l2.51,0.89l0.07-0.72l-1.9-2.05l0.55-1.56l0.7,0.62l1.81,2.03l2.82-0.42
			l1.01-0.03l-0.5,1.42l-3.22,0.43l-0.05,0.76l2.53,0.9l-0.53,1.49L17.45,41.2z"/>
		<path style="fill:#FFFFFF;" d="M23.18,32.47l0.75-1.32l4.31,2.46l-0.59,1.04l-0.49-0.17c0.07,0.26,0.09,0.54,0.07,0.83
			c-0.02,0.29-0.11,0.57-0.27,0.85c-0.17,0.29-0.34,0.5-0.53,0.63c-0.19,0.13-0.39,0.21-0.62,0.21c-0.22,0.01-0.47-0.04-0.74-0.14
			c-0.27-0.1-0.58-0.25-0.91-0.44l-2.44-1.39l0.75-1.32l2.55,1.46c0.15,0.08,0.28,0.15,0.4,0.2s0.22,0.08,0.31,0.09
			s0.17-0.01,0.25-0.06c0.07-0.04,0.14-0.12,0.2-0.23c0.08-0.15,0.13-0.3,0.15-0.45c0.02-0.15,0.02-0.3,0.01-0.44L23.18,32.47z"/>
		<path style="fill:#FFFFFF;" d="M29.92,31.52c-0.17,0.14-0.34,0.24-0.54,0.29c-0.19,0.06-0.39,0.06-0.6,0.03
			c-0.21-0.04-0.41-0.13-0.6-0.28l-4.4-3.39l0.8-1.3l4.31,3.33c0.09,0.07,0.18,0.12,0.28,0.15c0.09,0.03,0.18,0.04,0.27,0.04
			c0.09,0,0.17-0.01,0.25-0.04c0.08-0.02,0.15-0.06,0.21-0.09L30.33,31C30.22,31.21,30.08,31.38,29.92,31.52z"/>
		<path style="fill:#FFFFFF;" d="M30.31,25.2l-0.65,0.68l1.54,1.48c0.07,0.06,0.13,0.12,0.2,0.17c0.07,0.05,0.13,0.09,0.2,0.11
			c0.07,0.02,0.13,0.03,0.2,0.01s0.13-0.05,0.19-0.11c0.08-0.09,0.15-0.17,0.19-0.23c0.04-0.06,0.07-0.13,0.1-0.2l0.84,0.55
			c-0.08,0.18-0.16,0.36-0.26,0.53c-0.1,0.17-0.22,0.33-0.37,0.48c-0.19,0.2-0.37,0.34-0.56,0.42c-0.18,0.09-0.36,0.12-0.54,0.1
			c-0.18-0.02-0.36-0.08-0.55-0.19c-0.19-0.11-0.38-0.26-0.58-0.45l-1.65-1.58l-0.34,0.36l-0.81-0.78l0.34-0.36l-0.67-0.97l0.81-1
			l0.91,0.88l0.65-0.68L30.31,25.2z"/>
		<path style="fill:#FFFFFF;" d="M33.31,21.19l1.2-0.93l3.04,3.92l-0.95,0.74l-0.39-0.35c-0.04,0.27-0.12,0.53-0.25,0.79
			c-0.13,0.26-0.32,0.48-0.57,0.68c-0.26,0.2-0.5,0.33-0.73,0.38c-0.23,0.05-0.44,0.04-0.65-0.04s-0.42-0.22-0.63-0.42
			c-0.21-0.2-0.44-0.45-0.67-0.76l-1.72-2.22l1.2-0.93l1.8,2.32c0.11,0.14,0.2,0.25,0.29,0.34c0.09,0.09,0.17,0.16,0.26,0.2
			c0.08,0.04,0.17,0.05,0.25,0.04c0.08-0.01,0.18-0.06,0.27-0.13c0.13-0.1,0.24-0.22,0.31-0.36s0.13-0.27,0.17-0.4L33.31,21.19z"/>
		<path style="fill:#FFFFFF;" d="M38.87,23.38l-2.4-4.34l0.97-0.54l0.5,0.69c-0.03-0.14-0.03-0.28-0.01-0.42
			c0.03-0.14,0.07-0.27,0.14-0.4c0.07-0.13,0.15-0.24,0.25-0.35c0.1-0.11,0.21-0.19,0.32-0.25c0.11-0.06,0.22-0.11,0.32-0.15
			c0.1-0.04,0.19-0.07,0.27-0.09s0.15-0.03,0.21-0.04s0.1-0.01,0.13-0.01l0.32,1.04c-0.18,0.04-0.35,0.1-0.51,0.18
			c-0.16,0.09-0.29,0.2-0.4,0.33c-0.11,0.14-0.18,0.29-0.22,0.47c-0.04,0.18-0.03,0.38,0.04,0.6l1.4,2.53L38.87,23.38z"/>
		<path style="fill:#FFFFFF;" d="M44.34,20.72l-1.43,0.51l-2.33-6.5l1.4-0.59l0.86,2.39c0.06-0.12,0.12-0.24,0.18-0.35
			c0.07-0.11,0.14-0.21,0.23-0.3c0.09-0.09,0.19-0.17,0.3-0.25c0.11-0.07,0.24-0.14,0.38-0.19c0.29-0.1,0.55-0.15,0.77-0.12
			c0.22,0.02,0.42,0.1,0.59,0.24c0.17,0.14,0.33,0.34,0.47,0.59c0.14,0.25,0.27,0.56,0.4,0.92l0.95,2.64l-1.43,0.51l-0.99-2.76
			c-0.06-0.16-0.11-0.3-0.17-0.41s-0.12-0.21-0.18-0.27c-0.07-0.07-0.14-0.1-0.23-0.12c-0.08-0.01-0.19,0-0.3,0.04
			c-0.16,0.06-0.3,0.14-0.4,0.24c-0.11,0.1-0.2,0.22-0.29,0.35L44.34,20.72z"/>
		<path style="fill:#FFFFFF;" d="M52.38,17.2c0.04,0.21,0.1,0.38,0.2,0.49c0.1,0.12,0.2,0.19,0.3,0.22l-0.12,0.82
			c-0.11,0.04-0.24,0.06-0.38,0.07c-0.14,0.01-0.27,0.01-0.4-0.02c-0.13-0.02-0.26-0.06-0.38-0.12c-0.12-0.06-0.21-0.15-0.29-0.25
			c-0.07,0.1-0.15,0.19-0.22,0.27c-0.08,0.09-0.16,0.17-0.26,0.24c-0.1,0.07-0.22,0.14-0.36,0.19c-0.14,0.06-0.3,0.1-0.49,0.13
			c-0.54,0.09-0.98,0.03-1.31-0.19c-0.33-0.22-0.54-0.59-0.63-1.12c-0.08-0.5,0.03-0.91,0.34-1.22c0.31-0.31,0.83-0.54,1.55-0.68
			l0.71-0.16l-0.04-0.24c-0.01-0.07-0.03-0.13-0.06-0.19c-0.03-0.06-0.07-0.12-0.13-0.16c-0.06-0.05-0.13-0.08-0.23-0.1
			c-0.09-0.02-0.21-0.02-0.34,0.01c-0.26,0.04-0.53,0.1-0.79,0.18c-0.26,0.08-0.52,0.18-0.76,0.32l-0.42-0.94
			c0.3-0.21,0.61-0.38,0.92-0.51s0.64-0.21,1-0.27c0.32-0.05,0.61-0.07,0.87-0.06c0.26,0.01,0.49,0.07,0.68,0.16
			s0.35,0.24,0.47,0.43c0.12,0.19,0.21,0.43,0.26,0.73L52.38,17.2z M50.23,18.2c0.06-0.01,0.13-0.03,0.2-0.06
			c0.07-0.03,0.13-0.07,0.2-0.11c0.07-0.04,0.13-0.09,0.18-0.14s0.1-0.1,0.13-0.14l-0.16-0.97l-0.55,0.13
			c-0.27,0.07-0.46,0.16-0.58,0.29c-0.12,0.13-0.16,0.28-0.13,0.46C49.59,18.09,49.83,18.27,50.23,18.2z"/>
		<path style="fill:#FFFFFF;" d="M55.35,18.66c-0.21-0.04-0.4-0.12-0.56-0.23c-0.17-0.11-0.3-0.26-0.4-0.45s-0.15-0.4-0.16-0.64
			l-0.13-5.55l1.51-0.2l0.13,5.44c0,0.12,0.02,0.22,0.06,0.31c0.04,0.09,0.08,0.17,0.14,0.23c0.06,0.07,0.12,0.12,0.19,0.17
			c0.07,0.04,0.13,0.08,0.2,0.1l-0.31,0.81C55.78,18.7,55.56,18.7,55.35,18.66z"/>
		<path style="fill:#FFFFFF;" d="M60.51,15.01l-0.93-0.08l-0.19,2.12c-0.01,0.09-0.01,0.18-0.01,0.26c0,0.08,0.02,0.16,0.04,0.22
			c0.03,0.06,0.06,0.12,0.11,0.16c0.05,0.04,0.12,0.07,0.21,0.08c0.12,0.01,0.22,0.01,0.3,0c0.08-0.01,0.15-0.02,0.22-0.04l0.1,1
			c-0.19,0.06-0.38,0.1-0.58,0.13c-0.2,0.03-0.4,0.03-0.61,0.02c-0.27-0.02-0.5-0.08-0.68-0.17c-0.18-0.09-0.32-0.21-0.42-0.36
			c-0.1-0.15-0.17-0.33-0.2-0.55c-0.03-0.21-0.04-0.46-0.01-0.73l0.2-2.28l-0.49-0.04l0.1-1.12l0.49,0.04l0.34-1.13l1.29,0.01
			l-0.11,1.26l0.93,0.08L60.51,15.01z"/>
		<path style="fill:#FFFFFF;" d="M64.23,18.58c0.23,0.06,0.48,0.1,0.72,0.12c0.25,0.02,0.49,0.03,0.73,0.02l-0.06,0.99
			c-0.28,0.06-0.59,0.09-0.93,0.08s-0.72-0.06-1.14-0.17c-0.75-0.19-1.28-0.53-1.56-1.04s-0.33-1.19-0.11-2.06
			c0.11-0.44,0.25-0.81,0.43-1.11c0.18-0.3,0.39-0.53,0.63-0.69c0.24-0.16,0.52-0.26,0.83-0.29c0.31-0.03,0.65,0,1.03,0.1
			c0.37,0.09,0.66,0.22,0.9,0.39c0.23,0.17,0.41,0.38,0.53,0.61c0.12,0.24,0.19,0.5,0.2,0.8c0.02,0.29-0.02,0.61-0.1,0.94
			c-0.02,0.08-0.04,0.15-0.07,0.23c-0.03,0.08-0.06,0.15-0.09,0.22c-0.03,0.07-0.06,0.13-0.09,0.18c-0.03,0.05-0.05,0.1-0.08,0.13
			l-2.7-0.67c-0.03,0.16-0.04,0.3-0.01,0.43c0.02,0.13,0.06,0.24,0.14,0.34c0.07,0.1,0.18,0.18,0.31,0.26
			C63.86,18.47,64.03,18.53,64.23,18.58z M64.97,16.77c0.08-0.31,0.07-0.55-0.01-0.72s-0.24-0.28-0.47-0.34
			c-0.25-0.06-0.45-0.03-0.62,0.08c-0.16,0.11-0.29,0.32-0.37,0.62L64.97,16.77z"/>
		<path style="fill:#FFFFFF;" d="M70.29,17.58c-0.2-0.08-0.36-0.12-0.47-0.1c-0.12,0.02-0.21,0.09-0.26,0.21
			c-0.02,0.06-0.03,0.11-0.03,0.16c0.01,0.05,0.03,0.1,0.07,0.16c0.04,0.06,0.1,0.12,0.18,0.18s0.18,0.15,0.3,0.23
			c0.2,0.15,0.37,0.3,0.53,0.44s0.28,0.3,0.37,0.46c0.09,0.16,0.13,0.34,0.14,0.53c0.01,0.19-0.04,0.41-0.14,0.66
			c-0.11,0.26-0.25,0.46-0.42,0.61c-0.17,0.15-0.37,0.26-0.58,0.31c-0.22,0.06-0.45,0.07-0.71,0.03c-0.25-0.04-0.52-0.11-0.79-0.22
			c-0.2-0.08-0.39-0.18-0.56-0.27s-0.33-0.19-0.47-0.29c-0.14-0.09-0.27-0.19-0.38-0.28c-0.11-0.09-0.21-0.17-0.29-0.24l0.61-0.88
			c0.21,0.16,0.41,0.31,0.6,0.44s0.38,0.23,0.55,0.3c0.24,0.1,0.46,0.15,0.63,0.14c0.18-0.01,0.29-0.08,0.36-0.23
			c0.03-0.08,0.04-0.14,0.02-0.2c-0.02-0.06-0.05-0.12-0.11-0.18s-0.14-0.13-0.24-0.2c-0.1-0.07-0.22-0.16-0.36-0.27
			c-0.19-0.15-0.36-0.31-0.48-0.46c-0.13-0.15-0.22-0.31-0.28-0.47c-0.06-0.16-0.09-0.33-0.08-0.5c0.01-0.17,0.06-0.36,0.14-0.56
			c0.11-0.27,0.26-0.47,0.43-0.61c0.18-0.14,0.37-0.23,0.59-0.27c0.21-0.04,0.44-0.04,0.67,0c0.24,0.04,0.47,0.11,0.69,0.2
			c0.37,0.15,0.67,0.31,0.91,0.48c0.24,0.17,0.45,0.34,0.63,0.53l-0.6,0.9c-0.2-0.19-0.4-0.34-0.6-0.47
			C70.66,17.75,70.47,17.65,70.29,17.58z"/>
		<path style="fill:#FFFFFF;" d="M75.73,20.6l-0.8-0.48l-1.1,1.83c-0.05,0.08-0.09,0.16-0.12,0.23c-0.03,0.08-0.05,0.15-0.06,0.22
			c-0.01,0.07,0,0.13,0.03,0.19c0.03,0.06,0.08,0.11,0.15,0.16c0.11,0.06,0.2,0.11,0.27,0.13c0.07,0.02,0.14,0.04,0.21,0.05
			l-0.35,0.95c-0.2-0.03-0.39-0.08-0.58-0.14c-0.19-0.06-0.37-0.14-0.55-0.25c-0.23-0.14-0.41-0.29-0.54-0.45
			c-0.12-0.16-0.2-0.33-0.22-0.51c-0.03-0.18,0-0.37,0.06-0.58c0.06-0.21,0.17-0.43,0.31-0.66l1.18-1.96l-0.43-0.25l0.58-0.97
			l0.43,0.25L75,17.49l1.16,0.57l-0.65,1.09l0.8,0.48L75.73,20.6z"/>
		<path style="fill:#FFFFFF;" d="M77.55,25.45c0.19,0.15,0.39,0.29,0.6,0.42c0.21,0.12,0.43,0.23,0.65,0.33l-0.48,0.87
			c-0.28-0.06-0.57-0.17-0.88-0.33c-0.31-0.15-0.63-0.37-0.96-0.64c-0.6-0.49-0.92-1.03-0.96-1.61c-0.04-0.58,0.22-1.22,0.78-1.91
			c0.29-0.35,0.58-0.62,0.87-0.81c0.29-0.19,0.58-0.31,0.87-0.35c0.29-0.04,0.58-0.01,0.87,0.1c0.29,0.11,0.59,0.28,0.89,0.53
			c0.29,0.24,0.5,0.48,0.64,0.74c0.14,0.26,0.21,0.52,0.22,0.78c0.01,0.27-0.05,0.53-0.16,0.81s-0.28,0.54-0.49,0.8
			c-0.05,0.06-0.11,0.12-0.17,0.18c-0.06,0.06-0.12,0.11-0.18,0.16c-0.06,0.05-0.11,0.09-0.16,0.13c-0.05,0.04-0.09,0.06-0.12,0.08
			l-2.15-1.76c-0.1,0.13-0.16,0.26-0.2,0.38c-0.04,0.12-0.04,0.24-0.02,0.36c0.03,0.12,0.08,0.24,0.17,0.37
			C77.26,25.19,77.39,25.32,77.55,25.45z M78.99,24.13c0.2-0.25,0.3-0.47,0.3-0.65c0-0.19-0.09-0.36-0.28-0.51
			c-0.2-0.16-0.39-0.22-0.59-0.19s-0.4,0.17-0.6,0.4L78.99,24.13z"/>
		<path style="fill:#FFFFFF;" d="M79.82,29.2c-0.11-0.19-0.18-0.38-0.2-0.58c-0.02-0.2,0-0.4,0.07-0.6s0.2-0.38,0.37-0.54l4.08-3.77
			l1.15,1l-4,3.7c-0.08,0.08-0.15,0.16-0.19,0.25c-0.04,0.09-0.07,0.17-0.08,0.26c-0.01,0.09-0.01,0.17,0,0.25
			c0.01,0.08,0.03,0.15,0.05,0.22l-0.81,0.3C80.08,29.55,79.93,29.38,79.82,29.2z"/>
		<path style="fill:#FFFFFF;" d="M81.98,31.81c-0.09-0.2-0.13-0.4-0.14-0.6c0-0.2,0.04-0.4,0.13-0.58c0.09-0.19,0.23-0.35,0.43-0.5
			l4.44-3.33l1.04,1.12l-4.36,3.27c-0.09,0.07-0.17,0.14-0.22,0.23c-0.05,0.08-0.09,0.16-0.11,0.25c-0.02,0.08-0.03,0.17-0.03,0.25
			s0.01,0.16,0.03,0.22l-0.84,0.22C82.2,32.19,82.07,32.01,81.98,31.81z"/>
		<path style="fill:#FFFFFF;" d="M85.51,35.27c0.12,0.21,0.26,0.41,0.41,0.61s0.31,0.38,0.48,0.55l-0.76,0.63
			c-0.23-0.16-0.46-0.37-0.7-0.62c-0.23-0.25-0.45-0.57-0.66-0.95c-0.38-0.68-0.48-1.29-0.31-1.85c0.17-0.56,0.65-1.06,1.42-1.49
			c0.4-0.22,0.76-0.37,1.1-0.44c0.34-0.07,0.65-0.08,0.93-0.01c0.29,0.07,0.54,0.2,0.78,0.41c0.23,0.21,0.44,0.48,0.63,0.81
			c0.18,0.33,0.29,0.63,0.33,0.92c0.04,0.29,0.01,0.56-0.08,0.81c-0.09,0.25-0.24,0.48-0.44,0.69c-0.21,0.21-0.46,0.4-0.75,0.57
			c-0.07,0.04-0.14,0.07-0.22,0.11c-0.08,0.03-0.15,0.06-0.23,0.08s-0.14,0.04-0.2,0.06c-0.06,0.02-0.11,0.03-0.15,0.03l-1.36-2.42
			c-0.14,0.09-0.24,0.18-0.32,0.28s-0.13,0.21-0.15,0.33c-0.02,0.12-0.01,0.26,0.03,0.4C85.34,34.93,85.41,35.09,85.51,35.27z
			 M87.33,34.57c0.28-0.16,0.45-0.32,0.52-0.5c0.07-0.17,0.04-0.37-0.08-0.58c-0.12-0.22-0.28-0.35-0.48-0.39
			c-0.2-0.04-0.43,0.01-0.7,0.16L87.33,34.57z"/>
	</g>
	<g>
		<g>
			<g>
				<path style="fill:#FFFFFF;" d="M20.24,58.41c-0.06,0.05-0.14,0.05-0.19-0.01L19,57.24c-0.05-0.06-0.05-0.14,0.01-0.19l2.7-2.48
					c0.06-0.05,0.14-0.05,0.19,0.01l1.04,1.17c0.05,0.06,0.04,0.14-0.01,0.19L20.24,58.41z"/>
			</g>
			<g>
				<path style="fill:#FFFFFF;" d="M19.95,51.56c-0.05-0.06-0.04-0.14,0.01-0.19l1.3-1.17c0.06-0.05,0.14-0.05,0.19,0.01l3.41,3.85
					c0.05,0.06,0.04,0.14-0.01,0.19l-1.29,1.18c-0.06,0.05-0.14,0.05-0.19-0.01L19.95,51.56z"/>
			</g>
			<g>
				<path style="fill:#FFFFFF;" d="M16.82,58.37c-0.06,0.05-0.14,0.05-0.19-0.01l-1.05-1.17c-0.05-0.06-0.05-0.14,0.01-0.19
					l2.7-2.47c0.06-0.05,0.14-0.05,0.19,0.01l1.04,1.17c0.05,0.06,0.04,0.14-0.01,0.19L16.82,58.37z"/>
			</g>
			<g>
				<path style="fill:#FFFFFF;" d="M16.41,51.52c-0.05-0.06-0.04-0.14,0.01-0.19l1.3-1.17c0.06-0.05,0.14-0.05,0.19,0.01l3.41,3.85
					c0.05,0.06,0.04,0.14-0.01,0.19l-1.29,1.18c-0.06,0.05-0.14,0.05-0.19-0.01L16.41,51.52z"/>
			</g>
		</g>
	</g>
	<g>
		<polygon style="fill:#FEFB39;" points="38.17,37.86 48.31,35.82 51.2,50.18 53.44,49.09 57.73,33.92 68.37,31.78 67.21,38.16 
			62.95,52.3 70.16,64.65 62.48,69.58 55.55,58.04 53.04,59.35 56.05,74.3 45.92,76.34 		"/>
		<g>
			<g>
				<g>
					<path style="fill:#FEFB39;" d="M76.46,75.97c-0.14,0.1-0.35,0.07-0.45-0.08l-2.14-3.02c-0.1-0.15-0.07-0.35,0.08-0.45
						l7.03-5.04c0.14-0.1,0.34-0.07,0.45,0.08l2.11,3.04c0.1,0.15,0.07,0.35-0.08,0.45L76.46,75.97z"/>
				</g>
				<g>
					<path style="fill:#FEFB39;" d="M77.7,59.84c-0.1-0.15-0.07-0.35,0.08-0.45l3.38-2.38c0.15-0.1,0.35-0.07,0.45,0.08l6.9,9.98
						c0.1,0.15,0.07,0.35-0.08,0.45l-3.36,2.4c-0.14,0.1-0.34,0.07-0.45-0.08L77.7,59.84z"/>
				</g>
				<g>
					<path style="fill:#FEFB39;" d="M68.45,74.89C68.31,75,68.1,74.96,68,74.82l-2.13-3.02c-0.1-0.15-0.07-0.35,0.08-0.45l7.03-5.04
						c0.14-0.1,0.34-0.07,0.45,0.08l2.11,3.05c0.1,0.15,0.07,0.35-0.08,0.45L68.45,74.89z"/>
				</g>
				<g>
					<path style="fill:#FEFB39;" d="M69.41,58.75c-0.1-0.15-0.07-0.35,0.08-0.45l3.38-2.38c0.15-0.1,0.35-0.07,0.45,0.08l6.9,9.98
						c0.1,0.15,0.07,0.35-0.08,0.45l-3.36,2.4c-0.14,0.1-0.34,0.07-0.45-0.08L69.41,58.75z"/>
				</g>
			</g>
		</g>
	</g>
	<g>
		<path style="fill:#FFFFFF;" d="M18.89,64.13l6.14-2.64l0.71,1.66l-2.32,2.94l-0.79,0.89l0.04,0.1l0.69-0.45l3.27-1.41l0.64,1.48
			l-6.14,2.64l-0.71-1.65l2.32-2.95l0.79-0.88l-0.04-0.1l-0.7,0.45l-3.26,1.41L18.89,64.13z"/>
		<path style="fill:#FFFFFF;" d="M24.23,69.69c0.71-0.48,1.36-0.68,1.94-0.58c0.58,0.1,1.11,0.49,1.57,1.16
			c0.46,0.68,0.62,1.31,0.5,1.89c-0.13,0.58-0.55,1.11-1.25,1.59c-0.74,0.5-1.4,0.71-1.99,0.61c-0.59-0.1-1.11-0.48-1.57-1.16
			c-0.46-0.67-0.62-1.3-0.49-1.88C23.05,70.74,23.49,70.2,24.23,69.69z M26.05,72.43c0.22-0.15,0.4-0.29,0.54-0.42
			c0.14-0.13,0.23-0.26,0.29-0.38c0.06-0.12,0.08-0.24,0.06-0.36c-0.02-0.12-0.07-0.23-0.15-0.35c-0.08-0.12-0.18-0.21-0.28-0.27
			c-0.1-0.06-0.22-0.08-0.35-0.08c-0.13,0.01-0.29,0.05-0.46,0.12c-0.17,0.08-0.37,0.19-0.59,0.34c-0.23,0.15-0.41,0.3-0.54,0.43
			c-0.14,0.13-0.23,0.26-0.29,0.38c-0.06,0.12-0.08,0.24-0.06,0.36c0.02,0.12,0.06,0.24,0.15,0.36c0.08,0.12,0.17,0.21,0.28,0.27
			c0.1,0.06,0.22,0.08,0.35,0.07s0.29-0.05,0.46-0.13C25.63,72.7,25.83,72.59,26.05,72.43z"/>
		<path style="fill:#FFFFFF;" d="M26.11,76.57l3.63-3.36l0.79,0.85l-0.55,0.65c0.13-0.06,0.26-0.09,0.41-0.1
			c0.15,0,0.29,0.01,0.43,0.05c0.14,0.04,0.28,0.09,0.41,0.17c0.13,0.08,0.24,0.16,0.34,0.27c0.09,0.1,0.17,0.19,0.23,0.29
			s0.12,0.18,0.16,0.25c0.04,0.08,0.07,0.14,0.1,0.2s0.04,0.1,0.04,0.12l-0.94,0.55c-0.08-0.17-0.19-0.33-0.32-0.47
			s-0.27-0.25-0.43-0.32c-0.16-0.08-0.34-0.11-0.52-0.11c-0.19,0-0.38,0.06-0.58,0.17l-2.12,1.96L26.11,76.57z"/>
		<path style="fill:#FFFFFF;" d="M34.39,79.2l-0.75-0.63l-1.37,1.63c-0.06,0.07-0.11,0.14-0.16,0.21c-0.04,0.07-0.08,0.14-0.09,0.21
			c-0.02,0.07-0.01,0.14,0,0.2c0.02,0.06,0.06,0.13,0.13,0.19c0.1,0.08,0.19,0.14,0.26,0.18c0.07,0.04,0.14,0.07,0.21,0.09
			l-0.48,0.88c-0.2-0.07-0.38-0.15-0.57-0.25c-0.18-0.09-0.36-0.21-0.53-0.35c-0.22-0.18-0.38-0.37-0.48-0.55s-0.16-0.37-0.15-0.55
			s0.05-0.37,0.14-0.57c0.09-0.19,0.23-0.39,0.4-0.6l1.47-1.75l-0.4-0.33l0.72-0.86l0.4,0.33l0.93-0.73l1.1,0.78l-0.81,0.97
			l0.75,0.63L34.39,79.2z"/>
		<path style="fill:#FFFFFF;" d="M34.52,80.99c0.46-0.73,0.97-1.16,1.55-1.3c0.57-0.14,1.21,0,1.9,0.44
			c0.69,0.44,1.09,0.95,1.21,1.53c0.11,0.58-0.06,1.24-0.51,1.96c-0.48,0.76-1.01,1.21-1.58,1.36c-0.58,0.15-1.21,0-1.91-0.43
			c-0.69-0.44-1.09-0.95-1.21-1.53C33.86,82.42,34.04,81.75,34.52,80.99z M37.28,82.78c0.15-0.23,0.25-0.43,0.33-0.6
			c0.07-0.17,0.11-0.33,0.12-0.46s-0.02-0.25-0.09-0.35c-0.06-0.1-0.15-0.19-0.28-0.27c-0.12-0.08-0.25-0.12-0.36-0.14
			s-0.23,0.01-0.35,0.07c-0.12,0.06-0.24,0.16-0.37,0.3c-0.13,0.14-0.26,0.32-0.41,0.55c-0.15,0.23-0.25,0.43-0.33,0.61
			c-0.07,0.18-0.11,0.33-0.12,0.46c0,0.13,0.03,0.25,0.09,0.35c0.06,0.1,0.15,0.19,0.28,0.27c0.12,0.08,0.24,0.12,0.36,0.13
			c0.12,0.01,0.23-0.01,0.35-0.07c0.12-0.06,0.24-0.16,0.37-0.3C37.01,83.19,37.14,83.01,37.28,82.78z"/>
		<path style="fill:#FFFFFF;" d="M39,86.57l1.97-4.53l1.06,0.46l-0.24,0.82c0.09-0.11,0.21-0.19,0.34-0.25
			c0.13-0.06,0.27-0.11,0.41-0.13c0.15-0.02,0.29-0.03,0.44-0.01c0.15,0.02,0.29,0.05,0.41,0.11c0.12,0.05,0.23,0.11,0.33,0.17
			c0.1,0.06,0.18,0.11,0.25,0.17c0.07,0.05,0.12,0.1,0.17,0.14c0.04,0.04,0.07,0.07,0.09,0.1l-0.64,0.88
			c-0.15-0.12-0.3-0.22-0.48-0.3c-0.17-0.08-0.35-0.12-0.53-0.12c-0.18,0-0.35,0.03-0.52,0.11c-0.17,0.08-0.33,0.21-0.46,0.39
			l-1.15,2.64L39,86.57z"/>
		<path style="fill:#FFFFFF;" d="M46.71,85.46l-1.13,3.65l-1.51-0.47l1.13-3.65l-0.46-0.14l0.33-1.08l0.46,0.14l0.11-0.36
			c0.1-0.31,0.21-0.57,0.33-0.76c0.12-0.19,0.26-0.32,0.42-0.41c0.16-0.08,0.34-0.12,0.55-0.11c0.2,0.01,0.44,0.06,0.71,0.14
			c0.23,0.07,0.44,0.16,0.62,0.26c0.18,0.1,0.33,0.21,0.45,0.31l-0.44,0.88c-0.09-0.07-0.17-0.12-0.25-0.16s-0.16-0.08-0.25-0.1
			c-0.1-0.03-0.18-0.04-0.25-0.04c-0.07,0.01-0.12,0.03-0.17,0.07c-0.05,0.04-0.09,0.1-0.12,0.18c-0.04,0.08-0.07,0.17-0.1,0.28
			l-0.09,0.28l0.86,0.27l-0.33,1.07L46.71,85.46z"/>
	</g>
</g>
</svg>
