<?xml version="1.0" encoding="utf-8"?>
<!-- Generator: Adobe Illustrator 16.0.3, SVG Export Plug-In . SVG Version: 6.00 Build 0)  -->
<!DOCTYPE svg PUBLIC "-//W3C//DTD SVG 1.1//EN" "http://www.w3.org/Graphics/SVG/1.1/DTD/svg11.dtd">
<svg version="1.1" id="Layer_1" xmlns="http://www.w3.org/2000/svg" xmlns:xlink="http://www.w3.org/1999/xlink" x="0px" y="0px"
	 width="137.333px" height="172px" viewBox="0 0 137.333 172" enable-background="new 0 0 137.333 172" xml:space="preserve">
<path fill="#5B5B5B" d="M36.141,16.225c-0.155,0-0.307,0.068-0.444,0.201c-0.298,0.287-0.291,0.617,0.018,0.912
	c0.152,0.143,0.307,0.208,0.462,0.208c0.165,0,0.329-0.074,0.485-0.209c0.267-0.326,0.247-0.646-0.074-0.924
	C36.442,16.288,36.29,16.225,36.141,16.225"/>
<path fill="#5B5B5B" d="M83.16,9.724c-0.198,0-0.392,0.089-0.569,0.268c-0.354,0.354-0.327,0.753,0.051,1.103
	c0.183,0.171,0.372,0.252,0.561,0.252c0.198,0,0.396-0.088,0.586-0.252c0.323-0.378,0.323-0.765-0.055-1.112
	C83.548,9.809,83.352,9.724,83.16,9.724"/>
<path fill="#5B5B5B" d="M106.987,33.01c-0.174,0-0.354,0.065-0.536,0.194c-0.349,0.337-0.418,0.72-0.072,1.106
	c0.19,0.21,0.405,0.32,0.625,0.32c0.171,0,0.348-0.067,0.519-0.208c0.381-0.312,0.426-0.712,0.081-1.1
	C107.415,33.113,107.207,33.008,106.987,33.01"/>
<path fill="#5B5B5B" d="M52.258,84.414c-0.246,0-0.486,0.075-0.671,0.229c-0.422,0.35-0.438,1.066-0.028,1.467
	c0.205,0.2,0.493,0.302,0.775,0.302c0.256,0,0.512-0.084,0.698-0.254c0.389-0.354,0.404-1.018,0.029-1.417
	C52.856,84.526,52.555,84.414,52.258,84.414"/>
<path fill="#5B5B5B" d="M28.456,61.136c-0.265,0-0.53,0.09-0.716,0.269c-0.381,0.365-0.379,1.027,0.005,1.415
	c0.202,0.208,0.494,0.314,0.784,0.314c0.252,0,0.499-0.081,0.687-0.244c0.394-0.345,0.418-1.012,0.052-1.415
	C29.064,61.251,28.758,61.136,28.456,61.136"/>
<path fill="#5B5B5B" d="M75.281,9.322c-0.265,0-0.524,0.087-0.718,0.264c-0.412,0.379-0.417,1.059-0.011,1.47
	c0.214,0.215,0.513,0.325,0.806,0.325c0.263,0,0.524-0.088,0.719-0.266c0.415-0.376,0.417-1.057,0.013-1.467
	C75.873,9.432,75.575,9.321,75.281,9.322"/>
<path fill="#5B5B5B" d="M107.025,40.36c-0.285,0-0.564,0.101-0.761,0.301c-0.389,0.399-0.359,1.083,0.065,1.47
	c0.211,0.192,0.49,0.288,0.766,0.288c0.283,0,0.562-0.102,0.76-0.302c0.39-0.397,0.359-1.082-0.067-1.47
	C107.578,40.456,107.301,40.36,107.025,40.36"/>
<path fill="#5B5B5B" d="M107.083,47.802c-0.296,0-0.589,0.098-0.806,0.29c-0.468,0.422-0.474,1.215-0.01,1.673
	c0.239,0.238,0.574,0.357,0.903,0.357c0.312,0,0.618-0.105,0.836-0.318c0.455-0.438,0.433-1.23-0.044-1.673
	C107.725,47.913,107.402,47.802,107.083,47.802"/>
<path fill="#5B5B5B" d="M67.41,9.005c-0.3,0-0.599,0.099-0.813,0.297c-0.465,0.425-0.467,1.218,0,1.673
	c0.239,0.233,0.571,0.349,0.898,0.349c0.313,0,0.621-0.107,0.841-0.321c0.452-0.445,0.422-1.239-0.057-1.675
	C68.043,9.113,67.725,9.005,67.41,9.005"/>
<path fill="#5B5B5B" d="M98.767,24.855c-0.194,0-0.377,0.11-0.601,0.32c-0.51,0.478-0.508,1.21,0.006,1.714
	c0.266,0.26,0.596,0.391,0.922,0.391c0.308,0,0.614-0.117,0.86-0.35c0.51-0.485,0.464-0.792-0.221-1.46
	C99.309,25.053,99.028,24.855,98.767,24.855"/>
<path fill="#5B5B5B" d="M90.828,17.098c-0.197,0-0.382,0.11-0.607,0.325c-0.501,0.482-0.491,1.215,0.027,1.716
	c0.262,0.254,0.589,0.381,0.913,0.381c0.313,0,0.622-0.12,0.869-0.36c0.501-0.484,0.453-0.784-0.238-1.458
	C91.373,17.292,91.09,17.098,90.828,17.098"/>
<path fill="#5B5B5B" d="M99.427,70.271c-0.301,0-0.597,0.109-0.839,0.329c-0.512,0.472-0.522,1.205-0.021,1.712
	c0.27,0.27,0.607,0.405,0.942,0.405c0.299,0,0.596-0.109,0.835-0.329c0.516-0.468,0.525-1.203,0.023-1.71
	C100.102,70.408,99.764,70.271,99.427,70.271"/>
<path fill="#5B5B5B" d="M43.88,15.956c-0.295,0-0.591,0.106-0.831,0.323c-0.516,0.468-0.531,1.201-0.032,1.709
	c0.268,0.274,0.611,0.413,0.949,0.413c0.296,0,0.591-0.106,0.831-0.323c0.517-0.468,0.529-1.203,0.03-1.712
	C44.561,16.094,44.219,15.956,43.88,15.956"/>
<path fill="#5B5B5B" d="M35.972,23.233c-0.296,0-0.591,0.106-0.831,0.323c-0.519,0.469-0.53,1.204-0.035,1.711
	c0.269,0.274,0.61,0.412,0.947,0.412c0.298,0,0.592-0.108,0.832-0.324c0.519-0.466,0.532-1.201,0.035-1.709
	C36.653,23.371,36.311,23.233,35.972,23.233"/>
<path fill="#5B5B5B" d="M60.117,84.35c-0.3,0-0.596,0.103-0.836,0.314c-0.542,0.475-0.558,1.256-0.034,1.782
	c0.267,0.267,0.616,0.402,0.959,0.402c0.299,0,0.596-0.104,0.836-0.312c0.545-0.476,0.563-1.255,0.037-1.781
	C60.811,84.486,60.462,84.35,60.117,84.35"/>
<path fill="#5B5B5B" d="M91.517,77.522c-0.315,0-0.627,0.115-0.875,0.347c-0.52,0.495-0.503,1.277,0.041,1.784
	c0.265,0.247,0.596,0.37,0.924,0.37c0.315,0,0.628-0.115,0.874-0.348c0.519-0.494,0.5-1.278-0.042-1.785
	C92.174,77.646,91.845,77.522,91.517,77.522"/>
<path fill="#5B5B5B" d="M75.846,84.668c-0.344,0-0.682,0.114-0.928,0.346c-0.493,0.466-0.506,1.306-0.026,1.827
	c0.266,0.288,0.663,0.438,1.053,0.438c0.327,0,0.653-0.106,0.9-0.321c0.534-0.469,0.543-1.354,0.029-1.879
	C76.606,84.806,76.223,84.668,75.846,84.668"/>
<path fill="#5B5B5B" d="M67.98,84.453c-0.352,0-0.701,0.125-0.958,0.379c-0.534,0.52-0.497,1.402,0.076,1.918
	c0.274,0.248,0.628,0.369,0.977,0.369c0.355,0,0.704-0.125,0.963-0.379c0.513-0.502,0.502-1.34-0.022-1.866
	C68.735,84.593,68.355,84.453,67.98,84.453"/>
<path fill="#5B5B5B" d="M44.314,76.266c-0.341,0-0.68,0.125-0.956,0.376c-0.569,0.525-0.588,1.345-0.042,1.917
	c0.307,0.32,0.703,0.482,1.092,0.482c0.342,0,0.678-0.125,0.952-0.376c0.574-0.524,0.588-1.345,0.045-1.916
	C45.1,76.428,44.704,76.266,44.314,76.266"/>
<path fill="#5B5B5B" d="M36.382,68.504c-0.34,0-0.676,0.125-0.951,0.373c-0.595,0.541-0.597,1.392,0,1.969
	c0.298,0.291,0.673,0.437,1.043,0.437c0.339,0,0.676-0.124,0.949-0.371c0.596-0.542,0.594-1.393-0.003-1.971
	C37.124,68.651,36.751,68.504,36.382,68.504"/>
<path fill="#5B5B5B" d="M83.197,16.532c-0.402,0-0.8,0.134-1.1,0.402c-0.641,0.583-0.641,1.657,0.003,2.28
	c0.327,0.315,0.773,0.474,1.214,0.474c0.402,0,0.799-0.132,1.099-0.403c0.643-0.578,0.641-1.652-0.003-2.276
	C84.082,16.69,83.638,16.532,83.197,16.532"/>
<path fill="#5B5B5B" d="M99.069,32.051c-0.412,0-0.822,0.142-1.122,0.425c-0.633,0.595-0.611,1.67,0.047,2.276
	c0.325,0.302,0.762,0.455,1.19,0.455c0.413,0,0.82-0.142,1.119-0.425c0.629-0.597,0.607-1.67-0.045-2.278
	C99.932,32.204,99.498,32.051,99.069,32.051"/>
<path fill="#5B5B5B" d="M51.73,15.716c-0.407,0-0.811,0.144-1.13,0.433c-0.683,0.622-0.697,1.648-0.033,2.321
	c0.356,0.358,0.82,0.541,1.282,0.541c0.408,0,0.813-0.144,1.132-0.434c0.68-0.625,0.694-1.645,0.028-2.319
	C52.655,15.898,52.19,15.716,51.73,15.716"/>
<path fill="#5B5B5B" d="M99.335,62.274c-0.385,0-0.767,0.125-1.075,0.385c-0.708,0.597-0.766,1.627-0.134,2.316
	c0.36,0.392,0.852,0.593,1.337,0.593c0.383,0,0.764-0.126,1.074-0.385c0.709-0.599,0.765-1.625,0.135-2.315
	C100.315,62.475,99.823,62.274,99.335,62.274"/>
<path fill="#5B5B5B" d="M36.027,30.34c-0.44,0-0.875,0.166-1.213,0.499c-0.663,0.648-0.645,1.657,0.035,2.334
	c0.364,0.364,0.832,0.547,1.294,0.547c0.428,0,0.851-0.156,1.186-0.474c0.692-0.66,0.679-1.701-0.038-2.388
	C36.93,30.513,36.478,30.34,36.027,30.34"/>
<path fill="#5B5B5B" d="M83.638,76.876c-0.416,0-0.829,0.138-1.155,0.42c-0.712,0.61-0.758,1.68-0.102,2.399
	c0.362,0.399,0.869,0.602,1.372,0.602c0.427,0,0.85-0.147,1.182-0.445c0.693-0.628,0.716-1.703,0.05-2.406
	C84.624,77.069,84.129,76.876,83.638,76.876"/>
<path fill="#5B5B5B" d="M91.13,24.122c-0.459,0-0.914,0.155-1.248,0.471c-0.682,0.643-0.678,1.788,0.007,2.48
	c0.361,0.363,0.863,0.548,1.361,0.548c0.444,0,0.885-0.146,1.218-0.444c0.7-0.627,0.722-1.772,0.048-2.482
	C92.157,24.314,91.642,24.122,91.13,24.122"/>
<path fill="#5B5B5B" d="M52.165,76.069c-0.462,0-0.921,0.162-1.261,0.488c-0.705,0.674-0.685,1.832,0.047,2.526
	c0.368,0.351,0.857,0.525,1.339,0.525c0.475,0,0.945-0.17,1.287-0.511c0.671-0.667,0.65-1.786-0.044-2.474
	C53.163,76.255,52.66,76.069,52.165,76.069"/>
<path fill="#5B5B5B" d="M36.293,60.552c-0.462,0-0.917,0.16-1.257,0.485c-0.706,0.674-0.686,1.834,0.047,2.529
	c0.367,0.35,0.854,0.525,1.336,0.525c0.476,0,0.945-0.171,1.287-0.513c0.669-0.667,0.651-1.787-0.044-2.474
	C37.291,60.737,36.789,60.552,36.293,60.552"/>
<path fill="#5B5B5B" d="M99.134,39.368c-0.47,0-0.935,0.176-1.303,0.53c-0.728,0.704-0.721,1.792,0.011,2.533
	c0.398,0.404,0.91,0.609,1.415,0.609c0.458,0,0.909-0.167,1.27-0.505c0.765-0.715,0.763-1.831-0.009-2.588
	C100.122,39.561,99.626,39.368,99.134,39.368"/>
<path fill="#5B5B5B" d="M91.538,69.473c-0.443,0-0.879,0.156-1.233,0.47c-0.787,0.702-0.813,1.818-0.064,2.581
	c0.403,0.412,0.917,0.619,1.427,0.619c0.452,0,0.899-0.163,1.257-0.497c0.774-0.71,0.774-1.828,0.01-2.584
	C92.54,69.671,92.036,69.473,91.538,69.473"/>
<path fill="#5B5B5B" d="M75.324,16.072c-0.461,0-0.919,0.165-1.282,0.498c-0.78,0.715-0.767,1.893,0.025,2.646
	c0.392,0.373,0.891,0.56,1.385,0.56c0.476,0,0.946-0.173,1.31-0.521c0.74-0.712,0.733-1.849-0.024-2.595
	C76.344,16.27,75.832,16.072,75.324,16.072"/>
<path fill="#5B5B5B" d="M43.924,22.898c-0.457,0-0.909,0.16-1.27,0.484c-0.761,0.692-0.786,1.83-0.052,2.595
	c0.398,0.415,0.928,0.627,1.451,0.627c0.447,0,0.888-0.152,1.245-0.46c0.778-0.679,0.826-1.812,0.105-2.591
	C45.002,23.121,44.46,22.898,43.924,22.898"/>
<path fill="#5B5B5B" d="M59.588,15.681c-0.48,0-0.956,0.167-1.314,0.499c-0.755,0.7-0.743,1.93,0.017,2.668
	c0.39,0.38,0.914,0.57,1.433,0.57c0.495,0,0.981-0.174,1.341-0.524c0.737-0.72,0.702-1.951-0.071-2.669
	C60.603,15.862,60.094,15.681,59.588,15.681"/>
<path fill="#5B5B5B" d="M99.218,53.037c-0.85,0-1.692,0.29-2.328,0.877c-1.337,1.236-1.332,3.414,0.019,4.73
	c0.69,0.677,1.624,1.016,2.542,1.016c0.873,0,1.734-0.305,2.37-0.921c1.274-1.239,1.266-3.323-0.018-4.639
	C101.115,53.395,100.161,53.037,99.218,53.037"/>
<path fill="#5B5B5B" d="M44.224,68.153c-0.502,0-1,0.179-1.374,0.538c-0.765,0.735-0.744,1.974,0.045,2.732
	c0.404,0.388,0.938,0.585,1.467,0.585c0.503,0,1.001-0.179,1.372-0.539c0.765-0.737,0.747-1.975-0.046-2.735
	C45.284,68.347,44.751,68.153,44.224,68.153"/>
<path fill="#5B5B5B" d="M99.195,46.849c-0.492,0-0.976,0.169-1.346,0.513c-0.779,0.718-0.786,1.955-0.009,2.731
	c0.404,0.405,0.95,0.611,1.49,0.611c0.491,0,0.975-0.17,1.344-0.513c0.78-0.718,0.785-1.956,0.013-2.73
	C100.282,47.055,99.734,46.849,99.195,46.849"/>
<path fill="#5B5B5B" d="M67.455,15.79c-0.499,0-0.994,0.182-1.377,0.547c-0.779,0.748-0.771,1.948,0.025,2.731
	c0.416,0.41,0.953,0.616,1.487,0.616c0.509,0,1.014-0.188,1.402-0.57c0.765-0.756,0.732-1.96-0.076-2.732
	C68.505,15.987,67.977,15.79,67.455,15.79"/>
<path fill="#5B5B5B" d="M36.082,37.636c-0.493,0-0.982,0.179-1.369,0.542c-0.789,0.744-0.805,1.928-0.035,2.721
	c0.434,0.443,0.996,0.669,1.549,0.669c0.48,0,0.957-0.171,1.335-0.519c0.83-0.755,0.841-1.964,0.032-2.772
	C37.169,37.852,36.623,37.636,36.082,37.636"/>
<path fill="#5B5B5B" d="M75.754,76.433c-0.488,0-0.968,0.175-1.349,0.53c-0.823,0.76-0.826,1.967-0.008,2.774
	c0.422,0.417,0.966,0.629,1.503,0.629c0.479,0,0.951-0.167,1.326-0.504c0.833-0.751,0.857-1.962,0.061-2.772
	C76.857,76.655,76.302,76.433,75.754,76.433"/>
<path fill="#5B5B5B" d="M36.226,52.765c-0.515,0-1.022,0.193-1.419,0.58c-0.8,0.773-0.767,1.986,0.07,2.786
	c0.42,0.4,0.949,0.6,1.473,0.6c0.513,0,1.023-0.191,1.422-0.58c0.797-0.775,0.767-1.983-0.075-2.784
	C37.278,52.964,36.75,52.765,36.226,52.765"/>
<path fill="#5B5B5B" d="M60.027,76.026c-0.513,0-1.023,0.187-1.417,0.562c-0.815,0.782-0.788,2.046,0.067,2.847
	c0.42,0.394,0.954,0.592,1.483,0.592c0.515,0,1.023-0.188,1.416-0.563c0.797-0.76,0.793-1.985-0.013-2.794
	C61.137,76.242,60.581,76.026,60.027,76.026"/>
<path fill="#5B5B5B" d="M67.887,76.144c-0.534,0-1.063,0.186-1.462,0.562c-0.826,0.778-0.818,2.112,0.021,2.936
	c0.434,0.427,1.015,0.642,1.587,0.642c0.533,0,1.062-0.187,1.461-0.564c0.828-0.78,0.821-2.114-0.021-2.935
	C69.041,76.359,68.461,76.144,67.887,76.144"/>
<path fill="#5B5B5B" d="M36.146,45.122c-0.531,0-1.056,0.182-1.448,0.549c-0.825,0.776-0.805,2.146,0.041,2.949
	c0.427,0.404,0.996,0.607,1.556,0.607c0.531,0,1.056-0.183,1.448-0.55c0.827-0.775,0.811-2.143-0.041-2.947
	C37.274,45.326,36.707,45.122,36.146,45.122"/>
<path fill="#5B5B5B" d="M91.186,31.289c-0.538,0-1.072,0.186-1.49,0.564c-0.87,0.787-0.903,2.107-0.077,3
	c0.46,0.493,1.086,0.747,1.71,0.747c0.524,0,1.044-0.179,1.46-0.542c0.91-0.788,0.945-2.154,0.084-3.052
	C92.417,31.53,91.8,31.289,91.186,31.289"/>
<path fill="#5B5B5B" d="M83.248,23.527c-0.548,0-1.091,0.196-1.51,0.589c-0.882,0.824-0.873,2.19,0.024,3.057
	c0.456,0.443,1.052,0.667,1.641,0.667c0.561,0,1.116-0.204,1.536-0.613c0.859-0.841,0.826-2.211-0.082-3.06
	C84.403,23.742,83.822,23.527,83.248,23.527"/>
<path fill="#5B5B5B" d="M51.743,21.692c-0.836,0-1.664,0.291-2.288,0.878c-1.324,1.247-1.286,3.376,0.082,4.662
	c0.678,0.635,1.562,0.953,2.435,0.953c0.855,0,1.7-0.305,2.329-0.917c1.273-1.237,1.231-3.313-0.083-4.586
	C53.539,22.024,52.636,21.692,51.743,21.692"/>
<path fill="#5B5B5B" d="M91.455,61.514c-0.578,0-1.148,0.205-1.577,0.616c-0.876,0.837-0.864,2.255,0.026,3.132
	c0.467,0.46,1.091,0.694,1.708,0.694c0.564,0,1.124-0.196,1.548-0.592c0.894-0.821,0.908-2.237,0.027-3.131
	C92.718,61.755,92.083,61.514,91.455,61.514"/>
<path fill="#5B5B5B" d="M43.864,29.977c-0.546,0-1.087,0.188-1.516,0.572c-0.921,0.828-0.968,2.215-0.104,3.129
	c0.489,0.514,1.144,0.777,1.792,0.777c0.547,0,1.087-0.188,1.515-0.571c0.921-0.829,0.967-2.218,0.104-3.128
	C45.166,30.24,44.51,29.977,43.864,29.977"/>
<path fill="#5B5B5B" d="M83.544,68.758c-0.557,0-1.11,0.197-1.545,0.594c-0.942,0.863-0.955,2.262-0.032,3.183
	c0.487,0.488,1.116,0.732,1.736,0.732c0.567,0,1.131-0.205,1.573-0.618c0.929-0.874,0.917-2.271-0.023-3.187
	C84.774,68.995,84.157,68.758,83.544,68.758"/>
<path fill="#5B5B5B" d="M44.145,60.208c-0.601,0-1.192,0.219-1.645,0.659c-0.902,0.879-0.885,2.286,0.035,3.202
	c0.491,0.489,1.133,0.736,1.769,0.736c0.586,0,1.166-0.211,1.616-0.634c0.936-0.883,0.921-2.333-0.036-3.259
	C45.397,60.444,44.768,60.208,44.145,60.208"/>
<path fill="#5B5B5B" d="M52.083,67.954c-0.592,0-1.179,0.203-1.624,0.613c-0.932,0.854-0.935,2.353-0.01,3.283
	c0.482,0.485,1.139,0.73,1.79,0.73c0.591,0,1.177-0.203,1.624-0.612c0.929-0.855,0.936-2.353,0.009-3.284
	C53.39,68.199,52.732,67.954,52.083,67.954"/>
<path fill="#5B5B5B" d="M75.375,23.088c-0.609,0-1.21,0.221-1.684,0.664c-0.986,0.928-0.978,2.413,0.016,3.39
	c0.515,0.508,1.177,0.764,1.834,0.764c0.609,0,1.211-0.22,1.685-0.664c0.982-0.927,0.976-2.411-0.014-3.386
	C76.694,23.345,76.03,23.088,75.375,23.088"/>
<path fill="#5B5B5B" d="M91.238,38.607c-0.591,0-1.174,0.209-1.636,0.63c-1.007,0.917-1.038,2.402-0.063,3.384
	c0.524,0.533,1.208,0.804,1.88,0.804c0.589,0,1.174-0.208,1.637-0.629c1.008-0.917,1.032-2.403,0.064-3.385
	C92.593,38.877,91.911,38.607,91.238,38.607"/>
<path fill="#5B5B5B" d="M91.382,53.723c-0.619,0-1.231,0.227-1.712,0.684c-0.984,0.93-0.983,2.414,0.002,3.4
	c0.525,0.527,1.205,0.793,1.878,0.793c0.62,0,1.231-0.226,1.711-0.683c0.98-0.932,0.98-2.416-0.005-3.403
	C92.732,53.989,92.053,53.723,91.382,53.723"/>
<path fill="#5B5B5B" d="M59.64,22.688c-0.625,0-1.245,0.23-1.729,0.696c-0.971,0.936-0.956,2.417,0.04,3.402
	c0.521,0.516,1.19,0.775,1.854,0.775c0.628,0,1.25-0.231,1.732-0.698c0.973-0.938,0.958-2.417-0.037-3.4
	C60.978,22.947,60.307,22.688,59.64,22.688"/>
<path fill="#5B5B5B" d="M43.926,37.297c-0.654,0-1.3,0.228-1.777,0.688c-0.979,0.949-0.953,2.574,0.059,3.546
	c0.521,0.5,1.216,0.751,1.901,0.751c0.655,0,1.301-0.229,1.778-0.689c0.98-0.946,0.954-2.573-0.061-3.545
	C45.309,37.548,44.613,37.297,43.926,37.297"/>
<path fill="#5B5B5B" d="M75.647,67.657c-0.797,0-1.588,0.268-2.193,0.812c-1.31,1.175-1.317,3.274-0.016,4.551
	c0.66,0.65,1.55,0.979,2.431,0.979c0.813,0,1.618-0.281,2.227-0.845c1.265-1.177,1.276-3.214,0.016-4.486
	C77.452,67.996,76.546,67.657,75.647,67.657"/>
<path fill="#5B5B5B" d="M44.063,52.413c-0.637,0-1.268,0.218-1.751,0.664c-1.014,0.928-1.036,2.526-0.052,3.545
	c0.534,0.554,1.264,0.835,1.985,0.835c0.639,0,1.27-0.22,1.754-0.665c1.013-0.93,1.037-2.527,0.05-3.546
	C45.515,52.694,44.786,52.413,44.063,52.413"/>
<path fill="#5B5B5B" d="M91.304,46.083c-0.663,0-1.318,0.235-1.8,0.707c-0.974,0.957-0.942,2.574,0.077,3.548
	c0.52,0.503,1.219,0.757,1.907,0.757c0.65,0,1.293-0.227,1.772-0.684c0.992-0.938,0.98-2.551-0.019-3.544
	C92.717,46.345,92.007,46.083,91.304,46.083"/>
<path fill="#5B5B5B" d="M67.5,22.806c-0.667,0-1.324,0.235-1.806,0.709c-0.975,0.957-0.938,2.572,0.078,3.547
	c0.522,0.502,1.219,0.755,1.908,0.755c0.652,0,1.294-0.227,1.777-0.685c0.988-0.939,0.978-2.554-0.023-3.546
	C68.91,23.067,68.201,22.806,67.5,22.806"/>
<path fill="#5B5B5B" d="M59.933,67.915c-0.634,0-1.26,0.223-1.749,0.672c-1.048,0.964-1.063,2.56-0.027,3.59
	c0.544,0.54,1.254,0.814,1.958,0.814c0.645,0,1.283-0.23,1.779-0.696c1.031-0.976,1.02-2.57-0.029-3.592
	C61.329,68.179,60.626,67.915,59.933,67.915"/>
<path fill="#5B5B5B" d="M83.3,30.675c-0.633,0-1.26,0.223-1.754,0.673c-1.09,0.983-1.114,2.577-0.063,3.64
	c0.561,0.564,1.283,0.85,2,0.85c0.643,0,1.282-0.232,1.784-0.701c1.073-0.991,1.075-2.583,0.007-3.64
	C84.721,30.953,84.006,30.675,83.3,30.675"/>
<path fill="#5B5B5B" d="M43.962,43.728c-0.92,0-1.833,0.333-2.543,1.002c-1.481,1.388-1.473,3.642,0.022,5.114
	c0.774,0.764,1.776,1.15,2.768,1.15c0.923,0,1.835-0.333,2.547-1.001c1.481-1.39,1.472-3.641-0.021-5.114
	C45.957,44.113,44.954,43.728,43.962,43.728"/>
<path fill="#5B5B5B" d="M67.797,68.035c-0.678,0-1.346,0.242-1.851,0.726c-1.03,0.994-1.011,2.644,0.045,3.679
	c0.549,0.536,1.277,0.807,1.997,0.807c0.692,0,1.374-0.25,1.876-0.751c1.018-1.016,0.971-2.665-0.099-3.679
	C69.217,68.296,68.502,68.035,67.797,68.035"/>
<path fill="#5B5B5B" d="M83.576,60.919c-0.681,0-1.354,0.231-1.858,0.703c-1.049,0.973-1.042,2.697,0.011,3.74
	c0.543,0.542,1.289,0.815,2.028,0.815c0.682,0,1.356-0.232,1.861-0.703c1.046-0.976,1.036-2.698-0.012-3.741
	C85.06,61.192,84.314,60.919,83.576,60.919"/>
<path fill="#5B5B5B" d="M51.831,29.88c-0.683,0-1.359,0.234-1.862,0.709c-1.042,0.982-1.028,2.704,0.027,3.743
	c0.545,0.537,1.289,0.808,2.022,0.808c0.684,0,1.36-0.235,1.861-0.71c1.046-0.984,1.033-2.705-0.022-3.743
	C53.31,30.151,52.566,29.88,51.831,29.88"/>
<path fill="#5B5B5B" d="M52.006,59.99c-0.714,0-1.423,0.271-1.969,0.811c-1.059,1.044-0.995,2.719,0.141,3.794
	c0.563,0.534,1.281,0.802,1.996,0.802c0.705,0,1.405-0.261,1.944-0.784c1.07-1.042,1.032-2.713-0.088-3.794
	C53.457,60.266,52.729,59.99,52.006,59.99"/>
<path fill="#5B5B5B" d="M83.359,37.972c-0.717,0-1.428,0.257-1.982,0.772c-1.185,1.107-1.178,2.884,0.016,4.048
	c0.609,0.597,1.395,0.897,2.169,0.897c0.716,0,1.426-0.256,1.983-0.773c1.182-1.108,1.178-2.884-0.018-4.05
	C84.92,38.272,84.136,37.972,83.359,37.972"/>
<path fill="#5B5B5B" d="M75.423,30.211c-0.711,0-1.412,0.252-1.963,0.76c-1.197,1.101-1.202,2.879-0.02,4.047
	c0.614,0.603,1.407,0.909,2.189,0.909c0.711,0,1.412-0.251,1.964-0.76c1.194-1.1,1.202-2.877,0.019-4.046
	C77,30.518,76.205,30.211,75.423,30.211"/>
<path fill="#5B5B5B" d="M59.682,29.466c-0.81,0-1.612,0.287-2.244,0.866c-1.319,1.213-1.335,3.215-0.039,4.536
	c0.689,0.703,1.6,1.059,2.502,1.059c0.822,0,1.64-0.295,2.272-0.896c1.306-1.229,1.297-3.229-0.017-4.536
	C61.468,29.812,60.57,29.466,59.682,29.466"/>
<path fill="#5B5B5B" d="M83.501,53.093c-0.732,0-1.455,0.266-2.021,0.799c-1.176,1.106-1.168,2.885,0.02,4.055
	c0.616,0.606,1.409,0.912,2.195,0.912c0.728,0,1.451-0.265,2.019-0.797c1.178-1.107,1.167-2.887-0.019-4.054
	C85.079,53.399,84.285,53.093,83.501,53.093"/>
<path fill="#5B5B5B" d="M51.79,37.06c-0.734,0-1.462,0.249-2.029,0.751c-1.191,1.059-1.208,2.965-0.038,4.154
	c0.604,0.614,1.434,0.925,2.259,0.925c0.749,0,1.493-0.257,2.055-0.776c1.174-1.087,1.166-2.993-0.019-4.156
	C53.411,37.361,52.597,37.06,51.79,37.06"/>
<path fill="#5B5B5B" d="M75.592,60.329c-0.755,0-1.506,0.258-2.069,0.78c-1.164,1.083-1.164,2.974-0.003,4.148
	c0.607,0.612,1.439,0.923,2.266,0.923c0.742,0,1.479-0.25,2.042-0.758c1.179-1.055,1.203-2.945,0.058-4.145
	C77.284,60.647,76.436,60.329,75.592,60.329"/>
<path fill="#5B5B5B" d="M51.917,52.169c-0.739,0-1.472,0.25-2.038,0.754c-1.207,1.082-1.233,3.003-0.054,4.2
	c0.618,0.63,1.464,0.949,2.3,0.949c0.752,0,1.498-0.257,2.065-0.781c1.195-1.098,1.195-3.017,0.002-4.203
	C53.578,52.479,52.744,52.169,51.917,52.169"/>
<path fill="#5B5B5B" d="M67.554,29.917c-0.773,0-1.54,0.275-2.116,0.831c-1.178,1.133-1.142,3.029,0.078,4.203
	c0.621,0.599,1.439,0.898,2.248,0.898c0.775,0,1.539-0.274,2.117-0.83c1.172-1.135,1.141-3.028-0.08-4.204
	C69.181,30.217,68.364,29.917,67.554,29.917"/>
<path fill="#5B5B5B" d="M83.422,45.435c-0.761,0-1.512,0.268-2.084,0.806c-1.193,1.12-1.185,3.016,0.02,4.202
	c0.626,0.616,1.456,0.927,2.277,0.927c0.761,0,1.514-0.268,2.087-0.805c1.192-1.119,1.185-3.017-0.021-4.2
	C85.078,45.746,84.245,45.435,83.422,45.435"/>
<path fill="#5B5B5B" d="M59.856,59.914c-0.774,0-1.54,0.276-2.116,0.83c-1.18,1.132-1.147,3.029,0.069,4.203
	c0.621,0.598,1.441,0.899,2.25,0.899c0.773,0,1.54-0.275,2.116-0.829c1.181-1.133,1.148-3.026-0.072-4.202
	C61.483,60.216,60.665,59.914,59.856,59.914"/>
<path fill="#5B5B5B" d="M51.846,44.511c-0.765,0-1.525,0.272-2.117,0.823c-1.255,1.165-1.24,3.097,0.04,4.322
	c0.643,0.619,1.47,0.931,2.289,0.931c0.779,0,1.55-0.281,2.146-0.849c1.221-1.166,1.207-3.048-0.037-4.27
	C53.52,44.832,52.679,44.511,51.846,44.511"/>
<path fill="#5B5B5B" d="M67.723,60.018c-0.771,0-1.533,0.269-2.127,0.812c-1.253,1.145-1.25,3.105,0.003,4.338
	c0.644,0.63,1.488,0.948,2.328,0.948c0.768,0,1.531-0.268,2.123-0.812c1.254-1.144,1.252-3.103-0.003-4.336
	C69.402,60.336,68.559,60.018,67.723,60.018"/>
<path fill="#5B5B5B" d="M75.489,37.454c-0.8,0-1.591,0.283-2.214,0.854c-1.324,1.211-1.325,3.217-0.005,4.52
	c0.679,0.668,1.561,1.005,2.434,1.005c0.797,0,1.586-0.282,2.209-0.852c1.32-1.215,1.323-3.222,0.003-4.521
	C77.24,37.792,76.361,37.454,75.489,37.454"/>
<path fill="#5B5B5B" d="M75.624,52.763c-0.78,0-1.552,0.27-2.135,0.815c-1.219,1.141-1.194,3.132,0.049,4.324
	c0.633,0.607,1.472,0.914,2.302,0.914c0.782,0,1.553-0.271,2.136-0.817c1.219-1.138,1.197-3.13-0.047-4.324
	C77.295,53.069,76.454,52.763,75.624,52.763"/>
<path fill="#5B5B5B" d="M59.75,37.029c-0.824,0-1.642,0.281-2.264,0.848c-1.314,1.195-1.321,3.308-0.019,4.612
	c0.677,0.678,1.596,1.021,2.506,1.021c0.836,0,1.664-0.29,2.288-0.873c1.28-1.197,1.288-3.256,0.022-4.56
	C61.607,37.382,60.674,37.029,59.75,37.029"/>
<path fill="#5B5B5B" d="M59.772,52.02c-0.831,0-1.654,0.294-2.29,0.889c-1.349,1.258-1.346,3.32,0.007,4.649
	c0.701,0.69,1.611,1.039,2.514,1.039c0.838,0,1.672-0.303,2.315-0.915c1.336-1.264,1.311-3.323-0.058-4.65
	C61.567,52.358,60.665,52.02,59.772,52.02"/>
<path fill="#5B5B5B" d="M75.584,45.902c-0.595,0-1.184,0.209-1.632,0.631c-0.928,0.872-0.919,2.349,0.02,3.276
	c0.485,0.479,1.129,0.72,1.768,0.72c0.595,0,1.185-0.209,1.632-0.631c0.93-0.873,0.922-2.349-0.019-3.273
	C76.869,46.145,76.224,45.902,75.584,45.902"/>
<path fill="#5B5B5B" d="M67.621,37.098c-0.849,0-1.694,0.29-2.348,0.875c-1.376,1.235-1.38,3.457-0.002,4.807
	c0.704,0.688,1.642,1.037,2.573,1.037c0.862,0,1.715-0.298,2.367-0.902c1.339-1.247,1.34-3.396,0.003-4.754
	C69.516,37.455,68.565,37.098,67.621,37.098"/>
<path fill="#5B5B5B" d="M59.743,45.567c-0.555,0-1.105,0.196-1.522,0.592c-0.868,0.812-0.869,2.185-0.006,3.05
	c0.46,0.461,1.076,0.695,1.684,0.695c0.556,0,1.105-0.195,1.525-0.589c0.865-0.813,0.865-2.187,0-3.053
	C60.964,45.801,60.35,45.567,59.743,45.567"/>
<path fill="#5B5B5B" d="M67.654,52.594c-0.735,0-1.461,0.259-2.022,0.782c-1.187,1.108-1.183,2.934,0.003,4.106
	c0.618,0.607,1.423,0.912,2.22,0.912c0.743,0,1.478-0.266,2.045-0.804c1.174-1.112,1.152-2.938-0.05-4.104
	C69.242,52.892,68.443,52.594,67.654,52.594"/>
<path fill="#5B5B5B" d="M67.675,44.438c-0.918,0-1.829,0.333-2.533,1c-1.451,1.375-1.427,3.617,0.054,5.063
	c0.759,0.745,1.746,1.119,2.723,1.119c0.918,0,1.829-0.332,2.531-1c1.456-1.376,1.429-3.618-0.05-5.064
	C69.639,44.812,68.652,44.438,67.675,44.438"/>
<path fill="#5B5B5B" d="M28.643,75.167c-0.174,0-0.346,0.077-0.5,0.226c-0.336,0.324-0.329,0.696,0.02,1.028
	c0.171,0.162,0.346,0.234,0.52,0.234c0.185,0,0.371-0.083,0.546-0.236c0.301-0.367,0.279-0.729-0.083-1.041
	C28.982,75.238,28.81,75.167,28.643,75.167"/>
<path fill="#5B5B5B" d="M81.648,67.837c-0.223,0-0.442,0.101-0.642,0.302c-0.398,0.399-0.37,0.85,0.057,1.244
	c0.208,0.194,0.42,0.284,0.633,0.284c0.224,0,0.446-0.1,0.661-0.285c0.364-0.425,0.364-0.861-0.062-1.253
	C82.086,67.933,81.866,67.837,81.648,67.837"/>
<path fill="#5B5B5B" d="M108.51,94.088c-0.195,0-0.398,0.074-0.603,0.219c-0.394,0.379-0.472,0.813-0.081,1.248
	c0.213,0.237,0.456,0.361,0.704,0.361c0.194,0,0.394-0.076,0.585-0.236c0.43-0.35,0.48-0.801,0.092-1.238
	C108.993,94.205,108.759,94.088,108.51,94.088"/>
<path fill="#5B5B5B" d="M46.812,152.04c-0.275,0-0.547,0.083-0.756,0.256c-0.475,0.396-0.492,1.203-0.032,1.655
	c0.231,0.225,0.556,0.341,0.875,0.341c0.289,0,0.576-0.095,0.788-0.287c0.438-0.399,0.455-1.146,0.03-1.597
	C47.486,152.165,47.148,152.04,46.812,152.04"/>
<path fill="#5B5B5B" d="M19.979,125.796c-0.299,0-0.596,0.1-0.807,0.302c-0.431,0.412-0.428,1.158,0.006,1.599
	c0.228,0.232,0.557,0.35,0.883,0.35c0.284,0,0.563-0.089,0.775-0.272c0.443-0.389,0.471-1.141,0.059-1.594
	C20.666,125.926,20.319,125.796,19.979,125.796"/>
<path fill="#5B5B5B" d="M72.766,67.385c-0.296,0-0.59,0.098-0.81,0.298c-0.465,0.427-0.469,1.192-0.011,1.656
	c0.24,0.243,0.576,0.366,0.906,0.366c0.297,0,0.593-0.099,0.812-0.299c0.467-0.424,0.468-1.192,0.014-1.654
	C73.436,67.508,73.099,67.383,72.766,67.385"/>
<path fill="#5B5B5B" d="M108.553,102.375c-0.321,0-0.635,0.114-0.858,0.34c-0.438,0.45-0.403,1.219,0.074,1.655
	c0.239,0.216,0.554,0.324,0.865,0.324c0.318,0,0.634-0.113,0.857-0.339c0.439-0.448,0.404-1.219-0.077-1.657
	C109.176,102.483,108.864,102.375,108.553,102.375"/>
<path fill="#5B5B5B" d="M108.619,110.765c-0.333,0-0.665,0.109-0.909,0.327c-0.527,0.476-0.534,1.369-0.012,1.886
	c0.27,0.269,0.647,0.402,1.019,0.402c0.351,0,0.696-0.118,0.942-0.358c0.512-0.495,0.487-1.387-0.05-1.886
	C109.341,110.889,108.977,110.765,108.619,110.765"/>
<path fill="#5B5B5B" d="M63.894,67.028c-0.339,0-0.675,0.111-0.917,0.335c-0.524,0.479-0.525,1.373,0,1.885
	c0.271,0.263,0.644,0.394,1.014,0.394c0.352,0,0.7-0.121,0.948-0.363c0.508-0.5,0.476-1.396-0.065-1.888
	C64.608,67.149,64.248,67.028,63.894,67.028"/>
<path fill="#5B5B5B" d="M99.243,84.897c-0.219,0-0.427,0.124-0.677,0.36c-0.575,0.538-0.572,1.365,0.008,1.933
	c0.299,0.292,0.67,0.439,1.039,0.439c0.347,0,0.691-0.132,0.969-0.396c0.576-0.546,0.524-0.892-0.249-1.645
	C99.854,85.119,99.539,84.897,99.243,84.897"/>
<path fill="#5B5B5B" d="M90.294,76.15c-0.224,0-0.433,0.125-0.687,0.367c-0.564,0.545-0.553,1.37,0.032,1.935
	c0.295,0.285,0.666,0.43,1.029,0.43c0.354,0,0.701-0.136,0.979-0.407c0.564-0.545,0.51-0.885-0.268-1.644
	C90.908,76.37,90.59,76.15,90.294,76.15"/>
<path fill="#5B5B5B" d="M99.988,136.094c-0.338,0-0.672,0.123-0.947,0.371c-0.576,0.532-0.588,1.356-0.023,1.931
	c0.303,0.303,0.685,0.456,1.062,0.456c0.338,0,0.673-0.123,0.942-0.371c0.583-0.526,0.593-1.355,0.026-1.929
	C100.748,136.249,100.368,136.094,99.988,136.094"/>
<path fill="#5B5B5B" d="M37.369,74.862c-0.335,0-0.667,0.121-0.938,0.366c-0.581,0.527-0.599,1.354-0.035,1.927
	c0.301,0.309,0.688,0.466,1.069,0.466c0.334,0,0.667-0.122,0.937-0.365c0.583-0.527,0.596-1.355,0.035-1.93
	C38.135,75.019,37.75,74.862,37.369,74.862"/>
<path fill="#5B5B5B" d="M28.453,83.066c-0.334,0-0.667,0.121-0.936,0.365c-0.585,0.529-0.599,1.357-0.04,1.929
	c0.303,0.309,0.688,0.465,1.068,0.465c0.336,0,0.668-0.121,0.938-0.365c0.585-0.527,0.601-1.354,0.04-1.928
	C29.22,83.223,28.834,83.066,28.453,83.066"/>
<path fill="#5B5B5B" d="M55.672,151.965c-0.338,0-0.671,0.116-0.942,0.355c-0.611,0.535-0.628,1.415-0.039,2.007
	c0.301,0.302,0.694,0.455,1.082,0.455c0.338,0,0.673-0.116,0.942-0.354c0.616-0.535,0.636-1.413,0.043-2.006
	C56.455,152.12,56.062,151.965,55.672,151.965"/>
<path fill="#5B5B5B" d="M91.07,144.269c-0.356,0-0.707,0.13-0.987,0.392c-0.586,0.558-0.566,1.438,0.045,2.011
	c0.299,0.278,0.673,0.416,1.042,0.416c0.356,0,0.708-0.13,0.986-0.39c0.584-0.558,0.565-1.441-0.048-2.014
	C91.811,144.409,91.44,144.269,91.07,144.269"/>
<path fill="#5B5B5B" d="M73.404,152.324c-0.387,0-0.769,0.13-1.046,0.391c-0.556,0.526-0.572,1.473-0.03,2.06
	c0.301,0.327,0.747,0.495,1.187,0.495c0.37,0,0.738-0.12,1.016-0.362c0.602-0.528,0.611-1.525,0.033-2.118
	C74.26,152.48,73.828,152.324,73.404,152.324"/>
<path fill="#5B5B5B" d="M64.538,152.082c-0.398,0-0.79,0.142-1.082,0.427c-0.603,0.588-0.559,1.583,0.086,2.164
	c0.309,0.279,0.708,0.416,1.1,0.416c0.401,0,0.795-0.142,1.086-0.426c0.579-0.566,0.567-1.513-0.025-2.104
	C65.388,152.242,64.959,152.082,64.538,152.082"/>
<path fill="#5B5B5B" d="M37.857,142.853c-0.385,0-0.767,0.14-1.078,0.424c-0.641,0.591-0.662,1.517-0.046,2.16
	c0.345,0.36,0.792,0.545,1.231,0.545c0.386,0,0.765-0.141,1.074-0.424c0.646-0.593,0.663-1.517,0.05-2.16
	C38.743,143.036,38.297,142.853,37.857,142.853"/>
<path fill="#5B5B5B" d="M28.914,134.104c-0.383,0-0.762,0.139-1.071,0.419c-0.67,0.609-0.673,1.568,0,2.22
	c0.336,0.326,0.759,0.492,1.176,0.492c0.382,0,0.762-0.138,1.069-0.419c0.673-0.609,0.671-1.569-0.001-2.22
	C29.752,134.269,29.331,134.104,28.914,134.104"/>
<path fill="#5B5B5B" d="M81.692,75.513c-0.454,0-0.903,0.15-1.241,0.453c-0.722,0.658-0.722,1.868,0.003,2.57
	c0.369,0.356,0.872,0.535,1.368,0.535c0.455,0,0.902-0.149,1.237-0.454c0.726-0.653,0.724-1.865-0.002-2.567
	C82.689,75.692,82.188,75.513,81.692,75.513"/>
<path fill="#5B5B5B" d="M99.585,93.008c-0.465,0-0.926,0.16-1.265,0.479c-0.713,0.67-0.688,1.883,0.053,2.566
	c0.368,0.341,0.859,0.512,1.341,0.512c0.465,0,0.925-0.157,1.261-0.477c0.71-0.673,0.685-1.883-0.051-2.569
	C100.557,93.181,100.067,93.008,99.585,93.008"/>
<path fill="#5B5B5B" d="M46.217,74.593c-0.459,0-0.915,0.162-1.275,0.489c-0.77,0.701-0.786,1.858-0.037,2.616
	c0.401,0.404,0.925,0.609,1.445,0.609c0.459,0,0.917-0.162,1.276-0.488c0.766-0.705,0.782-1.856,0.03-2.615
	C47.259,74.799,46.735,74.593,46.217,74.593"/>
<path fill="#5B5B5B" d="M99.884,127.081c-0.435,0-0.865,0.141-1.212,0.433c-0.798,0.674-0.862,1.834-0.151,2.611
	c0.407,0.441,0.959,0.67,1.507,0.67c0.432,0,0.862-0.144,1.211-0.436c0.799-0.676,0.863-1.832,0.152-2.611
	C100.989,127.306,100.434,127.081,99.884,127.081"/>
<path fill="#5B5B5B" d="M28.516,91.079c-0.496,0-0.988,0.186-1.368,0.562c-0.748,0.731-0.728,1.867,0.039,2.632
	c0.41,0.409,0.939,0.615,1.458,0.615c0.483,0,0.96-0.176,1.337-0.534c0.78-0.743,0.765-1.917-0.043-2.692
	C29.532,91.273,29.022,91.079,28.516,91.079"/>
<path fill="#5B5B5B" d="M82.188,143.54c-0.47,0-0.935,0.156-1.302,0.475c-0.804,0.688-0.854,1.893-0.115,2.705
	c0.408,0.448,0.979,0.679,1.546,0.679c0.481,0,0.958-0.166,1.331-0.502c0.782-0.708,0.808-1.921,0.057-2.712
	C83.299,143.759,82.741,143.54,82.188,143.54"/>
<path fill="#5B5B5B" d="M90.634,84.068c-0.518,0-1.029,0.175-1.408,0.531c-0.768,0.725-0.765,2.016,0.007,2.796
	c0.408,0.411,0.974,0.616,1.535,0.616c0.5,0,0.997-0.164,1.373-0.499c0.788-0.707,0.813-1.998,0.055-2.797
	C91.792,84.286,91.211,84.068,90.634,84.068"/>
<path fill="#5B5B5B" d="M46.708,142.631c-0.522,0-1.038,0.182-1.421,0.549c-0.797,0.761-0.773,2.066,0.052,2.85
	c0.415,0.395,0.967,0.592,1.509,0.592c0.536,0,1.066-0.191,1.451-0.576c0.756-0.753,0.733-2.014-0.049-2.789
	C47.833,142.839,47.266,142.631,46.708,142.631"/>
<path fill="#5B5B5B" d="M28.815,125.136c-0.521,0-1.034,0.182-1.418,0.549c-0.795,0.761-0.773,2.068,0.052,2.851
	c0.416,0.396,0.964,0.594,1.508,0.594c0.536,0,1.066-0.193,1.452-0.578c0.754-0.753,0.733-2.016-0.052-2.791
	C29.938,125.345,29.374,125.136,28.815,125.136"/>
<path fill="#5B5B5B" d="M99.657,101.256c-0.53,0-1.054,0.199-1.468,0.598c-0.821,0.793-0.813,2.02,0.012,2.855
	c0.45,0.455,1.026,0.686,1.596,0.686c0.516,0,1.023-0.189,1.43-0.569c0.862-0.805,0.86-2.065-0.01-2.917
	C100.772,101.474,100.213,101.256,99.657,101.256"/>
<path fill="#5B5B5B" d="M91.094,135.196c-0.499,0-0.991,0.175-1.39,0.53c-0.888,0.79-0.917,2.049-0.072,2.908
	c0.454,0.463,1.033,0.699,1.609,0.699c0.508,0,1.013-0.185,1.417-0.562c0.872-0.8,0.872-2.06,0.011-2.913
	C92.224,135.418,91.655,135.196,91.094,135.196"/>
<path fill="#5B5B5B" d="M72.815,74.995c-0.52,0-1.036,0.186-1.445,0.561c-0.879,0.806-0.864,2.134,0.027,2.983
	c0.442,0.42,1.005,0.631,1.562,0.631c0.536,0,1.067-0.195,1.476-0.588c0.835-0.802,0.827-2.083-0.027-2.924
	C73.964,75.217,73.388,74.995,72.815,74.995"/>
<path fill="#5B5B5B" d="M37.418,82.688c-0.515,0-1.025,0.182-1.432,0.547c-0.858,0.778-0.886,2.062-0.059,2.925
	c0.45,0.467,1.046,0.706,1.637,0.706c0.502,0,1.001-0.171,1.402-0.519c0.877-0.767,0.933-2.043,0.119-2.921
	C38.631,82.94,38.021,82.688,37.418,82.688"/>
<path fill="#5B5B5B" d="M55.076,74.553c-0.542,0-1.077,0.188-1.482,0.562c-0.851,0.79-0.837,2.176,0.019,3.009
	c0.441,0.428,1.032,0.642,1.615,0.642c0.558,0,1.107-0.196,1.512-0.591c0.831-0.812,0.792-2.198-0.08-3.009
	C56.22,74.757,55.645,74.553,55.076,74.553"/>
<path fill="#5B5B5B" d="M99.751,116.667c-0.958,0-1.906,0.326-2.624,0.99c-1.508,1.391-1.501,3.848,0.021,5.331
	c0.778,0.764,1.831,1.146,2.866,1.146c0.984,0,1.955-0.343,2.671-1.038c1.437-1.396,1.428-3.746-0.02-5.229
	C101.89,117.069,100.815,116.667,99.751,116.667"/>
<path fill="#5B5B5B" d="M37.756,133.707c-0.567,0-1.129,0.201-1.549,0.606c-0.862,0.829-0.838,2.226,0.052,3.08
	c0.456,0.44,1.058,0.661,1.653,0.661c0.567,0,1.129-0.203,1.547-0.607c0.862-0.831,0.84-2.227-0.053-3.084
	C38.95,133.925,38.35,133.707,37.756,133.707"/>
<path fill="#5B5B5B" d="M99.726,109.691c-0.553,0-1.1,0.19-1.517,0.576c-0.878,0.81-0.886,2.205-0.01,3.079
	c0.457,0.458,1.071,0.689,1.679,0.689c0.554,0,1.1-0.191,1.515-0.578c0.88-0.811,0.886-2.206,0.016-3.078
	C100.951,109.921,100.333,109.691,99.726,109.691"/>
<path fill="#5B5B5B" d="M63.945,74.676c-0.563,0-1.12,0.205-1.552,0.617c-0.881,0.842-0.871,2.194,0.027,3.079
	c0.469,0.462,1.075,0.695,1.676,0.695c0.575,0,1.143-0.214,1.582-0.644c0.861-0.852,0.825-2.209-0.086-3.08
	C65.128,74.899,64.533,74.676,63.945,74.676"/>
<path fill="#5B5B5B" d="M28.576,99.304c-0.555,0-1.106,0.203-1.542,0.612c-0.889,0.838-0.908,2.173-0.039,3.066
	c0.488,0.499,1.121,0.756,1.746,0.756c0.542,0,1.077-0.193,1.505-0.585c0.934-0.852,0.948-2.214,0.035-3.125
	C29.802,99.547,29.187,99.304,28.576,99.304"/>
<path fill="#5B5B5B" d="M73.3,143.042c-0.549,0-1.091,0.197-1.521,0.596c-0.927,0.858-0.931,2.22-0.01,3.128
	c0.477,0.471,1.089,0.709,1.694,0.709c0.541,0,1.072-0.189,1.496-0.568c0.939-0.847,0.967-2.212,0.068-3.124
	C74.544,143.292,73.918,143.042,73.3,143.042"/>
<path fill="#5B5B5B" d="M28.738,116.359c-0.579,0-1.151,0.218-1.599,0.655c-0.901,0.871-0.865,2.236,0.08,3.139
	c0.473,0.451,1.069,0.678,1.66,0.678c0.579,0,1.153-0.217,1.603-0.654c0.899-0.874,0.864-2.236-0.083-3.139
	C29.926,116.585,29.329,116.359,28.738,116.359"/>
<path fill="#5B5B5B" d="M55.571,142.582c-0.579,0-1.153,0.211-1.598,0.635c-0.919,0.881-0.887,2.307,0.076,3.209
	c0.473,0.445,1.075,0.668,1.671,0.668c0.582,0,1.154-0.213,1.596-0.635c0.899-0.857,0.896-2.237-0.013-3.15
	C56.822,142.826,56.194,142.582,55.571,142.582"/>
<path fill="#5B5B5B" d="M64.432,142.715c-0.603,0-1.199,0.21-1.649,0.633c-0.931,0.88-0.923,2.381,0.024,3.312
	c0.488,0.48,1.144,0.723,1.789,0.723c0.602,0,1.198-0.211,1.647-0.636c0.933-0.879,0.925-2.384-0.023-3.309
	C65.732,142.957,65.079,142.715,64.432,142.715"/>
<path fill="#5B5B5B" d="M28.649,107.745c-0.599,0-1.19,0.205-1.633,0.619c-0.931,0.874-0.907,2.418,0.048,3.324
	c0.48,0.455,1.122,0.684,1.753,0.684c0.598,0,1.191-0.205,1.633-0.62c0.932-0.875,0.913-2.417-0.048-3.323
	C29.921,107.973,29.28,107.745,28.649,107.745"/>
<path fill="#5B5B5B" d="M90.697,92.149c-0.606,0-1.208,0.21-1.679,0.636c-0.982,0.887-1.019,2.375-0.086,3.381
	c0.518,0.557,1.224,0.841,1.928,0.841c0.589,0,1.177-0.201,1.646-0.611c1.024-0.886,1.065-2.428,0.093-3.438
	C92.086,92.421,91.39,92.149,90.697,92.149"/>
<path fill="#5B5B5B" d="M81.749,83.399c-0.618,0-1.23,0.22-1.703,0.663c-0.994,0.929-0.984,2.47,0.027,3.447
	c0.514,0.499,1.187,0.751,1.85,0.751c0.634,0,1.259-0.23,1.732-0.691c0.967-0.949,0.93-2.493-0.092-3.45
	C83.05,83.64,82.396,83.399,81.749,83.399"/>
<path fill="#5B5B5B" d="M46.231,81.329c-0.942,0-1.875,0.33-2.579,0.992c-1.492,1.404-1.448,3.805,0.092,5.254
	c0.765,0.716,1.762,1.074,2.746,1.074c0.963,0,1.915-0.345,2.625-1.036c1.435-1.394,1.388-3.733-0.094-5.169
	C48.256,81.704,47.237,81.329,46.231,81.329"/>
<path fill="#5B5B5B" d="M91,126.222c-0.651,0-1.294,0.23-1.777,0.694c-0.988,0.944-0.974,2.541,0.029,3.532
	c0.526,0.52,1.23,0.781,1.926,0.781c0.635,0,1.267-0.221,1.745-0.666c1.008-0.928,1.023-2.524,0.03-3.53
	C92.425,126.496,91.708,126.222,91,126.222"/>
<path fill="#5B5B5B" d="M37.349,90.67c-0.616,0-1.226,0.212-1.709,0.645c-1.038,0.932-1.091,2.497-0.117,3.527
	c0.551,0.581,1.291,0.877,2.02,0.877c0.618,0,1.228-0.214,1.709-0.645c1.038-0.934,1.091-2.5,0.117-3.526
	C38.817,90.966,38.078,90.67,37.349,90.67"/>
<path fill="#5B5B5B" d="M82.082,134.39c-0.626,0-1.25,0.221-1.742,0.669c-1.062,0.975-1.077,2.551-0.038,3.589
	c0.552,0.549,1.26,0.826,1.959,0.826c0.64,0,1.275-0.231,1.774-0.699c1.045-0.984,1.034-2.558-0.026-3.592
	C83.469,134.655,82.773,134.39,82.082,134.39"/>
<path fill="#5B5B5B" d="M37.666,124.75c-0.676,0-1.343,0.248-1.854,0.744c-1.017,0.99-0.997,2.575,0.04,3.609
	c0.553,0.552,1.277,0.829,1.994,0.829c0.661,0,1.314-0.236,1.822-0.715c1.054-0.995,1.038-2.63-0.041-3.673
	C39.078,125.016,38.368,124.75,37.666,124.75"/>
<path fill="#5B5B5B" d="M46.614,133.483c-0.667,0-1.327,0.228-1.83,0.689c-1.051,0.964-1.054,2.654-0.013,3.702
	c0.544,0.548,1.285,0.823,2.019,0.823c0.667,0,1.327-0.229,1.829-0.689c1.048-0.965,1.054-2.652,0.01-3.702
	C48.089,133.759,47.348,133.483,46.614,133.483"/>
<path fill="#5B5B5B" d="M72.872,82.903c-0.686,0-1.364,0.249-1.898,0.749c-1.111,1.046-1.101,2.72,0.018,3.82
	c0.58,0.574,1.327,0.862,2.068,0.862c0.687,0,1.365-0.248,1.898-0.749c1.108-1.045,1.101-2.719-0.015-3.818
	C74.36,83.193,73.61,82.903,72.872,82.903"/>
<path fill="#5B5B5B" d="M90.755,100.398c-0.666,0-1.324,0.236-1.846,0.711c-1.133,1.033-1.168,2.707-0.069,3.813
	c0.59,0.602,1.361,0.907,2.119,0.907c0.665,0,1.324-0.234,1.846-0.71c1.136-1.034,1.164-2.709,0.072-3.816
	C92.283,100.705,91.515,100.398,90.755,100.398"/>
<path fill="#5B5B5B" d="M90.917,117.44c-0.697,0-1.388,0.255-1.93,0.771c-1.11,1.048-1.108,2.722,0.002,3.833
	c0.593,0.595,1.359,0.895,2.118,0.895c0.698,0,1.388-0.255,1.929-0.769c1.105-1.051,1.105-2.724-0.005-3.836
	C92.439,117.739,91.674,117.44,90.917,117.44"/>
<path fill="#5B5B5B" d="M55.135,82.452c-0.706,0-1.404,0.26-1.949,0.786c-1.095,1.056-1.077,2.724,0.044,3.835
	c0.587,0.582,1.342,0.876,2.09,0.876c0.708,0,1.408-0.262,1.952-0.788c1.096-1.058,1.081-2.726-0.042-3.833
	C56.643,82.745,55.885,82.452,55.135,82.452"/>
<path fill="#5B5B5B" d="M37.418,98.921c-0.736,0-1.465,0.258-2.002,0.776c-1.103,1.067-1.074,2.901,0.065,3.996
	c0.586,0.564,1.371,0.848,2.143,0.848c0.739,0,1.469-0.259,2.005-0.778c1.105-1.067,1.076-2.899-0.068-3.996
	C38.978,99.204,38.194,98.921,37.418,98.921"/>
<path fill="#5B5B5B" d="M73.181,133.147c-0.9,0-1.791,0.303-2.474,0.915c-1.476,1.325-1.484,3.692-0.018,5.132
	c0.745,0.732,1.749,1.102,2.742,1.102c0.916,0,1.824-0.315,2.511-0.951c1.425-1.326,1.439-3.623,0.017-5.058
	C75.214,133.53,74.194,133.147,73.181,133.147"/>
<path fill="#5B5B5B" d="M37.574,115.961c-0.718,0-1.43,0.247-1.975,0.75c-1.143,1.046-1.167,2.849-0.059,3.997
	c0.603,0.624,1.426,0.939,2.238,0.939c0.72,0,1.432-0.247,1.977-0.747c1.143-1.05,1.169-2.851,0.057-3.999
	C39.21,116.281,38.389,115.961,37.574,115.961"/>
<path fill="#5B5B5B" d="M90.829,108.826c-0.746,0-1.485,0.266-2.028,0.798c-1.099,1.08-1.062,2.901,0.086,4
	c0.586,0.566,1.375,0.854,2.15,0.854c0.733,0,1.458-0.257,1.998-0.77c1.118-1.059,1.105-2.878-0.021-3.997
	C92.424,109.122,91.622,108.826,90.829,108.826"/>
<path fill="#5B5B5B" d="M63.995,82.584c-0.75,0-1.491,0.266-2.035,0.8c-1.099,1.078-1.058,2.899,0.088,3.999
	c0.588,0.566,1.374,0.852,2.15,0.852c0.735,0,1.46-0.255,2.004-0.772c1.114-1.059,1.102-2.88-0.026-3.998
	C65.584,82.879,64.786,82.584,63.995,82.584"/>
<path fill="#5B5B5B" d="M55.465,133.439c-0.716,0-1.422,0.251-1.97,0.757c-1.183,1.087-1.199,2.886-0.032,4.047
	c0.613,0.609,1.413,0.918,2.207,0.918c0.728,0,1.447-0.258,2.006-0.784c1.163-1.101,1.149-2.896-0.034-4.05
	C57.038,133.737,56.245,133.439,55.465,133.439"/>
<path fill="#5B5B5B" d="M81.807,91.458c-0.713,0-1.419,0.25-1.979,0.757c-1.228,1.108-1.256,2.905-0.071,4.104
	c0.631,0.636,1.447,0.957,2.254,0.957c0.726,0,1.446-0.261,2.012-0.789c1.211-1.117,1.213-2.914,0.008-4.104
	C83.408,91.77,82.603,91.458,81.807,91.458"/>
<path fill="#5B5B5B" d="M37.46,106.171c-1.038,0-2.066,0.375-2.868,1.129c-1.67,1.567-1.66,4.107,0.024,5.766
	c0.873,0.862,2.003,1.297,3.122,1.297c1.04,0,2.068-0.375,2.87-1.131c1.669-1.566,1.66-4.104-0.024-5.764
	C39.708,106.607,38.579,106.171,37.46,106.171"/>
<path fill="#5B5B5B" d="M64.33,133.574c-0.765,0-1.518,0.272-2.086,0.818c-1.162,1.119-1.141,2.979,0.05,4.146
	c0.618,0.605,1.438,0.91,2.25,0.91c0.78,0,1.549-0.281,2.115-0.847c1.148-1.145,1.095-3.004-0.111-4.148
	C65.932,133.868,65.125,133.574,64.33,133.574"/>
<path fill="#5B5B5B" d="M82.117,125.551c-0.766,0-1.526,0.262-2.093,0.793c-1.183,1.098-1.175,3.041,0.011,4.218
	c0.615,0.609,1.456,0.918,2.288,0.918c0.769,0,1.529-0.264,2.098-0.793c1.179-1.101,1.167-3.04-0.014-4.218
	C83.792,125.86,82.951,125.551,82.117,125.551"/>
<path fill="#5B5B5B" d="M46.33,90.562c-0.77,0-1.532,0.264-2.099,0.797c-1.175,1.109-1.16,3.049,0.032,4.222
	c0.614,0.605,1.452,0.91,2.279,0.91c0.77,0,1.533-0.265,2.098-0.8c1.179-1.11,1.166-3.051-0.025-4.22
	C47.999,90.866,47.16,90.562,46.33,90.562"/>
<path fill="#5B5B5B" d="M46.529,124.504c-0.806,0-1.605,0.305-2.22,0.914c-1.195,1.178-1.123,3.065,0.158,4.277
	c0.636,0.603,1.444,0.903,2.25,0.903c0.794,0,1.584-0.294,2.192-0.883c1.206-1.173,1.163-3.058-0.1-4.278
	C48.165,124.816,47.344,124.504,46.529,124.504"/>
<path fill="#5B5B5B" d="M81.874,99.683c-0.808,0-1.61,0.288-2.235,0.87c-1.335,1.249-1.328,3.251,0.018,4.565
	c0.686,0.672,1.572,1.011,2.445,1.011c0.808,0,1.607-0.289,2.236-0.873c1.333-1.25,1.329-3.252-0.021-4.565
	C83.633,100.021,82.75,99.683,81.874,99.683"/>
<path fill="#5B5B5B" d="M72.926,90.935c-0.801,0-1.59,0.284-2.212,0.856c-1.349,1.242-1.355,3.246-0.022,4.562
	c0.692,0.68,1.586,1.024,2.468,1.024c0.801,0,1.59-0.283,2.213-0.856c1.347-1.239,1.354-3.244,0.021-4.561
	C74.704,91.279,73.808,90.935,72.926,90.935"/>
<path fill="#5B5B5B" d="M55.182,90.095c-0.913,0-1.818,0.323-2.53,0.976c-1.488,1.367-1.506,3.624-0.043,5.113
	c0.776,0.792,1.802,1.192,2.821,1.192c0.927,0,1.847-0.333,2.561-1.009c1.472-1.386,1.462-3.64-0.02-5.112
	C57.195,90.482,56.183,90.093,55.182,90.095"/>
<path fill="#5B5B5B" d="M82.034,116.728c-0.825,0-1.641,0.3-2.279,0.902c-1.325,1.245-1.317,3.251,0.023,4.57
	c0.694,0.683,1.588,1.027,2.474,1.027c0.821,0,1.637-0.298,2.276-0.899c1.328-1.247,1.316-3.255-0.021-4.569
	C83.812,117.075,82.917,116.728,82.034,116.728"/>
<path fill="#5B5B5B" d="M46.284,98.654c-0.828,0-1.648,0.281-2.288,0.846c-1.341,1.194-1.361,3.344-0.042,4.685
	c0.681,0.691,1.617,1.042,2.545,1.042c0.845,0,1.684-0.288,2.317-0.876c1.324-1.226,1.314-3.374-0.021-4.684
	C48.112,98.995,47.195,98.654,46.284,98.654"/>
<path fill="#5B5B5B" d="M73.118,124.885c-0.853,0-1.699,0.291-2.333,0.881c-1.311,1.222-1.311,3.352-0.003,4.676
	c0.684,0.69,1.622,1.041,2.556,1.041c0.834,0,1.666-0.281,2.301-0.854c1.329-1.188,1.356-3.32,0.064-4.672
	C75.025,125.245,74.068,124.885,73.118,124.885"/>
<path fill="#5B5B5B" d="M46.429,115.687c-0.833,0-1.66,0.281-2.298,0.852c-1.36,1.22-1.39,3.386-0.061,4.735
	c0.697,0.709,1.65,1.07,2.593,1.07c0.849,0,1.69-0.291,2.329-0.881c1.347-1.238,1.347-3.401,0.002-4.737
	C48.3,116.038,47.359,115.687,46.429,115.687"/>
<path fill="#5B5B5B" d="M64.056,90.601c-0.872,0-1.736,0.312-2.385,0.938c-1.327,1.276-1.286,3.415,0.088,4.739
	c0.7,0.674,1.623,1.013,2.534,1.013c0.874,0,1.736-0.31,2.386-0.936c1.322-1.281,1.285-3.416-0.089-4.74
	C65.89,90.94,64.97,90.601,64.056,90.601"/>
<path fill="#5B5B5B" d="M81.946,108.096c-0.858,0-1.705,0.301-2.351,0.908c-1.344,1.263-1.335,3.4,0.022,4.736
	c0.706,0.694,1.642,1.045,2.567,1.045c0.858,0,1.707-0.302,2.354-0.907c1.342-1.263,1.334-3.4-0.023-4.734
	C83.811,108.446,82.872,108.096,81.946,108.096"/>
<path fill="#5B5B5B" d="M55.377,124.42c-0.872,0-1.736,0.309-2.385,0.934c-1.33,1.276-1.293,3.415,0.078,4.737
	c0.7,0.677,1.625,1.015,2.536,1.015c0.872,0,1.736-0.31,2.385-0.934c1.332-1.276,1.294-3.412-0.08-4.737
	C57.211,124.758,56.291,124.42,55.377,124.42"/>
<path fill="#5B5B5B" d="M46.349,107.053c-0.864,0-1.721,0.308-2.387,0.93c-1.415,1.312-1.398,3.489,0.045,4.872
	c0.725,0.698,1.658,1.048,2.581,1.048c0.877,0,1.748-0.316,2.417-0.955c1.377-1.315,1.361-3.438-0.041-4.813
	C48.235,107.417,47.287,107.053,46.349,107.053"/>
<path fill="#5B5B5B" d="M64.246,124.537c-0.869,0-1.729,0.303-2.397,0.914c-1.414,1.292-1.41,3.499,0.004,4.891
	c0.726,0.711,1.678,1.069,2.624,1.069c0.867,0,1.727-0.303,2.394-0.915c1.414-1.291,1.411-3.5-0.004-4.89
	C66.14,124.896,65.188,124.537,64.246,124.537"/>
<path fill="#5B5B5B" d="M73.001,99.098c-0.901,0-1.793,0.32-2.495,0.964c-1.491,1.365-1.494,3.626-0.006,5.095
	c0.766,0.753,1.759,1.133,2.743,1.133c0.899,0,1.788-0.318,2.49-0.959c1.488-1.37,1.492-3.633,0.005-5.099
	C74.976,99.48,73.985,99.098,73.001,99.098"/>
<path fill="#5B5B5B" d="M73.153,116.356c-0.879,0-1.75,0.305-2.407,0.92c-1.375,1.286-1.347,3.531,0.055,4.875
	c0.714,0.684,1.66,1.028,2.594,1.028c0.882,0,1.752-0.305,2.409-0.921c1.374-1.283,1.349-3.528-0.053-4.872
	C75.038,116.703,74.089,116.356,73.153,116.356"/>
<path fill="#5B5B5B" d="M55.258,98.621c-0.929,0-1.85,0.316-2.552,0.956c-1.481,1.348-1.49,3.729-0.021,5.199
	c0.762,0.764,1.798,1.151,2.825,1.151c0.942,0,1.875-0.328,2.58-0.986c1.442-1.35,1.452-3.67,0.024-5.138
	C57.352,99.02,56.3,98.621,55.258,98.621"/>
<path fill="#5B5B5B" d="M55.283,115.519c-0.936,0-1.863,0.332-2.581,1.001c-1.521,1.419-1.517,3.743,0.008,5.242
	c0.79,0.777,1.816,1.171,2.833,1.171c0.946,0,1.884-0.342,2.609-1.03c1.507-1.426,1.478-3.746-0.063-5.245
	C57.307,115.901,56.291,115.519,55.283,115.519"/>
<path fill="#5B5B5B" d="M73.108,108.624c-0.67,0-1.333,0.234-1.839,0.711c-1.046,0.981-1.037,2.648,0.023,3.692
	c0.546,0.54,1.272,0.812,1.992,0.812c0.671,0,1.335-0.235,1.84-0.711c1.048-0.984,1.04-2.647-0.021-3.69
	C74.557,108.897,73.83,108.624,73.108,108.624"/>
<path fill="#5B5B5B" d="M64.133,98.697c-0.959,0-1.91,0.327-2.648,0.987c-1.552,1.393-1.557,3.896-0.003,5.42
	c0.793,0.774,1.851,1.168,2.901,1.168c0.972,0,1.933-0.338,2.669-1.017c1.508-1.406,1.51-3.829,0.004-5.359
	C66.268,99.101,65.196,98.697,64.133,98.697"/>
<path fill="#5B5B5B" d="M55.25,108.247c-0.626,0-1.246,0.219-1.716,0.664c-0.978,0.918-0.98,2.464-0.006,3.44
	c0.519,0.52,1.213,0.781,1.898,0.781c0.626,0,1.245-0.218,1.719-0.661c0.975-0.919,0.975-2.467,0-3.443
	C56.626,108.509,55.935,108.247,55.25,108.247"/>
<path fill="#5B5B5B" d="M64.169,116.166c-0.829,0-1.648,0.293-2.279,0.883c-1.338,1.249-1.334,3.308,0.003,4.629
	c0.697,0.684,1.606,1.028,2.503,1.028c0.837,0,1.666-0.301,2.306-0.907c1.323-1.254,1.298-3.312-0.058-4.626
	C65.958,116.503,65.06,116.166,64.169,116.166"/>
<path fill="#5B5B5B" d="M64.193,106.972c-1.037,0-2.062,0.375-2.856,1.127c-1.637,1.549-1.61,4.078,0.06,5.708
	c0.857,0.839,1.97,1.261,3.071,1.261c1.035,0,2.062-0.375,2.854-1.127c1.64-1.552,1.611-4.077-0.057-5.708
	C66.406,107.395,65.294,106.972,64.193,106.972"/>
<path fill="none" d="M72.358,152.714c-0.556,0.526-0.572,1.473-0.029,2.06c0.3,0.327,0.746,0.495,1.186,0.495
	c0.37,0,0.738-0.12,1.016-0.362c0.602-0.528,0.611-1.526,0.033-2.118c-0.303-0.309-0.735-0.465-1.16-0.465
	C73.017,152.324,72.636,152.453,72.358,152.714"/>
<path fill="none" d="M63.456,152.508c-0.602,0.588-0.559,1.583,0.086,2.164c0.309,0.278,0.708,0.417,1.1,0.417
	c0.401,0,0.795-0.143,1.085-0.427c0.579-0.566,0.567-1.513-0.025-2.104c-0.315-0.316-0.743-0.477-1.165-0.477
	C64.14,152.082,63.748,152.223,63.456,152.508"/>
<path fill="none" d="M46.055,152.295c-0.475,0.396-0.492,1.203-0.032,1.655c0.231,0.225,0.556,0.341,0.875,0.341
	c0.289,0,0.576-0.095,0.788-0.287c0.438-0.399,0.455-1.146,0.03-1.597c-0.23-0.243-0.568-0.368-0.905-0.368
	C46.536,152.04,46.265,152.123,46.055,152.295"/>
<path fill="none" d="M54.729,152.32c-0.612,0.536-0.629,1.416-0.039,2.008c0.301,0.3,0.694,0.455,1.082,0.455
	c0.338,0,0.673-0.116,0.942-0.354c0.616-0.535,0.636-1.413,0.043-2.006c-0.303-0.304-0.696-0.458-1.086-0.458
	C55.334,151.965,55,152.083,54.729,152.32"/>
<path fill="none" d="M71.779,143.638c-0.927,0.858-0.931,2.218-0.01,3.128c0.477,0.471,1.088,0.709,1.694,0.709
	c0.54,0,1.072-0.188,1.496-0.568c0.939-0.847,0.966-2.21,0.068-3.124c-0.485-0.491-1.11-0.74-1.729-0.74
	C72.751,143.042,72.209,143.241,71.779,143.638"/>
<path fill="none" d="M36.779,143.277c-0.641,0.591-0.662,1.517-0.046,2.16c0.346,0.361,0.792,0.545,1.232,0.545
	c0.385,0,0.764-0.141,1.073-0.424c0.646-0.593,0.662-1.517,0.05-2.161c-0.346-0.361-0.792-0.544-1.232-0.544
	C37.472,142.853,37.091,142.993,36.779,143.277"/>
<path fill="none" d="M62.783,143.35c-0.93,0.878-0.923,2.379,0.023,3.31c0.489,0.48,1.144,0.723,1.789,0.723
	c0.603,0,1.198-0.209,1.648-0.636c0.933-0.879,0.925-2.382-0.023-3.309c-0.488-0.481-1.142-0.723-1.789-0.723
	C63.83,142.715,63.233,142.925,62.783,143.35"/>
<path fill="none" d="M45.287,143.181c-0.796,0.76-0.772,2.065,0.053,2.849c0.415,0.395,0.967,0.59,1.509,0.59
	c0.536,0,1.066-0.189,1.451-0.574c0.756-0.753,0.733-2.015-0.05-2.789c-0.418-0.417-0.984-0.625-1.542-0.625
	C46.186,142.631,45.67,142.813,45.287,143.181"/>
<path fill="none" d="M53.973,143.216c-0.919,0.881-0.887,2.307,0.076,3.209c0.474,0.444,1.075,0.668,1.671,0.668
	c0.581,0,1.154-0.213,1.596-0.636c0.899-0.856,0.896-2.236-0.013-3.149c-0.482-0.483-1.109-0.727-1.733-0.727
	C54.992,142.582,54.417,142.794,53.973,143.216"/>
<path fill="none" d="M27.843,134.523c-0.67,0.609-0.673,1.568,0,2.22c0.336,0.326,0.759,0.492,1.176,0.492
	c0.382,0,0.762-0.138,1.069-0.418c0.673-0.612,0.671-1.57-0.002-2.221c-0.333-0.327-0.753-0.492-1.17-0.492
	C28.532,134.104,28.152,134.243,27.843,134.523"/>
<path fill="none" d="M36.207,134.313c-0.862,0.829-0.838,2.225,0.051,3.08c0.456,0.44,1.058,0.661,1.654,0.661
	c0.568,0,1.127-0.202,1.547-0.607c0.862-0.831,0.841-2.227-0.053-3.084c-0.456-0.438-1.056-0.656-1.651-0.656
	C37.188,133.707,36.627,133.908,36.207,134.313"/>
<path fill="none" d="M44.785,134.172c-1.051,0.963-1.054,2.654-0.013,3.702c0.544,0.548,1.285,0.823,2.018,0.823
	c0.667,0,1.328-0.228,1.83-0.689c1.048-0.965,1.054-2.652,0.01-3.702c-0.541-0.547-1.283-0.824-2.016-0.824
	C45.948,133.482,45.287,133.71,44.785,134.172"/>
<path fill="none" d="M53.494,134.196c-1.184,1.087-1.198,2.886-0.031,4.047c0.613,0.609,1.413,0.918,2.207,0.918
	c0.727,0,1.447-0.259,2.006-0.784c1.163-1.101,1.15-2.896-0.034-4.05c-0.605-0.59-1.398-0.888-2.178-0.888
	C54.75,133.439,54.044,133.689,53.494,134.196"/>
<path fill="none" d="M19.172,126.098c-0.431,0.414-0.428,1.158,0.006,1.597c0.228,0.233,0.557,0.352,0.884,0.352
	c0.283,0,0.562-0.089,0.773-0.272c0.445-0.389,0.472-1.141,0.059-1.594c-0.228-0.254-0.575-0.384-0.915-0.384
	C19.681,125.796,19.383,125.897,19.172,126.098"/>
<path fill="none" d="M27.397,125.685c-0.795,0.76-0.773,2.068,0.052,2.851c0.416,0.395,0.964,0.592,1.508,0.592
	c0.536,0,1.066-0.192,1.452-0.576c0.754-0.753,0.733-2.016-0.051-2.791c-0.419-0.415-0.984-0.623-1.543-0.623
	C28.294,125.137,27.781,125.318,27.397,125.685"/>
<path fill="none" d="M35.812,125.495c-1.017,0.99-0.997,2.575,0.039,3.609c0.553,0.552,1.277,0.83,1.994,0.83
	c0.661,0,1.314-0.237,1.822-0.716c1.054-0.995,1.04-2.63-0.04-3.673c-0.55-0.529-1.26-0.795-1.962-0.795
	C36.989,124.75,36.323,124.999,35.812,125.495"/>
<path fill="none" d="M46.527,124.504c-0.805,0-1.604,0.305-2.218,0.916c-1.195,1.176-1.123,3.063,0.158,4.275
	c0.635,0.603,1.444,0.903,2.25,0.903c0.794,0,1.584-0.294,2.191-0.883c1.207-1.173,1.164-3.058-0.099-4.278
	c-0.646-0.622-1.464-0.934-2.279-0.934C46.53,124.504,46.529,124.504,46.527,124.504"/>
<path fill="none" d="M27.139,117.014c-0.901,0.871-0.865,2.236,0.08,3.139c0.473,0.451,1.07,0.678,1.66,0.678
	c0.579,0,1.153-0.217,1.603-0.654c0.899-0.874,0.864-2.237-0.083-3.139c-0.473-0.452-1.07-0.679-1.66-0.679
	C28.159,116.359,27.586,116.577,27.139,117.014"/>
<path fill="none" d="M35.6,116.711c-1.145,1.046-1.168,2.849-0.06,3.996c0.602,0.625,1.425,0.94,2.238,0.94
	c0.72,0,1.432-0.247,1.977-0.747c1.143-1.05,1.169-2.851,0.057-3.999c-0.602-0.623-1.424-0.94-2.239-0.94
	C36.856,115.961,36.144,116.21,35.6,116.711"/>
<path fill="none" d="M44.132,116.539c-1.361,1.22-1.391,3.386-0.061,4.735c0.696,0.709,1.649,1.07,2.592,1.07
	c0.849,0,1.688-0.291,2.329-0.881c1.347-1.238,1.347-3.401,0.002-4.737c-0.694-0.688-1.635-1.039-2.565-1.039
	C45.595,115.687,44.769,115.968,44.132,116.539"/>
<path fill="none" d="M27.016,108.364c-0.931,0.872-0.907,2.418,0.048,3.324c0.48,0.455,1.122,0.684,1.753,0.684
	c0.598,0,1.19-0.205,1.632-0.62c0.933-0.873,0.914-2.417-0.047-3.323c-0.48-0.455-1.122-0.684-1.754-0.684
	C28.05,107.745,27.458,107.949,27.016,108.364"/>
<path fill="none" d="M43.961,107.983c-1.416,1.312-1.398,3.489,0.044,4.872c0.726,0.698,1.659,1.05,2.582,1.05
	c0.877,0,1.747-0.318,2.417-0.958c1.377-1.314,1.361-3.437-0.041-4.812c-0.729-0.72-1.678-1.081-2.616-1.081
	C45.484,107.053,44.628,107.361,43.961,107.983"/>
<path fill="none" d="M34.592,107.3c-1.67,1.567-1.66,4.107,0.024,5.766c0.873,0.862,2.003,1.297,3.121,1.297
	c1.04,0,2.069-0.375,2.871-1.131c1.669-1.565,1.66-4.104-0.024-5.765c-0.876-0.86-2.007-1.296-3.125-1.296
	C36.422,106.171,35.394,106.546,34.592,107.3"/>
<path fill="none" d="M27.034,99.915c-0.89,0.839-0.908,2.175-0.039,3.067c0.488,0.499,1.121,0.756,1.746,0.756
	c0.542,0,1.077-0.193,1.505-0.585c0.934-0.852,0.949-2.214,0.035-3.125c-0.479-0.48-1.095-0.724-1.706-0.724
	C28.021,99.304,27.47,99.506,27.034,99.915"/>
<path fill="none" d="M35.415,99.696c-1.102,1.069-1.073,2.902,0.066,3.997c0.586,0.564,1.371,0.847,2.143,0.847
	c0.739,0,1.469-0.256,2.005-0.777c1.105-1.066,1.077-2.898-0.068-3.996c-0.584-0.562-1.368-0.845-2.142-0.845
	C36.682,98.921,35.953,99.179,35.415,99.696"/>
<path fill="none" d="M43.997,99.5c-1.341,1.194-1.361,3.344-0.041,4.684c0.68,0.692,1.616,1.042,2.544,1.042
	c0.845,0,1.684-0.288,2.318-0.876c1.323-1.224,1.313-3.374-0.022-4.685c-0.684-0.671-1.601-1.012-2.512-1.012
	C45.457,98.654,44.636,98.936,43.997,99.5"/>
<path fill="none" d="M27.146,91.642c-0.747,0.731-0.727,1.868,0.04,2.632c0.41,0.409,0.939,0.615,1.458,0.615
	c0.483,0,0.96-0.176,1.337-0.534c0.78-0.743,0.765-1.917-0.043-2.692c-0.406-0.389-0.917-0.583-1.423-0.583
	C28.02,91.079,27.528,91.267,27.146,91.642"/>
<path fill="none" d="M35.64,91.315c-1.038,0.932-1.091,2.497-0.117,3.527c0.551,0.579,1.29,0.877,2.019,0.877
	c0.618,0,1.228-0.214,1.709-0.645c1.038-0.934,1.091-2.5,0.117-3.526c-0.551-0.582-1.291-0.878-2.019-0.878
	C36.733,90.67,36.123,90.883,35.64,91.315"/>
<path fill="none" d="M44.231,91.359c-1.175,1.109-1.16,3.05,0.032,4.222c0.614,0.605,1.452,0.908,2.279,0.908
	c0.77,0,1.533-0.263,2.098-0.799c1.18-1.109,1.166-3.05-0.025-4.219c-0.616-0.604-1.455-0.909-2.283-0.909
	C45.56,90.562,44.798,90.827,44.231,91.359"/>
<path fill="none" d="M27.517,83.431c-0.585,0.529-0.599,1.357-0.04,1.929c0.303,0.309,0.688,0.465,1.068,0.465
	c0.336,0,0.668-0.121,0.938-0.365c0.584-0.527,0.601-1.354,0.04-1.928c-0.303-0.309-0.688-0.464-1.069-0.464
	C28.119,83.067,27.787,83.187,27.517,83.431"/>
<path fill="none" d="M35.986,83.236c-0.858,0.778-0.886,2.063-0.059,2.925c0.45,0.467,1.046,0.706,1.637,0.706
	c0.502,0,1.001-0.171,1.402-0.519c0.877-0.767,0.933-2.043,0.119-2.92c-0.454-0.488-1.064-0.74-1.667-0.74
	C36.903,82.688,36.393,82.87,35.986,83.236"/>
<path fill="none" d="M43.652,82.32c-1.492,1.406-1.448,3.807,0.092,5.256c0.765,0.716,1.762,1.073,2.747,1.073
	c0.963,0,1.915-0.343,2.625-1.034c1.435-1.394,1.388-3.733-0.094-5.168c-0.765-0.742-1.784-1.116-2.79-1.116
	C45.289,81.33,44.357,81.659,43.652,82.32"/>
<path fill="none" d="M28.142,75.393c-0.337,0.324-0.329,0.696,0.02,1.028c0.171,0.162,0.346,0.234,0.52,0.234
	c0.185,0,0.372-0.084,0.547-0.236c0.3-0.368,0.278-0.73-0.085-1.042c-0.162-0.14-0.333-0.211-0.502-0.211
	C28.468,75.167,28.296,75.243,28.142,75.393"/>
<path fill="none" d="M36.43,75.228c-0.581,0.527-0.599,1.352-0.035,1.926c0.301,0.31,0.688,0.465,1.069,0.465
	c0.334,0,0.667-0.12,0.937-0.364c0.583-0.527,0.596-1.356,0.035-1.929c-0.301-0.308-0.686-0.464-1.067-0.464
	C37.034,74.863,36.702,74.983,36.43,75.228"/>
<path fill="none" d="M44.942,75.082c-0.356,0.325-0.552,0.749-0.584,1.185c-0.014-0.001-0.029-0.001-0.044-0.001
	c-0.341,0-0.68,0.124-0.956,0.376c-0.569,0.523-0.588,1.344-0.042,1.917c0.306,0.32,0.703,0.482,1.092,0.482
	c0.342,0,0.679-0.124,0.952-0.375c0.151-0.139,0.264-0.298,0.337-0.468c0.212,0.073,0.432,0.109,0.652,0.109
	c0.459,0,0.916-0.162,1.276-0.487c0.766-0.705,0.782-1.855,0.03-2.615c-0.397-0.406-0.923-0.611-1.44-0.611
	C45.758,74.594,45.302,74.755,44.942,75.082"/>
<path fill="none" d="M35.432,68.877c-0.595,0.54-0.597,1.391,0,1.968c0.298,0.291,0.674,0.437,1.042,0.437
	c0.34,0,0.676-0.124,0.949-0.37c0.596-0.542,0.594-1.393-0.002-1.971c-0.297-0.29-0.669-0.436-1.039-0.436
	C36.042,68.505,35.706,68.629,35.432,68.877"/>
<path fill="none" d="M42.851,68.691c-0.766,0.735-0.745,1.974,0.044,2.732c0.404,0.389,0.938,0.585,1.467,0.585
	c0.503,0,1-0.178,1.372-0.539c0.765-0.737,0.747-1.975-0.046-2.734c-0.404-0.388-0.937-0.583-1.464-0.583
	C43.721,68.153,43.223,68.332,42.851,68.691"/>
<path fill="none" d="M50.459,68.567c-0.932,0.853-0.935,2.354-0.01,3.283c0.481,0.484,1.139,0.73,1.789,0.73
	c0.591,0,1.177-0.203,1.624-0.612c0.929-0.855,0.936-2.353,0.009-3.284c-0.481-0.485-1.138-0.73-1.789-0.73
	C51.491,67.954,50.904,68.157,50.459,68.567"/>
<path fill="none" d="M27.74,61.404c-0.381,0.366-0.379,1.028,0.005,1.416c0.202,0.208,0.494,0.312,0.784,0.312
	c0.252,0,0.5-0.08,0.687-0.242c0.394-0.345,0.418-1.012,0.052-1.415c-0.202-0.225-0.51-0.34-0.811-0.34
	C28.191,61.136,27.926,61.224,27.74,61.404"/>
<path fill="none" d="M35.036,61.037c-0.707,0.674-0.686,1.834,0.047,2.529c0.367,0.35,0.854,0.525,1.336,0.525
	c0.475,0,0.945-0.171,1.287-0.512c0.669-0.668,0.651-1.788-0.044-2.475c-0.372-0.369-0.872-0.553-1.369-0.553
	C35.832,60.552,35.376,60.711,35.036,61.037"/>
<path fill="none" d="M42.5,60.868c-0.902,0.878-0.885,2.286,0.035,3.202c0.491,0.489,1.133,0.736,1.769,0.736
	c0.586,0,1.166-0.21,1.616-0.634c0.935-0.883,0.922-2.333-0.036-3.258c-0.487-0.469-1.117-0.706-1.739-0.706
	C43.544,60.208,42.953,60.429,42.5,60.868"/>
<path fill="none" d="M34.807,53.345c-0.8,0.773-0.767,1.984,0.07,2.784c0.42,0.401,0.949,0.602,1.473,0.602
	c0.513,0,1.023-0.192,1.422-0.58c0.797-0.775,0.767-1.984-0.075-2.784c-0.42-0.402-0.948-0.603-1.472-0.603
	C35.711,52.765,35.204,52.957,34.807,53.345"/>
<path fill="none" d="M42.312,53.077c-1.015,0.928-1.035,2.527-0.052,3.545c0.534,0.554,1.264,0.834,1.985,0.834
	c0.639,0,1.27-0.219,1.754-0.665c1.013-0.929,1.037-2.526,0.05-3.546c-0.534-0.551-1.262-0.833-1.985-0.833
	C43.426,52.413,42.795,52.631,42.312,53.077"/>
<path fill="none" d="M34.698,45.671c-0.826,0.776-0.806,2.146,0.042,2.949c0.426,0.404,0.995,0.608,1.555,0.608
	c0.531,0,1.056-0.183,1.448-0.551c0.827-0.775,0.811-2.143-0.041-2.947c-0.427-0.404-0.997-0.607-1.556-0.607
	C35.615,45.123,35.09,45.305,34.698,45.671"/>
<path fill="none" d="M41.417,44.73c-1.48,1.388-1.472,3.643,0.023,5.114c0.774,0.765,1.776,1.15,2.768,1.15
	c0.923,0,1.835-0.333,2.547-1.001c1.481-1.39,1.472-3.641-0.021-5.113c-0.777-0.765-1.779-1.151-2.771-1.151
	C43.041,43.728,42.129,44.061,41.417,44.73"/>
<path fill="none" d="M34.713,38.178c-0.789,0.744-0.805,1.929-0.035,2.72c0.434,0.443,0.996,0.669,1.549,0.669
	c0.48,0,0.957-0.17,1.335-0.518c0.83-0.755,0.841-1.964,0.032-2.772c-0.425-0.426-0.971-0.641-1.513-0.641
	C35.589,37.636,35.1,37.815,34.713,38.178"/>
<path fill="none" d="M42.148,37.984c-0.979,0.949-0.953,2.575,0.059,3.545c0.521,0.5,1.216,0.751,1.901,0.751
	c0.655,0,1.303-0.229,1.778-0.689c0.98-0.946,0.955-2.573-0.061-3.544c-0.518-0.5-1.213-0.751-1.9-0.751
	C43.272,37.297,42.625,37.525,42.148,37.984"/>
<path fill="none" d="M34.814,30.839c-0.662,0.649-0.645,1.657,0.035,2.335c0.363,0.364,0.832,0.546,1.293,0.546
	c0.428,0,0.851-0.158,1.186-0.474c0.692-0.66,0.679-1.701-0.038-2.388c-0.361-0.345-0.813-0.518-1.263-0.518
	C35.587,30.34,35.152,30.506,34.814,30.839"/>
<path fill="none" d="M42.348,30.549c-0.921,0.827-0.968,2.213-0.104,3.128c0.489,0.514,1.144,0.778,1.792,0.778
	c0.547,0,1.088-0.189,1.515-0.572c0.921-0.829,0.968-2.218,0.104-3.128c-0.489-0.515-1.145-0.779-1.791-0.779
	C43.317,29.977,42.776,30.166,42.348,30.549"/>
<path fill="none" d="M49.968,30.588c-1.042,0.984-1.028,2.705,0.027,3.746c0.545,0.537,1.289,0.806,2.023,0.806
	c0.683,0,1.359-0.234,1.86-0.708c1.046-0.984,1.033-2.707-0.022-3.743c-0.546-0.537-1.291-0.807-2.025-0.807
	C51.147,29.881,50.471,30.116,49.968,30.588"/>
<path fill="none" d="M35.142,23.556c-0.519,0.469-0.53,1.204-0.035,1.711c0.269,0.274,0.61,0.413,0.947,0.413
	c0.298,0,0.592-0.108,0.832-0.325c0.519-0.467,0.532-1.201,0.035-1.709c-0.269-0.275-0.611-0.414-0.949-0.414
	C35.676,23.232,35.381,23.339,35.142,23.556"/>
<path fill="none" d="M42.654,23.383c-0.761,0.691-0.786,1.829-0.052,2.594c0.398,0.415,0.928,0.626,1.451,0.626
	c0.447,0,0.888-0.151,1.245-0.459c0.778-0.68,0.826-1.812,0.105-2.591c-0.402-0.433-0.944-0.655-1.479-0.655
	C43.468,22.898,43.016,23.058,42.654,23.383"/>
<path fill="none" d="M35.696,16.426c-0.298,0.287-0.291,0.618,0.018,0.912c0.153,0.143,0.307,0.208,0.462,0.208
	c0.165,0,0.329-0.074,0.485-0.209c0.267-0.327,0.247-0.646-0.074-0.924c-0.144-0.124-0.296-0.186-0.445-0.186
	C35.986,16.226,35.833,16.293,35.696,16.426"/>
<path fill="none" d="M43.049,16.28c-0.516,0.467-0.531,1.199-0.032,1.708c0.268,0.275,0.611,0.413,0.949,0.413
	c0.296,0,0.591-0.106,0.831-0.323c0.517-0.467,0.529-1.203,0.03-1.711c-0.267-0.273-0.608-0.411-0.946-0.411
	C43.585,15.956,43.289,16.062,43.049,16.28"/>
<path fill="none" d="M50.6,16.15c-0.683,0.622-0.697,1.648-0.033,2.32c0.356,0.36,0.82,0.542,1.282,0.542
	c0.408,0,0.813-0.144,1.132-0.433c0.681-0.625,0.694-1.646,0.028-2.318c-0.354-0.361-0.818-0.543-1.278-0.543
	C51.323,15.716,50.919,15.86,50.6,16.15"/>
</svg>
