<?xml version="1.0" encoding="UTF-8" standalone="no"?>
<svg
   xmlns:dc="http://purl.org/dc/elements/1.1/"
   xmlns:cc="http://creativecommons.org/ns#"
   xmlns:rdf="http://www.w3.org/1999/02/22-rdf-syntax-ns#"
   xmlns:svg="http://www.w3.org/2000/svg"
   xmlns="http://www.w3.org/2000/svg"
   viewBox="0 0 72 77.333336"
   height="77.333336"
   width="72"
   xml:space="preserve"
   id="svg2"
   version="1.1"><metadata
     id="metadata8"><rdf:RDF><cc:Work
         rdf:about=""><dc:format>image/svg+xml</dc:format><dc:type
           rdf:resource="http://purl.org/dc/dcmitype/StillImage" /></cc:Work></rdf:RDF></metadata><defs
     id="defs6" /><g
     transform="matrix(1.3333333,0,0,-1.3333333,0,77.333333)"
     id="g10"><g
       transform="scale(0.1)"
       id="g12"><path
         id="path14"
         style="fill:#231f20;fill-opacity:1;fill-rule:evenodd;stroke:none"
         d="m 279.711,4.82422 c 13.348,-0.39063 27.277,2.91016 40.426,4.26953 7.847,2.13285 15.504,2.13285 22.566,5.42965 3.531,0.1914 6.082,1.9375 9.223,2.3282 18.051,4.0742 33.554,11.8359 49.648,19.789 9.809,6.5938 20.211,11.4414 28.844,18.8164 19.035,13.3828 33.555,28.3203 48.863,45.586 31.395,39.187 52.586,88.652 56.117,139.285 1.375,64.598 0.2,129.004 0.59,193.797 0,40.352 0,80.508 0,120.664 v 15.52 c -63.773,2.714 -130.297,0.578 -195.246,1.164 -65.738,0 -131.082,0 -196.625,0 -44.9334,0 -89.6756,0 -134.0272,0 C 7.34375,534.027 9.89453,494.07 9.10938,455.656 c 0,-65.179 0,-129.968 0,-194.375 C 8.71875,209.875 30.5,158.66 59.7383,116.949 69.7461,104.535 79.9531,91.7305 91.1367,81.0625 c 5.2969,-3.4922 8.8321,-8.9258 13.7343,-11.832 21.391,-19.4024 46.899,-32.2032 73.391,-44.2344 6.086,-0.5781 9.812,-4.6523 15.304,-5.0391 8.047,-3.1054 16.094,-5.2422 23.747,-7.1797 20.996,-3.68355 41.992,-6.98433 62.398,-7.95308" /><path
         id="path16"
         style="fill:#cfa550;fill-opacity:1;fill-rule:evenodd;stroke:none"
         d="m 266.699,23.5703 c 40.817,-2.7148 81.043,8.1485 118.129,24.4414 38.461,19.0117 70.449,49.4727 92.621,84.3863 34.145,45.008 44.742,101.071 39.836,155.582 0,64.985 0,129.586 0,194.184 0,26.188 0,51.797 0,77.211 -1.57,2.129 -5.496,0.387 -7.847,0.969 H 26.3164 C 23.9609,502.73 26.1211,444.145 25.3359,385.75 28.2773,324.063 17.4883,261.793 35.1484,201.652 50.8438,156.453 76.5547,115.523 112.852,84.2891 150.336,50.3438 200.766,31.7188 251,25.5117 c 5.691,-0.582 10.598,-0.3906 15.699,-1.9414" /><path
         id="path18"
         style="fill:#231f20;fill-opacity:1;fill-rule:evenodd;stroke:none"
         d="m 262.234,41.8281 c 3.731,-0.1953 8.246,0.9688 9.817,4.461 1.961,2.9101 2.351,6.207 5.687,6.5976 1.766,0 2.746,-1.5547 3.141,-3.1054 0.195,-3.4922 1.57,-6.2071 4.316,-7.375 0.59,0 0.985,0 1.965,0.3906 l 4.906,11.2539 c 0.196,0 0.391,0.1914 0.981,0.1914 2.941,-0.1914 3.922,-5.625 7.848,-3.8789 3.531,0.1953 5.496,4.4609 9.421,4.8476 3.727,-1.9375 6.473,-7.1757 11.965,-6.0117 1.375,0.1953 2.16,1.3594 2.356,2.7149 -1.371,2.9101 -2.157,6.2109 -0.391,9.1172 0.785,1.3593 1.57,2.5234 2.551,2.9101 3.141,-0.9687 6.672,-1.7461 9.812,-0.3867 1.766,1.5508 1.371,4.2695 0.391,6.207 -1.766,3.1055 -2.746,6.5977 -1.961,9.6992 0.195,0.1954 0.59,0.3907 1.176,0.9727 1.765,0.5781 3.531,-1.9414 4.515,-3.4922 4.317,-5.4336 1.176,-13.3867 7.063,-16.4922 0.395,0 0.98,0 1.375,0 4.906,3.1055 3.141,9.7031 4.906,14.3555 0.59,0.582 1.375,0.9687 2.551,0.9687 4.512,-0.3867 7.063,-6.0117 12.754,-5.0429 2.16,1.1679 2.551,2.5234 3.926,4.0742 -1.766,6.207 -8.637,9.8945 -9.028,16.8789 -2.16,5.2383 -4.711,10.0894 -5.496,15.1294 0,1.167 0.199,1.941 0.981,2.718 0.394,0.196 0.984,0.578 1.375,0.778 2.355,0 3.926,-2.719 4.707,-4.465 1.57,-5.821 3.73,-10.2815 3.535,-15.7112 0.785,-2.332 3.535,-2.7148 5.691,-2.7148 4.907,1.3554 3.532,7.7578 7.063,10.2812 1.18,0.1914 1.765,0.1914 2.16,0.1914 3.922,-2.1328 8.242,-6.5976 13.738,-4.4609 0.782,0.9687 0.586,3.1016 -0.199,4.2695 -1.371,1.9375 -2.551,3.2968 -2.551,5.4298 0.199,0.777 1.18,1.746 2.16,2.133 5.688,-0.582 11.379,-5.6253 17.27,-1.942 0.391,0.391 0.98,1.36 0.98,2.137 -3.73,5.625 -9.421,10.281 -11.777,17.07 -10.199,9.313 -26.883,4.27 -33.945,16.875 -1.571,7.375 -7.457,11.059 -13.934,12.805 -11.773,0 -19.82,6.984 -24.527,16.102 -4.711,15.328 -3.731,30.652 -4.317,45.781 2.747,8.926 2.747,17.848 2.747,26.191 -5.301,7.567 -10.989,14.547 -7.657,23.469 3.535,10.09 1.965,20.566 5.496,30.652 2.356,6.207 -2.355,11.059 -2.746,16.684 -6.082,15.519 -8.047,33.758 0.196,48.305 1.175,2.132 2.55,2.91 4.121,3.297 3.336,-0.583 5.886,-2.715 7.066,-5.817 0.785,-2.523 0.785,-5.047 2.941,-6.598 5.692,-1.359 11.188,-2.714 15.11,-7.953 1.57,-0.39 2.355,-0.777 3.531,-0.777 2.16,0.777 5.102,3.102 7.848,1.164 2.75,-1.941 4.711,-4.852 7.855,-4.269 0.391,0 0.781,0.195 1.371,0.39 1.375,3.297 4.121,5.817 7.653,7.176 0.59,0.387 1.175,0.969 1.175,0.969 0.786,1.359 0.786,3.3 0.786,4.66 -1.766,4.461 -4.317,6.98 -6.082,11.055 -2.942,2.328 -6.473,3.492 -9.223,2.328 -3.336,-1.942 -5.691,-0.778 -8.242,0.582 -3.141,-0.582 -7.063,-1.36 -10.203,0.582 -0.981,0.195 -1.176,0.386 -1.766,1.355 0,0.195 0,0.778 0.391,0.973 3.14,2.133 6.671,4.656 10.203,6.594 9.812,0.39 10.793,12.027 20.019,12.804 1.961,3.492 0.196,8.731 3.137,12.223 0.395,2.328 0.395,4.266 0,6.402 -0.98,2.52 -3.727,3.684 -6.473,3.684 -6.281,-2.91 -14.132,-0.387 -18.84,-5.625 -2.746,-5.625 -8.046,-9.699 -11.382,-13.774 -0.785,0 -1.571,0 -2.16,0.969 -0.586,0.391 -0.586,0.973 -0.782,1.551 0.782,4.852 5.492,9.121 2.352,14.551 0.394,4.074 3.926,8.148 0.785,11.64 -3.137,2.715 -4.902,5.239 -6.473,8.536 -0.59,0.582 -1.57,0.777 -2.355,1.355 -3.336,0.777 -6.277,-0.773 -8.633,-3.684 -0.394,-1.16 -0.98,-1.937 -1.57,-2.714 -0.59,-0.391 -0.985,-0.778 -1.571,-0.778 -0.589,0 -1.179,0 -1.375,0.196 -0.195,0.191 -0.589,0.582 -1.175,1.164 -2.75,8.339 0,17.07 1.175,25.996 2.75,8.144 1.961,18.425 9.422,23.277 0.981,0.387 1.371,0.387 1.371,0.387 l 2.746,-0.387 c 4.122,-3.492 2.161,-10.09 4.907,-14.551 0.59,-8.34 5.886,-14.547 10.992,-20.562 2.156,-0.969 4.316,-0.582 5.883,0 4.515,0.386 10.793,-1.938 13.738,2.715 0.59,6.793 4.316,12.996 -0.586,18.625 -4.516,2.328 -9.816,4.074 -11.973,9.312 0,0.578 0.196,1.164 1.176,1.356 6.672,-1.551 13.348,3.882 20.016,0.968 1.18,0 1.765,0 2.16,0 3.336,3.106 7.457,5.242 11.773,6.598 2.551,3.879 3.336,7.953 7.457,9.504 2.157,3.687 2.747,8.152 0.786,11.058 -3.336,3.688 -8.438,5.434 -12.559,3.688 -4.121,-1.359 -7.852,-0.777 -11.773,0 0.785,3.488 1.765,7.371 0.39,11.445 0.981,4.461 2.16,9.313 -1.371,12.805 -5.496,3.102 -11.582,0.578 -16.484,-1.359 -1.375,-0.778 -2.356,-1.36 -3.141,-1.36 -1.766,0.582 -3.336,1.746 -4.121,3.492 -0.391,2.524 0,4.465 -1.371,6.016 -3.336,2.52 -7.066,5.625 -11.777,4.848 -3.532,-1.164 -6.473,-3.493 -7.848,-6.012 -0.391,-4.27 -1.57,-7.762 -2.746,-11.254 -1.375,-3.297 -2.551,-6.789 -5.106,-8.535 -0.586,-0.387 -1.371,0 -1.961,0.195 -4.711,4.656 2.75,13.578 -4.711,17.266 -4.316,3.687 -10.003,4.847 -13.929,7.758 -15.11,2.523 -30.219,4.265 -44.742,3.297 -9.024,3.687 -17.856,6.21 -26.293,3.687 -5.297,-2.91 -3.532,-10.477 -8.047,-13.969 -4.906,2.719 -10.008,1.36 -14.324,-1.551 -3.141,-1.746 -4.707,-4.265 -7.457,-5.238 -0.782,0 -1.372,0.973 -1.961,1.746 -0.391,2.328 -0.981,5.043 -3.926,5.821 -4.516,2.519 -6.281,7.953 -11.184,7.371 -1.961,-0.387 -3.14,-1.164 -4.711,-1.746 -5.496,-4.848 -13.539,-9.7 -10.793,-18.43 2.942,-6.012 7.262,-10.859 7.852,-17.07 3.726,-5.043 8.633,-10.477 7.258,-16.875 -0.196,-0.969 -0.586,-1.36 -0.586,-1.36 -0.785,-0.582 -1.571,-1.164 -2.356,-1.164 -7.457,4.074 -15.894,4.656 -23.156,0.387 -4.906,-0.969 -7.066,-4.848 -9.617,-8.535 -2.156,-3.879 -1.766,-7.762 0.59,-10.86 5.496,-2.523 10.597,-7.566 16.679,-4.851 3.727,4.461 9.028,-0.582 12.559,2.133 3.141,8.535 14.129,3.687 18.84,11.054 8.437,0.2 14.715,-6.011 22.172,-7.562 1.769,-0.774 2.75,-1.942 3.535,-3.106 1.371,-16.683 5.101,-35.496 -0.981,-51.406 -1.375,-1.555 -2.945,-1.941 -4.32,-1.359 -13.93,6.984 -13.734,26.773 -27.863,32.593 -4.711,-0.195 -8.438,-2.328 -10.598,-5.82 -0.785,-1.746 -0.586,-2.715 -1.57,-3.492 0,-0.391 -0.391,-0.391 -0.586,0 -1.965,3.102 -2.75,6.594 -5.496,9.891 -0.785,3.492 -1.965,6.793 -5.496,7.761 -3.532,0.582 -6.473,-0.777 -8.043,-2.91 -2.746,-4.656 -6.086,-9.504 -10.992,-10.476 -6.473,-1.942 -11.379,4.851 -17.071,1.359 -6.867,-5.238 -4.121,-13.191 -2.746,-19.789 3.922,-10.473 17.66,-10.668 22.172,-20.172 0,-0.777 -0.195,-1.359 -0.391,-1.746 -9.027,-3.297 -20.214,-6.012 -24.136,-15.91 -0.391,-1.746 -0.391,-3.297 -0.981,-4.653 -0.785,-2.718 0.785,-5.433 2.942,-6.789 7.066,-2.332 14.523,-3.691 20.41,-0.777 8.832,7.371 14.718,18.426 24.527,22.887 8.047,-3.489 16.484,-7.176 24.922,-6.981 4.516,-4.656 8.047,-10.476 8.047,-16.101 -0.395,-2.133 -1.766,-3.297 -3.531,-3.492 -11.973,0.386 -14.914,15.324 -25.317,16.296 -3.14,-0.972 -3.531,-5.043 -4.121,-8.343 0.391,-6.403 3.141,-11.832 4.711,-17.461 17.266,-16.875 49.844,-25.41 46.113,-54.895 6.282,-22.312 -12.953,-39.965 -9.222,-61.305 9.617,-26.96 5.297,-57.613 -4.121,-83.605 -9.614,-10.672 -26.489,-8.73 -35.715,-19.016 -13.735,-6.011 -25.903,-10.281 -35.121,-21.336 -3.926,-1.941 -6.871,-4.074 -7.657,-7.761 -0.394,-2.133 0.391,-4.074 2.161,-4.848 3.531,-1.5546 6.867,-0.391 9.812,-1.3593 0.195,-0.1953 0.586,-0.582 0.98,-1.1641 1.176,-2.1328 0.586,-5.0429 3.137,-6.9843 6.672,-1.7461 13.348,7.371 20.41,5.4335 0.586,-0.582 0.786,-1.5546 1.371,-2.3281 0,-1.3594 -0.39,-3.1054 0.59,-4.6562 1.176,-1.5547 3.922,-1.1641 5.887,-0.5821 7.066,3.2969 11.188,7.7579 15.895,12.9996 1.375,1.547 2.16,2.907 3.925,3.489 0.981,0 1.766,-0.582 2.551,-1.356 0.785,-1.359 0.59,-3.301 -0.59,-4.656 -3.726,-6.9844 -12.164,-7.5664 -14.125,-14.9375 -2.75,-4.6562 -10.011,-6.793 -8.246,-12.4141 0.785,-1.7461 3.34,-1.9414 5.301,-1.3593 2.355,0.7734 4.512,1.3593 6.477,1.5507 1.96,-0.1914 2.941,-1.9375 3.332,-3.4921 0,-2.9102 -0.586,-6.0118 0.984,-7.7579 0.391,-0.3906 0.586,-0.582 1.176,-1.1679 0.785,-0.5781 2.156,-0.7735 3.14,-0.7735 5.301,2.1329 4.121,9.8946 9.813,11.6407 0.98,0 1.765,-0.3868 2.355,-0.7774 1.567,-1.7461 -0.394,-4.4609 0.981,-6.207 1.176,-1.3594 2.941,-1.9375 4.707,-1.9375 5.496,1.9375 7.656,6.9805 11.972,8.9219 0.59,0 1.372,-0.3868 1.961,-0.7774 1.571,-6.789 -6.082,-14.1601 -1.175,-20.7578 1.371,-1.3555 2.746,-1.7461 3.726,-1.7461 0.981,0.3906 1.766,0.586 2.551,1.3594 1.57,5.2383 2.156,11.832 8.242,14.3555 0.785,0 1.766,0 2.356,-0.5821 l 2.746,-6.9843 c 0.59,-0.1954 0.785,-1.1641 1.375,-1.3555 0.785,-0.586 1.57,-0.7774 2.746,-0.7774 0.195,0 0.785,0 1.375,0.1914 2.156,7.375 4.117,15.7149 11.969,20.1797 0.195,0 0.589,0 0.785,-0.1953 1.965,-6.789 -0.196,-14.3554 -4.121,-20.5625 -1.965,-2.5234 -4.317,-5.2383 -3.536,-8.5351 0.59,-1.168 1.571,-2.5235 3.336,-2.5235" /><path
         id="path20"
         style="fill:#42826c;fill-opacity:1;fill-rule:evenodd;stroke:none"
         d="m 294.961,58.7344 0.781,0.1953 c 0,0.1953 0.59,0.582 0.785,1.1641 0.786,1.5546 1.766,3.6875 1.18,5.625 -0.59,1.746 -1.965,3.1054 -2.746,5.2382 -0.59,3.8789 -0.59,8.5352 -2.945,11.6407 -0.391,0 -0.981,0 -1.375,0 -0.786,-0.5821 -0.786,-1.3594 -1.176,-2.1329 0.59,-5.4335 5.691,-9.1171 3.336,-14.5507 0.195,-2.7149 -0.391,-4.8516 0.195,-6.9844 0.395,-0.1953 1.18,-0.582 1.375,-0.582 l 0.59,0.3867" /><path
         id="path22"
         style="fill:#42826c;fill-opacity:1;fill-rule:evenodd;stroke:none"
         d="m 283.801,68.6602 c 0.59,2.1328 -1.371,4.0742 -2.942,5.0468 -1.175,0.5782 -1.765,0.5782 -2.16,0.5782 -0.586,0 -0.98,-0.9688 -1.176,-1.9375 0.59,-2.3321 2.942,-3.6875 5.102,-4.461 0.59,0 1.176,0 1.176,0.7735" /><path
         id="path24"
         style="fill:#42826c;fill-opacity:1;fill-rule:evenodd;stroke:none"
         d="m 268.684,76.9922 c 0.39,0 0.589,0.1953 0.785,0.582 0.39,0.5821 0,0.9688 -0.395,1.3594 -0.39,0 -0.586,0 -1.176,-0.3906 -0.195,-0.1914 -0.589,-0.9688 -0.589,-1.5508 0.394,-0.1953 1.179,-0.582 1.375,0" /><path
         id="path26"
         style="fill:#00a650;fill-opacity:1;fill-rule:evenodd;stroke:none"
         d="m 304.996,77.1172 c 6.086,1.9375 9.031,7.1758 11.578,12.8008 -1.371,8.9258 -4.121,18.816 0.985,26.578 3.531,2.91 7.847,6.594 12.554,4.266 6.477,-2.133 7.461,-9.114 9.617,-14.16 0.196,-3.493 0.786,-6.012 0.786,-8.727 0.195,-0.9727 0.589,-1.5547 1.375,-2.1367 2.156,0 4.511,1.3594 6.863,1.9414 3.73,4.8473 -0.391,11.8323 0.785,17.8433 1.375,2.719 3.535,6.211 7.066,6.598 6.868,0.582 10.399,-5.82 15.7,-6.984 l 3.336,0.777 c 0.785,0.387 1.57,0 2.75,0 1.566,-0.391 2.941,-2.523 5.097,-2.523 1.965,0 3.926,1.554 4.711,3.105 0,1.164 0.196,1.746 0.196,2.133 -0.981,2.523 -4.317,4.074 -7.258,4.461 -9.032,2.523 -16.68,6.598 -22.961,13.195 -0.785,3.102 -0.785,5.817 -3.531,6.981 -6.477,2.132 -11.973,4.464 -17.661,7.179 -5.691,2.715 -9.027,7.567 -12.558,11.641 -3.535,0.969 -8.242,1.937 -9.223,6.207 -6.676,18.039 -9.812,38.215 -6.676,56.836 -8.632,20.758 -9.218,45.203 -7.062,67.898 -0.785,1.938 -0.195,3.106 -0.195,3.879 0.195,0.778 0.98,1.555 1.57,2.133 1.176,0.586 2.746,0.777 4.117,0.777 1.57,0.778 1.18,3.493 0.785,4.657 -2.746,5.238 -1.566,11.054 -4.117,15.906 -0.395,2.328 0.391,3.883 0,5.82 -0.199,0.582 -0.395,0.778 -1.375,1.356 0,0 -0.391,0 -0.785,-0.192 -2.156,-2.523 -0.59,-6.015 -1.766,-8.922 0.785,-6.789 -3.726,-12.418 -2.551,-18.816 0,-0.586 -0.589,-1.359 -1.371,-1.746 -0.199,-0.195 -0.984,-0.391 -1.964,-0.777 -1.372,0.386 -2.356,1.359 -2.946,2.906 2.75,10.09 0.789,21.926 6.871,31.043 0.981,0.387 2.157,0 3.137,0.387 0.59,0.191 1.375,0.386 1.965,1.164 2.156,9.503 -2.945,22.113 5.687,29.488 1.18,7.758 -1.765,15.519 -6.668,21.531 -0.394,0 -0.589,0 -0.984,0 l -3.727,-12.223 2.551,-11.832 c -0.39,-0.777 -0.98,-1.55 -1.765,-2.328 -0.59,-0.386 -1.375,-0.582 -2.157,-0.582 -2.75,0.582 -2.945,4.266 -3.535,6.789 -1.961,14.551 -3.336,29.684 2.946,43.067 0.589,0.582 1.175,1.164 1.175,1.164 0.981,0.777 2.746,0.387 4.121,0.969 4.317,6.207 0.786,15.906 0.391,23.281 -3.137,8.34 0.984,16.101 -1.566,23.664 -0.2,6.402 0,12.031 0.586,18.238 l 2.746,11.637 c 0.589,0.582 0.984,0.777 1.57,1.359 2.746,0 3.926,-2.133 6.086,-3.297 2.941,1.36 5.887,3.297 9.223,4.653 4.121,4.074 9.418,6.988 11.773,12.418 -0.395,0.777 -0.59,1.55 -1.77,2.132 -5.687,-1.164 -11.378,-4.07 -17.656,-3.296 -2.945,3.492 -7.851,3.296 -10.597,6.984 -0.395,4.848 -1.375,9.504 -5.493,11.637 -0.984,0.777 -2.16,1.168 -3.336,1.168 -0.199,0 -0.785,0 -0.984,-0.586 -0.391,0 -0.785,-0.582 -1.176,-0.774 -2.355,-4.461 -0.394,-9.312 -2.16,-13.773 -0.195,-12.61 1.375,-27.547 -4.121,-38.024 -2.355,0 -3.531,2.911 -3.922,5.047 0.195,6.59 -2.75,11.442 -3.926,17.067 -1.375,2.718 -2.55,5.433 -0.98,7.761 9.219,5.239 7.258,15.907 7.062,24.25 -9.613,8.727 -23.351,13.774 -35.519,17.266 -3.336,0.191 -6.082,0 -7.453,-2.137 -0.59,-1.164 -0.59,-1.55 -0.785,-1.941 0,-7.176 0.195,-15.129 0,-22.113 -1.965,-9.7 0.586,-19.59 -2.161,-28.711 -7.847,-20.754 1.961,-42.289 -0.785,-63.434 -1.765,-7.566 -1.176,-17.266 -8.242,-20.176 -9.613,-1.55 -14.715,7.762 -21.582,12.223 -5.301,5.82 -6.676,14.742 -12.758,19.594 -0.586,0 -0.98,0 -1.961,-0.196 -1.375,-1.164 -2.355,-3.101 -2.355,-4.847 5.887,-8.731 14.324,-16.688 19.23,-26.774 1.965,-4.265 6.672,-6.402 7.457,-10.476 4.317,-7.563 10.008,-13.192 16.094,-18.235 -1.965,-4.074 -6.871,-6.597 -10.601,-9.504 l -3.922,0.969 -10.008,-7.953 c 10.398,-6.012 18.445,-16.488 24.531,-27.547 0.586,-8.34 -0.199,-16.488 2.746,-23.859 -1.18,-11.836 0.981,-23.668 -2.945,-34.727 -0.586,-4.461 -3.336,-7.953 -3.727,-12.414 0.391,-0.195 0.391,-0.777 0.981,-0.969 1.765,0.774 2.355,3.684 4.511,4.266 0.786,0 1.766,0 2.161,-0.582 l 3.922,-9.699 c 1.375,-6.598 0.589,-12.805 -0.786,-19.594 -0.98,-2.519 -1.765,-3.683 -3.136,-5.043 -10.207,-7.176 -4.512,-19.789 -7.262,-29.68 -0.785,-12.609 -2.746,-24.636 -5.301,-36.472 -3.531,-9.117 -10.004,-15.906 -19.031,-18.817 -5.496,-2.132 -11.969,-1.55 -14.324,-7.175 -0.391,-1.36 -0.391,-1.938 -0.59,-2.715 0.199,-0.582 0.199,-0.778 0.59,-1.36 1.375,-1.746 3.531,-0.386 5.297,-1.746 1.96,-2.328 -0.786,-5.043 0,-7.761 0.394,-0.192 0.589,-0.582 0.98,-0.582 3.531,0.582 5.297,3.882 9.223,3.882 1.57,-0.582 3.14,-1.359 4.32,-2.91 l 3.336,-6.594 c 0.195,0 0.391,0 0.98,0 4.707,5.622 9.809,17.071 18.836,14.934 2.75,-1.164 5.692,-1.746 7.457,0.195 3.727,5.043 5.692,11.641 11.973,13.774 1.57,-0.387 2.746,-1.164 2.941,-2.719 -1.371,-12.605 -11.773,-20.754 -15.894,-32.008 -2.16,-4.847 -4.317,-8.3396 -6.672,-12.4099 0,-1.3594 0.395,-2.7188 1.766,-3.3008 2.746,-0.582 4.906,-1.9414 7.261,-1.9414 3.727,2.5234 7.063,8.3437 12.754,6.2109 1.965,-0.3906 3.532,-1.7461 5.102,-1.3594 3.926,1.9375 5.691,8.9256 11.187,7.5666 4.907,-1.3595 8.043,-4.8517 9.418,-8.9259 4.903,2.5234 9.223,10.0859 16.289,8.9259 2.547,-0.7775 4.707,-2.715 4.707,-4.4611 1.766,-6.2109 -0.589,-12.2226 0.981,-17.8476 0.59,-0.1954 0.785,-0.7774 1.375,-1.3594 0.586,-0.1953 1.566,-0.1953 2.156,0.1953" /><path
         id="path28"
         style="fill:#42826c;fill-opacity:1;fill-rule:evenodd;stroke:none"
         d="m 207.578,86.0586 0.391,0.3906 c 1.965,4.2656 2.75,10.086 2.75,15.3238 0,0.196 -0.199,0.196 -0.395,0.582 -4.121,-3.2964 -6.277,-8.9214 -9.023,-13.5777 0.98,-1.9414 3.726,-2.9101 6.277,-2.7187" /><path
         id="path30"
         style="fill:#42826c;fill-opacity:1;fill-rule:evenodd;stroke:none"
         d="m 221.586,93.043 c 3.727,3.3008 7.453,7.953 8.633,13.191 0.195,1.36 0.195,1.942 0.195,2.524 -0.195,1.551 -1.57,2.715 -2.941,3.492 -2.356,0 -4.121,-2.523 -5.102,-4.656 0.391,-5.239 -4.121,-9.1213 -2.551,-13.9651 0.391,-0.1953 0.586,-0.5859 1.176,-0.7773 l 0.59,0.1914" /><path
         id="path32"
         style="fill:#42826c;fill-opacity:1;fill-rule:evenodd;stroke:none"
         d="m 330.156,92.8008 c 0.785,0.582 0,0 0.785,0.582 1.375,3.1016 1.176,6.9842 0,10.2772 -0.589,0.973 -0.785,1.168 -1.375,1.555 -0.195,0.191 -0.98,0.582 -1.765,0.773 -0.586,-0.191 -0.981,-0.191 -1.371,-0.582 -0.395,-0.191 -0.59,-0.578 -1.176,-0.968 -1.965,-3.493 0.781,-7.9536 2.941,-10.8599 0.391,-0.1953 1.176,-0.7773 1.961,-0.7773" /><path
         id="path34"
         style="fill:#231f20;fill-opacity:1;fill-rule:evenodd;stroke:none"
         d="m 256.906,112.035 c 0.981,0.195 1.766,0.195 2.551,0.969 0.195,0.391 0.59,0.777 0.981,1.168 1.179,2.906 1.179,7.176 -0.786,9.891 -0.195,0 -0.785,0.195 -1.371,0.195 -2.945,-2.328 -5.691,-5.043 -7.652,-8.731 0.98,-2.132 3.922,-3.297 6.277,-3.492" /><path
         id="path36"
         style="fill:#42826c;fill-opacity:1;fill-rule:evenodd;stroke:none"
         d="m 176.965,116.938 c 0.59,0.968 1.176,2.324 1.176,3.683 -0.391,0.195 -0.586,0.586 -0.981,0.777 -0.195,0 -0.785,0 -1.176,0 -0.39,-0.191 -0.98,-0.582 -1.375,-0.777 -0.586,-0.582 -1.175,-1.359 -0.98,-2.328 0.98,-0.969 1.375,-2.324 2.746,-2.324 0.395,0.386 0.59,0.578 0.59,0.969" /><path
         id="path38"
         style="fill:#231f20;fill-opacity:1;fill-rule:evenodd;stroke:none"
         d="m 296.32,126.617 c 2.946,0.387 6.282,2.328 7.653,5.043 0.98,8.344 -3.532,15.133 -2.551,23.668 -0.586,1.356 -0.586,2.52 -0.981,3.297 -2.55,1.941 -4.902,4.852 -8.433,4.074 -1.18,-0.386 -1.77,-1.359 -1.965,-2.715 2.945,-4.074 6.867,-9.507 4.121,-14.941 -2.551,-3.492 -6.871,-2.324 -10.598,-3.684 -1.179,-1.355 -0.589,-3.296 0.196,-4.851 3.531,-3.293 8.246,-5.039 9.812,-9.113 0.785,-0.586 1.571,-1.168 2.16,-1.168 l 0.586,0.39" /><path
         id="path40"
         style="fill:#231f20;fill-opacity:1;fill-rule:evenodd;stroke:none"
         d="m 264.219,166.195 c 2.945,0.192 6.281,0.969 7.851,4.075 -0.785,10.085 0.785,20.753 3.141,30.648 -0.199,6.984 0.195,13.773 -2.551,19.594 l 1.371,7.371 c -0.39,0.969 -1.176,2.133 -2.355,2.715 -0.781,0 -1.176,-0.387 -1.766,-0.774 -1.765,-1.363 -1.371,-4.078 -0.586,-5.824 1.176,-0.969 0.196,-1.742 0.785,-2.715 -4.32,-4.847 -1.57,-12.219 -6.476,-17.07 -0.395,-0.387 -0.785,-0.387 -1.18,0 -1.375,0.969 -2.355,2.523 -4.512,2.328 -4.906,-1.551 -6.671,-7.566 -8.242,-11.832 0.785,-6.984 3.531,-13 4.121,-19.594 3.141,-3.297 6.278,-7.953 10.399,-8.922" /><path
         id="path42"
         style="fill:#231f20;fill-opacity:1;fill-rule:evenodd;stroke:none"
         d="m 300.535,176.488 0.195,0.383 c -4.316,8.731 0,20.567 -7.847,27.356 -2.551,18.429 -2.16,36.859 -1.375,54.898 0,1.555 -1.371,2.137 -2.746,2.328 -2.551,-0.39 -3.336,-3.683 -3.926,-6.207 -0.785,-21.535 -7.063,-42.484 1.961,-62.465 7.656,-4.074 5.695,-14.164 13.148,-17.265 0,0.386 0.2,0.582 0.59,0.972" /><path
         id="path44"
         style="fill:#231f20;fill-opacity:1;fill-rule:evenodd;stroke:none"
         d="m 373.539,193.395 c 2.941,-0.387 6.473,-0.387 8.238,2.714 2.161,5.043 7.262,5.239 11.578,5.043 13.739,-2.519 30.614,-13.382 41.997,-2.714 0.586,0.777 0.785,1.167 1.175,1.55 -0.39,2.524 -2.746,3.883 -4.707,4.461 -3.73,1.36 -6.48,3.883 -10.601,4.465 -0.196,0.387 -0.196,0.774 0,1.359 7.461,1.36 14.918,-1.554 22.371,1.161 10.012,2.328 21.586,2.136 28.062,10.671 0.59,0.778 1.18,1.356 1.18,1.356 0,0.777 0,1.941 -0.98,2.719 -0.2,0.386 -0.786,0.582 -0.985,0.773 -7.066,1.942 -14.519,1.942 -21.781,0.777 -0.586,0.391 -1.371,0.583 -1.766,1.165 -0.195,0.582 0,1.355 0.395,1.941 2.941,1.746 6.672,2.715 9.808,4.852 9.028,2.324 16.094,7.949 24.528,10.281 5.887,3.875 12.562,7.758 15.504,14.156 0,1.555 0,2.719 -0.586,3.883 -1.375,1.746 -4.516,2.91 -7.067,1.746 -12.558,-6.598 -25.511,-9.117 -38.066,-13.969 -1.18,-0.195 -1.766,-0.195 -1.965,-0.195 -0.391,0.195 -0.586,0.39 -0.785,0.777 -0.391,0.582 0.199,1.36 0.394,1.938 4.122,1.746 7.653,4.465 11.77,6.406 5.691,1.551 9.617,5.43 14.719,6.789 10.398,6.594 21.586,12.605 27.863,22.309 0.199,2.523 0,5.238 -1.961,5.625 -1.371,0.582 -1.961,0.968 -2.746,0.968 -19.23,-7.562 -37.285,-18.816 -57.105,-26.574 -0.586,0 -1.372,0.387 -1.961,0.774 0,0.582 0,1.359 0.589,1.941 21.192,11.254 46.899,21.727 57.887,45.59 0,2.129 -0.98,4.847 -3.137,6.012 -0.785,0.195 -1.375,0.386 -1.375,0.386 -20.015,-8.535 -35.714,-23.863 -57.496,-31.621 -1.375,-1.355 -2.746,-1.937 -3.922,-2.324 -0.394,0 -1.375,0.387 -1.57,0.969 14.125,10.086 32.965,16.297 41.207,32.976 -0.39,3.106 -1.176,6.016 -3.336,7.375 -6.871,3.684 -11.773,-2.914 -17.07,-4.66 -11.188,-6.594 -19.231,-15.906 -31.203,-20.367 -0.785,0 -1.766,-0.387 -2.746,0.195 -0.395,0.387 -0.395,1.16 -0.199,1.938 5.101,4.074 10.597,8.152 11.972,15.519 -0.195,3.688 -2.355,5.821 -5.105,6.789 -15.5,-2.328 -29.434,-11.25 -44.149,-16.679 -7.457,-3.688 -15.894,-7.567 -16.679,-15.911 0.195,-4.847 1.375,-9.312 5.101,-12.218 6.277,-2.715 12.949,-2.914 18.645,-0.586 3.726,-6.981 10.004,-14.547 7.847,-23.082 -7.652,-11.641 5.493,-24.25 -2.355,-34.531 -1.766,-0.969 -2.551,-2.133 -3.336,-2.329 -0.195,0 -0.785,0 -1.371,0 -1.965,5.434 -3.34,12.61 -10.602,13.774 -4.117,0.773 -8.238,-0.387 -10.984,-3.102 -1.375,-2.136 -1.57,-4.269 -2.16,-6.406 -0.196,-0.191 -0.196,-0.578 -0.785,-0.773 -5.497,-0.778 -12.364,-1.356 -15.305,-6.985 -2.356,-3.879 -1.766,-7.953 -0.195,-11.058 2.941,-4.653 7.648,-8.145 12.75,-7.563 3.929,-3.297 4.32,-9.508 10.402,-10.281 0.98,0 1.57,-0.195 2.16,-0.195" /><path
         id="path46"
         style="fill:#00adef;fill-opacity:1;fill-rule:evenodd;stroke:none"
         d="m 423.238,198.418 4.512,0.777 c -0.785,2.133 -4.902,3.489 -7.062,4.657 -4.122,0.191 -7.258,1.55 -10.598,2.714 -1.57,0.579 -2.16,1.356 -3.336,1.356 -0.785,0.391 -1.375,0.969 -1.57,1.746 0,2.328 1.961,4.465 4.121,5.434 13.933,3.878 28.062,-2.911 40.816,2.714 4.32,0.582 8.242,1.36 11.973,2.524 1.765,0.777 3.336,0.969 3.922,2.328 -17.27,0.773 -34.93,-3.688 -52.981,-0.777 -0.98,3.687 1.375,7.179 4.121,9.699 23.942,5.82 53.371,10.668 72.801,26.965 l -0.59,0.195 c -4.512,-2.91 -9.808,-4.852 -15.304,-6.789 -16.485,-4.465 -32.965,-11.254 -50.04,-10.863 -1.57,0.191 -2.55,1.746 -2.55,3.492 1.375,3.488 1.961,7.176 5.492,8.34 13.148,4.269 24.531,11.058 37.09,14.937 7.652,3.297 14.914,7.371 21.781,10.863 4.316,2.911 8.437,6.208 11.773,10.086 0,0.973 -1.371,0.582 -2.156,0.582 -9.812,-4.652 -18.055,-10.668 -27.867,-13.964 -11.969,-8.344 -26.688,-11.446 -39.441,-17.461 -0.786,0 -1.375,0 -1.375,0 -0.59,0 -1.176,0.195 -1.375,0.777 l 0.199,13.191 c 22.172,14.356 51.219,21.922 66.324,44.813 -1.961,1.355 -4.316,-1.941 -6.277,-2.91 -18.25,-14.746 -41.211,-22.117 -61.028,-33.949 -0.59,0 -1.179,0 -1.765,0.386 l -5.887,10.282 c 0.195,2.718 3.336,3.878 5.492,4.851 12.953,4.656 23.547,12.219 33.754,20.367 3.531,2.328 6.473,4.461 8.633,7.567 0,0.195 0,0.777 -0.195,1.164 0.585,0.582 -2.161,0 -0.786,0.582 -0.589,0 -1.179,0 -1.375,0 -16.875,-7.953 -31.398,-22.891 -50.429,-27.742 -3.926,1.746 -4.91,6.015 -6.871,9.507 0,0.582 0,0.973 0.589,1.356 5.887,5.433 14.719,7.762 18.25,15.519 0,0.778 -0.195,1.36 -0.785,1.942 -13.738,-2.133 -24.332,-14.547 -38.656,-16.488 -5.887,-2.911 -11.773,-6.208 -12.949,-11.836 -0.199,-1.356 0,-1.938 0,-2.715 l 1.371,-2.328 c 2.16,-1.942 5.496,-2.133 7.848,-1.164 1.964,1.746 2.746,3.882 5.296,4.269 7.067,-2.328 10.012,-9.699 13.934,-15.519 7.063,-13.582 -4.707,-28.129 3.731,-41.903 -2.161,-7.953 -6.282,-16.683 -13.54,-19.398 -3.339,-0.582 -6.675,-0.969 -9.421,0.582 -0.391,0.582 -0.786,1.355 -0.981,2.519 1.57,3.106 0,7.18 -2.156,9.313 -0.59,0.582 -1.18,1.164 -1.18,1.164 h -2.746 c -4.512,-1.942 -3.726,-9.309 -9.223,-9.699 -2.945,-0.778 -4.906,0.195 -7.261,-1.164 -1.766,-1.36 -3.137,-4.266 -1.961,-6.789 0.195,-0.387 0.59,-1.36 0.59,-1.36 0.39,-0.191 0.781,-0.387 0.98,-0.773 3.137,-1.746 5.688,0 8.828,0.582 0.59,-0.196 0.785,-0.196 1.375,-0.582 0.196,-0.196 0.391,-0.391 0.785,-0.973 1.571,-3.297 0.786,-7.953 4.516,-10.086 1.961,0 4.117,1.356 4.902,3.297 0.395,1.359 0.981,1.941 1.18,2.719 7.063,2.133 16.285,0.969 23.348,-1.555 6.867,-3.488 14.328,-5.82 21.39,-7.371" /><path
         id="path48"
         style="fill:#231f20;fill-opacity:1;fill-rule:evenodd;stroke:none"
         d="m 272.898,236.895 c 0.196,0.191 0.196,0.578 0.196,1.16 -0.395,0.39 -1.375,0.39 -1.571,0 -0.195,-0.582 0,-0.969 0,-1.356 0.196,-0.582 0.786,-0.39 1.176,-0.39 l 0.199,0.586" /><path
         id="path50"
         style="fill:#231f20;fill-opacity:1;fill-rule:evenodd;stroke:none"
         d="m 111.895,186.41 c 8.636,-0.777 15.109,9.504 24.527,5.043 3.141,-1.746 6.281,-4.848 9.812,-4.848 6.672,11.446 20.016,6.985 31.004,10.086 4.907,3.106 11.973,2.137 14.129,7.567 -0.98,5.043 3.531,9.894 -0.195,13.578 -3.922,2.715 -7.652,4.074 -11.188,6.793 -12.75,4.07 -22.367,14.351 -36.3,13.773 -6.868,1.161 -10.008,9.696 -16.875,6.981 -11.188,-1.938 -20.996,-6.403 -31.3988,-8.922 -6.6719,-3.492 -14.7149,-4.852 -19.8164,-9.313 -5.3008,-2.136 -11.1875,0 -16.2891,0.969 -4.9063,1.36 -8.6328,3.301 -12.168,5.629 -0.9804,0 -1.5664,0 -1.7656,0 -1.9609,-0.777 -3.5313,-2.137 -3.9219,-4.465 0.5899,-5.429 6.8672,-9.117 5.2969,-15.129 -2.5508,-5.043 -6.6719,-10.863 -3.3359,-16.101 0.5898,-0.582 1.375,-1.164 2.1601,-1.164 7.0625,1.164 12.7539,6.984 20.8008,6.207 3.9219,-1.551 3.1367,-7.18 7.0625,-9.504 9.0273,-1.555 17.8555,7.367 27.2774,3.101 4.121,-3.296 3.727,-10.086 10.008,-10.281 0.586,0 1.176,0 1.176,0" /><path
         id="path52"
         style="fill:#00adef;fill-opacity:1;fill-rule:evenodd;stroke:none"
         d="m 124.91,200.867 c 9.024,-0.387 16.481,4.27 24.528,7.953 3.531,2.137 3.335,6.598 6.671,8.149 0.196,0 0.981,0 1.371,-0.192 2.356,-4.074 -0.585,-11.058 4.516,-14.164 6.281,-0.191 12.754,0.778 17.66,3.883 0.59,0.774 0.981,1.356 1.176,1.746 -1.57,1.938 -5.687,0.578 -7.062,3.879 -0.786,2.328 -0.391,4.266 -1.961,5.82 -17.075,12.997 -39.246,10.282 -58.282,6.789 -17.2692,-5.82 -35.1247,-9.312 -52.3903,-5.628 -2.9453,-0.774 -2.9453,-4.266 -2.9453,-6.789 0,-0.774 0.5899,-1.551 0.5899,-1.551 9.0234,0 18.8359,2.133 27.2734,-3.297 11.3828,-4.266 23.9413,-4.461 35.7153,-5.82 1.375,-0.582 2.16,-0.778 3.14,-0.778" /><path
         id="path54"
         style="fill:#0994dc;fill-opacity:1;fill-rule:evenodd;stroke:none"
         d="m 87.3555,223.656 c 15.1095,3.883 30.4145,9.121 45.9145,12.032 0.589,0.386 1.179,0.773 1.179,0.773 0,1.746 -2.16,2.523 -3.926,2.719 -15.109,-3.106 -30.8042,-6.989 -44.5425,-13.774 0,-0.195 0,-0.777 -0.3907,-0.972 0,-0.579 1.1758,-0.778 1.7657,-0.778" /><path
         id="path56"
         style="fill:#42826c;fill-opacity:1;fill-rule:evenodd;stroke:none"
         d="m 316.648,260.297 c 0.196,0.773 0.395,1.551 0.786,2.715 v 9.312 c -0.391,0 -0.786,0 -1.176,0.387 -0.195,-0.387 -0.59,-0.777 -0.785,-1.359 0,-0.582 0.59,-1.164 0.59,-1.747 -0.59,-2.91 -1.965,-6.011 -1.18,-9.699 0.394,-0.773 1.375,0 1.765,0.391" /><path
         id="path58"
         style="fill:#231f20;fill-opacity:1;fill-rule:evenodd;stroke:none"
         d="m 290.25,267.891 0.59,0.195 c 0,0.582 0.586,1.359 0,1.937 -0.199,0.196 -0.59,0.586 -0.985,0.778 -0.39,0.191 -1.175,-0.192 -1.375,-0.582 -0.39,-0.774 -0.39,-1.551 0,-2.328 0.395,-0.582 1.375,-0.582 1.77,0" /><path
         id="path60"
         style="fill:#42826c;fill-opacity:1;fill-rule:evenodd;stroke:none"
         d="m 319.004,278.551 c 0.391,1.937 1.176,3.883 0.785,6.015 -0.195,0 -0.394,0 -0.785,0 -0.195,0 -0.59,0 -0.59,-0.586 -0.195,-2.132 -0.98,-4.07 -0.785,-6.398 0.394,0 0.59,0 0.785,0 0.395,0.191 0.59,0.582 0.59,0.969" /><path
         id="path62"
         style="fill:#42826c;fill-opacity:1;fill-rule:evenodd;stroke:none"
         d="m 311.938,292.766 c 0.589,0.386 0.589,1.164 0.785,2.132 -0.196,1.165 -1.375,1.938 -2.16,2.715 -0.586,0.196 -1.176,0 -1.372,-0.191 l 1.372,-4.656 c 0.199,0 0.199,-0.391 0.785,-0.582 0,0.191 0.394,0.191 0.59,0.582" /><path
         id="path64"
         style="fill:#231f20;fill-opacity:1;fill-rule:evenodd;stroke:none"
         d="m 108.176,270.953 c 6.672,-0.969 11.578,4.461 17.859,6.016 1.766,1.359 3.727,2.715 5.887,2.133 4.316,-2.133 8.437,-7.18 13.734,-5.434 10.793,10.48 26.098,5.242 38.266,11.641 3.926,1.164 7.457,2.714 8.437,6.015 0.391,4.656 3.926,8.535 1.961,12.219 -10.004,9.312 -24.527,10.867 -35.125,18.043 -9.023,4.461 -18.836,0.969 -26.492,8.344 -14.32,2.328 -27.273,-6.207 -40.2264,-8.344 -8.4375,-1.746 -15.3047,-5.82 -21.7813,-10.086 -9.6133,-2.328 -16.4805,6.984 -25.1172,6.594 -2.9414,-1.746 -2.7461,-6.207 -2.1562,-8.731 2.1562,-5.043 6.6679,-9.117 4.3164,-13.965 -3.336,-3.492 -6.082,-7.566 -4.9063,-11.835 0.5899,-1.747 1.375,-3.879 3.336,-4.461 6.4765,0 10.5976,7.179 17.0742,7.179 3.9219,-1.359 2.9414,-6.597 5.4922,-9.117 10.4023,-1.551 21.7812,10.668 31.3986,3.293 2.355,-1.937 1.375,-4.844 2.355,-6.398 1.371,-1.36 3.336,-3.106 5.688,-3.106" /><path
         id="path66"
         style="fill:#00adef;fill-opacity:1;fill-rule:evenodd;stroke:none"
         d="m 108.176,288.723 c 17.074,-1.36 35.715,2.132 47.683,14.933 0.196,0 0.786,0 1.375,0 2.746,-3.297 -0.394,-8.144 1.571,-12.218 0.39,0 0.586,-0.583 1.175,-0.778 4.907,-2.715 10.403,-0.387 15.7,0.195 1.961,0.583 3.531,0.583 4.906,1.942 0.785,1.164 1.375,2.324 1.375,3.683 -0.199,0.969 -0.59,1.747 -1.375,2.329 -2.945,0 -5.887,-2.52 -8.633,0 -2.551,2.91 -1.57,7.761 -5.301,8.535 -10.203,4.074 -20.601,6.402 -31.004,7.761 -11.773,-1.55 -22.371,-4.851 -33.16,-8.343 -13.1482,-2.715 -25.906,-6.207 -39.0505,-3.684 -1.5703,-0.582 -2.1602,-0.777 -3.3359,-1.359 -1.375,-1.36 -0.7852,-3.492 -0.9805,-5.625 0.1953,-1.164 0.7852,-1.746 1.5703,-1.942 10.1992,1.551 21.7813,2.715 31.1953,-2.91 5.6953,-1.164 10.9923,-2.133 16.2893,-2.519" /><path
         id="path68"
         style="fill:#231f20;fill-opacity:1;fill-rule:evenodd;stroke:none"
         d="m 298.305,333.813 c 0.394,0.582 0.195,1.164 0,1.746 -0.59,0.191 -1.176,0 -1.375,-0.387 -0.391,-0.391 0,-0.973 0,-1.555 0.199,-0.191 0.785,-0.582 1.375,0 v 0.196" /><path
         id="path70"
         style="fill:#231f20;fill-opacity:1;fill-rule:evenodd;stroke:none"
         d="m 268.684,342.023 c 2.746,0.579 5.492,2.907 7.257,4.848 0.395,5.625 -1.175,9.895 -0.39,15.324 -0.196,0.778 -0.395,1.746 -0.395,1.746 -0.195,0.196 -0.39,0.391 -0.98,0.778 -4.317,-0.387 -4.317,-6.207 -7.848,-8.149 -0.394,0 -0.785,-0.195 -1.18,-0.195 -0.585,0 -0.98,0.195 -1.371,0.391 -0.589,0.582 -0.785,1.16 -0.984,1.937 0.395,2.715 1.57,6.598 4.516,7.762 1.375,0.387 1.964,0 2.75,0.582 0.39,0.387 0.586,0.582 0.781,0.777 0.59,2.324 0.394,4.848 -1.371,6.012 -2.356,1.355 -4.906,1.551 -6.477,0.582 -3.535,-1.941 -4.906,-5.434 -5.691,-8.34 -0.395,-3.496 2.746,-6.015 1.57,-9.312 -0.98,-1.746 -0.98,-4.461 0.586,-6.407 3.336,-2.906 5.106,-8.144 9.227,-8.336" /><path
         id="path72"
         style="fill:#42826c;fill-opacity:1;fill-rule:evenodd;stroke:none"
         d="m 364.492,350.723 h 0.586 c 0.59,0 0.985,0.386 1.375,0.968 -3.926,5.043 -11.973,5.625 -18.25,9.118 -1.375,0.386 -1.961,-0.196 -2.746,0 -0.394,-0.196 -0.59,-0.391 -0.785,-0.774 0.195,-2.137 1.766,-3.691 4.121,-4.851 5.297,-2.332 10.199,-4.075 15.699,-4.461" /><path
         id="path74"
         style="fill:#42826c;fill-opacity:1;fill-rule:evenodd;stroke:none"
         d="m 318.137,363.953 c 0.195,0.192 0.59,0.192 0.785,0.777 1.176,3.106 0,6.981 -2.746,9.313 -0.59,0.383 -1.375,-0.195 -1.571,-0.777 l 1.961,-8.926 c 0,-0.195 0.395,-0.387 0.981,-0.774 l 0.59,0.387" /><path
         id="path76"
         style="fill:#42826c;fill-opacity:1;fill-rule:evenodd;stroke:none"
         d="m 326.813,371.918 c 2.55,1.359 2.746,4.266 3.136,6.984 -0.39,4.657 -3.922,7.563 -6.867,9.504 -0.586,0 -1.176,-0.195 -1.371,-0.773 -1.18,-5.434 0,-11.641 3.531,-15.715 0.586,0 1.176,0 1.571,0" /><path
         id="path78"
         style="fill:#42826c;fill-opacity:1;fill-rule:evenodd;stroke:none"
         d="m 144.863,375.961 c 5.301,2.715 10.989,6.402 14.129,11.641 -5.691,0 -10.008,-5.434 -15.5,-7.372 -0.199,-0.195 -0.789,-0.777 -0.984,-1.359 -0.391,-0.387 -0.59,-0.973 -0.391,-1.551 0.391,-0.195 0.391,-1.359 0.981,-1.55 0.394,0 1.179,0 1.765,0.191" /><path
         id="path80"
         style="fill:#42826c;fill-opacity:1;fill-rule:evenodd;stroke:none"
         d="m 351.973,378.902 c 4.117,2.52 7.652,6.594 9.027,11.055 -0.199,0.586 -0.59,0.777 -1.18,1.168 -3.531,-0.582 -6.672,-2.914 -8.832,-6.016 -1.175,-2.132 -1.765,-4.074 -0.98,-5.625 0.394,-0.777 1.18,-0.582 1.965,-0.582" /><path
         id="path82"
         style="fill:#42826c;fill-opacity:1;fill-rule:evenodd;stroke:none"
         d="m 190.969,391.891 c 0.785,0 1.179,0.582 1.57,0.773 2.75,4.852 -1.766,9.703 -3.141,13.969 -1.96,4.656 -6.277,6.594 -8.043,10.281 -0.98,0.387 -1.375,1.359 -2.16,2.524 -3.136,-6.598 -1.961,-14.356 -3.531,-21.34 2.75,-5.043 10.203,-4.852 15.305,-6.207" /><path
         id="path84"
         style="fill:#42826c;fill-opacity:1;fill-rule:evenodd;stroke:none"
         d="m 333.629,394.34 c 2.941,3.105 2.551,8.344 1.371,12.027 -0.59,0.582 -0.785,1.164 -0.785,1.164 -0.586,0.196 -1.176,0 -1.57,-0.386 -2.551,-3.688 -1.176,-8.54 -0.391,-12.805 0.391,0 0.391,-0.387 0.785,-0.582 0,0.195 0.391,0.195 0.59,0.582" /><path
         id="path86"
         style="fill:#42826c;fill-opacity:1;fill-rule:evenodd;stroke:none"
         d="m 323.715,395.934 c 0.195,0.773 0.195,1.937 -0.395,2.714 -0.39,0.196 -0.98,0.582 -1.57,0.196 -0.195,0 -0.586,-0.582 -0.785,-0.774 0,-1.363 0.785,-2.718 1.965,-3.3 0.39,0 0.785,0.582 0.785,1.164" /><path
         id="path88"
         style="fill:#42826c;fill-opacity:1;fill-rule:evenodd;stroke:none"
         d="m 165.809,395.566 c 0.785,0 1.375,0.387 1.964,0.582 4.122,8.922 0.981,20.176 0,29.872 l -2.945,-21.918 c -0.394,-0.391 -0.59,-0.973 -1.375,-1.164 -8.433,1.359 -12.359,11.054 -18.836,15.906 -0.59,0 -0.59,-0.582 -0.785,-1.164 6.672,-7.563 12.168,-17.653 21.977,-22.114" /><path
         id="path90"
         style="fill:#496762;fill-opacity:1;fill-rule:evenodd;stroke:none"
         d="m 315.16,432.078 c 0,0.195 0,0.195 -0.39,0.195 0,-0.195 -0.395,-0.777 0,-0.972 0,0.195 0,0.586 0.39,0.777" /><path
         id="path92"
         style="fill:#42826c;fill-opacity:1;fill-rule:evenodd;stroke:none"
         d="m 360.152,454.137 c 0.59,0.191 0.59,0.773 0.786,1.355 -1.965,3.492 -3.536,8.34 -7.653,10.281 -0.59,0.192 -1.57,0 -1.965,-1.164 0,-4.265 3.532,-7.566 6.868,-10.281 0.785,-0.191 1.375,-0.582 1.57,-0.582 l 0.394,0.391" /><path
         id="path94"
         style="fill:#42826c;fill-opacity:1;fill-rule:evenodd;stroke:none"
         d="m 170.52,468.84 c 4.515,-0.586 9.222,0.773 13.929,2.129 0.199,0.39 0.985,0.972 1.375,1.363 0,0.383 -0.39,1.16 -0.59,1.356 -5.296,-0.196 -10.593,-2.329 -15.89,-4.27 0,-0.578 0.59,-0.578 1.176,-0.578" /><path
         id="path96"
         style="fill:#42826c;fill-opacity:1;fill-rule:evenodd;stroke:none"
         d="m 221.957,472.758 c 1.176,0 2.551,0.39 3.336,0.969 4.707,6.211 5.102,14.941 3.727,22.117 -0.196,0.386 -0.391,0.582 -0.981,0.773 -1.766,0 -2.941,-1.742 -3.926,-3.105 0.59,-7.367 -6.472,-11.442 -5.687,-18.426 0.39,-0.777 0.785,-1.359 1.375,-1.938 l 2.156,-0.39" /><path
         id="path98"
         style="fill:#42826c;fill-opacity:1;fill-rule:evenodd;stroke:none"
         d="m 355.441,478.395 c 0.59,0.582 0.391,0.968 0.59,1.941 -0.59,0.387 -1.179,1.359 -1.965,1.359 -0.195,0 -0.785,0 -1.371,-0.39 -0.394,-0.196 -0.98,-1.36 -0.785,-2.133 0.391,-0.582 0.785,-1.168 1.57,-1.359 0.586,0 1.766,-0.196 1.961,0.582" /><path
         id="path100"
         style="fill:#42826c;fill-opacity:1;fill-rule:evenodd;stroke:none"
         d="m 369.199,477.168 c 5.692,0 10.793,3.105 15.11,6.789 0,0.195 0,0.777 -0.196,1.164 -4.906,1.555 -10.402,-0.578 -15.5,-2.324 -1.57,-1.164 -2.55,-2.524 -2.16,-4.27 0.195,-0.582 0.59,-0.777 0.59,-0.777 0.785,-0.191 1.371,-0.582 2.156,-0.582" /><path
         id="path102"
         style="fill:#42826c;fill-opacity:1;fill-rule:evenodd;stroke:none"
         d="m 327.926,481.336 c 2.16,0.387 3.531,1.937 4.316,4.074 0,0.778 -0.59,1.938 -1.371,2.133 -1.57,0.195 -2.945,-0.973 -3.73,-2.328 -0.586,-1.746 -0.586,-2.52 -0.586,-3.297 0,-0.582 0.781,-0.582 1.371,-0.582" /><path
         id="path104"
         style="fill:#42826c;fill-opacity:1;fill-rule:evenodd;stroke:none"
         d="m 205.594,484.152 -0.196,0.582 c -0.39,0 -0.39,0.387 -0.98,0.387 -0.195,-0.578 0.391,-0.969 0.391,-1.164 0,-0.582 0.785,-0.582 0.785,-0.191 v 0.386" /><path
         id="path106"
         style="fill:#42826c;fill-opacity:1;fill-rule:evenodd;stroke:none"
         d="m 345.031,484.645 c 0.395,0.191 0.981,0.582 1.176,0.968 0.199,0.582 0.59,1.746 0.785,2.524 0,0.191 -0.195,0.773 -0.195,1.359 -0.391,0.192 -0.785,0.969 -1.371,1.356 -0.59,0 -1.375,-0.387 -1.965,-0.582 -1.371,-1.36 -1.371,-3.688 -0.586,-5.043 0.391,-0.582 0.586,-0.973 0.586,-0.973 0.59,0 1.18,-0.195 1.57,0.391" /><path
         id="path108"
         style="fill:#42826c;fill-opacity:1;fill-rule:evenodd;stroke:none"
         d="m 355.813,488.074 c 0.785,0 1.375,0.582 2.16,0.778 1.57,3.296 4.515,6.98 4.316,11.058 -0.195,0.192 -0.785,0.578 -1.57,0.774 -2.356,-0.973 -3.141,-4.075 -5.496,-5.434 -1.371,-1.746 -1.961,-4.461 -1.176,-6.594 0.391,-0.582 0.785,-0.968 1.176,-0.968 l 0.59,0.386" /><path
         id="path110"
         style="fill:#42826c;fill-opacity:1;fill-rule:evenodd;stroke:none"
         d="m 214.148,490.035 c 0.586,0.195 1.372,0.387 1.961,1.36 0.985,6.398 0.786,13.382 0,19.785 -0.39,0.582 -0.785,0.582 -1.375,0.386 -2.746,-6.207 -4.121,-14.355 -2.55,-21.144 0.394,-0.192 0.785,-0.387 1.375,-0.774 l 0.589,0.387" /><path
         id="path112"
         style="fill:#42826c;fill-opacity:1;fill-rule:evenodd;stroke:none"
         d="m 194.316,495.301 c -2.16,8.926 -3.336,19.402 -10.203,25.609 0.586,-9.117 3.922,-18.625 9.223,-25.996 0.59,-0.582 0.59,0.195 0.98,0.387" /><path
         id="path114"
         style="fill:#42826c;fill-opacity:1;fill-rule:evenodd;stroke:none"
         d="m 376.883,498 c 0.394,0.582 0.394,1.742 0.394,2.52 0,0.195 -0.199,0.582 -0.394,0.777 -0.981,0 -1.766,-0.777 -1.766,-1.942 0,-0.191 0,-0.773 0,-0.968 0.395,-0.387 0.59,-0.387 0.785,-0.582 0.391,0 0.59,0 0.981,0.195" /><path
         id="path116"
         style="fill:#796057;fill-opacity:1;fill-rule:evenodd;stroke:none"
         d="m 228.773,504.125 c 0,0 -0.589,0.773 -0.785,0.582 l 0.785,-1.355 c 0.586,0 -0.195,0.578 0,0.773" /></g></g></svg>