<?xml version="1.0" encoding="utf-8"?>
<!-- Generator: Adobe Illustrator 16.0.3, SVG Export Plug-In . SVG Version: 6.00 Build 0)  -->
<!DOCTYPE svg PUBLIC "-//W3C//DTD SVG 1.1//EN" "http://www.w3.org/Graphics/SVG/1.1/DTD/svg11.dtd">
<svg version="1.1" id="Layer_1" xmlns="http://www.w3.org/2000/svg" xmlns:xlink="http://www.w3.org/1999/xlink" x="0px" y="0px"
	 width="52px" height="49.25px" viewBox="0 0 52 49.25" style="enable-background:new 0 0 52 49.25;" xml:space="preserve">
<g>
	<g>
		<g>
			<g>
				<path style="fill:#FEFB39;" d="M25.94,46.27c-0.29,0.26-0.73,0.24-0.99-0.05l-5.42-6c-0.26-0.29-0.24-0.74,0.05-1l13.92-12.75
					c0.29-0.26,0.73-0.24,0.99,0.05l5.37,6.05c0.26,0.29,0.23,0.74-0.05,1L25.94,46.27z"/>
			</g>
			<g>
				<path style="fill:#FEFB39;" d="M24.41,11c-0.26-0.29-0.23-0.74,0.06-1l6.69-6.03c0.29-0.26,0.73-0.23,0.99,0.06l17.57,19.83
					c0.26,0.29,0.23,0.74-0.05,1l-6.65,6.08c-0.29,0.26-0.73,0.24-0.98-0.05L24.41,11z"/>
			</g>
			<g>
				<path style="fill:#FEFB39;" d="M8.3,46.05C8.01,46.31,7.57,46.29,7.31,46L1.9,39.99c-0.26-0.29-0.24-0.74,0.05-1l13.93-12.75
					c0.29-0.26,0.73-0.24,0.98,0.05l5.36,6.05c0.26,0.29,0.23,0.74-0.05,1L8.3,46.05z"/>
			</g>
			<g>
				<path style="fill:#FEFB39;" d="M6.16,10.79c-0.26-0.29-0.23-0.74,0.06-1l6.69-6.03c0.29-0.26,0.73-0.23,0.99,0.06l17.56,19.84
					c0.26,0.29,0.23,0.74-0.05,1l-6.65,6.08c-0.29,0.26-0.73,0.24-0.99-0.05L6.16,10.79z"/>
			</g>
		</g>
	</g>
</g>
</svg>
