<?xml version="1.0" encoding="utf-8"?>
<!-- Generator: Adobe Illustrator 16.0.3, SVG Export Plug-In . SVG Version: 6.00 Build 0)  -->
<!DOCTYPE svg PUBLIC "-//W3C//DTD SVG 1.1//EN" "http://www.w3.org/Graphics/SVG/1.1/DTD/svg11.dtd">
<svg version="1.1" id="Layer_1" xmlns="http://www.w3.org/2000/svg" xmlns:xlink="http://www.w3.org/1999/xlink" x="0px" y="0px"
	 width="327.5px" height="310.181px" viewBox="-179 -104 327.5 310.181" enable-background="new -179 -104 327.5 310.181"
	 xml:space="preserve">
<g>
	<g>
		<g>
			<g>
				<g>
					<path fill="#FEFB39" d="M-107.99,194.144c-0.1-0.172-0.043-0.393,0.132-0.496l3.631-2.099c0.176-0.101,0.403-0.044,0.504,0.134
						l4.96,8.44c0.101,0.18,0.042,0.401-0.134,0.502l-3.651,2.067c-0.175,0.102-0.4,0.039-0.503-0.132L-107.99,194.144z"/>
				</g>
				<g>
					<path fill="#FEFB39" d="M-89.929,197.191c0.176-0.099,0.401-0.034,0.501,0.14l2.334,4.048c0.101,0.179,0.039,0.395-0.137,0.495
						l-11.967,6.768c-0.174,0.102-0.399,0.037-0.501-0.133l-2.364-4.036c-0.1-0.177-0.043-0.394,0.131-0.488L-89.929,197.191z"/>
				</g>
				<g>
					<path fill="#FEFB39" d="M-105.967,185.22c-0.1-0.178-0.043-0.396,0.131-0.497l3.638-2.095c0.174-0.102,0.4-0.042,0.5,0.134
						l4.959,8.453c0.103,0.171,0.044,0.394-0.129,0.492l-3.651,2.062c-0.175,0.097-0.401,0.037-0.501-0.135L-105.967,185.22z"/>
				</g>
				<g>
					<path fill="#FEFB39" d="M-87.842,187.953c0.175-0.101,0.4-0.036,0.499,0.141l2.335,4.048c0.101,0.175,0.038,0.395-0.138,0.495
						l-11.97,6.762c-0.176,0.097-0.401,0.036-0.504-0.134l-2.363-4.035c-0.101-0.175-0.043-0.395,0.133-0.495L-87.842,187.953z"/>
				</g>
			</g>
			<g>
				<path fill="#FEFB39" d="M-103.22,173.639c-0.091-0.177-0.024-0.396,0.155-0.49l3.726-1.926c0.181-0.092,0.405-0.022,0.497,0.158
					l4.556,8.666c0.094,0.184,0.023,0.402-0.157,0.495l-3.744,1.894c-0.181,0.093-0.402,0.02-0.497-0.157L-103.22,173.639z"/>
				<path fill="#FEFB39" d="M-85.322,177.535c0.181-0.09,0.402-0.016,0.494,0.163l2.141,4.153c0.091,0.183,0.019,0.396-0.161,0.488
					l-12.272,6.196c-0.179,0.092-0.401,0.018-0.495-0.157l-2.171-4.144c-0.093-0.18-0.024-0.396,0.154-0.481L-85.322,177.535z"/>
				<path fill="#FEFB39" d="M-100.777,164.819c-0.092-0.183-0.024-0.397,0.153-0.49l3.734-1.92c0.179-0.094,0.401-0.023,0.493,0.157
					l4.555,8.677c0.095,0.177,0.026,0.396-0.152,0.485l-3.744,1.89c-0.179,0.089-0.403,0.017-0.494-0.159L-100.777,164.819z"/>
				<path fill="#FEFB39" d="M-82.803,168.407c0.18-0.094,0.402-0.019,0.494,0.162l2.14,4.153c0.092,0.179,0.02,0.396-0.16,0.488
					l-12.276,6.189c-0.181,0.089-0.402,0.017-0.497-0.157l-2.17-4.143c-0.092-0.179-0.025-0.396,0.156-0.488L-82.803,168.407z"/>
			</g>
			<g>
				<path fill="#FEFB39" d="M-97.482,153.431c-0.081-0.181-0.005-0.396,0.179-0.481l3.816-1.744c0.184-0.083,0.405,0,0.487,0.182
					l4.133,8.878c0.085,0.187,0.004,0.401-0.181,0.485l-3.831,1.711c-0.185,0.084-0.403,0.001-0.489-0.182L-97.482,153.431z"/>
				<path fill="#FEFB39" d="M-79.792,158.188c0.185-0.081,0.401,0.005,0.485,0.187l1.938,4.252c0.083,0.188-0.001,0.396-0.185,0.48
					l-12.557,5.596c-0.183,0.083-0.403-0.002-0.486-0.181l-1.969-4.244c-0.084-0.182-0.005-0.395,0.177-0.473L-79.792,158.188z"/>
				<path fill="#FEFB39" d="M-94.615,144.74c-0.083-0.187-0.005-0.398,0.176-0.481l3.822-1.737c0.184-0.087,0.402-0.006,0.485,0.179
					l4.13,8.888c0.085,0.183,0.007,0.396-0.175,0.478l-3.831,1.706c-0.183,0.081-0.405-0.002-0.486-0.183L-94.615,144.74z"/>
				<path fill="#FEFB39" d="M-76.836,149.194c0.185-0.089,0.402,0,0.486,0.183l1.937,4.252c0.083,0.184,0,0.397-0.184,0.48
					l-12.561,5.591c-0.185,0.078-0.403-0.005-0.488-0.184l-1.968-4.24c-0.083-0.184-0.005-0.397,0.18-0.482L-76.836,149.194z"/>
			</g>
			<g>
				<path fill="#FEFB39" d="M-90.774,133.598c-0.072-0.186,0.014-0.396,0.203-0.473l3.896-1.552
					c0.189-0.074,0.404,0.021,0.479,0.206l3.685,9.072c0.077,0.191-0.015,0.4-0.205,0.475l-3.911,1.521
					c-0.19,0.073-0.402-0.021-0.479-0.207L-90.774,133.598z"/>
				<path fill="#FEFB39" d="M-73.341,139.229c0.187-0.071,0.4,0.024,0.473,0.21l1.725,4.343c0.072,0.192-0.022,0.396-0.209,0.472
					l-12.818,4.965c-0.187,0.072-0.402-0.023-0.477-0.206l-1.754-4.336c-0.077-0.185,0.013-0.395,0.2-0.465L-73.341,139.229z"/>
				<path fill="#FEFB39" d="M-87.479,125.06c-0.075-0.19,0.015-0.397,0.199-0.471l3.905-1.546c0.188-0.077,0.401,0.014,0.475,0.203
					l3.684,9.082c0.076,0.188-0.013,0.396-0.199,0.468l-3.911,1.515c-0.187,0.072-0.404-0.022-0.476-0.208L-87.479,125.06z"/>
				<path fill="#FEFB39" d="M-69.944,130.395c0.188-0.081,0.401,0.02,0.478,0.205l1.722,4.342c0.074,0.188-0.019,0.398-0.206,0.473
					l-12.826,4.959c-0.188,0.068-0.401-0.026-0.479-0.208l-1.755-4.333c-0.073-0.188,0.016-0.397,0.205-0.473L-69.944,130.395z"/>
			</g>
			<g>
				<path fill="#FEFB39" d="M-83.099,114.218c-0.061-0.188,0.035-0.396,0.227-0.461l3.972-1.35c0.192-0.063,0.402,0.044,0.468,0.23
					l3.213,9.251c0.068,0.194-0.036,0.397-0.229,0.464l-3.984,1.316c-0.193,0.062-0.399-0.04-0.467-0.232L-83.099,114.218z"/>
				<path fill="#FEFB39" d="M-65.978,120.739c0.19-0.061,0.398,0.046,0.46,0.235l1.501,4.426c0.062,0.195-0.043,0.393-0.235,0.46
					l-13.057,4.298c-0.189,0.062-0.401-0.044-0.465-0.229l-1.529-4.422c-0.068-0.188,0.034-0.393,0.223-0.454L-65.978,120.739z"/>
				<path fill="#FEFB39" d="M-79.366,105.861c-0.066-0.194,0.035-0.396,0.222-0.46l3.98-1.342c0.192-0.068,0.399,0.033,0.464,0.227
					l3.21,9.26c0.065,0.192-0.034,0.394-0.222,0.456l-3.984,1.312c-0.191,0.062-0.403-0.043-0.463-0.232L-79.366,105.861z"/>
				<path fill="#FEFB39" d="M-62.131,112.094c0.193-0.072,0.4,0.039,0.468,0.229l1.495,4.424c0.064,0.191-0.037,0.396-0.229,0.463
					l-13.063,4.291c-0.193,0.06-0.4-0.047-0.467-0.232l-1.531-4.418c-0.063-0.19,0.037-0.396,0.229-0.462L-62.131,112.094z"/>
			</g>
			<g>
				<path fill="#FEFB39" d="M-74.452,95.371c-0.05-0.191,0.056-0.394,0.251-0.448l4.039-1.135c0.195-0.054,0.399,0.065,0.454,0.255
					l2.712,9.41c0.058,0.197-0.056,0.395-0.253,0.45l-4.049,1.103c-0.197,0.052-0.396-0.062-0.455-0.258L-74.452,95.371z"/>
				<path fill="#FEFB39" d="M-57.705,102.801c0.193-0.05,0.395,0.067,0.448,0.259l1.261,4.5c0.051,0.199-0.065,0.391-0.26,0.448
					l-13.267,3.592c-0.192,0.052-0.398-0.065-0.452-0.255l-1.29-4.497c-0.06-0.189,0.055-0.391,0.248-0.441L-57.705,102.801z"/>
				<path fill="#FEFB39" d="M-70.276,87.227c-0.057-0.197,0.054-0.394,0.246-0.447l4.046-1.126c0.196-0.059,0.396,0.054,0.451,0.249
					l2.709,9.419c0.055,0.197-0.055,0.392-0.245,0.444l-4.049,1.098c-0.194,0.053-0.401-0.065-0.451-0.258L-70.276,87.227z"/>
				<path fill="#FEFB39" d="M-53.401,94.377c0.198-0.065,0.396,0.058,0.457,0.25l1.255,4.497c0.053,0.195-0.059,0.395-0.253,0.451
					l-13.276,3.585c-0.195,0.048-0.396-0.07-0.453-0.259l-1.292-4.492c-0.053-0.193,0.058-0.395,0.254-0.45L-53.401,94.377z"/>
			</g>
			<g>
				<path fill="#FEFB39" d="M-64.833,77.138c-0.038-0.193,0.079-0.391,0.276-0.434l4.096-0.907c0.198-0.042,0.394,0.091,0.439,0.279
					l2.181,9.55c0.048,0.198-0.078,0.39-0.277,0.435l-4.105,0.874c-0.198,0.041-0.392-0.083-0.438-0.284L-64.833,77.138z"/>
				<path fill="#FEFB39" d="M-48.527,85.493c0.195-0.039,0.39,0.09,0.431,0.284l1.008,4.563c0.039,0.202-0.087,0.386-0.286,0.433
					l-13.446,2.844c-0.194,0.04-0.395-0.089-0.438-0.279l-1.036-4.563c-0.05-0.19,0.077-0.385,0.272-0.427L-48.527,85.493z"/>
				<path fill="#FEFB39" d="M-60.207,69.239c-0.047-0.199,0.077-0.389,0.269-0.432l4.104-0.897c0.199-0.049,0.392,0.074,0.436,0.273
					l2.177,9.556c0.043,0.202-0.075,0.388-0.27,0.429l-4.104,0.871c-0.198,0.043-0.398-0.089-0.436-0.284L-60.207,69.239z"/>
				<path fill="#FEFB39" d="M-43.761,77.324c0.202-0.056,0.394,0.081,0.444,0.274l1.001,4.561c0.042,0.197-0.08,0.392-0.278,0.437
					l-13.457,2.836c-0.197,0.037-0.391-0.093-0.438-0.284l-1.038-4.558c-0.043-0.195,0.08-0.389,0.279-0.436L-43.761,77.324z"/>
			</g>
			<g>
				<path fill="#FEFB39" d="M-54.238,59.597c-0.025-0.195,0.102-0.386,0.301-0.417l4.142-0.666c0.199-0.03,0.388,0.116,0.421,0.306
					l1.617,9.662c0.037,0.201-0.1,0.383-0.302,0.416l-4.15,0.633c-0.201,0.028-0.386-0.106-0.42-0.31L-54.238,59.597z"/>
				<path fill="#FEFB39" d="M-38.45,68.895c0.197-0.026,0.383,0.113,0.412,0.309l0.74,4.615c0.026,0.205-0.111,0.38-0.312,0.415
					l-13.59,2.051c-0.196,0.027-0.389-0.113-0.42-0.306l-0.766-4.615c-0.041-0.193,0.098-0.381,0.297-0.411L-38.45,68.895z"/>
				<path fill="#FEFB39" d="M-49.156,51.983c-0.035-0.202,0.1-0.383,0.294-0.415l4.149-0.654c0.203-0.037,0.387,0.096,0.417,0.297
					l1.613,9.668c0.031,0.205-0.098,0.382-0.294,0.412l-4.148,0.628c-0.199,0.033-0.392-0.111-0.417-0.309L-49.156,51.983z"/>
				<path fill="#FEFB39" d="M-33.214,61.021c0.206-0.046,0.389,0.103,0.43,0.298l0.73,4.61c0.031,0.2-0.103,0.388-0.303,0.422
					l-13.601,2.041c-0.2,0.025-0.385-0.117-0.42-0.311l-0.769-4.61c-0.031-0.197,0.103-0.384,0.305-0.418L-33.214,61.021z"/>
			</g>
			<g>
				<path fill="#FEFB39" d="M-42.663,42.831c-0.014-0.197,0.124-0.38,0.325-0.399l4.176-0.408c0.2-0.018,0.379,0.141,0.402,0.33
					l1.017,9.744c0.026,0.204-0.122,0.376-0.327,0.396l-4.18,0.378c-0.203,0.015-0.379-0.13-0.4-0.337L-42.663,42.831z"/>
				<path fill="#FEFB39" d="M-27.477,53.085c0.198-0.015,0.375,0.136,0.393,0.333l0.454,4.651c0.013,0.206-0.135,0.371-0.338,0.396
					l-13.689,1.209c-0.197,0.016-0.383-0.137-0.401-0.33l-0.479-4.654c-0.03-0.193,0.121-0.373,0.321-0.392L-27.477,53.085z"/>
				<path fill="#FEFB39" d="M-37.119,35.545c-0.024-0.204,0.122-0.377,0.317-0.396l4.182-0.397c0.205-0.025,0.381,0.119,0.398,0.321
					l1.014,9.75c0.018,0.207-0.121,0.375-0.318,0.393l-4.179,0.373c-0.202,0.02-0.385-0.137-0.397-0.336L-37.119,35.545z"/>
				<path fill="#FEFB39" d="M-21.768,45.551c0.209-0.035,0.382,0.124,0.412,0.321l0.445,4.646c0.019,0.202-0.125,0.382-0.327,0.403
					l-13.703,1.198c-0.2,0.013-0.376-0.141-0.399-0.336l-0.484-4.648c-0.019-0.199,0.127-0.377,0.331-0.399L-21.768,45.551z"/>
			</g>
			<g>
				<path fill="#FEFB39" d="M-30.104,26.921c0-0.197,0.149-0.371,0.351-0.377l4.193-0.137c0.202-0.005,0.369,0.166,0.38,0.355
					l0.382,9.79c0.014,0.204-0.145,0.366-0.35,0.375l-4.195,0.105c-0.205,0.002-0.371-0.154-0.378-0.363L-30.104,26.921z"/>
				<path fill="#FEFB39" d="M-15.613,38.138c0.197-0.001,0.364,0.161,0.369,0.358l0.153,4.672c-0.001,0.206-0.16,0.361-0.364,0.372
					l-13.739,0.319c-0.196,0.002-0.373-0.161-0.378-0.356l-0.175-4.675c-0.02-0.194,0.144-0.364,0.345-0.37L-15.613,38.138z"/>
				<path fill="#FEFB39" d="M-24.099,20.009c-0.012-0.206,0.146-0.368,0.341-0.374l4.2-0.125c0.206-0.013,0.372,0.143,0.376,0.345
					l0.38,9.795c0.004,0.21-0.145,0.367-0.344,0.372l-4.194,0.101c-0.203,0.007-0.376-0.162-0.374-0.359L-24.099,20.009z"/>
				<path fill="#FEFB39" d="M-9.43,30.99c0.212-0.022,0.373,0.149,0.393,0.348l0.141,4.664c0.005,0.203-0.15,0.373-0.353,0.383
					l-13.752,0.308c-0.2-0.001-0.366-0.167-0.375-0.362l-0.183-4.67c-0.005-0.199,0.151-0.367,0.356-0.378L-9.43,30.99z"/>
			</g>
			<g>
				<path fill="#FEFB39" d="M-16.347,11.724c0.015-0.196,0.175-0.361,0.377-0.352l4.193,0.148c0.201,0.009,0.355,0.192,0.354,0.381
					l-0.285,9.793c0.001,0.205-0.169,0.354-0.375,0.349l-4.193-0.178c-0.203-0.014-0.358-0.18-0.352-0.391L-16.347,11.724z"/>
				<path fill="#FEFB39" d="M-2.653,23.902c0.197,0.013,0.353,0.186,0.343,0.382l-0.165,4.671c-0.016,0.206-0.185,0.35-0.39,0.347
					l-13.727-0.616c-0.197-0.013-0.362-0.187-0.354-0.382l0.144-4.676c-0.007-0.194,0.168-0.353,0.37-0.346L-2.653,23.902z"/>
				<path fill="#FEFB39" d="M-9.883,5.238c0.001-0.206,0.17-0.356,0.365-0.35l4.199,0.163c0.207,0,0.36,0.166,0.352,0.37
					l-0.288,9.798c-0.011,0.211-0.17,0.354-0.368,0.347l-4.192-0.184c-0.203-0.006-0.364-0.188-0.348-0.385L-9.883,5.238z"/>
				<path fill="#FEFB39" d="M4.001,17.194c0.215-0.011,0.363,0.173,0.37,0.372l-0.176,4.662c-0.01,0.202-0.175,0.363-0.379,0.358
					l-13.742-0.629c-0.2-0.014-0.353-0.191-0.35-0.388l0.136-4.67c0.008-0.198,0.176-0.356,0.382-0.354L4.001,17.194z"/>
			</g>
			<g>
				<path fill="#FEFB39" d="M-1.383-2.561c0.029-0.195,0.2-0.348,0.401-0.324l4.172,0.448c0.2,0.022,0.338,0.219,0.326,0.404
					l-0.984,9.75c-0.013,0.204-0.193,0.34-0.399,0.321l-4.17-0.478c-0.203-0.029-0.345-0.204-0.323-0.415L-1.383-2.561z"/>
				<path fill="#FEFB39" d="M11.406,10.565c0.194,0.027,0.337,0.211,0.313,0.405l-0.499,4.648c-0.03,0.205-0.209,0.334-0.414,0.318
					l-13.648-1.596c-0.194-0.027-0.346-0.213-0.324-0.405l0.477-4.656c0.005-0.193,0.193-0.339,0.394-0.318L11.406,10.565z"/>
				<path fill="#FEFB39" d="M5.527-8.567c0.016-0.205,0.196-0.344,0.388-0.323l4.177,0.462c0.208,0.015,0.348,0.19,0.325,0.393
					L9.429,1.718c-0.027,0.21-0.195,0.342-0.392,0.32L4.87,1.555c-0.203-0.021-0.351-0.214-0.319-0.41L5.527-8.567z"/>
				<path fill="#FEFB39" d="M18.52,4.351c0.216,0.003,0.349,0.198,0.345,0.395l-0.511,4.639c-0.022,0.201-0.198,0.35-0.403,0.331
					L4.289,8.106C4.091,8.076,3.952,7.889,3.97,7.692l0.468-4.648C4.46,2.848,4.64,2.702,4.845,2.719L18.52,4.351z"/>
			</g>
			<g>
				<path fill="#FEFB39" d="M14.591-15.746c0.045-0.192,0.226-0.333,0.423-0.293l4.127,0.758c0.198,0.038,0.321,0.244,0.296,0.428
					l-1.712,9.65c-0.026,0.201-0.218,0.324-0.42,0.289l-4.124-0.787c-0.198-0.044-0.328-0.229-0.29-0.439L14.591-15.746z"/>
				<path fill="#FEFB39" d="M26.365-1.701c0.192,0.041,0.321,0.234,0.283,0.427l-0.844,4.598c-0.047,0.202-0.234,0.317-0.438,0.286
					L11.875,1c-0.191-0.042-0.331-0.24-0.293-0.429l0.825-4.606c0.018-0.193,0.217-0.325,0.417-0.289L26.365-1.701z"/>
				<path fill="#FEFB39" d="M21.932-21.22c0.03-0.204,0.22-0.328,0.411-0.292l4.13,0.773c0.207,0.03,0.334,0.214,0.296,0.416
					l-1.715,9.651c-0.044,0.209-0.219,0.327-0.414,0.29l-4.121-0.792c-0.201-0.036-0.333-0.241-0.287-0.434L21.932-21.22z"/>
				<path fill="#FEFB39" d="M33.922-7.366c0.216,0.018,0.334,0.223,0.316,0.421L33.382-2.36c-0.038,0.199-0.225,0.334-0.427,0.301
					L19.45-4.686c-0.195-0.044-0.319-0.243-0.287-0.437l0.814-4.6c0.037-0.194,0.227-0.325,0.431-0.293L33.922-7.366z"/>
			</g>
			<g>
				<path fill="#FEFB39" d="M31.572-27.745c0.059-0.187,0.251-0.314,0.444-0.26l4.056,1.077c0.193,0.054,0.3,0.271,0.262,0.45
					l-2.459,9.488c-0.04,0.199-0.24,0.306-0.44,0.255l-4.05-1.104c-0.194-0.061-0.309-0.255-0.255-0.462L31.572-27.745z"/>
				<path fill="#FEFB39" d="M42.218-12.825c0.187,0.056,0.3,0.259,0.247,0.447l-1.197,4.519c-0.063,0.198-0.26,0.298-0.46,0.25
					l-13.246-3.65c-0.187-0.057-0.312-0.265-0.259-0.45l1.181-4.529c0.03-0.19,0.241-0.307,0.438-0.256L42.218-12.825z"/>
				<path fill="#FEFB39" d="M39.317-32.63c0.045-0.202,0.244-0.31,0.43-0.261l4.06,1.093c0.203,0.046,0.315,0.239,0.261,0.436
					l-2.459,9.49c-0.061,0.206-0.245,0.308-0.435,0.256l-4.047-1.109c-0.198-0.049-0.315-0.266-0.252-0.454L39.317-32.63z"/>
				<path fill="#FEFB39" d="M50.19-17.885c0.216,0.033,0.315,0.248,0.285,0.442l-1.211,4.505c-0.054,0.194-0.251,0.317-0.449,0.268
					l-13.26-3.669c-0.19-0.06-0.299-0.268-0.252-0.458l1.168-4.523c0.054-0.191,0.253-0.307,0.454-0.259L50.19-17.885z"/>
			</g>
			<g>
				<path fill="#FEFB39" d="M49.55-38.462c0.075-0.181,0.275-0.293,0.465-0.223l3.957,1.4c0.188,0.068,0.274,0.295,0.224,0.469
					l-3.213,9.26c-0.057,0.195-0.265,0.285-0.461,0.219l-3.948-1.426c-0.188-0.077-0.287-0.278-0.216-0.481L49.55-38.462z"/>
				<path fill="#FEFB39" d="M58.962-22.734c0.183,0.07,0.279,0.282,0.211,0.465l-1.558,4.408c-0.079,0.192-0.283,0.275-0.479,0.212
					l-12.91-4.704c-0.18-0.072-0.288-0.29-0.222-0.47l1.542-4.418c0.044-0.188,0.265-0.287,0.456-0.221L58.962-22.734z"/>
				<path fill="#FEFB39" d="M57.664-42.709c0.061-0.197,0.268-0.288,0.449-0.225l3.957,1.417c0.201,0.062,0.296,0.262,0.227,0.454
					l-3.216,9.261c-0.078,0.202-0.268,0.287-0.453,0.221l-3.945-1.431c-0.193-0.065-0.291-0.291-0.213-0.473L57.664-42.709z"/>
				<path fill="#FEFB39" d="M67.313-27.135c0.215,0.048,0.296,0.271,0.251,0.463l-1.569,4.392c-0.069,0.189-0.274,0.296-0.469,0.232
					l-12.923-4.725c-0.186-0.075-0.275-0.292-0.213-0.477l1.528-4.415c0.066-0.185,0.275-0.284,0.474-0.222L67.313-27.135z"/>
			</g>
			<g>
				<path fill="#FEFB39" d="M68.515-47.807c0.091-0.174,0.3-0.27,0.481-0.185l3.827,1.722c0.183,0.083,0.249,0.318,0.186,0.485
					l-3.968,8.964c-0.071,0.19-0.285,0.262-0.476,0.18l-3.817-1.747c-0.183-0.092-0.263-0.3-0.176-0.498L68.515-47.807z"/>
				<path fill="#FEFB39" d="M76.599-31.355c0.175,0.085,0.252,0.304,0.169,0.48l-1.914,4.265c-0.096,0.185-0.305,0.25-0.496,0.172
					L61.881-32.19c-0.173-0.087-0.264-0.313-0.183-0.486l1.901-4.277c0.058-0.182,0.287-0.263,0.474-0.182L76.599-31.355z"/>
				<path fill="#FEFB39" d="M76.952-51.37c0.075-0.192,0.29-0.265,0.465-0.187l3.827,1.739c0.196,0.077,0.274,0.285,0.188,0.471
					l-3.969,8.964c-0.096,0.195-0.29,0.264-0.469,0.183L73.18-41.95c-0.188-0.082-0.267-0.316-0.172-0.49L76.952-51.37z"/>
				<path fill="#FEFB39" d="M85.281-35.052c0.212,0.065,0.273,0.293,0.215,0.482l-1.927,4.247c-0.084,0.184-0.299,0.274-0.487,0.194
					l-12.488-5.775c-0.18-0.09-0.25-0.314-0.173-0.494l1.886-4.272c0.082-0.18,0.299-0.261,0.491-0.183L85.281-35.052z"/>
			</g>
			<g>
				<path fill="#FEFB39" d="M88.445-55.683c0.106-0.166,0.322-0.244,0.496-0.143l3.67,2.036c0.174,0.099,0.22,0.338,0.144,0.499
					l-4.706,8.601c-0.085,0.185-0.306,0.237-0.489,0.139l-3.658-2.059c-0.173-0.108-0.235-0.322-0.13-0.512L88.445-55.683z"/>
				<path fill="#FEFB39" d="M95.122-38.611c0.167,0.101,0.227,0.325,0.128,0.492l-2.264,4.09c-0.112,0.176-0.326,0.223-0.511,0.129
					l-11.95-6.777c-0.164-0.102-0.236-0.335-0.14-0.501l2.253-4.102c0.071-0.177,0.308-0.238,0.488-0.142L95.122-38.611z"/>
				<path fill="#FEFB39" d="M97.153-58.525c0.091-0.186,0.312-0.24,0.479-0.148l3.668,2.054c0.188,0.093,0.249,0.307,0.148,0.485
					l-4.707,8.6c-0.112,0.187-0.311,0.238-0.481,0.143l-3.656-2.064c-0.181-0.096-0.239-0.337-0.13-0.503L97.153-58.525z"/>
				<path fill="#FEFB39" d="M104.084-41.567c0.206,0.083,0.248,0.315,0.174,0.499L101.982-37c-0.101,0.176-0.32,0.249-0.502,0.154
					L89.52-43.648c-0.171-0.105-0.223-0.335-0.131-0.507l2.238-4.099c0.096-0.172,0.32-0.235,0.505-0.141L104.084-41.567z"/>
			</g>
			<g>
				<path fill="#FEFB39" d="M109.325-62.002c0.119-0.155,0.342-0.216,0.506-0.101l3.485,2.339c0.165,0.113,0.188,0.356,0.102,0.509
					L108-51.082c-0.099,0.177-0.322,0.21-0.498,0.097l-3.471-2.36c-0.164-0.123-0.209-0.34-0.087-0.522L109.325-62.002z"/>
				<path fill="#FEFB39" d="M114.538-44.426c0.156,0.113,0.196,0.342,0.085,0.5l-2.602,3.885c-0.127,0.166-0.343,0.194-0.521,0.085
					l-11.335-7.761c-0.154-0.116-0.207-0.354-0.097-0.511l2.592-3.897c0.083-0.17,0.325-0.211,0.497-0.1L114.538-44.426z"/>
				<path fill="#FEFB39" d="M118.242-64.099c0.105-0.178,0.329-0.212,0.487-0.107l3.481,2.357c0.182,0.108,0.224,0.325,0.107,0.494
					l-5.415,8.173c-0.13,0.177-0.331,0.211-0.493,0.102l-3.468-2.365c-0.172-0.111-0.21-0.357-0.087-0.512L118.242-64.099z"/>
				<path fill="#FEFB39" d="M123.713-46.616c0.201,0.098,0.222,0.334,0.136,0.512l-2.611,3.861
					c-0.115,0.167-0.341,0.222-0.515,0.112l-11.345-7.789c-0.161-0.119-0.191-0.352-0.086-0.517l2.575-3.896
					c0.11-0.163,0.339-0.206,0.517-0.098L123.713-46.616z"/>
			</g>
			<g>
				<g>
					<path fill="#FEFB39" d="M131.127-66.672c0.133-0.144,0.359-0.188,0.513-0.059l3.276,2.624c0.154,0.126,0.157,0.372,0.058,0.516
						l-6.085,7.689c-0.112,0.168-0.338,0.182-0.503,0.055l-3.262-2.643c-0.153-0.136-0.18-0.356-0.042-0.528L131.127-66.672z"/>
				</g>
				<g>
					<path fill="#FEFB39" d="M134.845-48.721c0.146,0.126,0.167,0.357,0.043,0.505l-2.918,3.654
						c-0.142,0.154-0.359,0.164-0.526,0.04L120.8-53.207c-0.143-0.128-0.177-0.372-0.054-0.517l2.91-3.666
						c0.096-0.164,0.342-0.183,0.505-0.059L134.845-48.721z"/>
				</g>
				<g>
					<path fill="#FEFB39" d="M140.189-68.012c0.118-0.169,0.346-0.184,0.493-0.066l3.271,2.642c0.173,0.124,0.196,0.341,0.066,0.501
						l-6.084,7.688c-0.145,0.166-0.346,0.183-0.498,0.06l-3.259-2.647c-0.163-0.125-0.18-0.374-0.042-0.518L140.189-68.012z"/>
				</g>
				<g>
					<path fill="#FEFB39" d="M144.169-50.131c0.195,0.114,0.193,0.351,0.095,0.521l-2.926,3.628
						c-0.129,0.156-0.358,0.193-0.523,0.069l-10.65-8.715c-0.15-0.133-0.16-0.368-0.041-0.522l2.893-3.666
						c0.123-0.152,0.354-0.177,0.523-0.054L144.169-50.131z"/>
				</g>
			</g>
		</g>
	</g>
</g>
</svg>
