<?xml version="1.0" encoding="utf-8"?>
<!-- Generator: Adobe Illustrator 16.0.3, SVG Export Plug-In . SVG Version: 6.00 Build 0)  -->
<!DOCTYPE svg PUBLIC "-//W3C//DTD SVG 1.1//EN" "http://www.w3.org/Graphics/SVG/1.1/DTD/svg11.dtd">
<svg version="1.1" id="Layer_1" xmlns="http://www.w3.org/2000/svg" xmlns:xlink="http://www.w3.org/1999/xlink" x="0px" y="0px"
	 width="471.5px" height="489px" viewBox="-419.5 -349.875 471.5 489" enable-background="new -419.5 -349.875 471.5 489"
	 xml:space="preserve">
<g>
	<g>
		<g>
			<g>
				<g>
					<path fill="#FEFB39" d="M-186.899-325.927c0.125-0.111,0.313-0.104,0.426,0.021l2.326,2.576
						c0.112,0.124,0.104,0.317-0.021,0.429l-5.976,5.475c-0.125,0.111-0.314,0.103-0.426-0.021l-2.305-2.598
						c-0.112-0.124-0.1-0.318,0.021-0.43L-186.899-325.927z"/>
				</g>
				<g>
					<path fill="#FEFB39" d="M-186.242-310.785c0.111,0.125,0.099,0.318-0.026,0.43l-2.872,2.589
						c-0.124,0.111-0.313,0.099-0.425-0.025l-7.544-8.515c-0.111-0.124-0.099-0.317,0.021-0.429l2.855-2.61
						c0.124-0.112,0.313-0.104,0.421,0.021L-186.242-310.785z"/>
				</g>
				<g>
					<path fill="#FEFB39" d="M-179.325-325.833c0.124-0.112,0.313-0.104,0.425,0.021l2.322,2.58c0.112,0.124,0.104,0.317-0.021,0.43
						l-5.98,5.474c-0.124,0.111-0.313,0.103-0.421-0.021l-2.301-2.598c-0.112-0.124-0.099-0.317,0.021-0.429L-179.325-325.833z"/>
				</g>
				<g>
					<path fill="#FEFB39" d="M-178.406-310.694c0.111,0.124,0.099,0.317-0.026,0.429l-2.872,2.59
						c-0.125,0.111-0.313,0.099-0.425-0.026l-7.539-8.519c-0.112-0.124-0.099-0.317,0.021-0.429l2.855-2.611
						c0.124-0.111,0.313-0.103,0.425,0.022L-178.406-310.694z"/>
				</g>
			</g>
			<g>
				<path fill="#FEFB39" d="M-167.624-325.318c0.134-0.1,0.321-0.076,0.422,0.059l2.092,2.77c0.101,0.133,0.076,0.325-0.059,0.425
					l-6.431,4.931c-0.135,0.1-0.323,0.075-0.422-0.058l-2.069-2.79c-0.101-0.134-0.071-0.326,0.058-0.426L-167.624-325.318z"/>
				<path fill="#FEFB39" d="M-168.293-310.176c0.1,0.134,0.071,0.326-0.063,0.426l-3.088,2.328c-0.133,0.1-0.321,0.07-0.421-0.062
					l-6.771-9.142c-0.1-0.133-0.071-0.325,0.059-0.425l3.073-2.351c0.133-0.101,0.321-0.076,0.417,0.059L-168.293-310.176z"/>
				<path fill="#FEFB39" d="M-160.087-324.562c0.134-0.101,0.322-0.076,0.422,0.058l2.087,2.774
					c0.101,0.133,0.076,0.325-0.058,0.425l-6.437,4.93c-0.133,0.1-0.321,0.075-0.417-0.059l-2.065-2.788
					c-0.101-0.134-0.071-0.325,0.058-0.425L-160.087-324.562z"/>
				<path fill="#FEFB39" d="M-160.495-309.4c0.1,0.133,0.07,0.324-0.064,0.424l-3.088,2.329c-0.134,0.1-0.32,0.071-0.42-0.063
					l-6.766-9.145c-0.101-0.134-0.071-0.325,0.058-0.425l3.073-2.352c0.133-0.101,0.321-0.075,0.421,0.06L-160.495-309.4z"/>
			</g>
			<g>
				<path fill="#FEFB39" d="M-148.811-323.046c0.143-0.088,0.326-0.047,0.416,0.095l1.843,2.941
					c0.089,0.141,0.047,0.331-0.095,0.418l-6.837,4.352c-0.143,0.088-0.327,0.047-0.415-0.095l-1.818-2.959
					c-0.089-0.142-0.043-0.33,0.094-0.419L-148.811-323.046z"/>
				<path fill="#FEFB39" d="M-150.796-308.02c0.088,0.143,0.042,0.331-0.1,0.418l-3.279,2.05c-0.141,0.088-0.326,0.042-0.414-0.099
					l-5.949-9.697c-0.088-0.141-0.042-0.329,0.096-0.418l3.266-2.074c0.142-0.089,0.327-0.048,0.411,0.094L-150.796-308.02z"/>
				<path fill="#FEFB39" d="M-141.369-321.636c0.142-0.089,0.327-0.047,0.415,0.095l1.838,2.944c0.09,0.142,0.047,0.331-0.095,0.42
					l-6.841,4.351c-0.142,0.088-0.327,0.046-0.411-0.094l-1.815-2.958c-0.088-0.142-0.042-0.33,0.096-0.418L-141.369-321.636z"/>
				<path fill="#FEFB39" d="M-143.095-306.568c0.088,0.142,0.042,0.33-0.101,0.417l-3.278,2.051c-0.143,0.088-0.326,0.042-0.414-0.1
					l-5.943-9.699c-0.089-0.142-0.042-0.33,0.095-0.419l3.266-2.075c0.142-0.088,0.326-0.047,0.415,0.096L-143.095-306.568z"/>
			</g>
			<g>
				<path fill="#FEFB39" d="M-130.535-319.18c0.149-0.075,0.33-0.019,0.406,0.131l1.582,3.09c0.077,0.148,0.018,0.333-0.131,0.408
					l-7.187,3.746c-0.149,0.075-0.33,0.018-0.406-0.131l-1.556-3.104c-0.076-0.149-0.014-0.333,0.131-0.41L-130.535-319.18z"/>
				<path fill="#FEFB39" d="M-133.811-304.381c0.075,0.149,0.013,0.333-0.137,0.408l-3.443,1.759
					c-0.148,0.075-0.328,0.014-0.404-0.134l-5.089-10.174c-0.075-0.148-0.014-0.332,0.132-0.409l3.432-1.784
					c0.149-0.077,0.33-0.02,0.401,0.129L-133.811-304.381z"/>
				<path fill="#FEFB39" d="M-123.242-317.132c0.149-0.076,0.33-0.019,0.404,0.13l1.578,3.093c0.076,0.149,0.018,0.333-0.132,0.409
					l-7.191,3.744c-0.148,0.075-0.329,0.018-0.401-0.13l-1.552-3.104c-0.077-0.149-0.014-0.332,0.131-0.409L-123.242-317.132z"/>
				<path fill="#FEFB39" d="M-126.265-302.27c0.076,0.149,0.014,0.333-0.136,0.408l-3.443,1.76c-0.15,0.076-0.329,0.015-0.404-0.135
					l-5.083-10.177c-0.076-0.149-0.014-0.333,0.13-0.409l3.433-1.785c0.149-0.075,0.33-0.018,0.405,0.131L-126.265-302.27z"/>
			</g>
			<g>
				<path fill="#FEFB39" d="M-112.869-313.789c0.156-0.062,0.33,0.009,0.394,0.165l1.311,3.214c0.063,0.155-0.01,0.333-0.166,0.396
					l-7.481,3.116c-0.155,0.062-0.331-0.01-0.393-0.165l-1.284-3.227c-0.063-0.155,0.015-0.333,0.166-0.397L-112.869-313.789z"/>
				<path fill="#FEFB39" d="M-117.4-299.325c0.062,0.155-0.016,0.333-0.17,0.395l-3.582,1.458c-0.155,0.062-0.329-0.014-0.391-0.168
					l-4.199-10.573c-0.062-0.155,0.015-0.332,0.166-0.396l3.573-1.483c0.155-0.063,0.33,0.009,0.389,0.163L-117.4-299.325z"/>
				<path fill="#FEFB39" d="M-105.778-311.124c0.155-0.063,0.33,0.009,0.392,0.165l1.307,3.216c0.063,0.155-0.011,0.334-0.167,0.397
					l-7.485,3.114c-0.154,0.062-0.33-0.01-0.389-0.164l-1.28-3.225c-0.063-0.155,0.015-0.332,0.166-0.396L-105.778-311.124z"/>
				<path fill="#FEFB39" d="M-110.062-296.575c0.062,0.154-0.015,0.332-0.17,0.394l-3.582,1.459
					c-0.155,0.062-0.329-0.014-0.391-0.169l-4.193-10.575c-0.063-0.155,0.015-0.332,0.165-0.396l3.573-1.485
					c0.155-0.062,0.33,0.01,0.392,0.166L-110.062-296.575z"/>
			</g>
			<g>
				<path fill="#FEFB39" d="M-95.886-306.943c0.16-0.048,0.328,0.037,0.378,0.198l1.034,3.313c0.05,0.16-0.039,0.332-0.199,0.38
					l-7.718,2.471c-0.16,0.049-0.329-0.038-0.377-0.198l-1.006-3.324c-0.05-0.16,0.042-0.331,0.198-0.381L-95.886-306.943z"/>
				<path fill="#FEFB39" d="M-101.627-292.916c0.049,0.16-0.044,0.33-0.204,0.379l-3.692,1.149c-0.159,0.05-0.326-0.042-0.375-0.2
					l-3.287-10.891c-0.049-0.159,0.043-0.33,0.199-0.38l3.686-1.175c0.16-0.05,0.328,0.038,0.373,0.196L-101.627-292.916z"/>
				<path fill="#FEFB39" d="M-89.047-303.687c0.159-0.05,0.328,0.037,0.376,0.197l1.029,3.315c0.05,0.16-0.039,0.332-0.199,0.381
					l-7.723,2.468c-0.159,0.049-0.328-0.038-0.373-0.195l-1.002-3.322c-0.05-0.16,0.043-0.33,0.199-0.381L-89.047-303.687z"/>
				<path fill="#FEFB39" d="M-94.549-289.554c0.05,0.159-0.043,0.33-0.203,0.378l-3.692,1.15c-0.16,0.049-0.326-0.042-0.375-0.202
					l-3.281-10.892c-0.05-0.16,0.043-0.329,0.198-0.38l3.686-1.176c0.16-0.049,0.329,0.038,0.377,0.198L-94.549-289.554z"/>
			</g>
			<g>
				<path fill="#FEFB39" d="M-79.657-298.715c0.164-0.036,0.324,0.065,0.36,0.229l0.752,3.388c0.036,0.164-0.067,0.327-0.23,0.363
					l-7.899,1.813c-0.164,0.035-0.324-0.066-0.359-0.229l-0.724-3.397c-0.037-0.163,0.07-0.326,0.23-0.363L-79.657-298.715z"/>
				<path fill="#FEFB39" d="M-86.556-285.22c0.035,0.164-0.071,0.326-0.235,0.361l-3.775,0.835
					c-0.163,0.035-0.321-0.069-0.357-0.232l-2.361-11.128c-0.036-0.163,0.07-0.324,0.23-0.362l3.771-0.861
					c0.164-0.037,0.324,0.065,0.355,0.226L-86.556-285.22z"/>
				<path fill="#FEFB39" d="M-73.115-294.896c0.164-0.036,0.324,0.065,0.359,0.229l0.747,3.39c0.037,0.164-0.066,0.327-0.23,0.364
					l-7.902,1.811c-0.163,0.035-0.323-0.066-0.355-0.227l-0.72-3.395c-0.037-0.163,0.071-0.325,0.23-0.362L-73.115-294.896z"/>
				<path fill="#FEFB39" d="M-79.785-281.275c0.035,0.163-0.071,0.325-0.235,0.36l-3.776,0.835
					c-0.163,0.036-0.321-0.069-0.356-0.232l-2.355-11.129c-0.036-0.164,0.071-0.325,0.229-0.363l3.772-0.863
					c0.163-0.036,0.324,0.066,0.358,0.229L-79.785-281.275z"/>
			</g>
			<g>
				<path fill="#FEFB39" d="M-64.252-289.176c0.167-0.022,0.317,0.091,0.339,0.257l0.468,3.44c0.022,0.166-0.093,0.32-0.26,0.342
					l-8.022,1.149c-0.166,0.021-0.317-0.093-0.339-0.258l-0.438-3.445c-0.023-0.166,0.098-0.319,0.259-0.343L-64.252-289.176z"/>
				<path fill="#FEFB39" d="M-72.251-276.303c0.022,0.167-0.098,0.319-0.264,0.34l-3.833,0.518
					c-0.165,0.022-0.313-0.095-0.336-0.261l-1.426-11.286c-0.022-0.166,0.098-0.318,0.26-0.342l3.83-0.544
					c0.166-0.023,0.317,0.092,0.335,0.255L-72.251-276.303z"/>
				<path fill="#FEFB39" d="M-58.052-284.825c0.166-0.023,0.318,0.091,0.339,0.257l0.462,3.441c0.023,0.166-0.093,0.32-0.26,0.342
					l-8.026,1.146c-0.165,0.021-0.316-0.092-0.335-0.255l-0.435-3.443c-0.023-0.166,0.097-0.317,0.259-0.342L-58.052-284.825z"/>
				<path fill="#FEFB39" d="M-65.833-271.807c0.022,0.165-0.097,0.317-0.263,0.339l-3.833,0.518
					c-0.166,0.021-0.314-0.095-0.336-0.262l-1.419-11.286c-0.022-0.166,0.097-0.318,0.258-0.343l3.832-0.545
					c0.165-0.021,0.316,0.092,0.337,0.258L-65.833-271.807z"/>
			</g>
			<g>
				<path fill="#FEFB39" d="M-49.743-278.397c0.167-0.007,0.308,0.118,0.316,0.285l0.181,3.466c0.009,0.167-0.12,0.312-0.287,0.32
					l-8.09,0.48c-0.167,0.008-0.308-0.118-0.317-0.285l-0.151-3.469c-0.009-0.167,0.124-0.31,0.287-0.321L-49.743-278.397z"/>
				<path fill="#FEFB39" d="M-58.781-266.229c0.007,0.167-0.124,0.309-0.291,0.317l-3.861,0.198
					c-0.167,0.008-0.306-0.121-0.314-0.287l-0.487-11.366c-0.008-0.166,0.124-0.309,0.287-0.319l3.862-0.226
					c0.167-0.009,0.309,0.118,0.314,0.282L-58.781-266.229z"/>
				<path fill="#FEFB39" d="M-43.924-273.548c0.167-0.008,0.308,0.117,0.316,0.285l0.175,3.466c0.009,0.168-0.12,0.312-0.287,0.32
					l-8.094,0.478c-0.166,0.008-0.308-0.118-0.313-0.282l-0.148-3.467c-0.009-0.167,0.124-0.309,0.287-0.32L-43.924-273.548z"/>
				<path fill="#FEFB39" d="M-52.756-261.218c0.008,0.167-0.124,0.308-0.291,0.316l-3.862,0.199
					c-0.167,0.008-0.306-0.121-0.313-0.288l-0.481-11.365c-0.009-0.167,0.124-0.309,0.287-0.32l3.862-0.227
					c0.167-0.008,0.309,0.118,0.316,0.285L-52.756-261.218z"/>
			</g>
			<g>
				<path fill="#FEFB39" d="M-36.031-266.297c0.167,0.006,0.299,0.142,0.292,0.31l-0.105,3.47c-0.005,0.167-0.146,0.3-0.312,0.294
					l-8.102-0.188c-0.167-0.006-0.298-0.144-0.292-0.31l0.135-3.47c0.005-0.167,0.149-0.299,0.312-0.296L-36.031-266.297z"/>
				<path fill="#FEFB39" d="M-46.041-254.916c-0.006,0.167-0.149,0.298-0.316,0.292l-3.865-0.121
					c-0.167-0.005-0.294-0.146-0.289-0.312l0.452-11.367c0.005-0.167,0.149-0.298,0.312-0.295l3.868,0.094
					c0.167,0.005,0.298,0.143,0.289,0.307L-46.041-254.916z"/>
				<path fill="#FEFB39" d="M-30.631-260.985c0.167,0.005,0.298,0.143,0.292,0.31l-0.111,3.469
					c-0.005,0.167-0.145,0.301-0.313,0.295l-8.105-0.191c-0.167-0.006-0.297-0.143-0.289-0.307l0.138-3.467
					c0.005-0.167,0.149-0.297,0.312-0.294L-30.631-260.985z"/>
				<path fill="#FEFB39" d="M-40.449-249.426c-0.006,0.167-0.149,0.297-0.316,0.292l-3.865-0.12
					c-0.167-0.006-0.295-0.146-0.289-0.313l0.458-11.366c0.005-0.167,0.149-0.297,0.312-0.295l3.869,0.093
					c0.167,0.005,0.297,0.143,0.292,0.31L-40.449-249.426z"/>
			</g>
			<g>
				<path fill="#FEFB39" d="M-23.198-252.845c0.166,0.02,0.285,0.167,0.266,0.333l-0.391,3.449
					c-0.019,0.167-0.169,0.288-0.335,0.268l-8.059-0.854c-0.167-0.02-0.286-0.168-0.266-0.333l0.421-3.447
					c0.019-0.167,0.172-0.286,0.335-0.269L-23.198-252.845z"/>
				<path fill="#FEFB39" d="M-34.112-242.327c-0.02,0.166-0.173,0.285-0.339,0.265l-3.842-0.438c-0.166-0.02-0.281-0.17-0.262-0.335
					l1.387-11.291c0.02-0.166,0.173-0.284,0.335-0.268l3.847,0.412c0.166,0.019,0.285,0.167,0.263,0.33L-34.112-242.327z"/>
				<path fill="#FEFB39" d="M-18.254-247.105c0.166,0.019,0.286,0.166,0.265,0.332l-0.396,3.449
					c-0.019,0.167-0.169,0.288-0.336,0.269l-8.062-0.858c-0.166-0.02-0.284-0.167-0.262-0.33l0.423-3.444
					c0.019-0.167,0.172-0.284,0.336-0.268L-18.254-247.105z"/>
				<path fill="#FEFB39" d="M-28.992-236.394c-0.019,0.166-0.173,0.284-0.339,0.264l-3.842-0.438
					c-0.167-0.02-0.282-0.169-0.262-0.336l1.394-11.29c0.019-0.167,0.173-0.285,0.335-0.269l3.848,0.412
					c0.166,0.019,0.284,0.167,0.264,0.333L-28.992-236.394z"/>
			</g>
			<g>
				<path fill="#FEFB39" d="M-11.474-238.366c0.164,0.034,0.271,0.189,0.237,0.354l-0.674,3.405
					c-0.032,0.164-0.193,0.273-0.356,0.239l-7.961-1.517c-0.164-0.033-0.27-0.191-0.237-0.354l0.705-3.4
					c0.032-0.165,0.195-0.271,0.356-0.24L-11.474-238.366z"/>
				<path fill="#FEFB39" d="M-23.22-228.786c-0.033,0.164-0.196,0.269-0.36,0.235l-3.792-0.754
					c-0.163-0.033-0.267-0.192-0.233-0.356l2.315-11.138c0.033-0.164,0.195-0.269,0.356-0.239l3.799,0.729
					c0.164,0.032,0.271,0.189,0.234,0.35L-23.22-228.786z"/>
				<path fill="#FEFB39" d="M-7.022-232.238c0.164,0.032,0.271,0.189,0.237,0.354l-0.68,3.404c-0.032,0.164-0.193,0.273-0.357,0.24
					l-7.963-1.521c-0.164-0.033-0.27-0.189-0.235-0.35l0.707-3.397c0.032-0.164,0.195-0.269,0.356-0.239L-7.022-232.238z"/>
				<path fill="#FEFB39" d="M-18.607-222.451c-0.033,0.163-0.196,0.269-0.36,0.235l-3.793-0.753
					c-0.164-0.034-0.267-0.192-0.233-0.356l2.321-11.136c0.032-0.164,0.195-0.269,0.356-0.24l3.8,0.728
					c0.163,0.033,0.27,0.19,0.236,0.354L-18.607-222.451z"/>
			</g>
			<g>
				<path fill="#FEFB39" d="M-0.932-222.934c0.161,0.047,0.254,0.211,0.207,0.372l-0.954,3.337
					c-0.046,0.161-0.214,0.256-0.376,0.208l-7.807-2.172c-0.161-0.047-0.253-0.213-0.208-0.373l0.984-3.331
					c0.045-0.161,0.218-0.252,0.376-0.209L-0.932-222.934z"/>
				<path fill="#FEFB39" d="M-13.432-214.361c-0.047,0.16-0.218,0.251-0.378,0.204l-3.717-1.066c-0.16-0.046-0.25-0.213-0.203-0.374
					l3.231-10.907c0.046-0.16,0.218-0.252,0.375-0.209l3.726,1.041c0.161,0.046,0.254,0.211,0.205,0.369L-13.432-214.361z"/>
				<path fill="#FEFB39" d="M2.997-216.458c0.16,0.046,0.253,0.211,0.207,0.372l-0.96,3.336c-0.046,0.161-0.215,0.256-0.376,0.209
					l-7.81-2.177c-0.159-0.046-0.253-0.211-0.205-0.368l0.986-3.327c0.046-0.161,0.218-0.252,0.375-0.209L2.997-216.458z"/>
				<path fill="#FEFB39" d="M-9.361-207.666c-0.046,0.16-0.217,0.251-0.377,0.205l-3.718-1.066c-0.161-0.047-0.25-0.213-0.203-0.374
					l3.238-10.905c0.046-0.161,0.217-0.251,0.375-0.209l3.727,1.042c0.16,0.046,0.253,0.211,0.206,0.372L-9.361-207.666z"/>
			</g>
			<g>
				<path fill="#FEFB39" d="M8.359-206.619c0.156,0.06,0.234,0.231,0.176,0.388l-1.231,3.246c-0.059,0.156-0.234,0.236-0.391,0.176
					l-7.599-2.818c-0.156-0.061-0.235-0.233-0.175-0.389l1.259-3.236c0.059-0.157,0.238-0.235,0.392-0.178L8.359-206.619z"/>
				<path fill="#FEFB39" d="M-4.814-199.123c-0.06,0.156-0.238,0.233-0.395,0.173l-3.614-1.374c-0.156-0.059-0.231-0.234-0.171-0.39
					l4.132-10.599c0.06-0.155,0.237-0.232,0.391-0.176l3.626,1.35c0.157,0.059,0.235,0.231,0.174,0.384L-4.814-199.123z"/>
				<path fill="#FEFB39" d="M11.732-199.837c0.156,0.059,0.235,0.231,0.175,0.387l-1.236,3.245
					c-0.059,0.156-0.234,0.237-0.392,0.177l-7.6-2.823c-0.156-0.06-0.234-0.232-0.173-0.384l1.261-3.232
					c0.06-0.157,0.237-0.233,0.391-0.177L11.732-199.837z"/>
				<path fill="#FEFB39" d="M-1.318-192.109c-0.06,0.156-0.238,0.233-0.394,0.172l-3.615-1.373c-0.156-0.06-0.231-0.233-0.171-0.39
					l4.138-10.596c0.06-0.157,0.238-0.232,0.391-0.177l3.627,1.349c0.155,0.06,0.234,0.232,0.174,0.388L-1.318-192.109z"/>
			</g>
			<g>
				<path fill="#FEFB39" d="M16.324-189.495c0.15,0.073,0.215,0.25,0.142,0.402l-1.5,3.13c-0.072,0.151-0.254,0.216-0.404,0.143
					l-7.333-3.449c-0.15-0.073-0.214-0.252-0.142-0.402l1.527-3.119c0.072-0.151,0.257-0.213,0.405-0.144L16.324-189.495z"/>
				<path fill="#FEFB39" d="M2.565-183.137c-0.073,0.15-0.257,0.212-0.408,0.139l-3.485-1.674c-0.15-0.072-0.21-0.252-0.138-0.403
					l5.012-10.212c0.073-0.149,0.256-0.211,0.405-0.143l3.5,1.651c0.151,0.072,0.215,0.25,0.14,0.397L2.565-183.137z"/>
				<path fill="#FEFB39" d="M19.113-182.453c0.15,0.072,0.214,0.25,0.141,0.401l-1.505,3.128c-0.071,0.151-0.254,0.216-0.405,0.143
					l-7.334-3.454c-0.149-0.073-0.214-0.251-0.14-0.397l1.529-3.115c0.072-0.151,0.256-0.211,0.405-0.143L19.113-182.453z"/>
				<path fill="#FEFB39" d="M5.457-175.854c-0.072,0.15-0.256,0.212-0.406,0.139l-3.487-1.673c-0.15-0.073-0.209-0.253-0.137-0.403
					l5.017-10.21c0.072-0.15,0.257-0.211,0.405-0.144l3.5,1.65c0.15,0.073,0.214,0.251,0.141,0.401L5.457-175.854z"/>
			</g>
			<g>
				<path fill="#FEFB39" d="M22.889-171.636c0.144,0.086,0.192,0.268,0.106,0.413l-1.761,2.991
					c-0.085,0.144-0.271,0.194-0.416,0.108l-7.013-4.062c-0.144-0.085-0.192-0.269-0.107-0.413l1.788-2.977
					c0.085-0.144,0.274-0.19,0.416-0.109L22.889-171.636z"/>
				<path fill="#FEFB39" d="M8.639-166.473c-0.086,0.144-0.274,0.189-0.418,0.104l-3.331-1.964c-0.143-0.085-0.188-0.27-0.103-0.413
					l5.864-9.748c0.085-0.144,0.273-0.189,0.416-0.108l3.345,1.942c0.144,0.085,0.192,0.268,0.105,0.408L8.639-166.473z"/>
				<path fill="#FEFB39" d="M25.067-164.381c0.145,0.085,0.193,0.269,0.107,0.412l-1.767,2.989
					c-0.084,0.144-0.271,0.193-0.416,0.108l-7.013-4.067c-0.144-0.085-0.191-0.268-0.105-0.408l1.789-2.973
					c0.085-0.144,0.273-0.189,0.415-0.108L25.067-164.381z"/>
				<path fill="#FEFB39" d="M10.9-158.969c-0.085,0.143-0.273,0.189-0.417,0.103l-3.331-1.964c-0.144-0.085-0.188-0.27-0.103-0.413
					l5.869-9.745c0.085-0.145,0.273-0.189,0.415-0.109l3.346,1.942c0.144,0.085,0.192,0.269,0.106,0.413L10.9-158.969z"/>
			</g>
			<g>
				<path fill="#FEFB39" d="M27.982-153.117c0.136,0.098,0.169,0.284,0.071,0.421l-2.012,2.829
					c-0.097,0.136-0.288,0.169-0.424,0.072l-6.637-4.65c-0.136-0.098-0.168-0.285-0.071-0.42l2.038-2.812
					c0.097-0.136,0.288-0.166,0.424-0.073L27.982-153.117z"/>
				<path fill="#FEFB39" d="M13.34-149.199c-0.097,0.136-0.289,0.165-0.425,0.068l-3.148-2.244c-0.136-0.098-0.165-0.285-0.067-0.42
					l6.68-9.208c0.097-0.136,0.288-0.165,0.424-0.072l3.166,2.223c0.137,0.097,0.168,0.284,0.07,0.416L13.34-149.199z"/>
				<path fill="#FEFB39" d="M29.528-145.701c0.137,0.097,0.169,0.284,0.071,0.419l-2.017,2.826
					c-0.097,0.136-0.288,0.169-0.424,0.072l-6.638-4.655c-0.136-0.097-0.169-0.284-0.071-0.415l2.039-2.809
					c0.097-0.137,0.288-0.165,0.423-0.072L29.528-145.701z"/>
				<path fill="#FEFB39" d="M14.947-141.529c-0.097,0.136-0.288,0.166-0.425,0.067l-3.149-2.244
					c-0.136-0.098-0.164-0.284-0.066-0.42l6.685-9.204c0.098-0.136,0.289-0.165,0.424-0.073l3.167,2.224
					c0.136,0.097,0.168,0.284,0.07,0.419L14.947-141.529z"/>
			</g>
			<g>
				<path fill="#FEFB39" d="M31.527-134.103c0.127,0.109,0.144,0.296,0.034,0.425l-2.25,2.643c-0.108,0.127-0.301,0.144-0.428,0.035
					l-6.209-5.208c-0.127-0.109-0.143-0.298-0.035-0.426l2.274-2.625c0.108-0.127,0.303-0.141,0.428-0.035L31.527-134.103z"/>
				<path fill="#FEFB39" d="M16.601-131.47c-0.109,0.126-0.303,0.139-0.43,0.03l-2.942-2.509c-0.126-0.108-0.139-0.297-0.029-0.424
					l7.454-8.593c0.108-0.126,0.301-0.139,0.427-0.035l2.962,2.489c0.127,0.109,0.143,0.298,0.033,0.42L16.601-131.47z"/>
				<path fill="#FEFB39" d="M32.425-126.582c0.127,0.109,0.143,0.297,0.034,0.424l-2.254,2.64c-0.109,0.127-0.302,0.144-0.429,0.035
					l-6.21-5.213c-0.126-0.109-0.142-0.297-0.033-0.42l2.273-2.622c0.109-0.127,0.303-0.139,0.428-0.035L32.425-126.582z"/>
				<path fill="#FEFB39" d="M17.536-123.69c-0.108,0.127-0.302,0.14-0.429,0.03l-2.943-2.508c-0.126-0.109-0.139-0.298-0.029-0.425
					l7.458-8.589c0.108-0.128,0.302-0.14,0.428-0.036l2.962,2.489c0.127,0.109,0.144,0.298,0.034,0.425L17.536-123.69z"/>
			</g>
			<g>
				<path fill="#FEFB39" d="M33.452-115.05c0.117,0.12,0.117,0.31-0.002,0.426l-2.473,2.437c-0.119,0.118-0.312,0.117-0.429-0.002
					l-5.732-5.73c-0.116-0.12-0.116-0.31,0.003-0.427l2.495-2.416c0.119-0.118,0.313-0.114,0.431,0.001L33.452-115.05z"/>
				<path fill="#FEFB39" d="M18.354-113.73c-0.12,0.117-0.314,0.113-0.432-0.007l-2.711-2.756c-0.117-0.119-0.112-0.309,0.006-0.426
					l8.176-7.91c0.119-0.116,0.312-0.112,0.429,0.003l2.734,2.739c0.117,0.119,0.117,0.309-0.003,0.421L18.354-113.73z"/>
				<path fill="#FEFB39" d="M33.689-107.479c0.117,0.119,0.117,0.308-0.003,0.425l-2.476,2.433
					c-0.119,0.118-0.312,0.117-0.431-0.002l-5.731-5.735c-0.116-0.119-0.116-0.309,0.003-0.421l2.496-2.412
					c0.119-0.118,0.312-0.113,0.43,0.002L33.689-107.479z"/>
				<path fill="#FEFB39" d="M18.606-105.898c-0.12,0.117-0.313,0.112-0.431-0.008l-2.713-2.756c-0.116-0.12-0.112-0.309,0.008-0.425
					l8.18-7.905c0.118-0.118,0.312-0.113,0.429,0.001l2.735,2.738c0.116,0.12,0.115,0.309-0.004,0.426L18.606-105.898z"/>
			</g>
			<g>
				<path fill="#FEFB39" d="M33.689-95.668c0.106,0.129,0.09,0.318-0.04,0.424l-2.675,2.211c-0.129,0.107-0.322,0.089-0.428-0.04
					l-5.208-6.21c-0.106-0.129-0.089-0.318,0.04-0.424l2.697-2.188c0.129-0.107,0.322-0.086,0.428,0.039L33.689-95.668z"/>
				<path fill="#FEFB39" d="M18.533-95.675c-0.13,0.106-0.322,0.084-0.429-0.045l-2.461-2.983c-0.105-0.129-0.085-0.317,0.045-0.423
					l8.836-7.164c0.128-0.105,0.321-0.084,0.427,0.041l2.484,2.967c0.106,0.129,0.089,0.318-0.04,0.42L18.533-95.675z"/>
				<path fill="#FEFB39" d="M33.264-88.106c0.106,0.129,0.09,0.318-0.04,0.423l-2.68,2.207c-0.129,0.107-0.322,0.09-0.428-0.04
					l-5.208-6.215c-0.105-0.129-0.089-0.318,0.04-0.419l2.696-2.185c0.13-0.106,0.322-0.084,0.428,0.04L33.264-88.106z"/>
				<path fill="#FEFB39" d="M18.1-87.851c-0.129,0.105-0.322,0.084-0.428-0.045l-2.462-2.982c-0.105-0.13-0.084-0.318,0.045-0.423
					l8.84-7.159c0.129-0.106,0.321-0.084,0.428,0.04l2.484,2.967c0.106,0.129,0.089,0.318-0.041,0.424L18.1-87.851z"/>
			</g>
			<g>
				<path fill="#FEFB39" d="M32.241-76.615c0.095,0.138,0.062,0.324-0.076,0.419l-2.858,1.969c-0.138,0.095-0.328,0.061-0.423-0.077
					l-4.646-6.641c-0.094-0.138-0.062-0.325,0.077-0.419l2.877-1.945c0.138-0.095,0.328-0.057,0.423,0.077L32.241-76.615z"/>
				<path fill="#FEFB39" d="M17.144-77.944c-0.139,0.094-0.329,0.056-0.423-0.083l-2.19-3.186c-0.095-0.138-0.058-0.324,0.08-0.417
					l9.428-6.365c0.138-0.095,0.327-0.057,0.422,0.077l2.215,3.172c0.095,0.138,0.062,0.325-0.076,0.415L17.144-77.944z"/>
				<path fill="#FEFB39" d="M31.157-69.118c0.094,0.138,0.062,0.324-0.077,0.418l-2.862,1.965c-0.138,0.095-0.328,0.061-0.423-0.078
					l-4.645-6.645c-0.094-0.138-0.061-0.325,0.076-0.415l2.876-1.942c0.139-0.095,0.328-0.056,0.423,0.078L31.157-69.118z"/>
				<path fill="#FEFB39" d="M16.028-70.188c-0.138,0.094-0.328,0.056-0.423-0.083l-2.19-3.186c-0.095-0.139-0.058-0.324,0.081-0.418
					l9.431-6.359c0.138-0.095,0.328-0.057,0.423,0.076l2.215,3.172c0.095,0.138,0.061,0.324-0.078,0.419L16.028-70.188z"/>
			</g>
			<g>
				<path fill="#FEFB39" d="M29.163-58.061c0.082,0.146,0.033,0.329-0.112,0.411l-3.019,1.714c-0.146,0.083-0.332,0.032-0.414-0.114
					l-4.052-7.018c-0.082-0.146-0.032-0.33,0.112-0.411l3.035-1.688c0.146-0.083,0.332-0.028,0.415,0.113L29.163-58.061z"/>
				<path fill="#FEFB39" d="M14.237-60.696c-0.146,0.083-0.332,0.028-0.414-0.118l-1.906-3.365
					c-0.081-0.145-0.028-0.327,0.117-0.409l9.943-5.523c0.146-0.082,0.332-0.028,0.415,0.114l1.931,3.353
					c0.082,0.146,0.033,0.329-0.112,0.406L14.237-60.696z"/>
				<path fill="#FEFB39" d="M27.433-50.687c0.082,0.146,0.033,0.329-0.113,0.41l-3.022,1.709c-0.146,0.083-0.333,0.032-0.415-0.114
					l-4.049-7.023c-0.082-0.145-0.032-0.329,0.111-0.406l3.035-1.685c0.145-0.083,0.331-0.027,0.413,0.114L27.433-50.687z"/>
				<path fill="#FEFB39" d="M12.454-53.065c-0.145,0.082-0.331,0.028-0.413-0.119l-1.906-3.364
					c-0.082-0.146-0.029-0.327,0.117-0.409l9.947-5.518c0.146-0.083,0.332-0.027,0.415,0.113l1.931,3.353
					c0.082,0.145,0.032,0.328-0.114,0.41L12.454-53.065z"/>
			</g>
			<g>
				<path fill="#FEFB39" d="M24.525-40.081c0.069,0.152,0.005,0.33-0.147,0.4l-3.154,1.448c-0.152,0.07-0.334,0.003-0.403-0.149
					l-3.433-7.341c-0.068-0.153-0.004-0.331,0.147-0.4l3.169-1.42c0.152-0.07,0.333,0,0.404,0.148L24.525-40.081z"/>
				<path fill="#FEFB39" d="M9.882-43.99c-0.152,0.069-0.333-0.001-0.401-0.154l-1.61-3.516c-0.068-0.152,0-0.329,0.151-0.397
					l10.383-4.648c0.152-0.069,0.332,0.002,0.402,0.149l1.636,3.507c0.069,0.152,0.005,0.33-0.146,0.395L9.882-43.99z"/>
				<path fill="#FEFB39" d="M22.167-32.882c0.069,0.152,0.005,0.33-0.147,0.398l-3.157,1.443c-0.152,0.069-0.335,0.003-0.404-0.149
					l-3.431-7.346c-0.068-0.152-0.004-0.33,0.146-0.396l3.168-1.417c0.151-0.07,0.332,0.001,0.402,0.149L22.167-32.882z"/>
				<path fill="#FEFB39" d="M7.449-36.541c-0.152,0.069-0.333-0.001-0.401-0.154L5.437-40.21c-0.069-0.152,0-0.329,0.152-0.397
					l10.386-4.641c0.152-0.07,0.332,0.001,0.403,0.148l1.636,3.506c0.069,0.152,0.004,0.331-0.149,0.399L7.449-36.541z"/>
			</g>
			<g>
				<path fill="#FEFB39" d="M18.398-22.747c0.056,0.158-0.023,0.329-0.182,0.385l-3.266,1.174c-0.158,0.057-0.333-0.025-0.39-0.183
					l-2.793-7.607c-0.056-0.158,0.024-0.33,0.181-0.386l3.278-1.146c0.158-0.057,0.332,0.029,0.39,0.182L18.398-22.747z"/>
				<path fill="#FEFB39" d="M4.141-27.89c-0.158,0.056-0.332-0.03-0.388-0.188l-1.304-3.64c-0.056-0.157,0.028-0.327,0.186-0.383
					l10.741-3.746c0.157-0.056,0.332,0.03,0.389,0.183l1.33,3.633c0.056,0.158-0.023,0.329-0.18,0.381L4.141-27.89z"/>
				<path fill="#FEFB39" d="M15.435-15.776c0.057,0.158-0.023,0.33-0.181,0.385l-3.268,1.168c-0.158,0.056-0.334-0.025-0.39-0.183
					l-2.793-7.612c-0.056-0.157,0.024-0.329,0.18-0.381l3.277-1.142c0.157-0.057,0.331,0.029,0.389,0.183L15.435-15.776z"/>
				<path fill="#FEFB39" d="M1.081-20.675c-0.157,0.056-0.331-0.029-0.386-0.187l-1.305-3.641c-0.056-0.158,0.028-0.327,0.186-0.383
					l10.744-3.739c0.158-0.057,0.331,0.029,0.389,0.182l1.332,3.633c0.056,0.157-0.024,0.33-0.183,0.385L1.081-20.675z"/>
			</g>
			<g>
				<path fill="#FEFB39" d="M10.853-6.131c0.042,0.162-0.051,0.326-0.213,0.369L7.286-4.869C7.125-4.826,6.957-4.922,6.915-5.084
					l-2.144-7.815c-0.042-0.162,0.052-0.327,0.213-0.369l3.363-0.865c0.162-0.043,0.329,0.057,0.373,0.214L10.853-6.131z"/>
				<path fill="#FEFB39" d="M-2.92-12.459c-0.162,0.042-0.328-0.058-0.37-0.219l-0.992-3.738c-0.042-0.161,0.055-0.324,0.216-0.366
					l11.02-2.826c0.161-0.042,0.327,0.058,0.372,0.215l1.019,3.732c0.043,0.162-0.051,0.326-0.211,0.365L-2.92-12.459z"/>
				<path fill="#FEFB39" d="M7.312,0.565c0.043,0.161-0.051,0.326-0.213,0.368L3.743,1.821c-0.162,0.044-0.33-0.053-0.373-0.215
					L1.23-6.214C1.188-6.375,1.282-6.54,1.441-6.579L4.803-7.44C4.964-7.483,5.13-7.383,5.174-7.226L7.312,0.565z"/>
				<path fill="#FEFB39" d="M-6.577-5.528c-0.161,0.042-0.328-0.057-0.37-0.219L-7.94-9.485c-0.042-0.162,0.055-0.324,0.217-0.366
					l11.02-2.82c0.162-0.043,0.328,0.058,0.373,0.214l1.02,3.732c0.042,0.162-0.052,0.326-0.214,0.368L-6.577-5.528z"/>
			</g>
			<g>
				<path fill="#FEFB39" d="M1.96,9.692c0.029,0.165-0.078,0.321-0.243,0.351l-3.417,0.609c-0.165,0.03-0.324-0.08-0.353-0.245
					l-1.482-7.966C-3.562,2.276-3.455,2.12-3.291,2.09l3.424-0.58c0.165-0.03,0.323,0.084,0.354,0.245L1.96,9.692z"/>
				<path fill="#FEFB39" d="M-11.235,2.236c-0.165,0.029-0.322-0.084-0.351-0.249l-0.676-3.807
					c-0.029-0.164,0.082-0.318,0.247-0.347l11.217-1.894c0.164-0.029,0.322,0.084,0.353,0.245l0.704,3.804
					c0.029,0.165-0.078,0.32-0.241,0.346L-11.235,2.236z"/>
				<path fill="#FEFB39" d="M-2.128,16.069c0.029,0.164-0.078,0.32-0.243,0.349l-3.418,0.604c-0.165,0.03-0.325-0.08-0.354-0.245
					l-1.479-7.97C-7.65,8.642-7.543,8.486-7.381,8.46l3.422-0.577c0.165-0.029,0.322,0.085,0.353,0.245L-2.128,16.069z"/>
				<path fill="#FEFB39" d="M-15.459,8.836c-0.164,0.029-0.321-0.084-0.35-0.249l-0.677-3.807c-0.028-0.165,0.082-0.318,0.247-0.347
					l11.218-1.888C-4.856,2.516-4.7,2.629-4.668,2.79l0.704,3.805c0.029,0.163-0.079,0.32-0.244,0.349L-15.459,8.836z"/>
			</g>
			<g>
				<path fill="#FEFB39" d="M-8.208,24.654c0.015,0.167-0.105,0.313-0.272,0.328l-3.456,0.325c-0.167,0.016-0.316-0.107-0.331-0.273
					l-0.816-8.06c-0.015-0.167,0.106-0.313,0.271-0.329l3.46-0.294c0.167-0.016,0.314,0.11,0.332,0.273L-8.208,24.654z"/>
				<path fill="#FEFB39" d="M-20.739,16.131c-0.167,0.015-0.314-0.111-0.329-0.278l-0.358-3.849
					c-0.015-0.166,0.108-0.311,0.274-0.325l11.335-0.957c0.167-0.016,0.313,0.111,0.331,0.273l0.385,3.849
					c0.015,0.167-0.104,0.313-0.269,0.325L-20.739,16.131z"/>
				<path fill="#FEFB39" d="M-12.812,30.668c0.015,0.167-0.104,0.313-0.271,0.328l-3.457,0.319
					c-0.167,0.015-0.317-0.107-0.332-0.274l-0.812-8.064c-0.015-0.166,0.105-0.312,0.269-0.325l3.458-0.291
					c0.167-0.016,0.313,0.111,0.331,0.273L-12.812,30.668z"/>
				<path fill="#FEFB39" d="M-25.497,22.356c-0.166,0.015-0.313-0.111-0.328-0.278l-0.359-3.849
					c-0.015-0.166,0.108-0.31,0.275-0.324l11.336-0.95c0.167-0.017,0.313,0.11,0.332,0.272l0.385,3.849
					c0.015,0.165-0.104,0.312-0.271,0.327L-25.497,22.356z"/>
			</g>
			<g>
				<path fill="#FEFB39" d="M-19.58,38.688c0.001,0.168-0.13,0.304-0.298,0.306l-3.471,0.038c-0.167,0.001-0.306-0.133-0.307-0.3
					l-0.146-8.104c-0.001-0.168,0.131-0.304,0.298-0.305l3.473-0.008c0.167-0.002,0.305,0.136,0.308,0.3L-19.58,38.688z"/>
				<path fill="#FEFB39" d="M-31.364,29.155c-0.167,0.001-0.304-0.137-0.305-0.304l-0.039-3.867c-0.001-0.166,0.134-0.3,0.301-0.301
					l11.376-0.018c0.166-0.001,0.303,0.137,0.307,0.3l0.066,3.868c0.001,0.168-0.13,0.304-0.295,0.302L-31.364,29.155z"/>
				<path fill="#FEFB39" d="M-24.665,44.302c0.001,0.167-0.13,0.304-0.297,0.305l-3.472,0.032c-0.167,0.002-0.307-0.133-0.308-0.301
					l-0.143-8.106c-0.001-0.166,0.13-0.303,0.294-0.301l3.471-0.005c0.167-0.002,0.303,0.137,0.307,0.3L-24.665,44.302z"/>
				<path fill="#FEFB39" d="M-36.62,34.969c-0.167,0.001-0.303-0.137-0.304-0.304l-0.04-3.867c-0.001-0.167,0.134-0.301,0.301-0.301
					l11.375-0.012c0.167-0.002,0.304,0.137,0.308,0.3l0.066,3.868c0.001,0.167-0.13,0.304-0.298,0.305L-36.62,34.969z"/>
			</g>
			<g>
				<path fill="#FEFB39" d="M-32.441,52.056c-0.013,0.167-0.154,0.292-0.322,0.279l-3.462-0.248
					c-0.167-0.013-0.294-0.157-0.282-0.324l0.521-8.088c0.013-0.167,0.156-0.292,0.322-0.279l3.462,0.278
					c0.167,0.012,0.292,0.161,0.282,0.324L-32.441,52.056z"/>
				<path fill="#FEFB39" d="M-43.4,41.584c-0.167-0.013-0.291-0.161-0.279-0.327l0.281-3.857c0.012-0.166,0.157-0.288,0.324-0.275
					l11.339,0.921c0.167,0.012,0.291,0.16,0.282,0.323l-0.253,3.861c-0.012,0.167-0.155,0.291-0.319,0.275L-43.4,41.584z"/>
				<path fill="#FEFB39" d="M-37.972,57.231c-0.012,0.167-0.154,0.292-0.321,0.278l-3.462-0.253
					c-0.167-0.013-0.294-0.158-0.282-0.325l0.525-8.091c0.013-0.166,0.155-0.29,0.319-0.275l3.459,0.281
					c0.167,0.012,0.291,0.16,0.281,0.324L-37.972,57.231z"/>
				<path fill="#FEFB39" d="M-49.116,46.944c-0.166-0.012-0.291-0.16-0.278-0.328l0.28-3.856c0.013-0.167,0.158-0.288,0.325-0.275
					l11.337,0.927c0.167,0.012,0.291,0.161,0.282,0.323l-0.252,3.861c-0.013,0.166-0.155,0.291-0.322,0.278L-49.116,46.944z"/>
			</g>
			<g>
				<path fill="#FEFB39" d="M-46.416,64.342c-0.026,0.165-0.178,0.278-0.344,0.252l-3.43-0.532c-0.166-0.026-0.28-0.182-0.253-0.347
					l1.187-8.018c0.026-0.165,0.179-0.277,0.344-0.252l3.427,0.563c0.166,0.025,0.278,0.184,0.255,0.347L-46.416,64.342z"/>
				<path fill="#FEFB39" d="M-56.473,53.003c-0.166-0.026-0.277-0.185-0.25-0.351l0.597-3.82c0.026-0.164,0.181-0.274,0.346-0.248
					l11.225,1.853c0.165,0.025,0.276,0.185,0.253,0.347l-0.57,3.826c-0.026,0.165-0.179,0.278-0.34,0.249L-56.473,53.003z"/>
				<path fill="#FEFB39" d="M-52.354,69.044c-0.025,0.165-0.178,0.278-0.343,0.251l-3.43-0.538c-0.165-0.025-0.28-0.181-0.254-0.347
					l1.19-8.02c0.026-0.165,0.178-0.277,0.34-0.249l3.424,0.565c0.165,0.026,0.277,0.185,0.254,0.347L-52.354,69.044z"/>
				<path fill="#FEFB39" d="M-62.612,57.873c-0.165-0.026-0.277-0.185-0.25-0.35l0.597-3.82c0.026-0.165,0.181-0.274,0.346-0.248
					l11.223,1.858c0.166,0.025,0.277,0.185,0.254,0.346l-0.57,3.828c-0.026,0.164-0.178,0.276-0.344,0.25L-62.612,57.873z"/>
			</g>
			<g>
				<path fill="#FEFB39" d="M-61.38,75.483c-0.04,0.163-0.201,0.262-0.363,0.223l-3.375-0.814c-0.163-0.04-0.264-0.204-0.224-0.367
					l1.846-7.891c0.041-0.163,0.202-0.262,0.364-0.223l3.368,0.845c0.163,0.039,0.262,0.207,0.225,0.366L-61.38,75.483z"/>
				<path fill="#FEFB39" d="M-70.464,63.352c-0.162-0.041-0.261-0.208-0.221-0.37l0.911-3.758c0.04-0.162,0.202-0.258,0.365-0.219
					l11.033,2.774c0.161,0.04,0.26,0.207,0.223,0.367l-0.885,3.766c-0.04,0.163-0.201,0.263-0.36,0.22L-70.464,63.352z"/>
				<path fill="#FEFB39" d="M-67.687,79.678c-0.04,0.163-0.201,0.263-0.363,0.223l-3.374-0.82c-0.163-0.04-0.264-0.204-0.225-0.367
					l1.851-7.894c0.04-0.162,0.201-0.261,0.359-0.22l3.366,0.848c0.163,0.038,0.26,0.206,0.224,0.365L-67.687,79.678z"/>
				<path fill="#FEFB39" d="M-76.985,67.696c-0.162-0.039-0.261-0.206-0.221-0.369l0.911-3.758c0.04-0.163,0.203-0.259,0.365-0.219
					l11.031,2.781c0.163,0.039,0.26,0.207,0.225,0.366l-0.885,3.767c-0.04,0.162-0.2,0.262-0.363,0.222L-76.985,67.696z"/>
			</g>
			<g>
				<path fill="#FEFB39" d="M-77.263,85.409c-0.054,0.159-0.222,0.244-0.381,0.191l-3.294-1.093
					c-0.159-0.053-0.247-0.226-0.193-0.384l2.497-7.71c0.053-0.159,0.223-0.245,0.38-0.191l3.287,1.122
					c0.159,0.053,0.244,0.228,0.194,0.385L-77.263,85.409z"/>
				<path fill="#FEFB39" d="M-85.305,72.562c-0.159-0.054-0.243-0.229-0.189-0.387l1.221-3.669c0.053-0.158,0.224-0.24,0.382-0.188
					l10.762,3.684c0.159,0.053,0.243,0.228,0.194,0.384l-1.197,3.68c-0.053,0.159-0.222,0.244-0.377,0.188L-85.305,72.562z"/>
				<path fill="#FEFB39" d="M-83.897,89.063c-0.053,0.159-0.222,0.245-0.38,0.191l-3.293-1.099
					c-0.159-0.053-0.247-0.225-0.194-0.384l2.501-7.712c0.054-0.158,0.223-0.244,0.377-0.188l3.283,1.123
					c0.159,0.054,0.243,0.229,0.193,0.384L-83.897,89.063z"/>
				<path fill="#FEFB39" d="M-92.166,76.35c-0.158-0.053-0.243-0.228-0.189-0.387l1.221-3.669c0.053-0.158,0.224-0.24,0.382-0.187
					l10.76,3.689c0.159,0.053,0.243,0.228,0.194,0.384l-1.195,3.68c-0.054,0.157-0.222,0.244-0.381,0.19L-92.166,76.35z"/>
			</g>
			<g>
				<path fill="#FEFB39" d="M-93.991,94.046c-0.066,0.153-0.241,0.225-0.396,0.159l-3.191-1.366
					c-0.153-0.066-0.226-0.245-0.16-0.398l3.136-7.473c0.067-0.154,0.243-0.226,0.396-0.159l3.181,1.395
					c0.154,0.065,0.224,0.247,0.161,0.398L-93.991,94.046z"/>
				<path fill="#FEFB39" d="M-100.926,80.568c-0.153-0.066-0.223-0.247-0.156-0.4l1.525-3.554c0.066-0.153,0.242-0.221,0.396-0.154
					l10.416,4.574c0.152,0.065,0.222,0.247,0.16,0.398l-1.501,3.566c-0.067,0.153-0.242,0.225-0.391,0.156L-100.926,80.568z"/>
				<path fill="#FEFB39" d="M-100.909,97.131c-0.066,0.153-0.241,0.225-0.395,0.158l-3.189-1.371
					c-0.154-0.066-0.227-0.245-0.16-0.399l3.14-7.475c0.066-0.153,0.242-0.225,0.391-0.156l3.178,1.396
					c0.154,0.066,0.223,0.247,0.16,0.398L-100.909,97.131z"/>
				<path fill="#FEFB39" d="M-108.081,83.767c-0.153-0.066-0.222-0.247-0.156-0.401l1.524-3.554
					c0.066-0.153,0.244-0.221,0.397-0.153l10.412,4.58c0.154,0.066,0.223,0.247,0.161,0.398l-1.5,3.566
					c-0.065,0.153-0.242,0.225-0.396,0.158L-108.081,83.767z"/>
			</g>
			<g>
				<path fill="#FEFB39" d="M-111.493,101.32c-0.079,0.147-0.26,0.205-0.407,0.125l-3.064-1.631
					c-0.147-0.08-0.204-0.264-0.125-0.412l3.758-7.18c0.08-0.147,0.261-0.204,0.408-0.124l3.051,1.658
					c0.147,0.079,0.201,0.265,0.126,0.412L-111.493,101.32z"/>
				<path fill="#FEFB39" d="M-117.26,87.304c-0.147-0.079-0.201-0.266-0.122-0.413l1.821-3.411c0.079-0.147,0.261-0.199,0.408-0.12
					l9.99,5.441c0.147,0.078,0.201,0.265,0.126,0.41l-1.798,3.426c-0.079,0.147-0.26,0.204-0.403,0.123L-117.26,87.304z"/>
				<path fill="#FEFB39" d="M-118.647,103.808c-0.079,0.147-0.26,0.204-0.407,0.124l-3.062-1.637
					c-0.148-0.079-0.205-0.263-0.126-0.411l3.762-7.182c0.08-0.146,0.26-0.203,0.404-0.123l3.047,1.66
					c0.148,0.079,0.201,0.266,0.125,0.411L-118.647,103.808z"/>
				<path fill="#FEFB39" d="M-124.659,89.884c-0.147-0.079-0.201-0.266-0.122-0.413l1.821-3.411c0.08-0.147,0.261-0.2,0.408-0.12
					l9.987,5.447c0.147,0.078,0.201,0.265,0.126,0.41l-1.798,3.426c-0.079,0.147-0.26,0.204-0.407,0.124L-124.659,89.884z"/>
			</g>
			<g>
				<path fill="#FEFB39" d="M-129.691,107.159c-0.091,0.14-0.276,0.182-0.416,0.09l-2.913-1.889
					c-0.141-0.091-0.182-0.279-0.09-0.419l4.359-6.833c0.092-0.14,0.277-0.18,0.417-0.09l2.898,1.915
					c0.14,0.091,0.178,0.281,0.091,0.42L-129.691,107.159z"/>
				<path fill="#FEFB39" d="M-134.237,92.7c-0.141-0.092-0.178-0.282-0.086-0.422l2.106-3.243c0.091-0.139,0.277-0.176,0.417-0.085
					l9.487,6.276c0.139,0.091,0.177,0.282,0.09,0.421l-2.084,3.259c-0.091,0.141-0.277,0.181-0.412,0.088L-134.237,92.7z"/>
				<path fill="#FEFB39" d="M-137.032,109.024c-0.092,0.14-0.276,0.181-0.416,0.089l-2.911-1.893
					c-0.139-0.091-0.181-0.28-0.089-0.421l4.364-6.833c0.091-0.139,0.276-0.181,0.413-0.088l2.893,1.915
					c0.141,0.092,0.178,0.281,0.09,0.42L-137.032,109.024z"/>
				<path fill="#FEFB39" d="M-141.831,94.637c-0.139-0.091-0.177-0.281-0.085-0.421l2.105-3.244c0.092-0.14,0.277-0.176,0.417-0.084
					l9.483,6.281c0.141,0.092,0.177,0.282,0.091,0.42l-2.085,3.26c-0.091,0.141-0.276,0.181-0.416,0.089L-141.831,94.637z"/>
			</g>
			<g>
				<path fill="#FEFB39" d="M-148.512,111.488c-0.103,0.131-0.29,0.156-0.422,0.053l-2.739-2.133
					c-0.132-0.103-0.157-0.295-0.054-0.426l4.934-6.43c0.104-0.132,0.292-0.157,0.423-0.054l2.721,2.158
					c0.132,0.103,0.153,0.296,0.054,0.427L-148.512,111.488z"/>
				<path fill="#FEFB39" d="M-151.791,96.689c-0.131-0.103-0.152-0.296-0.048-0.427l2.378-3.05c0.103-0.131,0.292-0.151,0.423-0.048
					l8.91,7.073c0.131,0.103,0.152,0.296,0.053,0.426l-2.358,3.067c-0.103,0.131-0.291,0.156-0.418,0.052L-151.791,96.689z"/>
				<path fill="#FEFB39" d="M-155.986,112.711c-0.104,0.133-0.291,0.157-0.422,0.053l-2.736-2.137
					c-0.132-0.104-0.157-0.295-0.054-0.427l4.938-6.43c0.104-0.132,0.292-0.156,0.419-0.053l2.717,2.158
					c0.132,0.103,0.152,0.296,0.053,0.426L-155.986,112.711z"/>
				<path fill="#FEFB39" d="M-159.523,97.963c-0.131-0.103-0.152-0.295-0.049-0.427l2.378-3.05c0.104-0.131,0.292-0.151,0.423-0.048
					l8.905,7.078c0.132,0.103,0.152,0.296,0.055,0.426l-2.359,3.068c-0.102,0.131-0.29,0.155-0.421,0.052L-159.523,97.963z"/>
			</g>
			<g>
				<path fill="#FEFB39" d="M-167.511,114.231c-0.114,0.123-0.304,0.131-0.426,0.017l-2.542-2.362
					c-0.123-0.114-0.131-0.308-0.017-0.43l5.475-5.976c0.115-0.123,0.304-0.131,0.426-0.017l2.523,2.387
					c0.123,0.113,0.127,0.308,0.016,0.43L-167.511,114.231z"/>
				<path fill="#FEFB39" d="M-169.489,99.205c-0.123-0.114-0.126-0.309-0.012-0.431l2.635-2.83c0.114-0.122,0.302-0.126,0.425-0.012
					l8.259,7.822c0.122,0.113,0.126,0.308,0.017,0.43l-2.617,2.85c-0.114,0.122-0.304,0.13-0.421,0.016L-169.489,99.205z"/>
				<path fill="#FEFB39" d="M-175.064,114.8c-0.114,0.123-0.303,0.131-0.425,0.017l-2.54-2.367c-0.123-0.114-0.13-0.308-0.016-0.431
					l5.478-5.976c0.115-0.121,0.304-0.13,0.421-0.015l2.52,2.386c0.123,0.114,0.126,0.308,0.016,0.43L-175.064,114.8z"/>
				<path fill="#FEFB39" d="M-177.303,99.8c-0.122-0.113-0.126-0.308-0.011-0.43l2.635-2.831c0.114-0.121,0.304-0.125,0.425-0.011
					l8.255,7.826c0.123,0.114,0.126,0.309,0.017,0.43l-2.616,2.851c-0.115,0.122-0.304,0.13-0.426,0.016L-177.303,99.8z"/>
			</g>
			<g>
				<path fill="#FEFB39" d="M-186.786,115.317c-0.125,0.111-0.313,0.104-0.425-0.021l-2.327-2.576
					c-0.112-0.125-0.103-0.317,0.021-0.43l5.976-5.474c0.125-0.112,0.314-0.103,0.426,0.021l2.305,2.599
					c0.112,0.124,0.1,0.317-0.021,0.429L-186.786,115.317z"/>
				<path fill="#FEFB39" d="M-187.443,100.175c-0.112-0.125-0.099-0.318,0.026-0.43l2.873-2.59c0.124-0.111,0.313-0.098,0.425,0.026
					l7.544,8.515c0.111,0.123,0.098,0.317-0.021,0.429l-2.856,2.61c-0.125,0.111-0.314,0.104-0.421-0.021L-187.443,100.175z"/>
				<path fill="#FEFB39" d="M-194.36,115.223c-0.125,0.112-0.313,0.104-0.425-0.021l-2.323-2.58
					c-0.112-0.124-0.103-0.317,0.021-0.43l5.98-5.474c0.125-0.111,0.313-0.104,0.421,0.021l2.301,2.598
					c0.112,0.124,0.099,0.317-0.021,0.429L-194.36,115.223z"/>
				<path fill="#FEFB39" d="M-195.279,100.084c-0.111-0.124-0.099-0.317,0.026-0.429l2.872-2.59
					c0.125-0.111,0.313-0.099,0.425,0.026l7.539,8.519c0.112,0.124,0.099,0.317-0.021,0.429l-2.856,2.61
					c-0.124,0.111-0.313,0.104-0.425-0.021L-195.279,100.084z"/>
			</g>
			<g>
				<path fill="#FEFB39" d="M-206.062,114.709c-0.134,0.1-0.321,0.075-0.422-0.059l-2.092-2.77
					c-0.101-0.134-0.075-0.325,0.058-0.426l6.433-4.931c0.134-0.101,0.322-0.075,0.422,0.059l2.068,2.789
					c0.101,0.134,0.072,0.325-0.058,0.426L-206.062,114.709z"/>
				<path fill="#FEFB39" d="M-205.392,99.566c-0.1-0.134-0.07-0.325,0.063-0.426l3.088-2.328c0.133-0.1,0.321-0.07,0.421,0.063
					l6.771,9.142c0.1,0.133,0.069,0.325-0.06,0.425l-3.073,2.352c-0.134,0.1-0.322,0.074-0.417-0.059L-205.392,99.566z"/>
				<path fill="#FEFB39" d="M-213.598,113.952c-0.134,0.101-0.321,0.076-0.421-0.059l-2.088-2.773
					c-0.1-0.134-0.075-0.325,0.059-0.426l6.436-4.931c0.134-0.099,0.322-0.074,0.418,0.059l2.065,2.789
					c0.101,0.134,0.071,0.325-0.059,0.426L-213.598,113.952z"/>
				<path fill="#FEFB39" d="M-213.189,98.791c-0.1-0.133-0.071-0.325,0.063-0.425l3.087-2.328c0.134-0.101,0.321-0.071,0.421,0.063
					l6.766,9.145c0.101,0.134,0.07,0.325-0.058,0.426l-3.073,2.351c-0.134,0.101-0.321,0.075-0.421-0.059L-213.189,98.791z"/>
			</g>
			<g>
				<path fill="#FEFB39" d="M-224.874,112.437c-0.143,0.089-0.328,0.048-0.416-0.095l-1.844-2.941
					c-0.088-0.143-0.045-0.33,0.097-0.419l6.836-4.352c0.143-0.088,0.328-0.046,0.416,0.095l1.818,2.959
					c0.089,0.142,0.042,0.33-0.096,0.419L-224.874,112.437z"/>
				<path fill="#FEFB39" d="M-222.889,97.41c-0.089-0.142-0.042-0.33,0.1-0.418l3.279-2.05c0.142-0.089,0.325-0.043,0.414,0.099
					l5.95,9.695c0.088,0.142,0.042,0.331-0.095,0.42l-3.267,2.074c-0.142,0.088-0.327,0.046-0.411-0.095L-222.889,97.41z"/>
				<path fill="#FEFB39" d="M-232.316,111.027c-0.142,0.089-0.327,0.048-0.415-0.095l-1.839-2.945
					c-0.088-0.142-0.046-0.33,0.097-0.419l6.841-4.351c0.142-0.088,0.326-0.048,0.41,0.094l1.815,2.958
					c0.088,0.143,0.042,0.33-0.096,0.419L-232.316,111.027z"/>
				<path fill="#FEFB39" d="M-230.59,95.959c-0.088-0.141-0.042-0.33,0.101-0.418l3.278-2.051c0.142-0.088,0.326-0.042,0.414,0.101
					l5.943,9.699c0.089,0.142,0.042,0.33-0.095,0.419l-3.266,2.074c-0.142,0.088-0.328,0.047-0.415-0.096L-230.59,95.959z"/>
			</g>
			<g>
				<path fill="#FEFB39" d="M-243.151,108.569c-0.149,0.076-0.33,0.02-0.405-0.13l-1.582-3.089c-0.076-0.15-0.018-0.334,0.131-0.409
					l7.187-3.745c0.15-0.076,0.331-0.019,0.406,0.13l1.555,3.105c0.077,0.149,0.014,0.333-0.131,0.41L-243.151,108.569z"/>
				<path fill="#FEFB39" d="M-239.874,93.771c-0.075-0.148-0.013-0.332,0.136-0.409l3.444-1.759
					c0.148-0.075,0.328-0.014,0.403,0.136l5.089,10.173c0.076,0.149,0.013,0.333-0.131,0.41l-3.434,1.784
					c-0.149,0.075-0.33,0.018-0.401-0.13L-239.874,93.771z"/>
				<path fill="#FEFB39" d="M-250.443,106.522c-0.15,0.076-0.33,0.02-0.405-0.13l-1.577-3.093c-0.077-0.149-0.018-0.334,0.131-0.41
					l7.192-3.743c0.149-0.075,0.329-0.018,0.401,0.13l1.552,3.104c0.076,0.149,0.013,0.333-0.132,0.409L-250.443,106.522z"/>
				<path fill="#FEFB39" d="M-247.42,91.66c-0.076-0.148-0.013-0.332,0.136-0.407l3.443-1.76c0.148-0.076,0.328-0.015,0.403,0.135
					l5.083,10.176c0.076,0.15,0.013,0.333-0.131,0.41l-3.434,1.784c-0.148,0.076-0.329,0.019-0.404-0.131L-247.42,91.66z"/>
			</g>
			<g>
				<path fill="#FEFB39" d="M-260.817,103.179c-0.154,0.062-0.329-0.01-0.392-0.165l-1.312-3.214
					c-0.063-0.155,0.011-0.334,0.166-0.396l7.481-3.116c0.156-0.063,0.331,0.01,0.394,0.164l1.284,3.228
					c0.063,0.154-0.015,0.332-0.166,0.396L-260.817,103.179z"/>
				<path fill="#FEFB39" d="M-256.285,88.714c-0.063-0.154,0.015-0.332,0.17-0.395l3.582-1.458c0.155-0.062,0.328,0.014,0.391,0.169
					l4.2,10.572c0.062,0.154-0.017,0.332-0.167,0.396l-3.573,1.483c-0.155,0.062-0.331-0.011-0.389-0.163L-256.285,88.714z"/>
				<path fill="#FEFB39" d="M-267.907,100.514c-0.155,0.063-0.33-0.009-0.392-0.165l-1.306-3.216
					c-0.063-0.155,0.011-0.334,0.166-0.396l7.485-3.114c0.155-0.062,0.33,0.01,0.389,0.163l1.281,3.227
					c0.063,0.154-0.015,0.332-0.166,0.396L-267.907,100.514z"/>
				<path fill="#FEFB39" d="M-263.623,85.965c-0.062-0.154,0.015-0.332,0.171-0.395l3.582-1.458c0.155-0.062,0.328,0.014,0.39,0.169
					l4.193,10.574c0.063,0.155-0.016,0.332-0.166,0.396l-3.574,1.484c-0.155,0.062-0.33-0.01-0.392-0.165L-263.623,85.965z"/>
			</g>
			<g>
				<path fill="#FEFB39" d="M-277.799,96.333c-0.16,0.05-0.328-0.037-0.377-0.197l-1.035-3.313c-0.049-0.16,0.04-0.331,0.199-0.381
					l7.719-2.47c0.161-0.05,0.329,0.038,0.378,0.198l1.006,3.323c0.05,0.16-0.043,0.33-0.199,0.381L-277.799,96.333z"/>
				<path fill="#FEFB39" d="M-272.058,82.307c-0.049-0.16,0.043-0.33,0.204-0.38l3.692-1.148c0.159-0.05,0.326,0.041,0.375,0.201
					l3.288,10.891c0.05,0.159-0.044,0.329-0.199,0.38l-3.686,1.176c-0.16,0.05-0.329-0.039-0.374-0.196L-272.058,82.307z"/>
				<path fill="#FEFB39" d="M-284.638,93.077c-0.16,0.049-0.328-0.037-0.377-0.197l-1.03-3.315c-0.049-0.159,0.04-0.332,0.2-0.381
					l7.722-2.469c0.16-0.048,0.328,0.038,0.374,0.196l1.002,3.321c0.049,0.16-0.043,0.331-0.199,0.382L-284.638,93.077z"/>
				<path fill="#FEFB39" d="M-279.136,78.944c-0.049-0.159,0.043-0.33,0.204-0.379l3.692-1.149c0.159-0.049,0.326,0.042,0.375,0.202
					l3.281,10.892c0.05,0.159-0.043,0.329-0.198,0.381l-3.686,1.175c-0.16,0.05-0.328-0.037-0.377-0.197L-279.136,78.944z"/>
			</g>
			<g>
				<path fill="#FEFB39" d="M-294.029,88.104c-0.164,0.037-0.324-0.064-0.36-0.228l-0.753-3.389
					c-0.036-0.164,0.067-0.327,0.23-0.362l7.899-1.813c0.164-0.036,0.324,0.065,0.36,0.229l0.723,3.397
					c0.036,0.163-0.07,0.325-0.23,0.362L-294.029,88.104z"/>
				<path fill="#FEFB39" d="M-287.129,74.61c-0.036-0.164,0.071-0.325,0.235-0.361l3.775-0.834c0.163-0.036,0.321,0.067,0.357,0.231
					l2.362,11.128c0.036,0.162-0.072,0.325-0.231,0.363l-3.772,0.861c-0.164,0.035-0.324-0.066-0.355-0.227L-287.129,74.61z"/>
				<path fill="#FEFB39" d="M-300.57,84.287c-0.164,0.035-0.324-0.065-0.359-0.229l-0.748-3.391
					c-0.036-0.163,0.067-0.327,0.23-0.363l7.903-1.811c0.163-0.035,0.323,0.065,0.354,0.227l0.721,3.395
					c0.035,0.163-0.071,0.325-0.23,0.363L-300.57,84.287z"/>
				<path fill="#FEFB39" d="M-293.901,70.665c-0.036-0.162,0.071-0.325,0.234-0.359l3.776-0.836
					c0.164-0.035,0.322,0.069,0.357,0.232l2.355,11.129c0.036,0.164-0.071,0.325-0.229,0.363l-3.772,0.861
					c-0.163,0.036-0.323-0.064-0.359-0.229L-293.901,70.665z"/>
			</g>
			<g>
				<path fill="#FEFB39" d="M-309.433,78.565c-0.166,0.022-0.317-0.092-0.339-0.257l-0.468-3.44
					c-0.021-0.166,0.094-0.319,0.26-0.342l8.022-1.148c0.167-0.022,0.317,0.092,0.34,0.257l0.437,3.445
					c0.023,0.166-0.097,0.319-0.259,0.342L-309.433,78.565z"/>
				<path fill="#FEFB39" d="M-301.434,65.691c-0.022-0.166,0.098-0.317,0.264-0.34l3.833-0.518c0.165-0.021,0.314,0.096,0.336,0.262
					l1.427,11.286c0.022,0.165-0.099,0.317-0.26,0.342l-3.831,0.544c-0.166,0.021-0.318-0.092-0.335-0.255L-301.434,65.691z"/>
				<path fill="#FEFB39" d="M-315.634,74.215c-0.166,0.022-0.317-0.091-0.338-0.257l-0.463-3.44
					c-0.021-0.167,0.094-0.321,0.26-0.343l8.027-1.146c0.165-0.021,0.317,0.093,0.335,0.255l0.435,3.443
					c0.022,0.166-0.098,0.318-0.26,0.342L-315.634,74.215z"/>
				<path fill="#FEFB39" d="M-307.853,61.197c-0.022-0.166,0.098-0.318,0.264-0.341l3.832-0.517
					c0.166-0.022,0.314,0.095,0.336,0.261l1.42,11.286c0.022,0.167-0.098,0.318-0.259,0.343l-3.832,0.545
					c-0.165,0.021-0.316-0.092-0.338-0.258L-307.853,61.197z"/>
			</g>
			<g>
				<path fill="#FEFB39" d="M-323.942,67.786c-0.167,0.009-0.308-0.116-0.316-0.284l-0.182-3.467
					c-0.008-0.167,0.12-0.311,0.288-0.319l8.09-0.48c0.168-0.009,0.31,0.118,0.317,0.285l0.15,3.47
					c0.009,0.167-0.123,0.309-0.287,0.319L-323.942,67.786z"/>
				<path fill="#FEFB39" d="M-314.903,55.619c-0.009-0.167,0.124-0.309,0.291-0.317l3.862-0.198
					c0.167-0.008,0.305,0.121,0.313,0.288l0.487,11.365c0.009,0.167-0.124,0.309-0.287,0.32l-3.863,0.226
					c-0.167,0.008-0.308-0.118-0.313-0.282L-314.903,55.619z"/>
				<path fill="#FEFB39" d="M-329.761,62.938c-0.167,0.008-0.308-0.117-0.316-0.284l-0.176-3.468
					c-0.008-0.167,0.121-0.312,0.288-0.319l8.093-0.479c0.167-0.008,0.308,0.117,0.313,0.281l0.149,3.468
					c0.008,0.167-0.124,0.31-0.288,0.319L-329.761,62.938z"/>
				<path fill="#FEFB39" d="M-320.929,50.608c-0.008-0.166,0.124-0.309,0.292-0.316l3.861-0.199
					c0.167-0.008,0.306,0.121,0.313,0.289l0.481,11.364c0.008,0.168-0.124,0.31-0.287,0.32l-3.863,0.226
					c-0.167,0.009-0.308-0.117-0.316-0.284L-320.929,50.608z"/>
			</g>
			<g>
				<path fill="#FEFB39" d="M-337.655,55.686c-0.167-0.005-0.298-0.143-0.292-0.309l0.105-3.47c0.006-0.168,0.145-0.301,0.312-0.296
					l8.102,0.188c0.168,0.006,0.299,0.144,0.293,0.31l-0.136,3.471c-0.005,0.168-0.148,0.299-0.312,0.295L-337.655,55.686z"/>
				<path fill="#FEFB39" d="M-327.645,44.306c0.005-0.167,0.149-0.298,0.316-0.293l3.865,0.122c0.167,0.005,0.294,0.145,0.289,0.312
					l-0.451,11.367c-0.006,0.166-0.15,0.297-0.313,0.295l-3.868-0.095c-0.167-0.005-0.298-0.143-0.289-0.307L-327.645,44.306z"/>
				<path fill="#FEFB39" d="M-343.055,50.374c-0.167-0.005-0.298-0.142-0.292-0.31l0.11-3.47c0.006-0.167,0.146-0.301,0.313-0.295
					l8.105,0.19c0.167,0.007,0.297,0.144,0.289,0.307l-0.138,3.469c-0.006,0.167-0.149,0.297-0.313,0.295L-343.055,50.374z"/>
				<path fill="#FEFB39" d="M-333.236,38.815c0.005-0.167,0.149-0.298,0.316-0.292l3.865,0.12c0.167,0.006,0.294,0.146,0.289,0.313
					l-0.458,11.365c-0.005,0.168-0.149,0.299-0.312,0.296l-3.869-0.094c-0.167-0.006-0.297-0.143-0.292-0.31L-333.236,38.815z"/>
			</g>
			<g>
				<path fill="#FEFB39" d="M-350.487,42.234c-0.167-0.02-0.285-0.167-0.266-0.333l0.39-3.449c0.02-0.166,0.17-0.287,0.336-0.269
					l8.059,0.855c0.167,0.02,0.285,0.168,0.266,0.333l-0.421,3.447c-0.019,0.167-0.172,0.285-0.336,0.269L-350.487,42.234z"/>
				<path fill="#FEFB39" d="M-339.573,31.717c0.019-0.166,0.173-0.284,0.339-0.265l3.843,0.438c0.165,0.02,0.281,0.17,0.261,0.336
					l-1.386,11.291c-0.019,0.166-0.173,0.284-0.336,0.269l-3.847-0.413c-0.166-0.02-0.285-0.167-0.263-0.329L-339.573,31.717z"/>
				<path fill="#FEFB39" d="M-355.43,36.495c-0.167-0.02-0.285-0.166-0.265-0.332l0.396-3.449c0.02-0.167,0.17-0.288,0.336-0.269
					l8.062,0.858c0.166,0.021,0.285,0.166,0.262,0.329l-0.423,3.445c-0.02,0.166-0.173,0.284-0.336,0.268L-355.43,36.495z"/>
				<path fill="#FEFB39" d="M-344.692,25.784c0.019-0.165,0.173-0.284,0.339-0.265l3.842,0.439c0.166,0.019,0.281,0.169,0.261,0.335
					l-1.393,11.29c-0.02,0.167-0.173,0.284-0.335,0.269l-3.848-0.412c-0.166-0.02-0.285-0.167-0.265-0.333L-344.692,25.784z"/>
			</g>
			<g>
				<path fill="#FEFB39" d="M-362.21,27.755c-0.165-0.032-0.271-0.189-0.238-0.353l0.674-3.404c0.033-0.165,0.192-0.272,0.356-0.24
					l7.961,1.518c0.165,0.033,0.271,0.19,0.238,0.354l-0.705,3.4c-0.032,0.165-0.195,0.27-0.356,0.24L-362.21,27.755z"/>
				<path fill="#FEFB39" d="M-350.464,18.18c0.033-0.164,0.195-0.269,0.36-0.236l3.793,0.755c0.163,0.033,0.266,0.191,0.233,0.356
					l-2.314,11.133c-0.034,0.163-0.197,0.269-0.357,0.24l-3.8-0.729c-0.164-0.033-0.27-0.19-0.234-0.351L-350.464,18.18z"/>
				<path fill="#FEFB39" d="M-366.663,21.63c-0.164-0.033-0.271-0.189-0.237-0.353l0.679-3.403c0.034-0.164,0.193-0.272,0.357-0.24
					l7.964,1.521c0.163,0.034,0.269,0.19,0.234,0.35l-0.706,3.396c-0.034,0.164-0.196,0.269-0.357,0.239L-366.663,21.63z"/>
				<path fill="#FEFB39" d="M-355.077,11.846c0.033-0.163,0.196-0.27,0.36-0.235l3.793,0.754c0.164,0.033,0.266,0.192,0.232,0.356
					l-2.32,11.132c-0.033,0.164-0.196,0.27-0.356,0.24l-3.8-0.729c-0.163-0.032-0.271-0.189-0.237-0.354L-355.077,11.846z"/>
			</g>
			<g>
				<path fill="#FEFB39" d="M-372.753,12.327c-0.161-0.046-0.254-0.211-0.208-0.372l0.955-3.337
					c0.047-0.161,0.215-0.256,0.376-0.209l7.807,2.173c0.161,0.047,0.254,0.212,0.208,0.372l-0.985,3.331
					c-0.046,0.161-0.217,0.253-0.375,0.209L-372.753,12.327z"/>
				<path fill="#FEFB39" d="M-360.253,3.756c0.046-0.161,0.217-0.252,0.378-0.206l3.717,1.067c0.16,0.047,0.25,0.213,0.203,0.374
					l-3.23,10.907c-0.046,0.16-0.218,0.251-0.376,0.209l-3.727-1.042c-0.161-0.047-0.253-0.212-0.205-0.368L-360.253,3.756z"/>
				<path fill="#FEFB39" d="M-376.682,5.852c-0.16-0.047-0.253-0.211-0.207-0.372l0.96-3.335c0.046-0.161,0.215-0.256,0.376-0.209
					l7.81,2.176c0.16,0.048,0.253,0.212,0.205,0.369l-0.986,3.327c-0.047,0.161-0.218,0.252-0.376,0.209L-376.682,5.852z"/>
				<path fill="#FEFB39" d="M-364.324-2.939c0.046-0.16,0.217-0.252,0.378-0.205l3.717,1.066c0.16,0.046,0.25,0.214,0.202,0.375
					L-363.263,9.2c-0.046,0.161-0.218,0.252-0.375,0.21l-3.727-1.042c-0.16-0.046-0.254-0.211-0.207-0.372L-364.324-2.939z"/>
			</g>
			<g>
				<path fill="#FEFB39" d="M-382.044-3.986c-0.156-0.06-0.234-0.232-0.175-0.388l1.23-3.247c0.061-0.156,0.236-0.236,0.392-0.176
					l7.598,2.818c0.157,0.06,0.236,0.233,0.176,0.388l-1.26,3.236c-0.059,0.157-0.237,0.233-0.391,0.178L-382.044-3.986z"/>
				<path fill="#FEFB39" d="M-368.87-11.482c0.06-0.156,0.238-0.233,0.394-0.174l3.614,1.375c0.156,0.06,0.231,0.233,0.171,0.39
					l-4.131,10.599c-0.06,0.155-0.239,0.232-0.392,0.177l-3.626-1.35c-0.156-0.061-0.235-0.232-0.173-0.384L-368.87-11.482z"/>
				<path fill="#FEFB39" d="M-385.417-10.768c-0.156-0.06-0.235-0.232-0.175-0.388l1.235-3.245c0.061-0.156,0.236-0.237,0.392-0.177
					l7.601,2.822c0.155,0.061,0.234,0.232,0.173,0.384l-1.261,3.233c-0.06,0.157-0.238,0.233-0.392,0.177L-385.417-10.768z"/>
				<path fill="#FEFB39" d="M-372.367-18.496c0.06-0.156,0.238-0.233,0.394-0.172l3.615,1.374c0.156,0.06,0.23,0.234,0.17,0.39
					l-4.137,10.596c-0.06,0.157-0.238,0.233-0.392,0.178l-3.626-1.35c-0.156-0.06-0.235-0.231-0.175-0.388L-372.367-18.496z"/>
			</g>
			<g>
				<path fill="#FEFB39" d="M-390.008-21.111c-0.151-0.072-0.215-0.25-0.143-0.401l1.5-3.131c0.073-0.15,0.254-0.216,0.406-0.144
					l7.333,3.45c0.151,0.073,0.215,0.252,0.142,0.402l-1.528,3.119c-0.072,0.151-0.256,0.213-0.405,0.143L-390.008-21.111z"/>
				<path fill="#FEFB39" d="M-376.249-27.469c0.072-0.151,0.256-0.211,0.407-0.139l3.486,1.674c0.15,0.072,0.21,0.251,0.137,0.403
					l-5.01,10.213c-0.073,0.15-0.257,0.211-0.406,0.143l-3.5-1.651c-0.15-0.073-0.214-0.251-0.14-0.397L-376.249-27.469z"/>
				<path fill="#FEFB39" d="M-392.797-28.152c-0.151-0.073-0.215-0.25-0.142-0.401l1.505-3.129c0.073-0.15,0.255-0.216,0.405-0.143
					l7.336,3.453c0.149,0.074,0.214,0.251,0.14,0.398l-1.53,3.116c-0.073,0.151-0.256,0.212-0.405,0.143L-392.797-28.152z"/>
				<path fill="#FEFB39" d="M-379.142-34.751c0.072-0.15,0.256-0.212,0.407-0.139l3.486,1.673c0.15,0.073,0.21,0.253,0.137,0.403
					l-5.016,10.209c-0.073,0.151-0.257,0.212-0.405,0.144l-3.5-1.65c-0.15-0.073-0.214-0.251-0.141-0.402L-379.142-34.751z"/>
			</g>
			<g>
				<path fill="#FEFB39" d="M-396.574-38.97c-0.145-0.085-0.193-0.268-0.108-0.412l1.761-2.992c0.085-0.143,0.272-0.193,0.417-0.108
					l7.012,4.062c0.145,0.085,0.193,0.269,0.108,0.412l-1.789,2.978c-0.085,0.144-0.273,0.19-0.416,0.108L-396.574-38.97z"/>
				<path fill="#FEFB39" d="M-382.324-44.132c0.085-0.144,0.273-0.189,0.417-0.104l3.331,1.965c0.143,0.085,0.188,0.269,0.102,0.413
					l-5.863,9.749c-0.085,0.143-0.274,0.188-0.417,0.108l-3.346-1.943c-0.144-0.085-0.192-0.27-0.106-0.408L-382.324-44.132z"/>
				<path fill="#FEFB39" d="M-398.753-46.224c-0.144-0.085-0.192-0.268-0.106-0.412l1.766-2.989
					c0.085-0.144,0.273-0.193,0.417-0.108l7.015,4.066c0.143,0.086,0.191,0.268,0.105,0.408l-1.79,2.974
					c-0.085,0.144-0.273,0.189-0.416,0.108L-398.753-46.224z"/>
				<path fill="#FEFB39" d="M-384.585-51.636c0.085-0.143,0.273-0.189,0.418-0.104l3.33,1.965c0.144,0.085,0.188,0.27,0.102,0.413
					l-5.869,9.745c-0.085,0.145-0.273,0.189-0.416,0.109l-3.347-1.943c-0.143-0.085-0.192-0.269-0.106-0.412L-384.585-51.636z"/>
			</g>
			<g>
				<path fill="#FEFB39" d="M-401.667-57.489c-0.136-0.097-0.169-0.284-0.072-0.419l2.012-2.83c0.098-0.136,0.288-0.169,0.424-0.071
					l6.638,4.65c0.137,0.098,0.169,0.285,0.072,0.42l-2.038,2.812c-0.097,0.137-0.289,0.166-0.423,0.072L-401.667-57.489z"/>
				<path fill="#FEFB39" d="M-387.025-61.407c0.097-0.136,0.289-0.165,0.425-0.068l3.148,2.245c0.136,0.097,0.165,0.284,0.067,0.42
					l-6.68,9.208c-0.097,0.135-0.29,0.164-0.424,0.072l-3.167-2.224c-0.136-0.098-0.168-0.285-0.07-0.416L-387.025-61.407z"/>
				<path fill="#FEFB39" d="M-403.214-64.904c-0.136-0.098-0.169-0.284-0.071-0.419l2.017-2.827
					c0.098-0.136,0.289-0.169,0.424-0.071l6.639,4.654c0.135,0.098,0.168,0.284,0.07,0.416l-2.039,2.81
					c-0.098,0.136-0.289,0.165-0.424,0.072L-403.214-64.904z"/>
				<path fill="#FEFB39" d="M-388.632-69.076c0.097-0.136,0.289-0.166,0.425-0.067l3.149,2.244c0.135,0.098,0.164,0.285,0.066,0.421
					l-6.685,9.203c-0.098,0.137-0.29,0.165-0.424,0.073l-3.167-2.224c-0.136-0.097-0.168-0.284-0.071-0.419L-388.632-69.076z"/>
			</g>
			<g>
				<path fill="#FEFB39" d="M-405.212-76.503c-0.127-0.108-0.144-0.297-0.035-0.424l2.25-2.644c0.109-0.127,0.301-0.144,0.429-0.035
					l6.208,5.208c0.128,0.109,0.144,0.298,0.035,0.425l-2.274,2.625c-0.108,0.127-0.302,0.14-0.428,0.035L-405.212-76.503z"/>
				<path fill="#FEFB39" d="M-390.286-79.135c0.108-0.127,0.302-0.139,0.429-0.031l2.942,2.509c0.127,0.108,0.139,0.297,0.03,0.425
					l-7.453,8.594c-0.108,0.126-0.303,0.138-0.429,0.035l-2.962-2.49c-0.126-0.109-0.143-0.298-0.034-0.42L-390.286-79.135z"/>
				<path fill="#FEFB39" d="M-406.11-84.023c-0.126-0.109-0.144-0.297-0.034-0.424l2.254-2.641c0.109-0.126,0.302-0.143,0.429-0.035
					l6.21,5.212c0.126,0.11,0.143,0.298,0.034,0.42l-2.274,2.622c-0.109,0.127-0.303,0.14-0.429,0.035L-406.11-84.023z"/>
				<path fill="#FEFB39" d="M-391.222-86.915c0.108-0.127,0.302-0.14,0.43-0.03l2.942,2.509c0.126,0.108,0.139,0.298,0.029,0.424
					l-7.458,8.589c-0.109,0.127-0.303,0.14-0.429,0.036l-2.961-2.49c-0.127-0.108-0.144-0.297-0.034-0.424L-391.222-86.915z"/>
			</g>
			<g>
				<path fill="#FEFB39" d="M-407.137-95.556c-0.118-0.119-0.117-0.309,0.002-0.425l2.472-2.438c0.12-0.117,0.312-0.117,0.43,0.002
					l5.73,5.731c0.118,0.12,0.117,0.31-0.001,0.426L-401-89.843c-0.119,0.118-0.312,0.113-0.429-0.003L-407.137-95.556z"/>
				<path fill="#FEFB39" d="M-392.038-96.875c0.119-0.118,0.313-0.112,0.431,0.007l2.712,2.757c0.116,0.119,0.112,0.308-0.008,0.425
					l-8.175,7.91c-0.119,0.117-0.313,0.112-0.43-0.002l-2.733-2.74c-0.117-0.12-0.116-0.31,0.003-0.421L-392.038-96.875z"/>
				<path fill="#FEFB39" d="M-407.375-103.126c-0.117-0.12-0.117-0.309,0.002-0.425l2.476-2.434c0.12-0.117,0.313-0.117,0.43,0.002
					l5.731,5.735c0.116,0.12,0.116,0.31-0.003,0.421l-2.494,2.414c-0.12,0.117-0.314,0.112-0.43-0.003L-407.375-103.126z"/>
				<path fill="#FEFB39" d="M-392.291-104.707c0.119-0.117,0.313-0.113,0.431,0.007l2.712,2.756
					c0.117,0.119,0.112,0.309-0.007,0.426l-8.18,7.905c-0.119,0.118-0.313,0.112-0.43-0.002l-2.733-2.739
					c-0.117-0.12-0.117-0.309,0.003-0.426L-392.291-104.707z"/>
			</g>
			<g>
				<path fill="#FEFB39" d="M-407.375-114.938c-0.106-0.129-0.089-0.318,0.04-0.423l2.676-2.212
					c0.129-0.105,0.321-0.088,0.428,0.041l5.207,6.21c0.107,0.13,0.089,0.319-0.039,0.424l-2.697,2.189
					c-0.128,0.106-0.321,0.085-0.428-0.041L-407.375-114.938z"/>
				<path fill="#FEFB39" d="M-392.217-114.93c0.129-0.106,0.321-0.084,0.428,0.044l2.46,2.984c0.106,0.128,0.085,0.316-0.045,0.423
					l-8.836,7.165c-0.129,0.105-0.322,0.083-0.428-0.041l-2.483-2.967c-0.106-0.129-0.088-0.319,0.04-0.419L-392.217-114.93z"/>
				<path fill="#FEFB39" d="M-406.949-122.5c-0.106-0.129-0.09-0.317,0.04-0.423l2.679-2.208c0.129-0.106,0.323-0.089,0.428,0.04
					l5.207,6.215c0.105,0.129,0.089,0.317-0.039,0.419l-2.696,2.186c-0.129,0.105-0.322,0.084-0.428-0.041L-406.949-122.5z"/>
				<path fill="#FEFB39" d="M-391.784-122.754c0.128-0.106,0.322-0.084,0.428,0.045l2.461,2.983
					c0.105,0.129,0.084,0.317-0.045,0.423l-8.84,7.159c-0.13,0.107-0.322,0.084-0.428-0.039l-2.483-2.968
					c-0.106-0.129-0.089-0.317,0.04-0.423L-391.784-122.754z"/>
			</g>
			<g>
				<path fill="#FEFB39" d="M-405.926-133.991c-0.095-0.138-0.062-0.325,0.076-0.419l2.858-1.97c0.138-0.094,0.328-0.06,0.423,0.078
					l4.645,6.641c0.095,0.139,0.062,0.326-0.077,0.419l-2.877,1.945c-0.138,0.095-0.328,0.057-0.422-0.078L-405.926-133.991z"/>
				<path fill="#FEFB39" d="M-390.827-132.661c0.137-0.095,0.327-0.056,0.422,0.082l2.191,3.187
					c0.095,0.137,0.057,0.323-0.082,0.417l-9.428,6.366c-0.137,0.094-0.328,0.055-0.423-0.078l-2.214-3.173
					c-0.094-0.138-0.061-0.325,0.077-0.415L-390.827-132.661z"/>
				<path fill="#FEFB39" d="M-404.842-141.487c-0.094-0.138-0.062-0.324,0.077-0.418l2.862-1.965
					c0.139-0.095,0.329-0.061,0.423,0.078l4.645,6.645c0.093,0.139,0.061,0.324-0.076,0.415l-2.876,1.942
					c-0.139,0.094-0.329,0.056-0.423-0.078L-404.842-141.487z"/>
				<path fill="#FEFB39" d="M-389.713-140.417c0.137-0.094,0.328-0.056,0.422,0.083l2.191,3.186
					c0.094,0.137,0.057,0.324-0.082,0.417l-9.431,6.36c-0.138,0.095-0.328,0.056-0.423-0.077l-2.214-3.173
					c-0.094-0.137-0.062-0.324,0.077-0.418L-389.713-140.417z"/>
			</g>
			<g>
				<path fill="#FEFB39" d="M-402.848-152.544c-0.083-0.146-0.034-0.329,0.112-0.411l3.019-1.715
					c0.146-0.082,0.332-0.031,0.414,0.114l4.052,7.019c0.083,0.146,0.033,0.33-0.112,0.411l-3.036,1.688
					c-0.146,0.083-0.332,0.029-0.415-0.113L-402.848-152.544z"/>
				<path fill="#FEFB39" d="M-387.922-149.909c0.146-0.083,0.332-0.028,0.415,0.118l1.906,3.365
					c0.082,0.145,0.029,0.326-0.118,0.409l-9.945,5.524c-0.145,0.082-0.332,0.026-0.415-0.114l-1.93-3.354
					c-0.082-0.146-0.032-0.33,0.112-0.407L-387.922-149.909z"/>
				<path fill="#FEFB39" d="M-401.117-159.918c-0.083-0.146-0.034-0.329,0.113-0.41l3.021-1.71c0.146-0.082,0.333-0.031,0.415,0.114
					l4.051,7.023c0.081,0.146,0.032,0.328-0.112,0.407l-3.034,1.685c-0.146,0.082-0.332,0.028-0.415-0.114L-401.117-159.918z"/>
				<path fill="#FEFB39" d="M-386.139-157.54c0.146-0.082,0.332-0.028,0.414,0.119l1.906,3.364c0.082,0.146,0.028,0.327-0.118,0.409
					l-9.947,5.518c-0.146,0.083-0.332,0.028-0.415-0.113l-1.931-3.354c-0.082-0.145-0.033-0.328,0.113-0.41L-386.139-157.54z"/>
			</g>
			<g>
				<path fill="#FEFB39" d="M-398.209-170.524c-0.07-0.152-0.005-0.33,0.147-0.399l3.155-1.448c0.152-0.069,0.333-0.003,0.404,0.148
					l3.432,7.342c0.07,0.153,0.005,0.331-0.147,0.4l-3.169,1.42c-0.152,0.07-0.333,0-0.403-0.149L-398.209-170.524z"/>
				<path fill="#FEFB39" d="M-383.565-166.615c0.152-0.07,0.332,0.001,0.402,0.153l1.609,3.517c0.069,0.151,0,0.328-0.152,0.397
					l-10.383,4.648c-0.151,0.069-0.333-0.002-0.403-0.149l-1.635-3.507c-0.069-0.152-0.003-0.331,0.146-0.396L-383.565-166.615z"/>
				<path fill="#FEFB39" d="M-395.851-177.722c-0.069-0.153-0.005-0.33,0.147-0.399l3.158-1.444
					c0.152-0.069,0.334-0.002,0.403,0.149l3.432,7.346c0.068,0.152,0.004,0.33-0.146,0.396l-3.168,1.417
					c-0.152,0.069-0.333-0.001-0.403-0.149L-395.851-177.722z"/>
				<path fill="#FEFB39" d="M-381.132-174.063c0.151-0.069,0.333,0.001,0.401,0.153l1.61,3.516c0.069,0.151,0,0.329-0.153,0.397
					l-10.385,4.641c-0.152,0.07-0.333-0.001-0.403-0.148l-1.635-3.507c-0.068-0.152-0.004-0.33,0.148-0.399L-381.132-174.063z"/>
			</g>
			<g>
				<path fill="#FEFB39" d="M-392.083-187.858c-0.057-0.158,0.023-0.329,0.181-0.385l3.267-1.174
					c0.158-0.056,0.333,0.025,0.389,0.183l2.794,7.608c0.056,0.158-0.024,0.33-0.182,0.386l-3.278,1.146
					c-0.158,0.057-0.332-0.029-0.389-0.183L-392.083-187.858z"/>
				<path fill="#FEFB39" d="M-377.825-182.715c0.158-0.057,0.331,0.029,0.388,0.187l1.304,3.641
					c0.056,0.157-0.027,0.326-0.186,0.383l-10.741,3.746c-0.157,0.056-0.332-0.03-0.39-0.183l-1.33-3.634
					c-0.056-0.158,0.024-0.33,0.18-0.381L-377.825-182.715z"/>
				<path fill="#FEFB39" d="M-389.12-194.829c-0.056-0.158,0.023-0.33,0.181-0.385l3.269-1.169c0.158-0.056,0.333,0.026,0.39,0.183
					l2.793,7.612c0.055,0.157-0.024,0.328-0.18,0.381l-3.277,1.143c-0.158,0.056-0.332-0.03-0.39-0.183L-389.12-194.829z"/>
				<path fill="#FEFB39" d="M-374.766-189.93c0.157-0.056,0.332,0.03,0.387,0.188l1.305,3.64c0.056,0.157-0.028,0.327-0.186,0.383
					l-10.742,3.74c-0.159,0.056-0.332-0.03-0.39-0.182l-1.33-3.634c-0.056-0.157,0.023-0.33,0.181-0.385L-374.766-189.93z"/>
			</g>
			<g>
				<path fill="#FEFB39" d="M-384.537-204.474c-0.043-0.162,0.051-0.326,0.212-0.369l3.354-0.895
					c0.162-0.042,0.329,0.054,0.373,0.215l2.142,7.816c0.043,0.163-0.051,0.327-0.212,0.37l-3.364,0.864
					c-0.162,0.043-0.328-0.056-0.372-0.215L-384.537-204.474z"/>
				<path fill="#FEFB39" d="M-370.764-198.146c0.162-0.043,0.328,0.057,0.371,0.219l0.991,3.738
					c0.042,0.161-0.055,0.324-0.217,0.366l-11.019,2.827c-0.161,0.042-0.328-0.059-0.373-0.215l-1.019-3.733
					c-0.042-0.162,0.052-0.326,0.211-0.364L-370.764-198.146z"/>
				<path fill="#FEFB39" d="M-380.996-211.169c-0.042-0.162,0.051-0.326,0.213-0.368l3.356-0.889
					c0.162-0.042,0.33,0.054,0.373,0.215l2.141,7.819c0.042,0.162-0.052,0.326-0.211,0.365l-3.362,0.862
					c-0.162,0.042-0.329-0.058-0.373-0.215L-380.996-211.169z"/>
				<path fill="#FEFB39" d="M-367.107-205.076c0.161-0.042,0.328,0.058,0.37,0.22l0.992,3.737c0.042,0.161-0.055,0.324-0.217,0.366
					l-11.02,2.82c-0.163,0.042-0.329-0.058-0.373-0.214l-1.019-3.733c-0.042-0.161,0.051-0.326,0.213-0.368L-367.107-205.076z"/>
			</g>
			<g>
				<path fill="#FEFB39" d="M-375.645-220.298c-0.029-0.165,0.079-0.321,0.243-0.35l3.417-0.611
					c0.165-0.028,0.324,0.081,0.353,0.246l1.481,7.968c0.029,0.166-0.079,0.321-0.243,0.35l-3.424,0.58
					c-0.165,0.03-0.323-0.083-0.353-0.245L-375.645-220.298z"/>
				<path fill="#FEFB39" d="M-362.449-212.841c0.165-0.03,0.321,0.084,0.351,0.249l0.676,3.808c0.029,0.165-0.082,0.317-0.247,0.347
					l-11.217,1.896c-0.164,0.029-0.322-0.085-0.353-0.246l-0.703-3.805c-0.028-0.165,0.08-0.321,0.241-0.346L-362.449-212.841z"/>
				<path fill="#FEFB39" d="M-371.556-226.675c-0.028-0.165,0.078-0.321,0.243-0.349l3.418-0.605
					c0.165-0.028,0.324,0.082,0.353,0.246l1.48,7.972c0.027,0.165-0.079,0.32-0.241,0.346l-3.422,0.578
					c-0.165,0.028-0.322-0.085-0.354-0.246L-371.556-226.675z"/>
				<path fill="#FEFB39" d="M-358.226-219.442c0.165-0.029,0.322,0.085,0.351,0.25l0.677,3.807c0.029,0.164-0.082,0.318-0.247,0.346
					l-11.218,1.889c-0.165,0.029-0.322-0.085-0.353-0.245l-0.703-3.805c-0.029-0.164,0.078-0.321,0.243-0.349L-358.226-219.442z"/>
			</g>
			<g>
				<path fill="#FEFB39" d="M-365.476-235.264c-0.016-0.167,0.104-0.313,0.27-0.329l3.457-0.325
					c0.167-0.014,0.316,0.108,0.331,0.274l0.815,8.063c0.016,0.167-0.105,0.314-0.271,0.329l-3.46,0.294
					c-0.167,0.016-0.314-0.11-0.331-0.273L-365.476-235.264z"/>
				<path fill="#FEFB39" d="M-352.946-226.737c0.167-0.016,0.313,0.111,0.33,0.277l0.357,3.851c0.015,0.166-0.108,0.309-0.275,0.325
					l-11.335,0.958c-0.166,0.015-0.314-0.112-0.332-0.274l-0.384-3.85c-0.015-0.167,0.105-0.313,0.269-0.325L-352.946-226.737z"/>
				<path fill="#FEFB39" d="M-360.874-241.279c-0.014-0.167,0.104-0.313,0.271-0.328l3.457-0.319
					c0.167-0.015,0.316,0.107,0.332,0.273l0.813,8.067c0.014,0.167-0.105,0.313-0.269,0.324l-3.458,0.292
					c-0.167,0.015-0.314-0.111-0.332-0.274L-360.874-241.279z"/>
				<path fill="#FEFB39" d="M-348.189-232.965c0.166-0.015,0.314,0.111,0.329,0.278l0.358,3.85c0.015,0.166-0.108,0.31-0.275,0.325
					l-11.335,0.951c-0.167,0.015-0.314-0.111-0.332-0.273l-0.385-3.85c-0.015-0.166,0.104-0.313,0.271-0.328L-348.189-232.965z"/>
			</g>
			<g>
				<path fill="#FEFB39" d="M-354.104-249.298c-0.002-0.167,0.13-0.303,0.297-0.305l3.471-0.039c0.167,0,0.306,0.133,0.308,0.301
					l0.146,8.103c0.001,0.168-0.131,0.304-0.297,0.305l-3.473,0.007c-0.167,0.002-0.304-0.136-0.307-0.3L-354.104-249.298z"/>
				<path fill="#FEFB39" d="M-342.32-239.765c0.167-0.002,0.303,0.136,0.305,0.304l0.038,3.867c0.001,0.166-0.133,0.299-0.301,0.301
					l-11.376,0.019c-0.167,0.001-0.303-0.138-0.308-0.301l-0.065-3.869c0-0.167,0.131-0.304,0.295-0.301L-342.32-239.765z"/>
				<path fill="#FEFB39" d="M-349.02-254.912c0-0.167,0.13-0.303,0.297-0.304l3.472-0.033c0.167,0,0.306,0.134,0.308,0.301
					l0.143,8.106c0,0.167-0.13,0.303-0.294,0.301l-3.47,0.006c-0.167,0.001-0.304-0.137-0.308-0.3L-349.02-254.912z"/>
				<path fill="#FEFB39" d="M-337.065-245.579c0.167-0.001,0.304,0.137,0.305,0.304l0.039,3.867c0.001,0.167-0.134,0.3-0.301,0.301
					l-11.375,0.012c-0.168,0.001-0.304-0.137-0.308-0.3l-0.065-3.869c-0.001-0.167,0.13-0.304,0.297-0.304L-337.065-245.579z"/>
			</g>
			<g>
				<path fill="#FEFB39" d="M-341.242-262.665c0.012-0.167,0.155-0.292,0.321-0.279l3.463,0.248
					c0.167,0.013,0.293,0.158,0.282,0.325l-0.522,8.087c-0.012,0.167-0.155,0.292-0.321,0.28l-3.462-0.279
					c-0.167-0.012-0.292-0.161-0.282-0.324L-341.242-262.665z"/>
				<path fill="#FEFB39" d="M-330.285-252.194c0.167,0.012,0.292,0.161,0.279,0.328l-0.28,3.857
					c-0.012,0.166-0.158,0.288-0.325,0.275l-11.338-0.919c-0.167-0.012-0.291-0.162-0.282-0.325l0.254-3.861
					c0.013-0.167,0.155-0.292,0.318-0.276L-330.285-252.194z"/>
				<path fill="#FEFB39" d="M-335.713-267.841c0.013-0.167,0.155-0.292,0.321-0.279l3.463,0.253
					c0.167,0.013,0.294,0.159,0.282,0.325l-0.524,8.091c-0.014,0.166-0.155,0.291-0.319,0.275l-3.459-0.281
					c-0.167-0.013-0.291-0.161-0.282-0.324L-335.713-267.841z"/>
				<path fill="#FEFB39" d="M-324.568-257.554c0.167,0.013,0.292,0.162,0.279,0.329l-0.28,3.856
					c-0.013,0.166-0.158,0.288-0.325,0.275l-11.337-0.926c-0.167-0.013-0.292-0.162-0.283-0.324l0.253-3.862
					c0.013-0.166,0.155-0.291,0.322-0.278L-324.568-257.554z"/>
			</g>
			<g>
				<path fill="#FEFB39" d="M-327.268-274.951c0.025-0.166,0.178-0.278,0.342-0.252l3.431,0.532c0.166,0.027,0.28,0.182,0.254,0.347
					l-1.188,8.017c-0.026,0.166-0.179,0.279-0.343,0.252l-3.427-0.563c-0.166-0.026-0.277-0.184-0.253-0.347L-327.268-274.951z"/>
				<path fill="#FEFB39" d="M-317.211-263.612c0.166,0.025,0.277,0.184,0.251,0.35l-0.598,3.821
					c-0.026,0.165-0.181,0.273-0.347,0.248l-11.224-1.851c-0.165-0.026-0.276-0.186-0.254-0.347l0.571-3.827
					c0.027-0.165,0.179-0.278,0.34-0.249L-317.211-263.612z"/>
				<path fill="#FEFB39" d="M-321.331-279.653c0.027-0.166,0.178-0.278,0.343-0.251l3.43,0.538c0.165,0.027,0.28,0.183,0.254,0.347
					l-1.19,8.02c-0.027,0.165-0.179,0.277-0.34,0.249l-3.424-0.565c-0.166-0.027-0.277-0.185-0.254-0.347L-321.331-279.653z"/>
				<path fill="#FEFB39" d="M-311.072-268.482c0.165,0.026,0.277,0.185,0.25,0.35l-0.597,3.82c-0.026,0.165-0.181,0.274-0.347,0.247
					l-11.222-1.857c-0.166-0.026-0.277-0.185-0.255-0.347l0.571-3.827c0.026-0.165,0.178-0.278,0.343-0.251L-311.072-268.482z"/>
			</g>
			<g>
				<path fill="#FEFB39" d="M-312.304-286.094c0.04-0.163,0.201-0.262,0.363-0.222l3.375,0.814c0.163,0.04,0.264,0.204,0.225,0.367
					l-1.847,7.891c-0.04,0.163-0.202,0.263-0.363,0.223l-3.369-0.846c-0.163-0.039-0.261-0.206-0.224-0.366L-312.304-286.094z"/>
				<path fill="#FEFB39" d="M-303.219-273.96c0.163,0.039,0.26,0.207,0.221,0.369l-0.912,3.758c-0.04,0.162-0.203,0.258-0.366,0.218
					l-11.033-2.773c-0.162-0.04-0.26-0.208-0.225-0.367l0.886-3.767c0.041-0.162,0.202-0.262,0.359-0.22L-303.219-273.96z"/>
				<path fill="#FEFB39" d="M-305.997-290.288c0.041-0.163,0.2-0.262,0.363-0.222l3.374,0.82c0.163,0.04,0.265,0.205,0.225,0.367
					l-1.85,7.894c-0.041,0.162-0.201,0.262-0.359,0.22l-3.366-0.847c-0.163-0.04-0.261-0.207-0.225-0.367L-305.997-290.288z"/>
				<path fill="#FEFB39" d="M-296.699-278.306c0.162,0.04,0.261,0.207,0.221,0.37l-0.911,3.757c-0.04,0.162-0.203,0.258-0.366,0.218
					l-11.03-2.78c-0.163-0.04-0.261-0.208-0.225-0.367l0.886-3.767c0.04-0.162,0.201-0.262,0.363-0.222L-296.699-278.306z"/>
			</g>
			<g>
				<path fill="#FEFB39" d="M-296.42-296.02c0.052-0.159,0.222-0.245,0.379-0.191l3.295,1.092c0.159,0.054,0.246,0.226,0.193,0.384
					l-2.498,7.71c-0.053,0.159-0.223,0.245-0.38,0.192l-3.287-1.124c-0.159-0.052-0.243-0.227-0.192-0.383L-296.42-296.02z"/>
				<path fill="#FEFB39" d="M-288.379-283.172c0.159,0.052,0.243,0.228,0.19,0.386l-1.222,3.669
					c-0.053,0.158-0.223,0.24-0.382,0.187l-10.764-3.683c-0.158-0.053-0.242-0.229-0.193-0.384l1.197-3.68
					c0.054-0.159,0.223-0.244,0.376-0.189L-288.379-283.172z"/>
				<path fill="#FEFB39" d="M-289.787-299.674c0.054-0.159,0.221-0.245,0.38-0.191l3.294,1.098c0.158,0.054,0.246,0.226,0.193,0.384
					l-2.501,7.713c-0.054,0.157-0.222,0.244-0.376,0.188l-3.284-1.124c-0.159-0.054-0.243-0.228-0.193-0.384L-289.787-299.674z"/>
				<path fill="#FEFB39" d="M-281.519-286.96c0.158,0.053,0.243,0.229,0.189,0.387l-1.221,3.669
					c-0.054,0.158-0.224,0.241-0.383,0.187l-10.76-3.689c-0.159-0.053-0.243-0.228-0.194-0.384l1.197-3.68
					c0.053-0.159,0.221-0.245,0.38-0.191L-281.519-286.96z"/>
			</g>
			<g>
				<path fill="#FEFB39" d="M-279.692-304.656c0.065-0.154,0.241-0.225,0.394-0.159l3.192,1.366c0.153,0.067,0.226,0.245,0.16,0.399
					l-3.136,7.473c-0.067,0.154-0.242,0.226-0.396,0.159l-3.181-1.395c-0.154-0.066-0.224-0.247-0.16-0.398L-279.692-304.656z"/>
				<path fill="#FEFB39" d="M-272.758-291.179c0.154,0.066,0.223,0.247,0.157,0.401l-1.525,3.554
					c-0.066,0.153-0.243,0.221-0.397,0.154l-10.416-4.574c-0.153-0.066-0.222-0.248-0.161-0.399l1.501-3.566
					c0.066-0.154,0.243-0.225,0.392-0.157L-272.758-291.179z"/>
				<path fill="#FEFB39" d="M-272.775-307.741c0.067-0.153,0.241-0.225,0.395-0.158l3.19,1.371c0.153,0.066,0.227,0.246,0.161,0.399
					l-3.14,7.475c-0.067,0.153-0.242,0.225-0.392,0.157l-3.177-1.396c-0.153-0.067-0.223-0.248-0.16-0.399L-272.775-307.741z"/>
				<path fill="#FEFB39" d="M-265.604-294.377c0.153,0.066,0.223,0.248,0.155,0.401l-1.524,3.554
					c-0.066,0.153-0.243,0.221-0.396,0.154l-10.413-4.58c-0.154-0.066-0.223-0.248-0.161-0.398l1.501-3.566
					c0.066-0.153,0.242-0.225,0.395-0.158L-265.604-294.377z"/>
			</g>
			<g>
				<path fill="#FEFB39" d="M-262.191-311.931c0.078-0.147,0.259-0.204,0.406-0.125l3.064,1.631c0.148,0.08,0.205,0.263,0.126,0.411
					l-3.759,7.18c-0.08,0.148-0.261,0.205-0.408,0.125l-3.051-1.66c-0.148-0.079-0.202-0.265-0.125-0.411L-262.191-311.931z"/>
				<path fill="#FEFB39" d="M-256.424-297.914c0.147,0.079,0.201,0.265,0.122,0.412l-1.821,3.412
					c-0.079,0.147-0.26,0.199-0.409,0.12l-9.99-5.44c-0.147-0.079-0.2-0.266-0.126-0.411l1.798-3.426
					c0.08-0.147,0.261-0.204,0.403-0.123L-256.424-297.914z"/>
				<path fill="#FEFB39" d="M-255.038-314.418c0.08-0.147,0.26-0.204,0.407-0.124l3.062,1.636c0.147,0.08,0.205,0.264,0.126,0.411
					l-3.762,7.182c-0.08,0.146-0.26,0.203-0.403,0.123l-3.048-1.66c-0.147-0.08-0.201-0.266-0.126-0.411L-255.038-314.418z"/>
				<path fill="#FEFB39" d="M-249.025-300.494c0.147,0.079,0.201,0.266,0.121,0.413l-1.82,3.412
					c-0.079,0.146-0.261,0.199-0.409,0.12l-9.986-5.446c-0.148-0.079-0.201-0.266-0.127-0.411l1.798-3.426
					c0.079-0.146,0.26-0.204,0.407-0.124L-249.025-300.494z"/>
			</g>
			<g>
				<path fill="#FEFB39" d="M-243.992-317.769c0.091-0.141,0.276-0.181,0.416-0.09l2.914,1.887c0.14,0.092,0.181,0.28,0.09,0.421
					l-4.36,6.832c-0.092,0.141-0.277,0.181-0.417,0.09l-2.898-1.916c-0.141-0.09-0.178-0.281-0.09-0.419L-243.992-317.769z"/>
				<path fill="#FEFB39" d="M-239.447-303.31c0.14,0.091,0.177,0.281,0.086,0.422l-2.107,3.243
					c-0.091,0.139-0.276,0.176-0.417,0.084l-9.488-6.276c-0.14-0.091-0.177-0.282-0.09-0.421l2.085-3.259
					c0.092-0.14,0.277-0.18,0.412-0.088L-239.447-303.31z"/>
				<path fill="#FEFB39" d="M-236.652-319.634c0.092-0.14,0.276-0.181,0.416-0.089l2.911,1.893c0.14,0.092,0.182,0.281,0.09,0.42
					l-4.363,6.833c-0.092,0.139-0.276,0.18-0.412,0.088l-2.895-1.916c-0.14-0.091-0.177-0.281-0.09-0.42L-236.652-319.634z"/>
				<path fill="#FEFB39" d="M-231.854-305.247c0.139,0.091,0.177,0.282,0.085,0.422l-2.106,3.243
					c-0.091,0.14-0.277,0.176-0.417,0.084l-9.483-6.281c-0.141-0.092-0.178-0.282-0.091-0.42l2.085-3.26
					c0.091-0.139,0.276-0.18,0.416-0.088L-231.854-305.247z"/>
			</g>
			<g>
				<path fill="#FEFB39" d="M-225.172-322.097c0.103-0.132,0.291-0.156,0.422-0.054l2.739,2.132
					c0.131,0.104,0.156,0.295,0.054,0.427l-4.934,6.429c-0.104,0.132-0.292,0.156-0.423,0.054l-2.721-2.159
					c-0.132-0.103-0.153-0.295-0.054-0.426L-225.172-322.097z"/>
				<path fill="#FEFB39" d="M-221.894-307.299c0.132,0.103,0.152,0.295,0.05,0.428l-2.379,3.049
					c-0.103,0.131-0.291,0.151-0.423,0.048l-8.91-7.072c-0.131-0.103-0.151-0.297-0.053-0.427l2.359-3.067
					c0.104-0.131,0.292-0.156,0.418-0.052L-221.894-307.299z"/>
				<path fill="#FEFB39" d="M-217.698-323.321c0.104-0.131,0.291-0.157,0.422-0.053l2.736,2.137
					c0.131,0.104,0.157,0.296,0.054,0.427l-4.938,6.431c-0.104,0.13-0.291,0.155-0.418,0.052l-2.718-2.158
					c-0.131-0.104-0.152-0.296-0.054-0.427L-217.698-323.321z"/>
				<path fill="#FEFB39" d="M-214.161-308.573c0.131,0.103,0.152,0.296,0.049,0.428l-2.378,3.048
					c-0.103,0.131-0.292,0.152-0.423,0.048l-8.905-7.077c-0.132-0.104-0.152-0.296-0.054-0.427l2.359-3.067
					c0.103-0.131,0.291-0.157,0.422-0.053L-214.161-308.573z"/>
			</g>
			<g>
				<path fill="#FEFB39" d="M-206.173-324.841c0.114-0.123,0.303-0.131,0.425-0.017l2.543,2.363c0.122,0.115,0.13,0.307,0.016,0.43
					l-5.475,5.975c-0.115,0.123-0.304,0.131-0.426,0.017l-2.523-2.387c-0.123-0.114-0.127-0.308-0.016-0.429L-206.173-324.841z"/>
				<path fill="#FEFB39" d="M-204.195-309.814c0.123,0.114,0.126,0.308,0.012,0.431l-2.636,2.83
					c-0.114,0.122-0.303,0.125-0.425,0.011l-8.261-7.821c-0.122-0.114-0.125-0.309-0.016-0.43l2.617-2.85
					c0.115-0.122,0.305-0.13,0.421-0.016L-204.195-309.814z"/>
				<path fill="#FEFB39" d="M-198.62-325.41c0.115-0.122,0.303-0.131,0.425-0.016l2.54,2.367c0.122,0.115,0.13,0.308,0.016,0.43
					l-5.479,5.977c-0.115,0.121-0.303,0.129-0.421,0.015l-2.52-2.386c-0.122-0.115-0.126-0.309-0.016-0.43L-198.62-325.41z"/>
				<path fill="#FEFB39" d="M-196.381-310.41c0.122,0.114,0.126,0.309,0.011,0.431l-2.635,2.83
					c-0.114,0.122-0.304,0.125-0.426,0.011l-8.255-7.826c-0.123-0.115-0.126-0.309-0.017-0.43l2.617-2.85
					c0.114-0.122,0.303-0.131,0.425-0.016L-196.381-310.41z"/>
			</g>
			<g>
				<g>
					<path fill="#FEFB39" d="M-186.898-325.926c0.124-0.112,0.313-0.104,0.425,0.021l2.327,2.576
						c0.111,0.125,0.103,0.317-0.021,0.43l-5.977,5.474c-0.125,0.112-0.314,0.104-0.426-0.021l-2.305-2.599
						c-0.112-0.124-0.1-0.317,0.021-0.429L-186.898-325.926z"/>
				</g>
				<g>
					<path fill="#FEFB39" d="M-186.242-310.784c0.112,0.124,0.099,0.317-0.025,0.43l-2.873,2.589
						c-0.124,0.111-0.312,0.099-0.425-0.026l-7.545-8.514c-0.111-0.124-0.098-0.318,0.021-0.43l2.856-2.61
						c0.125-0.111,0.314-0.103,0.421,0.021L-186.242-310.784z"/>
				</g>
				<g>
					<path fill="#FEFB39" d="M-179.325-325.833c0.125-0.111,0.313-0.104,0.425,0.021l2.323,2.58c0.111,0.125,0.103,0.318-0.021,0.43
						l-5.98,5.475c-0.125,0.11-0.313,0.103-0.421-0.021l-2.302-2.598c-0.111-0.125-0.099-0.318,0.021-0.43L-179.325-325.833z"/>
				</g>
				<g>
					<path fill="#FEFB39" d="M-178.406-310.694c0.111,0.124,0.099,0.318-0.026,0.43l-2.872,2.589
						c-0.124,0.111-0.313,0.099-0.425-0.026l-7.539-8.518c-0.112-0.125-0.099-0.318,0.021-0.43l2.856-2.61
						c0.124-0.111,0.313-0.104,0.425,0.021L-178.406-310.694z"/>
				</g>
			</g>
		</g>
	</g>
</g>
</svg>
